<?xml version="1.0" encoding="utf-8" standalone="no"?>
<!DOCTYPE svg PUBLIC "-//W3C//DTD SVG 1.1//EN"
  "http://www.w3.org/Graphics/SVG/1.1/DTD/svg11.dtd">
<!-- Created with matplotlib (https://matplotlib.org/) -->
<svg height="648pt" version="1.1" viewBox="0 0 1080 648" width="1080pt" xmlns="http://www.w3.org/2000/svg" xmlns:xlink="http://www.w3.org/1999/xlink">
 <metadata>
  <rdf:RDF xmlns:cc="http://creativecommons.org/ns#" xmlns:dc="http://purl.org/dc/elements/1.1/" xmlns:rdf="http://www.w3.org/1999/02/22-rdf-syntax-ns#">
   <cc:Work>
    <dc:type rdf:resource="http://purl.org/dc/dcmitype/StillImage"/>
    <dc:date>2020-11-20T17:15:00.891752</dc:date>
    <dc:format>image/svg+xml</dc:format>
    <dc:creator>
     <cc:Agent>
      <dc:title>Matplotlib v3.3.2, https://matplotlib.org/</dc:title>
     </cc:Agent>
    </dc:creator>
   </cc:Work>
  </rdf:RDF>
 </metadata>
 <defs>
  <style type="text/css">*{stroke-linecap:butt;stroke-linejoin:round;}</style>
 </defs>
 <g id="figure_1">
  <g id="patch_1">
   <path d="M 0 648 
L 1080 648 
L 1080 0 
L 0 0 
z
" style="fill:none;"/>
  </g>
  <g id="axes_1">
   <g id="patch_2">
    <path d="M 135 567 
L 972 567 
L 972 77.76 
L 135 77.76 
z
" style="fill:#ffffff;"/>
   </g>
   <g id="matplotlib.axis_1">
    <g id="xtick_1">
     <g id="line2d_1">
      <defs>
       <path d="M 0 0 
L 0 3.5 
" id="m71c4c70475" style="stroke:#000000;stroke-width:0.8;"/>
      </defs>
      <g>
       <use style="stroke:#000000;stroke-width:0.8;" x="173.045455" xlink:href="#m71c4c70475" y="567"/>
      </g>
     </g>
     <g id="text_1">
      <!-- 0 -->
      <g transform="translate(168.27358 585.397656)scale(0.15 -0.15)">
       <defs>
        <path d="M 31.78125 66.40625 
Q 24.171875 66.40625 20.328125 58.90625 
Q 16.5 51.421875 16.5 36.375 
Q 16.5 21.390625 20.328125 13.890625 
Q 24.171875 6.390625 31.78125 6.390625 
Q 39.453125 6.390625 43.28125 13.890625 
Q 47.125 21.390625 47.125 36.375 
Q 47.125 51.421875 43.28125 58.90625 
Q 39.453125 66.40625 31.78125 66.40625 
z
M 31.78125 74.21875 
Q 44.046875 74.21875 50.515625 64.515625 
Q 56.984375 54.828125 56.984375 36.375 
Q 56.984375 17.96875 50.515625 8.265625 
Q 44.046875 -1.421875 31.78125 -1.421875 
Q 19.53125 -1.421875 13.0625 8.265625 
Q 6.59375 17.96875 6.59375 36.375 
Q 6.59375 54.828125 13.0625 64.515625 
Q 19.53125 74.21875 31.78125 74.21875 
z
" id="DejaVuSans-48"/>
       </defs>
       <use xlink:href="#DejaVuSans-48"/>
      </g>
     </g>
    </g>
    <g id="xtick_2">
     <g id="line2d_2">
      <g>
       <use style="stroke:#000000;stroke-width:0.8;" x="268.2543" xlink:href="#m71c4c70475" y="567"/>
      </g>
     </g>
     <g id="text_2">
      <!-- 2500 -->
      <g transform="translate(249.1668 585.397656)scale(0.15 -0.15)">
       <defs>
        <path d="M 19.1875 8.296875 
L 53.609375 8.296875 
L 53.609375 0 
L 7.328125 0 
L 7.328125 8.296875 
Q 12.9375 14.109375 22.625 23.890625 
Q 32.328125 33.6875 34.8125 36.53125 
Q 39.546875 41.84375 41.421875 45.53125 
Q 43.3125 49.21875 43.3125 52.78125 
Q 43.3125 58.59375 39.234375 62.25 
Q 35.15625 65.921875 28.609375 65.921875 
Q 23.96875 65.921875 18.8125 64.3125 
Q 13.671875 62.703125 7.8125 59.421875 
L 7.8125 69.390625 
Q 13.765625 71.78125 18.9375 73 
Q 24.125 74.21875 28.421875 74.21875 
Q 39.75 74.21875 46.484375 68.546875 
Q 53.21875 62.890625 53.21875 53.421875 
Q 53.21875 48.921875 51.53125 44.890625 
Q 49.859375 40.875 45.40625 35.40625 
Q 44.1875 33.984375 37.640625 27.21875 
Q 31.109375 20.453125 19.1875 8.296875 
z
" id="DejaVuSans-50"/>
        <path d="M 10.796875 72.90625 
L 49.515625 72.90625 
L 49.515625 64.59375 
L 19.828125 64.59375 
L 19.828125 46.734375 
Q 21.96875 47.46875 24.109375 47.828125 
Q 26.265625 48.1875 28.421875 48.1875 
Q 40.625 48.1875 47.75 41.5 
Q 54.890625 34.8125 54.890625 23.390625 
Q 54.890625 11.625 47.5625 5.09375 
Q 40.234375 -1.421875 26.90625 -1.421875 
Q 22.3125 -1.421875 17.546875 -0.640625 
Q 12.796875 0.140625 7.71875 1.703125 
L 7.71875 11.625 
Q 12.109375 9.234375 16.796875 8.0625 
Q 21.484375 6.890625 26.703125 6.890625 
Q 35.15625 6.890625 40.078125 11.328125 
Q 45.015625 15.765625 45.015625 23.390625 
Q 45.015625 31 40.078125 35.4375 
Q 35.15625 39.890625 26.703125 39.890625 
Q 22.75 39.890625 18.8125 39.015625 
Q 14.890625 38.140625 10.796875 36.28125 
z
" id="DejaVuSans-53"/>
       </defs>
       <use xlink:href="#DejaVuSans-50"/>
       <use x="63.623047" xlink:href="#DejaVuSans-53"/>
       <use x="127.246094" xlink:href="#DejaVuSans-48"/>
       <use x="190.869141" xlink:href="#DejaVuSans-48"/>
      </g>
     </g>
    </g>
    <g id="xtick_3">
     <g id="line2d_3">
      <g>
       <use style="stroke:#000000;stroke-width:0.8;" x="363.463145" xlink:href="#m71c4c70475" y="567"/>
      </g>
     </g>
     <g id="text_3">
      <!-- 5000 -->
      <g transform="translate(344.375645 585.397656)scale(0.15 -0.15)">
       <use xlink:href="#DejaVuSans-53"/>
       <use x="63.623047" xlink:href="#DejaVuSans-48"/>
       <use x="127.246094" xlink:href="#DejaVuSans-48"/>
       <use x="190.869141" xlink:href="#DejaVuSans-48"/>
      </g>
     </g>
    </g>
    <g id="xtick_4">
     <g id="line2d_4">
      <g>
       <use style="stroke:#000000;stroke-width:0.8;" x="458.67199" xlink:href="#m71c4c70475" y="567"/>
      </g>
     </g>
     <g id="text_4">
      <!-- 7500 -->
      <g transform="translate(439.58449 585.397656)scale(0.15 -0.15)">
       <defs>
        <path d="M 8.203125 72.90625 
L 55.078125 72.90625 
L 55.078125 68.703125 
L 28.609375 0 
L 18.3125 0 
L 43.21875 64.59375 
L 8.203125 64.59375 
z
" id="DejaVuSans-55"/>
       </defs>
       <use xlink:href="#DejaVuSans-55"/>
       <use x="63.623047" xlink:href="#DejaVuSans-53"/>
       <use x="127.246094" xlink:href="#DejaVuSans-48"/>
       <use x="190.869141" xlink:href="#DejaVuSans-48"/>
      </g>
     </g>
    </g>
    <g id="xtick_5">
     <g id="line2d_5">
      <g>
       <use style="stroke:#000000;stroke-width:0.8;" x="553.880835" xlink:href="#m71c4c70475" y="567"/>
      </g>
     </g>
     <g id="text_5">
      <!-- 10000 -->
      <g transform="translate(530.02146 585.397656)scale(0.15 -0.15)">
       <defs>
        <path d="M 12.40625 8.296875 
L 28.515625 8.296875 
L 28.515625 63.921875 
L 10.984375 60.40625 
L 10.984375 69.390625 
L 28.421875 72.90625 
L 38.28125 72.90625 
L 38.28125 8.296875 
L 54.390625 8.296875 
L 54.390625 0 
L 12.40625 0 
z
" id="DejaVuSans-49"/>
       </defs>
       <use xlink:href="#DejaVuSans-49"/>
       <use x="63.623047" xlink:href="#DejaVuSans-48"/>
       <use x="127.246094" xlink:href="#DejaVuSans-48"/>
       <use x="190.869141" xlink:href="#DejaVuSans-48"/>
       <use x="254.492188" xlink:href="#DejaVuSans-48"/>
      </g>
     </g>
    </g>
    <g id="xtick_6">
     <g id="line2d_6">
      <g>
       <use style="stroke:#000000;stroke-width:0.8;" x="649.089681" xlink:href="#m71c4c70475" y="567"/>
      </g>
     </g>
     <g id="text_6">
      <!-- 12500 -->
      <g transform="translate(625.230306 585.397656)scale(0.15 -0.15)">
       <use xlink:href="#DejaVuSans-49"/>
       <use x="63.623047" xlink:href="#DejaVuSans-50"/>
       <use x="127.246094" xlink:href="#DejaVuSans-53"/>
       <use x="190.869141" xlink:href="#DejaVuSans-48"/>
       <use x="254.492188" xlink:href="#DejaVuSans-48"/>
      </g>
     </g>
    </g>
    <g id="xtick_7">
     <g id="line2d_7">
      <g>
       <use style="stroke:#000000;stroke-width:0.8;" x="744.298526" xlink:href="#m71c4c70475" y="567"/>
      </g>
     </g>
     <g id="text_7">
      <!-- 15000 -->
      <g transform="translate(720.439151 585.397656)scale(0.15 -0.15)">
       <use xlink:href="#DejaVuSans-49"/>
       <use x="63.623047" xlink:href="#DejaVuSans-53"/>
       <use x="127.246094" xlink:href="#DejaVuSans-48"/>
       <use x="190.869141" xlink:href="#DejaVuSans-48"/>
       <use x="254.492188" xlink:href="#DejaVuSans-48"/>
      </g>
     </g>
    </g>
    <g id="xtick_8">
     <g id="line2d_8">
      <g>
       <use style="stroke:#000000;stroke-width:0.8;" x="839.507371" xlink:href="#m71c4c70475" y="567"/>
      </g>
     </g>
     <g id="text_8">
      <!-- 17500 -->
      <g transform="translate(815.647996 585.397656)scale(0.15 -0.15)">
       <use xlink:href="#DejaVuSans-49"/>
       <use x="63.623047" xlink:href="#DejaVuSans-55"/>
       <use x="127.246094" xlink:href="#DejaVuSans-53"/>
       <use x="190.869141" xlink:href="#DejaVuSans-48"/>
       <use x="254.492188" xlink:href="#DejaVuSans-48"/>
      </g>
     </g>
    </g>
    <g id="xtick_9">
     <g id="line2d_9">
      <g>
       <use style="stroke:#000000;stroke-width:0.8;" x="934.716216" xlink:href="#m71c4c70475" y="567"/>
      </g>
     </g>
     <g id="text_9">
      <!-- 20000 -->
      <g transform="translate(910.856841 585.397656)scale(0.15 -0.15)">
       <use xlink:href="#DejaVuSans-50"/>
       <use x="63.623047" xlink:href="#DejaVuSans-48"/>
       <use x="127.246094" xlink:href="#DejaVuSans-48"/>
       <use x="190.869141" xlink:href="#DejaVuSans-48"/>
       <use x="254.492188" xlink:href="#DejaVuSans-48"/>
      </g>
     </g>
    </g>
    <g id="text_10">
     <!-- Iterations -->
     <g transform="translate(510.636094 606.194375)scale(0.18 -0.18)">
      <defs>
       <path d="M 9.8125 72.90625 
L 19.671875 72.90625 
L 19.671875 0 
L 9.8125 0 
z
" id="DejaVuSans-73"/>
       <path d="M 18.3125 70.21875 
L 18.3125 54.6875 
L 36.8125 54.6875 
L 36.8125 47.703125 
L 18.3125 47.703125 
L 18.3125 18.015625 
Q 18.3125 11.328125 20.140625 9.421875 
Q 21.96875 7.515625 27.59375 7.515625 
L 36.8125 7.515625 
L 36.8125 0 
L 27.59375 0 
Q 17.1875 0 13.234375 3.875 
Q 9.28125 7.765625 9.28125 18.015625 
L 9.28125 47.703125 
L 2.6875 47.703125 
L 2.6875 54.6875 
L 9.28125 54.6875 
L 9.28125 70.21875 
z
" id="DejaVuSans-116"/>
       <path d="M 56.203125 29.59375 
L 56.203125 25.203125 
L 14.890625 25.203125 
Q 15.484375 15.921875 20.484375 11.0625 
Q 25.484375 6.203125 34.421875 6.203125 
Q 39.59375 6.203125 44.453125 7.46875 
Q 49.3125 8.734375 54.109375 11.28125 
L 54.109375 2.78125 
Q 49.265625 0.734375 44.1875 -0.34375 
Q 39.109375 -1.421875 33.890625 -1.421875 
Q 20.796875 -1.421875 13.15625 6.1875 
Q 5.515625 13.8125 5.515625 26.8125 
Q 5.515625 40.234375 12.765625 48.109375 
Q 20.015625 56 32.328125 56 
Q 43.359375 56 49.78125 48.890625 
Q 56.203125 41.796875 56.203125 29.59375 
z
M 47.21875 32.234375 
Q 47.125 39.59375 43.09375 43.984375 
Q 39.0625 48.390625 32.421875 48.390625 
Q 24.90625 48.390625 20.390625 44.140625 
Q 15.875 39.890625 15.1875 32.171875 
z
" id="DejaVuSans-101"/>
       <path d="M 41.109375 46.296875 
Q 39.59375 47.171875 37.8125 47.578125 
Q 36.03125 48 33.890625 48 
Q 26.265625 48 22.1875 43.046875 
Q 18.109375 38.09375 18.109375 28.8125 
L 18.109375 0 
L 9.078125 0 
L 9.078125 54.6875 
L 18.109375 54.6875 
L 18.109375 46.1875 
Q 20.953125 51.171875 25.484375 53.578125 
Q 30.03125 56 36.53125 56 
Q 37.453125 56 38.578125 55.875 
Q 39.703125 55.765625 41.0625 55.515625 
z
" id="DejaVuSans-114"/>
       <path d="M 34.28125 27.484375 
Q 23.390625 27.484375 19.1875 25 
Q 14.984375 22.515625 14.984375 16.5 
Q 14.984375 11.71875 18.140625 8.90625 
Q 21.296875 6.109375 26.703125 6.109375 
Q 34.1875 6.109375 38.703125 11.40625 
Q 43.21875 16.703125 43.21875 25.484375 
L 43.21875 27.484375 
z
M 52.203125 31.203125 
L 52.203125 0 
L 43.21875 0 
L 43.21875 8.296875 
Q 40.140625 3.328125 35.546875 0.953125 
Q 30.953125 -1.421875 24.3125 -1.421875 
Q 15.921875 -1.421875 10.953125 3.296875 
Q 6 8.015625 6 15.921875 
Q 6 25.140625 12.171875 29.828125 
Q 18.359375 34.515625 30.609375 34.515625 
L 43.21875 34.515625 
L 43.21875 35.40625 
Q 43.21875 41.609375 39.140625 45 
Q 35.0625 48.390625 27.6875 48.390625 
Q 23 48.390625 18.546875 47.265625 
Q 14.109375 46.140625 10.015625 43.890625 
L 10.015625 52.203125 
Q 14.9375 54.109375 19.578125 55.046875 
Q 24.21875 56 28.609375 56 
Q 40.484375 56 46.34375 49.84375 
Q 52.203125 43.703125 52.203125 31.203125 
z
" id="DejaVuSans-97"/>
       <path d="M 9.421875 54.6875 
L 18.40625 54.6875 
L 18.40625 0 
L 9.421875 0 
z
M 9.421875 75.984375 
L 18.40625 75.984375 
L 18.40625 64.59375 
L 9.421875 64.59375 
z
" id="DejaVuSans-105"/>
       <path d="M 30.609375 48.390625 
Q 23.390625 48.390625 19.1875 42.75 
Q 14.984375 37.109375 14.984375 27.296875 
Q 14.984375 17.484375 19.15625 11.84375 
Q 23.34375 6.203125 30.609375 6.203125 
Q 37.796875 6.203125 41.984375 11.859375 
Q 46.1875 17.53125 46.1875 27.296875 
Q 46.1875 37.015625 41.984375 42.703125 
Q 37.796875 48.390625 30.609375 48.390625 
z
M 30.609375 56 
Q 42.328125 56 49.015625 48.375 
Q 55.71875 40.765625 55.71875 27.296875 
Q 55.71875 13.875 49.015625 6.21875 
Q 42.328125 -1.421875 30.609375 -1.421875 
Q 18.84375 -1.421875 12.171875 6.21875 
Q 5.515625 13.875 5.515625 27.296875 
Q 5.515625 40.765625 12.171875 48.375 
Q 18.84375 56 30.609375 56 
z
" id="DejaVuSans-111"/>
       <path d="M 54.890625 33.015625 
L 54.890625 0 
L 45.90625 0 
L 45.90625 32.71875 
Q 45.90625 40.484375 42.875 44.328125 
Q 39.84375 48.1875 33.796875 48.1875 
Q 26.515625 48.1875 22.3125 43.546875 
Q 18.109375 38.921875 18.109375 30.90625 
L 18.109375 0 
L 9.078125 0 
L 9.078125 54.6875 
L 18.109375 54.6875 
L 18.109375 46.1875 
Q 21.34375 51.125 25.703125 53.5625 
Q 30.078125 56 35.796875 56 
Q 45.21875 56 50.046875 50.171875 
Q 54.890625 44.34375 54.890625 33.015625 
z
" id="DejaVuSans-110"/>
       <path d="M 44.28125 53.078125 
L 44.28125 44.578125 
Q 40.484375 46.53125 36.375 47.5 
Q 32.28125 48.484375 27.875 48.484375 
Q 21.1875 48.484375 17.84375 46.4375 
Q 14.5 44.390625 14.5 40.28125 
Q 14.5 37.15625 16.890625 35.375 
Q 19.28125 33.59375 26.515625 31.984375 
L 29.59375 31.296875 
Q 39.15625 29.25 43.1875 25.515625 
Q 47.21875 21.78125 47.21875 15.09375 
Q 47.21875 7.46875 41.1875 3.015625 
Q 35.15625 -1.421875 24.609375 -1.421875 
Q 20.21875 -1.421875 15.453125 -0.5625 
Q 10.6875 0.296875 5.421875 2 
L 5.421875 11.28125 
Q 10.40625 8.6875 15.234375 7.390625 
Q 20.0625 6.109375 24.8125 6.109375 
Q 31.15625 6.109375 34.5625 8.28125 
Q 37.984375 10.453125 37.984375 14.40625 
Q 37.984375 18.0625 35.515625 20.015625 
Q 33.0625 21.96875 24.703125 23.78125 
L 21.578125 24.515625 
Q 13.234375 26.265625 9.515625 29.90625 
Q 5.8125 33.546875 5.8125 39.890625 
Q 5.8125 47.609375 11.28125 51.796875 
Q 16.75 56 26.8125 56 
Q 31.78125 56 36.171875 55.265625 
Q 40.578125 54.546875 44.28125 53.078125 
z
" id="DejaVuSans-115"/>
      </defs>
      <use xlink:href="#DejaVuSans-73"/>
      <use x="29.492188" xlink:href="#DejaVuSans-116"/>
      <use x="68.701172" xlink:href="#DejaVuSans-101"/>
      <use x="130.224609" xlink:href="#DejaVuSans-114"/>
      <use x="171.337891" xlink:href="#DejaVuSans-97"/>
      <use x="232.617188" xlink:href="#DejaVuSans-116"/>
      <use x="271.826172" xlink:href="#DejaVuSans-105"/>
      <use x="299.609375" xlink:href="#DejaVuSans-111"/>
      <use x="360.791016" xlink:href="#DejaVuSans-110"/>
      <use x="424.169922" xlink:href="#DejaVuSans-115"/>
     </g>
    </g>
   </g>
   <g id="matplotlib.axis_2">
    <g id="ytick_1">
     <g id="line2d_10">
      <defs>
       <path d="M 0 0 
L -3.5 0 
" id="m7152cc682e" style="stroke:#000000;stroke-width:0.8;"/>
      </defs>
      <g>
       <use style="stroke:#000000;stroke-width:0.8;" x="135" xlink:href="#m7152cc682e" y="561.021994"/>
      </g>
     </g>
     <g id="text_11">
      <!-- 0.15 -->
      <g transform="translate(94.601562 566.720822)scale(0.15 -0.15)">
       <defs>
        <path d="M 10.6875 12.40625 
L 21 12.40625 
L 21 0 
L 10.6875 0 
z
" id="DejaVuSans-46"/>
       </defs>
       <use xlink:href="#DejaVuSans-48"/>
       <use x="63.623047" xlink:href="#DejaVuSans-46"/>
       <use x="95.410156" xlink:href="#DejaVuSans-49"/>
       <use x="159.033203" xlink:href="#DejaVuSans-53"/>
      </g>
     </g>
    </g>
    <g id="ytick_2">
     <g id="line2d_11">
      <g>
       <use style="stroke:#000000;stroke-width:0.8;" x="135" xlink:href="#m7152cc682e" y="497.894252"/>
      </g>
     </g>
     <g id="text_12">
      <!-- 0.20 -->
      <g transform="translate(94.601562 503.59308)scale(0.15 -0.15)">
       <use xlink:href="#DejaVuSans-48"/>
       <use x="63.623047" xlink:href="#DejaVuSans-46"/>
       <use x="95.410156" xlink:href="#DejaVuSans-50"/>
       <use x="159.033203" xlink:href="#DejaVuSans-48"/>
      </g>
     </g>
    </g>
    <g id="ytick_3">
     <g id="line2d_12">
      <g>
       <use style="stroke:#000000;stroke-width:0.8;" x="135" xlink:href="#m7152cc682e" y="434.76651"/>
      </g>
     </g>
     <g id="text_13">
      <!-- 0.25 -->
      <g transform="translate(94.601562 440.465338)scale(0.15 -0.15)">
       <use xlink:href="#DejaVuSans-48"/>
       <use x="63.623047" xlink:href="#DejaVuSans-46"/>
       <use x="95.410156" xlink:href="#DejaVuSans-50"/>
       <use x="159.033203" xlink:href="#DejaVuSans-53"/>
      </g>
     </g>
    </g>
    <g id="ytick_4">
     <g id="line2d_13">
      <g>
       <use style="stroke:#000000;stroke-width:0.8;" x="135" xlink:href="#m7152cc682e" y="371.638768"/>
      </g>
     </g>
     <g id="text_14">
      <!-- 0.30 -->
      <g transform="translate(94.601562 377.337596)scale(0.15 -0.15)">
       <defs>
        <path d="M 40.578125 39.3125 
Q 47.65625 37.796875 51.625 33 
Q 55.609375 28.21875 55.609375 21.1875 
Q 55.609375 10.40625 48.1875 4.484375 
Q 40.765625 -1.421875 27.09375 -1.421875 
Q 22.515625 -1.421875 17.65625 -0.515625 
Q 12.796875 0.390625 7.625 2.203125 
L 7.625 11.71875 
Q 11.71875 9.328125 16.59375 8.109375 
Q 21.484375 6.890625 26.8125 6.890625 
Q 36.078125 6.890625 40.9375 10.546875 
Q 45.796875 14.203125 45.796875 21.1875 
Q 45.796875 27.640625 41.28125 31.265625 
Q 36.765625 34.90625 28.71875 34.90625 
L 20.21875 34.90625 
L 20.21875 43.015625 
L 29.109375 43.015625 
Q 36.375 43.015625 40.234375 45.921875 
Q 44.09375 48.828125 44.09375 54.296875 
Q 44.09375 59.90625 40.109375 62.90625 
Q 36.140625 65.921875 28.71875 65.921875 
Q 24.65625 65.921875 20.015625 65.03125 
Q 15.375 64.15625 9.8125 62.3125 
L 9.8125 71.09375 
Q 15.4375 72.65625 20.34375 73.4375 
Q 25.25 74.21875 29.59375 74.21875 
Q 40.828125 74.21875 47.359375 69.109375 
Q 53.90625 64.015625 53.90625 55.328125 
Q 53.90625 49.265625 50.4375 45.09375 
Q 46.96875 40.921875 40.578125 39.3125 
z
" id="DejaVuSans-51"/>
       </defs>
       <use xlink:href="#DejaVuSans-48"/>
       <use x="63.623047" xlink:href="#DejaVuSans-46"/>
       <use x="95.410156" xlink:href="#DejaVuSans-51"/>
       <use x="159.033203" xlink:href="#DejaVuSans-48"/>
      </g>
     </g>
    </g>
    <g id="ytick_5">
     <g id="line2d_14">
      <g>
       <use style="stroke:#000000;stroke-width:0.8;" x="135" xlink:href="#m7152cc682e" y="308.511026"/>
      </g>
     </g>
     <g id="text_15">
      <!-- 0.35 -->
      <g transform="translate(94.601562 314.209855)scale(0.15 -0.15)">
       <use xlink:href="#DejaVuSans-48"/>
       <use x="63.623047" xlink:href="#DejaVuSans-46"/>
       <use x="95.410156" xlink:href="#DejaVuSans-51"/>
       <use x="159.033203" xlink:href="#DejaVuSans-53"/>
      </g>
     </g>
    </g>
    <g id="ytick_6">
     <g id="line2d_15">
      <g>
       <use style="stroke:#000000;stroke-width:0.8;" x="135" xlink:href="#m7152cc682e" y="245.383284"/>
      </g>
     </g>
     <g id="text_16">
      <!-- 0.40 -->
      <g transform="translate(94.601562 251.082113)scale(0.15 -0.15)">
       <defs>
        <path d="M 37.796875 64.3125 
L 12.890625 25.390625 
L 37.796875 25.390625 
z
M 35.203125 72.90625 
L 47.609375 72.90625 
L 47.609375 25.390625 
L 58.015625 25.390625 
L 58.015625 17.1875 
L 47.609375 17.1875 
L 47.609375 0 
L 37.796875 0 
L 37.796875 17.1875 
L 4.890625 17.1875 
L 4.890625 26.703125 
z
" id="DejaVuSans-52"/>
       </defs>
       <use xlink:href="#DejaVuSans-48"/>
       <use x="63.623047" xlink:href="#DejaVuSans-46"/>
       <use x="95.410156" xlink:href="#DejaVuSans-52"/>
       <use x="159.033203" xlink:href="#DejaVuSans-48"/>
      </g>
     </g>
    </g>
    <g id="ytick_7">
     <g id="line2d_16">
      <g>
       <use style="stroke:#000000;stroke-width:0.8;" x="135" xlink:href="#m7152cc682e" y="182.255543"/>
      </g>
     </g>
     <g id="text_17">
      <!-- 0.45 -->
      <g transform="translate(94.601562 187.954371)scale(0.15 -0.15)">
       <use xlink:href="#DejaVuSans-48"/>
       <use x="63.623047" xlink:href="#DejaVuSans-46"/>
       <use x="95.410156" xlink:href="#DejaVuSans-52"/>
       <use x="159.033203" xlink:href="#DejaVuSans-53"/>
      </g>
     </g>
    </g>
    <g id="ytick_8">
     <g id="line2d_17">
      <g>
       <use style="stroke:#000000;stroke-width:0.8;" x="135" xlink:href="#m7152cc682e" y="119.127801"/>
      </g>
     </g>
     <g id="text_18">
      <!-- 0.50 -->
      <g transform="translate(94.601562 124.826629)scale(0.15 -0.15)">
       <use xlink:href="#DejaVuSans-48"/>
       <use x="63.623047" xlink:href="#DejaVuSans-46"/>
       <use x="95.410156" xlink:href="#DejaVuSans-53"/>
       <use x="159.033203" xlink:href="#DejaVuSans-48"/>
      </g>
     </g>
    </g>
    <g id="text_19">
     <!-- Test Error (MSE) -->
     <g transform="translate(86.858125 393.944062)rotate(-90)scale(0.18 -0.18)">
      <defs>
       <path d="M -0.296875 72.90625 
L 61.375 72.90625 
L 61.375 64.59375 
L 35.5 64.59375 
L 35.5 0 
L 25.59375 0 
L 25.59375 64.59375 
L -0.296875 64.59375 
z
" id="DejaVuSans-84"/>
       <path id="DejaVuSans-32"/>
       <path d="M 9.8125 72.90625 
L 55.90625 72.90625 
L 55.90625 64.59375 
L 19.671875 64.59375 
L 19.671875 43.015625 
L 54.390625 43.015625 
L 54.390625 34.71875 
L 19.671875 34.71875 
L 19.671875 8.296875 
L 56.78125 8.296875 
L 56.78125 0 
L 9.8125 0 
z
" id="DejaVuSans-69"/>
       <path d="M 31 75.875 
Q 24.46875 64.65625 21.28125 53.65625 
Q 18.109375 42.671875 18.109375 31.390625 
Q 18.109375 20.125 21.3125 9.0625 
Q 24.515625 -2 31 -13.1875 
L 23.1875 -13.1875 
Q 15.875 -1.703125 12.234375 9.375 
Q 8.59375 20.453125 8.59375 31.390625 
Q 8.59375 42.28125 12.203125 53.3125 
Q 15.828125 64.359375 23.1875 75.875 
z
" id="DejaVuSans-40"/>
       <path d="M 9.8125 72.90625 
L 24.515625 72.90625 
L 43.109375 23.296875 
L 61.8125 72.90625 
L 76.515625 72.90625 
L 76.515625 0 
L 66.890625 0 
L 66.890625 64.015625 
L 48.09375 14.015625 
L 38.1875 14.015625 
L 19.390625 64.015625 
L 19.390625 0 
L 9.8125 0 
z
" id="DejaVuSans-77"/>
       <path d="M 53.515625 70.515625 
L 53.515625 60.890625 
Q 47.90625 63.578125 42.921875 64.890625 
Q 37.9375 66.21875 33.296875 66.21875 
Q 25.25 66.21875 20.875 63.09375 
Q 16.5 59.96875 16.5 54.203125 
Q 16.5 49.359375 19.40625 46.890625 
Q 22.3125 44.4375 30.421875 42.921875 
L 36.375 41.703125 
Q 47.40625 39.59375 52.65625 34.296875 
Q 57.90625 29 57.90625 20.125 
Q 57.90625 9.515625 50.796875 4.046875 
Q 43.703125 -1.421875 29.984375 -1.421875 
Q 24.8125 -1.421875 18.96875 -0.25 
Q 13.140625 0.921875 6.890625 3.21875 
L 6.890625 13.375 
Q 12.890625 10.015625 18.65625 8.296875 
Q 24.421875 6.59375 29.984375 6.59375 
Q 38.421875 6.59375 43.015625 9.90625 
Q 47.609375 13.234375 47.609375 19.390625 
Q 47.609375 24.75 44.3125 27.78125 
Q 41.015625 30.8125 33.5 32.328125 
L 27.484375 33.5 
Q 16.453125 35.6875 11.515625 40.375 
Q 6.59375 45.0625 6.59375 53.421875 
Q 6.59375 63.09375 13.40625 68.65625 
Q 20.21875 74.21875 32.171875 74.21875 
Q 37.3125 74.21875 42.625 73.28125 
Q 47.953125 72.359375 53.515625 70.515625 
z
" id="DejaVuSans-83"/>
       <path d="M 8.015625 75.875 
L 15.828125 75.875 
Q 23.140625 64.359375 26.78125 53.3125 
Q 30.421875 42.28125 30.421875 31.390625 
Q 30.421875 20.453125 26.78125 9.375 
Q 23.140625 -1.703125 15.828125 -13.1875 
L 8.015625 -13.1875 
Q 14.5 -2 17.703125 9.0625 
Q 20.90625 20.125 20.90625 31.390625 
Q 20.90625 42.671875 17.703125 53.65625 
Q 14.5 64.65625 8.015625 75.875 
z
" id="DejaVuSans-41"/>
      </defs>
      <use xlink:href="#DejaVuSans-84"/>
      <use x="44.083984" xlink:href="#DejaVuSans-101"/>
      <use x="105.607422" xlink:href="#DejaVuSans-115"/>
      <use x="157.707031" xlink:href="#DejaVuSans-116"/>
      <use x="196.916016" xlink:href="#DejaVuSans-32"/>
      <use x="228.703125" xlink:href="#DejaVuSans-69"/>
      <use x="291.886719" xlink:href="#DejaVuSans-114"/>
      <use x="331.25" xlink:href="#DejaVuSans-114"/>
      <use x="370.113281" xlink:href="#DejaVuSans-111"/>
      <use x="431.294922" xlink:href="#DejaVuSans-114"/>
      <use x="472.408203" xlink:href="#DejaVuSans-32"/>
      <use x="504.195312" xlink:href="#DejaVuSans-40"/>
      <use x="543.208984" xlink:href="#DejaVuSans-77"/>
      <use x="629.488281" xlink:href="#DejaVuSans-83"/>
      <use x="692.964844" xlink:href="#DejaVuSans-69"/>
      <use x="756.148438" xlink:href="#DejaVuSans-41"/>
     </g>
    </g>
   </g>
   <g id="line2d_18">
    <path clip-path="url(#p09db3ae657)" d="M 173.045455 123.910205 
L 173.807125 162.169443 
L 174.568796 186.081466 
L 175.330467 300.859179 
L 176.092138 296.076774 
L 176.853808 339.118416 
L 177.615479 324.771202 
L 178.37715 382.160059 
L 179.138821 401.289677 
L 179.900491 343.900821 
L 181.423833 425.201701 
L 182.185504 434.76651 
L 182.947174 439.548915 
L 183.708845 434.76651 
L 185.993857 434.76651 
L 186.755528 439.548915 
L 188.27887 458.678534 
L 189.040541 477.808152 
L 189.802211 463.460938 
L 190.563882 477.808152 
L 191.325553 473.025748 
L 192.087224 477.808152 
L 192.848894 477.808152 
L 194.372236 487.372962 
L 196.657248 487.372962 
L 197.418919 482.590557 
L 198.18059 487.372962 
L 199.703931 487.372962 
L 200.465602 482.590557 
L 201.227273 487.372962 
L 201.988943 477.808152 
L 202.750614 487.372962 
L 203.512285 487.372962 
L 204.273956 477.808152 
L 205.035627 492.155367 
L 207.320639 492.155367 
L 208.08231 482.590557 
L 208.84398 487.372962 
L 209.605651 482.590557 
L 210.367322 496.937771 
L 211.890663 487.372962 
L 212.652334 487.372962 
L 213.414005 492.155367 
L 216.460688 492.155367 
L 217.222359 487.372962 
L 217.984029 492.155367 
L 218.7457 492.155367 
L 219.507371 487.372962 
L 223.315725 487.372962 
L 224.077396 492.155367 
L 224.839066 487.372962 
L 225.600737 492.155367 
L 227.885749 492.155367 
L 228.64742 487.372962 
L 229.409091 492.155367 
L 230.170762 487.372962 
L 230.932432 487.372962 
L 231.694103 492.155367 
L 232.455774 487.372962 
L 249.974201 487.372962 
L 250.735872 492.155367 
L 251.497543 487.372962 
L 313.954545 487.372962 
L 315.477887 496.937771 
L 317.001229 496.937771 
L 317.762899 492.155367 
L 318.52457 496.937771 
L 319.286241 492.155367 
L 641.472973 492.155367 
L 642.234644 487.372962 
L 646.804668 487.372962 
L 647.566339 482.590557 
L 649.851351 482.590557 
L 650.613022 487.372962 
L 665.846437 487.372962 
L 666.608108 492.155367 
L 675.748157 492.155367 
L 677.271499 482.590557 
L 690.219902 482.590557 
L 690.981572 487.372962 
L 694.789926 487.372962 
L 695.551597 482.590557 
L 703.168305 482.590557 
L 703.929975 487.372962 
L 704.691646 482.590557 
L 933.954545 482.590557 
L 933.954545 482.590557 
" style="fill:none;stroke:#ff0000;stroke-linecap:square;"/>
   </g>
   <g id="line2d_19">
    <path clip-path="url(#p09db3ae657)" d="M 173.045455 114.345396 
L 173.807125 143.039824 
L 174.568796 200.42868 
L 175.330467 281.72956 
L 176.092138 291.29437 
L 176.853808 257.817537 
L 178.37715 319.988798 
L 179.138821 329.553607 
L 179.900491 353.46563 
L 180.662162 348.683226 
L 181.423833 353.46563 
L 182.185504 367.812845 
L 182.947174 377.377654 
L 183.708845 358.248035 
L 184.470516 377.377654 
L 185.232187 391.724868 
L 185.993857 401.289677 
L 186.755528 401.289677 
L 188.27887 410.854487 
L 189.040541 401.289677 
L 189.802211 415.636891 
L 192.087224 415.636891 
L 192.848894 420.419296 
L 193.610565 406.072082 
L 194.372236 420.419296 
L 195.133907 410.854487 
L 195.895577 415.636891 
L 196.657248 425.201701 
L 197.418919 425.201701 
L 198.18059 420.419296 
L 198.94226 410.854487 
L 200.465602 420.419296 
L 201.988943 420.419296 
L 202.750614 415.636891 
L 204.273956 425.201701 
L 206.558968 425.201701 
L 208.08231 415.636891 
L 210.367322 415.636891 
L 211.128993 420.419296 
L 211.890663 410.854487 
L 212.652334 420.419296 
L 213.414005 420.419296 
L 214.175676 425.201701 
L 214.937346 420.419296 
L 215.699017 425.201701 
L 216.460688 420.419296 
L 219.507371 420.419296 
L 220.269042 415.636891 
L 236.264128 415.636891 
L 237.025799 410.854487 
L 238.54914 410.854487 
L 239.310811 406.072082 
L 240.072482 410.854487 
L 246.927518 410.854487 
L 247.689189 401.289677 
L 249.212531 401.289677 
L 249.974201 410.854487 
L 250.735872 401.289677 
L 251.497543 410.854487 
L 252.259214 410.854487 
L 253.020885 406.072082 
L 254.544226 406.072082 
L 255.305897 410.854487 
L 256.067568 406.072082 
L 257.590909 406.072082 
L 258.35258 396.507273 
L 259.114251 410.854487 
L 259.875921 406.072082 
L 260.637592 396.507273 
L 261.399263 396.507273 
L 262.160934 406.072082 
L 262.922604 406.072082 
L 263.684275 396.507273 
L 264.445946 396.507273 
L 265.969287 406.072082 
L 266.730958 406.072082 
L 267.492629 401.289677 
L 269.015971 401.289677 
L 269.777641 406.072082 
L 272.824324 406.072082 
L 273.585995 396.507273 
L 274.347666 391.724868 
L 275.109337 396.507273 
L 275.871007 396.507273 
L 276.632678 401.289677 
L 278.91769 401.289677 
L 279.679361 396.507273 
L 280.441032 401.289677 
L 281.202703 396.507273 
L 284.249386 396.507273 
L 285.011057 391.724868 
L 285.772727 396.507273 
L 298.72113 396.507273 
L 299.482801 391.724868 
L 300.244472 396.507273 
L 302.529484 396.507273 
L 303.291155 391.724868 
L 304.052826 396.507273 
L 304.814496 391.724868 
L 305.576167 391.724868 
L 306.337838 401.289677 
L 307.099509 406.072082 
L 307.861179 401.289677 
L 308.62285 406.072082 
L 309.384521 401.289677 
L 310.146192 406.072082 
L 310.907862 401.289677 
L 311.669533 406.072082 
L 314.716216 406.072082 
L 315.477887 401.289677 
L 316.239558 406.072082 
L 321.571253 406.072082 
L 322.332924 401.289677 
L 329.949631 401.289677 
L 330.711302 396.507273 
L 331.472973 401.289677 
L 332.234644 396.507273 
L 334.519656 396.507273 
L 335.281327 401.289677 
L 353.561425 401.289677 
L 354.323096 396.507273 
L 355.084767 396.507273 
L 355.846437 401.289677 
L 356.608108 396.507273 
L 357.369779 396.507273 
L 358.13145 401.289677 
L 358.89312 396.507273 
L 366.509828 396.507273 
L 367.271499 391.724868 
L 369.556511 391.724868 
L 370.318182 396.507273 
L 371.079853 391.724868 
L 375.649877 391.724868 
L 376.411548 396.507273 
L 379.458231 396.507273 
L 380.219902 391.724868 
L 380.981572 396.507273 
L 383.266585 396.507273 
L 384.028256 391.724868 
L 399.261671 391.724868 
L 400.023342 396.507273 
L 403.070025 396.507273 
L 403.831695 391.724868 
L 404.593366 396.507273 
L 405.355037 391.724868 
L 406.116708 391.724868 
L 406.878378 396.507273 
L 407.640049 391.724868 
L 409.925061 391.724868 
L 410.686732 396.507273 
L 411.448403 396.507273 
L 412.210074 391.724868 
L 438.10688 391.724868 
L 438.86855 396.507273 
L 439.630221 391.724868 
L 443.438575 391.724868 
L 444.200246 396.507273 
L 444.961916 391.724868 
L 457.148649 391.724868 
L 457.910319 396.507273 
L 458.67199 391.724868 
L 459.433661 396.507273 
L 460.957002 396.507273 
L 461.718673 391.724868 
L 462.480344 396.507273 
L 463.242015 391.724868 
L 464.003686 396.507273 
L 464.765356 391.724868 
L 465.527027 396.507273 
L 468.57371 396.507273 
L 469.335381 391.724868 
L 470.097052 396.507273 
L 470.858722 391.724868 
L 471.620393 396.507273 
L 474.667076 396.507273 
L 475.428747 401.289677 
L 476.190418 396.507273 
L 478.47543 396.507273 
L 479.237101 391.724868 
L 485.330467 391.724868 
L 486.092138 396.507273 
L 489.138821 396.507273 
L 489.900491 391.724868 
L 490.662162 391.724868 
L 491.423833 396.507273 
L 492.185504 391.724868 
L 495.993857 391.724868 
L 496.755528 396.507273 
L 504.372236 396.507273 
L 505.133907 391.724868 
L 505.895577 396.507273 
L 506.657248 391.724868 
L 508.94226 391.724868 
L 509.703931 396.507273 
L 510.465602 391.724868 
L 511.988943 391.724868 
L 512.750614 396.507273 
L 513.512285 391.724868 
L 522.652334 391.724868 
L 523.414005 386.942463 
L 537.124079 386.942463 
L 537.885749 391.724868 
L 547.787469 391.724868 
L 548.54914 396.507273 
L 549.310811 391.724868 
L 551.595823 391.724868 
L 552.357494 396.507273 
L 556.165848 396.507273 
L 556.927518 391.724868 
L 557.689189 391.724868 
L 558.45086 386.942463 
L 559.212531 386.942463 
L 560.735872 396.507273 
L 561.497543 391.724868 
L 562.259214 391.724868 
L 563.020885 396.507273 
L 563.782555 391.724868 
L 564.544226 396.507273 
L 565.305897 396.507273 
L 566.067568 391.724868 
L 569.114251 391.724868 
L 569.875921 386.942463 
L 570.637592 391.724868 
L 571.399263 386.942463 
L 574.445946 386.942463 
L 575.207617 391.724868 
L 575.969287 386.942463 
L 578.2543 386.942463 
L 579.015971 391.724868 
L 580.539312 391.724868 
L 581.300983 386.942463 
L 582.062654 391.724868 
L 582.824324 386.942463 
L 583.585995 391.724868 
L 584.347666 386.942463 
L 585.109337 391.724868 
L 594.249386 391.724868 
L 595.011057 386.942463 
L 595.772727 391.724868 
L 596.534398 391.724868 
L 597.296069 386.942463 
L 598.05774 391.724868 
L 598.81941 391.724868 
L 599.581081 386.942463 
L 600.342752 391.724868 
L 601.866093 391.724868 
L 602.627764 386.942463 
L 603.389435 391.724868 
L 604.151106 391.724868 
L 604.912776 386.942463 
L 605.674447 391.724868 
L 606.436118 391.724868 
L 607.197789 386.942463 
L 607.959459 386.942463 
L 608.72113 391.724868 
L 609.482801 386.942463 
L 615.576167 386.942463 
L 616.337838 391.724868 
L 617.099509 386.942463 
L 617.861179 386.942463 
L 618.62285 391.724868 
L 633.856265 391.724868 
L 634.617936 386.942463 
L 635.379607 391.724868 
L 673.463145 391.724868 
L 674.224816 386.942463 
L 674.986486 391.724868 
L 714.593366 391.724868 
L 715.355037 396.507273 
L 716.116708 391.724868 
L 716.878378 396.507273 
L 718.40172 396.507273 
L 719.163391 391.724868 
L 719.925061 391.724868 
L 720.686732 396.507273 
L 722.210074 396.507273 
L 722.971744 391.724868 
L 723.733415 396.507273 
L 726.018428 396.507273 
L 726.780098 391.724868 
L 737.443489 391.724868 
L 738.20516 386.942463 
L 741.251843 386.942463 
L 742.013514 391.724868 
L 742.775184 386.942463 
L 743.536855 391.724868 
L 744.298526 391.724868 
L 745.060197 386.942463 
L 749.630221 386.942463 
L 750.391892 391.724868 
L 756.485258 391.724868 
L 757.246929 386.942463 
L 758.0086 391.724868 
L 784.667076 391.724868 
L 785.428747 386.942463 
L 786.190418 391.724868 
L 806.755528 391.724868 
L 807.517199 396.507273 
L 808.27887 396.507273 
L 809.040541 391.724868 
L 818.94226 391.724868 
L 819.703931 396.507273 
L 823.512285 396.507273 
L 824.273956 391.724868 
L 837.222359 391.724868 
L 837.984029 396.507273 
L 838.7457 396.507273 
L 839.507371 391.724868 
L 853.217445 391.724868 
L 853.979115 386.942463 
L 857.025799 386.942463 
L 857.787469 391.724868 
L 878.35258 391.724868 
L 879.114251 386.942463 
L 879.875921 391.724868 
L 906.534398 391.724868 
L 907.296069 386.942463 
L 909.581081 386.942463 
L 910.342752 391.724868 
L 933.954545 391.724868 
L 933.954545 391.724868 
" style="fill:none;stroke:#006400;stroke-linecap:square;"/>
   </g>
   <g id="line2d_20">
    <path clip-path="url(#p09db3ae657)" d="M 173.045455 99.998182 
L 173.807125 176.516657 
L 174.568796 291.29437 
L 175.330467 276.947155 
L 176.092138 324.771202 
L 176.853808 353.46563 
L 177.615479 363.03044 
L 178.37715 386.942463 
L 179.138821 367.812845 
L 179.900491 377.377654 
L 180.662162 382.160059 
L 181.423833 382.160059 
L 182.185504 386.942463 
L 182.947174 401.289677 
L 183.708845 410.854487 
L 184.470516 415.636891 
L 185.232187 415.636891 
L 185.993857 434.76651 
L 186.755528 429.984106 
L 187.517199 449.113724 
L 188.27887 434.76651 
L 189.040541 434.76651 
L 189.802211 429.984106 
L 190.563882 420.419296 
L 191.325553 406.072082 
L 192.087224 420.419296 
L 192.848894 425.201701 
L 195.133907 425.201701 
L 195.895577 415.636891 
L 196.657248 425.201701 
L 197.418919 425.201701 
L 198.18059 410.854487 
L 199.703931 420.419296 
L 201.988943 420.419296 
L 202.750614 429.984106 
L 203.512285 425.201701 
L 204.273956 386.942463 
L 205.035627 377.377654 
L 205.797297 453.896129 
L 206.558968 449.113724 
L 207.320639 473.025748 
L 210.367322 473.025748 
L 211.128993 477.808152 
L 215.699017 477.808152 
L 216.460688 463.460938 
L 217.222359 477.808152 
L 217.984029 482.590557 
L 221.792383 482.590557 
L 222.554054 487.372962 
L 224.077396 487.372962 
L 224.839066 492.155367 
L 227.885749 492.155367 
L 229.409091 473.025748 
L 230.170762 477.808152 
L 230.932432 468.243343 
L 232.455774 468.243343 
L 233.217445 463.460938 
L 233.979115 468.243343 
L 234.740786 468.243343 
L 235.502457 463.460938 
L 237.025799 473.025748 
L 237.787469 468.243343 
L 238.54914 477.808152 
L 239.310811 468.243343 
L 245.404177 468.243343 
L 246.165848 463.460938 
L 246.927518 468.243343 
L 249.212531 468.243343 
L 249.974201 463.460938 
L 250.735872 468.243343 
L 253.020885 468.243343 
L 253.782555 463.460938 
L 254.544226 473.025748 
L 255.305897 463.460938 
L 256.067568 468.243343 
L 256.829238 477.808152 
L 258.35258 477.808152 
L 259.114251 482.590557 
L 260.637592 482.590557 
L 261.399263 473.025748 
L 262.160934 473.025748 
L 263.684275 482.590557 
L 264.445946 482.590557 
L 265.207617 473.025748 
L 265.969287 482.590557 
L 269.015971 482.590557 
L 269.777641 477.808152 
L 270.539312 482.590557 
L 272.062654 473.025748 
L 272.824324 477.808152 
L 273.585995 473.025748 
L 281.964373 473.025748 
L 282.726044 477.808152 
L 283.487715 477.808152 
L 284.249386 473.025748 
L 285.011057 477.808152 
L 288.81941 477.808152 
L 289.581081 473.025748 
L 291.104423 473.025748 
L 291.866093 477.808152 
L 293.389435 468.243343 
L 294.151106 473.025748 
L 294.912776 473.025748 
L 295.674447 477.808152 
L 296.436118 477.808152 
L 297.197789 473.025748 
L 301.767813 473.025748 
L 302.529484 477.808152 
L 306.337838 477.808152 
L 307.099509 473.025748 
L 307.861179 477.808152 
L 313.192875 477.808152 
L 313.954545 473.025748 
L 315.477887 473.025748 
L 316.239558 477.808152 
L 319.286241 477.808152 
L 320.047912 473.025748 
L 320.809582 477.808152 
L 321.571253 473.025748 
L 323.094595 473.025748 
L 323.856265 477.808152 
L 324.617936 477.808152 
L 325.379607 473.025748 
L 326.141278 477.808152 
L 326.902948 477.808152 
L 327.664619 473.025748 
L 334.519656 473.025748 
L 335.281327 477.808152 
L 336.042998 473.025748 
L 336.804668 477.808152 
L 337.566339 473.025748 
L 339.851351 473.025748 
L 340.613022 477.808152 
L 341.374693 473.025748 
L 342.136364 477.808152 
L 342.898034 477.808152 
L 343.659705 473.025748 
L 344.421376 477.808152 
L 345.183047 477.808152 
L 345.944717 473.025748 
L 346.706388 473.025748 
L 348.22973 482.590557 
L 348.9914 482.590557 
L 349.753071 487.372962 
L 350.514742 482.590557 
L 351.276413 482.590557 
L 352.038084 487.372962 
L 352.799754 482.590557 
L 363.463145 482.590557 
L 364.224816 473.025748 
L 379.458231 473.025748 
L 380.219902 477.808152 
L 380.981572 473.025748 
L 421.350123 473.025748 
L 422.111794 468.243343 
L 422.873464 473.025748 
L 423.635135 468.243343 
L 424.396806 473.025748 
L 425.158477 468.243343 
L 426.681818 468.243343 
L 427.443489 473.025748 
L 428.20516 468.243343 
L 428.96683 473.025748 
L 455.625307 473.025748 
L 456.386978 468.243343 
L 527.222359 468.243343 
L 527.984029 473.025748 
L 534.077396 473.025748 
L 534.839066 477.808152 
L 546.264128 477.808152 
L 547.025799 473.025748 
L 547.787469 482.590557 
L 548.54914 482.590557 
L 549.310811 487.372962 
L 550.072482 482.590557 
L 552.357494 482.590557 
L 553.119165 496.937771 
L 553.880835 487.372962 
L 554.642506 496.937771 
L 555.404177 496.937771 
L 556.927518 487.372962 
L 557.689189 492.155367 
L 558.45086 487.372962 
L 559.212531 492.155367 
L 571.399263 492.155367 
L 572.160934 496.937771 
L 575.207617 496.937771 
L 575.969287 492.155367 
L 579.015971 492.155367 
L 579.777641 487.372962 
L 581.300983 506.502581 
L 582.062654 501.720176 
L 582.824324 511.284985 
L 583.585995 506.502581 
L 584.347666 511.284985 
L 590.441032 511.284985 
L 591.202703 506.502581 
L 593.487715 506.502581 
L 594.249386 501.720176 
L 598.05774 501.720176 
L 598.81941 506.502581 
L 599.581081 501.720176 
L 600.342752 506.502581 
L 601.866093 506.502581 
L 602.627764 511.284985 
L 604.151106 501.720176 
L 604.912776 506.502581 
L 605.674447 501.720176 
L 606.436118 506.502581 
L 607.959459 506.502581 
L 608.72113 501.720176 
L 613.291155 501.720176 
L 614.052826 506.502581 
L 614.814496 501.720176 
L 630.809582 501.720176 
L 631.571253 506.502581 
L 632.332924 501.720176 
L 636.902948 501.720176 
L 637.664619 506.502581 
L 638.42629 501.720176 
L 647.566339 501.720176 
L 648.32801 506.502581 
L 649.089681 506.502581 
L 649.851351 501.720176 
L 651.374693 501.720176 
L 652.136364 506.502581 
L 652.898034 501.720176 
L 653.659705 501.720176 
L 654.421376 506.502581 
L 655.183047 501.720176 
L 719.925061 501.720176 
L 720.686732 506.502581 
L 729.826781 506.502581 
L 730.588452 501.720176 
L 731.350123 506.502581 
L 735.920147 506.502581 
L 736.681818 501.720176 
L 737.443489 506.502581 
L 738.20516 501.720176 
L 825.797297 501.720176 
L 826.558968 506.502581 
L 846.362408 506.502581 
L 847.124079 501.720176 
L 847.885749 501.720176 
L 848.64742 506.502581 
L 849.409091 506.502581 
L 850.170762 501.720176 
L 850.932432 506.502581 
L 851.694103 501.720176 
L 876.067568 501.720176 
L 876.829238 506.502581 
L 877.590909 506.502581 
L 878.35258 501.720176 
L 916.436118 501.720176 
L 917.197789 506.502581 
L 918.72113 506.502581 
L 919.482801 501.720176 
L 920.244472 506.502581 
L 927.861179 506.502581 
L 928.62285 501.720176 
L 931.669533 501.720176 
L 932.431204 506.502581 
L 933.954545 506.502581 
L 933.954545 506.502581 
" style="fill:none;stroke:#0000ff;stroke-linecap:square;"/>
   </g>
   <g id="line2d_21">
    <path clip-path="url(#p09db3ae657)" d="M 173.045455 114.345396 
L 173.807125 143.039824 
L 174.568796 209.99349 
L 175.330467 248.252727 
L 176.092138 257.817537 
L 176.853808 233.905513 
L 177.615479 281.72956 
L 178.37715 281.72956 
L 179.138821 296.076774 
L 179.900491 315.206393 
L 180.662162 324.771202 
L 181.423833 343.900821 
L 182.185504 343.900821 
L 182.947174 348.683226 
L 183.708845 343.900821 
L 184.470516 348.683226 
L 185.232187 367.812845 
L 185.993857 358.248035 
L 186.755528 358.248035 
L 187.517199 348.683226 
L 188.27887 363.03044 
L 189.040541 372.595249 
L 189.802211 377.377654 
L 190.563882 363.03044 
L 192.848894 377.377654 
L 195.133907 377.377654 
L 195.895577 358.248035 
L 196.657248 353.46563 
L 198.18059 363.03044 
L 198.94226 358.248035 
L 199.703931 363.03044 
L 200.465602 363.03044 
L 201.227273 358.248035 
L 203.512285 372.595249 
L 204.273956 372.595249 
L 205.035627 367.812845 
L 205.797297 377.377654 
L 206.558968 377.377654 
L 207.320639 386.942463 
L 208.08231 382.160059 
L 209.605651 391.724868 
L 210.367322 386.942463 
L 211.128993 386.942463 
L 211.890663 391.724868 
L 216.460688 391.724868 
L 217.222359 386.942463 
L 218.7457 386.942463 
L 219.507371 391.724868 
L 230.170762 391.724868 
L 230.932432 386.942463 
L 231.694103 386.942463 
L 232.455774 391.724868 
L 237.025799 391.724868 
L 237.787469 386.942463 
L 238.54914 386.942463 
L 239.310811 391.724868 
L 259.114251 391.724868 
L 259.875921 386.942463 
L 260.637592 386.942463 
L 262.160934 377.377654 
L 262.922604 377.377654 
L 263.684275 391.724868 
L 264.445946 386.942463 
L 265.969287 386.942463 
L 266.730958 382.160059 
L 267.492629 382.160059 
L 268.2543 396.507273 
L 269.015971 406.072082 
L 269.777641 396.507273 
L 270.539312 396.507273 
L 271.300983 401.289677 
L 272.062654 401.289677 
L 272.824324 406.072082 
L 275.871007 406.072082 
L 276.632678 420.419296 
L 285.011057 420.419296 
L 285.772727 415.636891 
L 286.534398 420.419296 
L 287.296069 420.419296 
L 288.05774 415.636891 
L 290.342752 415.636891 
L 291.104423 420.419296 
L 291.866093 415.636891 
L 297.197789 415.636891 
L 297.959459 410.854487 
L 298.72113 415.636891 
L 308.62285 415.636891 
L 309.384521 410.854487 
L 322.332924 410.854487 
L 323.094595 415.636891 
L 323.856265 410.854487 
L 325.379607 410.854487 
L 326.141278 415.636891 
L 326.902948 415.636891 
L 327.664619 410.854487 
L 328.42629 410.854487 
L 329.187961 406.072082 
L 329.949631 406.072082 
L 330.711302 410.854487 
L 335.281327 410.854487 
L 336.042998 406.072082 
L 336.804668 406.072082 
L 337.566339 410.854487 
L 338.32801 406.072082 
L 339.089681 410.854487 
L 339.851351 410.854487 
L 340.613022 406.072082 
L 341.374693 406.072082 
L 342.136364 410.854487 
L 342.898034 410.854487 
L 343.659705 406.072082 
L 344.421376 410.854487 
L 345.183047 406.072082 
L 345.944717 410.854487 
L 346.706388 410.854487 
L 347.468059 415.636891 
L 348.9914 415.636891 
L 349.753071 420.419296 
L 350.514742 415.636891 
L 352.799754 415.636891 
L 353.561425 420.419296 
L 355.846437 420.419296 
L 356.608108 415.636891 
L 357.369779 415.636891 
L 358.13145 410.854487 
L 358.89312 410.854487 
L 359.654791 415.636891 
L 360.416462 415.636891 
L 361.178133 420.419296 
L 374.126536 420.419296 
L 374.888206 415.636891 
L 375.649877 420.419296 
L 376.411548 420.419296 
L 377.173219 396.507273 
L 377.934889 396.507273 
L 378.69656 401.289677 
L 384.789926 401.289677 
L 385.551597 396.507273 
L 386.313268 401.289677 
L 387.074939 396.507273 
L 443.438575 396.507273 
L 444.200246 401.289677 
L 444.961916 396.507273 
L 459.433661 396.507273 
L 460.957002 386.942463 
L 461.718673 391.724868 
L 465.527027 391.724868 
L 466.288698 396.507273 
L 467.050369 396.507273 
L 467.812039 401.289677 
L 468.57371 401.289677 
L 469.335381 396.507273 
L 470.097052 401.289677 
L 471.620393 401.289677 
L 472.382064 406.072082 
L 473.143735 406.072082 
L 473.905405 401.289677 
L 474.667076 406.072082 
L 475.428747 401.289677 
L 480.760442 401.289677 
L 481.522113 406.072082 
L 483.045455 406.072082 
L 483.807125 401.289677 
L 484.568796 406.072082 
L 485.330467 401.289677 
L 487.615479 401.289677 
L 488.37715 406.072082 
L 489.138821 401.289677 
L 513.512285 401.289677 
L 514.273956 396.507273 
L 515.035627 396.507273 
L 515.797297 401.289677 
L 516.558968 396.507273 
L 517.320639 401.289677 
L 546.264128 401.289677 
L 547.025799 396.507273 
L 547.787469 401.289677 
L 548.54914 396.507273 
L 566.067568 396.507273 
L 566.829238 401.289677 
L 569.875921 401.289677 
L 570.637592 406.072082 
L 571.399263 406.072082 
L 572.160934 401.289677 
L 584.347666 401.289677 
L 585.109337 406.072082 
L 595.772727 406.072082 
L 596.534398 410.854487 
L 598.81941 410.854487 
L 599.581081 406.072082 
L 600.342752 410.854487 
L 603.389435 410.854487 
L 604.151106 406.072082 
L 604.912776 410.854487 
L 608.72113 410.854487 
L 610.244472 401.289677 
L 611.006143 410.854487 
L 611.767813 410.854487 
L 612.529484 406.072082 
L 613.291155 406.072082 
L 614.052826 401.289677 
L 618.62285 401.289677 
L 619.384521 406.072082 
L 629.286241 406.072082 
L 630.047912 401.289677 
L 633.094595 401.289677 
L 633.856265 406.072082 
L 653.659705 406.072082 
L 654.421376 401.289677 
L 658.22973 401.289677 
L 658.9914 406.072082 
L 669.654791 406.072082 
L 670.416462 401.289677 
L 671.178133 401.289677 
L 671.939803 406.072082 
L 679.556511 406.072082 
L 680.318182 396.507273 
L 681.079853 401.289677 
L 684.888206 401.289677 
L 685.649877 406.072082 
L 688.69656 406.072082 
L 689.458231 410.854487 
L 690.219902 410.854487 
L 690.981572 406.072082 
L 700.883292 406.072082 
L 701.644963 410.854487 
L 705.453317 410.854487 
L 706.214988 406.072082 
L 706.976658 406.072082 
L 707.738329 410.854487 
L 708.5 406.072082 
L 712.308354 406.072082 
L 713.070025 401.289677 
L 714.593366 401.289677 
L 715.355037 406.072082 
L 716.116708 401.289677 
L 716.878378 406.072082 
L 726.780098 406.072082 
L 727.541769 410.854487 
L 728.30344 406.072082 
L 735.158477 406.072082 
L 735.920147 410.854487 
L 737.443489 401.289677 
L 738.20516 406.072082 
L 738.96683 401.289677 
L 739.728501 401.289677 
L 740.490172 406.072082 
L 741.251843 401.289677 
L 745.821867 401.289677 
L 746.583538 396.507273 
L 747.345209 401.289677 
L 748.10688 401.289677 
L 748.86855 396.507273 
L 761.055283 396.507273 
L 761.816953 391.724868 
L 763.340295 401.289677 
L 764.101966 396.507273 
L 765.625307 396.507273 
L 766.386978 391.724868 
L 767.148649 391.724868 
L 767.910319 396.507273 
L 768.67199 396.507273 
L 769.433661 391.724868 
L 770.195332 396.507273 
L 772.480344 396.507273 
L 773.242015 391.724868 
L 774.003686 391.724868 
L 774.765356 396.507273 
L 775.527027 396.507273 
L 776.288698 401.289677 
L 777.050369 396.507273 
L 778.57371 396.507273 
L 779.335381 401.289677 
L 780.097052 396.507273 
L 781.620393 396.507273 
L 782.382064 391.724868 
L 783.143735 391.724868 
L 783.905405 396.507273 
L 784.667076 391.724868 
L 791.522113 391.724868 
L 792.283784 386.942463 
L 793.045455 386.942463 
L 793.807125 391.724868 
L 794.568796 386.942463 
L 795.330467 391.724868 
L 796.092138 386.942463 
L 802.185504 386.942463 
L 802.947174 391.724868 
L 803.708845 391.724868 
L 804.470516 386.942463 
L 805.232187 391.724868 
L 810.563882 391.724868 
L 811.325553 396.507273 
L 826.558968 396.507273 
L 828.08231 406.072082 
L 835.699017 406.072082 
L 836.460688 401.289677 
L 837.222359 401.289677 
L 837.984029 396.507273 
L 838.7457 401.289677 
L 839.507371 396.507273 
L 841.792383 396.507273 
L 842.554054 391.724868 
L 847.885749 391.724868 
L 848.64742 396.507273 
L 850.170762 396.507273 
L 850.932432 391.724868 
L 851.694103 396.507273 
L 853.979115 396.507273 
L 854.740786 386.942463 
L 855.502457 391.724868 
L 856.264128 386.942463 
L 857.025799 401.289677 
L 857.787469 406.072082 
L 858.54914 396.507273 
L 869.974201 396.507273 
L 870.735872 391.724868 
L 879.114251 391.724868 
L 879.875921 396.507273 
L 880.637592 391.724868 
L 882.160934 401.289677 
L 883.684275 401.289677 
L 884.445946 396.507273 
L 885.969287 396.507273 
L 886.730958 401.289677 
L 889.777641 401.289677 
L 890.539312 396.507273 
L 891.300983 396.507273 
L 892.062654 401.289677 
L 894.347666 401.289677 
L 895.109337 396.507273 
L 896.632678 396.507273 
L 897.394349 401.289677 
L 908.81941 401.289677 
L 909.581081 396.507273 
L 910.342752 401.289677 
L 913.389435 401.289677 
L 914.151106 396.507273 
L 921.006143 396.507273 
L 921.767813 391.724868 
L 923.291155 401.289677 
L 924.052826 396.507273 
L 927.861179 396.507273 
L 928.62285 415.636891 
L 929.384521 410.854487 
L 930.907862 410.854487 
L 932.431204 420.419296 
L 933.954545 420.419296 
L 933.954545 420.419296 
" style="fill:none;stroke:#000000;stroke-linecap:square;"/>
   </g>
   <g id="line2d_22">
    <path clip-path="url(#p09db3ae657)" d="M 173.045455 133.475015 
L 173.807125 114.345396 
L 174.568796 133.475015 
L 175.330467 276.947155 
L 176.092138 276.947155 
L 176.853808 300.859179 
L 177.615479 315.206393 
L 178.37715 339.118416 
L 179.138821 339.118416 
L 179.900491 348.683226 
L 180.662162 343.900821 
L 182.185504 315.206393 
L 182.947174 343.900821 
L 183.708845 324.771202 
L 184.470516 296.076774 
L 185.232187 377.377654 
L 185.993857 396.507273 
L 186.755528 372.595249 
L 187.517199 391.724868 
L 188.27887 377.377654 
L 189.040541 396.507273 
L 189.802211 382.160059 
L 190.563882 391.724868 
L 191.325553 425.201701 
L 192.087224 410.854487 
L 192.848894 429.984106 
L 193.610565 406.072082 
L 194.372236 410.854487 
L 195.133907 429.984106 
L 195.895577 410.854487 
L 196.657248 401.289677 
L 197.418919 415.636891 
L 198.18059 410.854487 
L 198.94226 429.984106 
L 199.703931 444.33132 
L 200.465602 410.854487 
L 201.227273 453.896129 
L 201.988943 439.548915 
L 202.750614 453.896129 
L 203.512285 444.33132 
L 204.273956 453.896129 
L 205.035627 425.201701 
L 206.558968 453.896129 
L 207.320639 449.113724 
L 208.08231 453.896129 
L 208.84398 444.33132 
L 209.605651 453.896129 
L 210.367322 439.548915 
L 211.128993 458.678534 
L 211.890663 458.678534 
L 212.652334 453.896129 
L 213.414005 468.243343 
L 214.175676 468.243343 
L 214.937346 453.896129 
L 215.699017 492.155367 
L 216.460688 487.372962 
L 217.222359 468.243343 
L 217.984029 482.590557 
L 218.7457 453.896129 
L 219.507371 477.808152 
L 220.269042 487.372962 
L 221.030713 473.025748 
L 222.554054 482.590557 
L 223.315725 501.720176 
L 224.077396 492.155367 
L 224.839066 477.808152 
L 225.600737 496.937771 
L 226.362408 501.720176 
L 227.124079 492.155367 
L 227.885749 496.937771 
L 228.64742 506.502581 
L 229.409091 492.155367 
L 230.170762 511.284985 
L 230.932432 501.720176 
L 231.694103 501.720176 
L 232.455774 482.590557 
L 233.217445 477.808152 
L 233.979115 482.590557 
L 234.740786 477.808152 
L 235.502457 487.372962 
L 237.025799 477.808152 
L 238.54914 487.372962 
L 239.310811 482.590557 
L 240.072482 487.372962 
L 240.834152 482.590557 
L 242.357494 482.590557 
L 243.119165 492.155367 
L 243.880835 482.590557 
L 245.404177 482.590557 
L 246.165848 496.937771 
L 246.927518 482.590557 
L 248.45086 501.720176 
L 249.212531 492.155367 
L 249.974201 496.937771 
L 251.497543 496.937771 
L 252.259214 492.155367 
L 253.020885 496.937771 
L 253.782555 487.372962 
L 254.544226 496.937771 
L 255.305897 501.720176 
L 256.067568 496.937771 
L 257.590909 506.502581 
L 258.35258 501.720176 
L 259.875921 501.720176 
L 260.637592 506.502581 
L 261.399263 501.720176 
L 262.160934 501.720176 
L 262.922604 506.502581 
L 263.684275 496.937771 
L 264.445946 506.502581 
L 265.207617 496.937771 
L 265.969287 501.720176 
L 266.730958 496.937771 
L 269.777641 496.937771 
L 270.539312 501.720176 
L 271.300983 501.720176 
L 272.062654 506.502581 
L 272.824324 501.720176 
L 273.585995 501.720176 
L 274.347666 496.937771 
L 275.109337 496.937771 
L 275.871007 501.720176 
L 276.632678 496.937771 
L 277.394349 496.937771 
L 278.15602 501.720176 
L 278.91769 496.937771 
L 279.679361 501.720176 
L 280.441032 496.937771 
L 281.202703 496.937771 
L 281.964373 482.590557 
L 282.726044 492.155367 
L 283.487715 482.590557 
L 284.249386 487.372962 
L 285.772727 477.808152 
L 286.534398 477.808152 
L 287.296069 482.590557 
L 288.05774 477.808152 
L 288.81941 496.937771 
L 289.581081 501.720176 
L 290.342752 492.155367 
L 291.866093 511.284985 
L 292.627764 501.720176 
L 293.389435 501.720176 
L 294.151106 496.937771 
L 294.912776 487.372962 
L 295.674447 496.937771 
L 296.436118 501.720176 
L 297.197789 511.284985 
L 297.959459 506.502581 
L 298.72113 511.284985 
L 300.244472 501.720176 
L 301.006143 506.502581 
L 301.767813 506.502581 
L 302.529484 511.284985 
L 303.291155 506.502581 
L 304.052826 511.284985 
L 304.814496 511.284985 
L 306.337838 520.849795 
L 309.384521 520.849795 
L 310.907862 511.284985 
L 311.669533 516.06739 
L 313.192875 516.06739 
L 313.954545 525.632199 
L 314.716216 525.632199 
L 315.477887 520.849795 
L 316.239558 530.414604 
L 317.001229 530.414604 
L 317.762899 520.849795 
L 318.52457 520.849795 
L 319.286241 525.632199 
L 320.047912 525.632199 
L 320.809582 516.06739 
L 323.094595 516.06739 
L 323.856265 520.849795 
L 326.141278 520.849795 
L 326.902948 516.06739 
L 327.664619 520.849795 
L 329.187961 520.849795 
L 329.949631 516.06739 
L 330.711302 525.632199 
L 331.472973 525.632199 
L 332.234644 530.414604 
L 332.996314 520.849795 
L 333.757985 525.632199 
L 334.519656 525.632199 
L 335.281327 520.849795 
L 336.042998 525.632199 
L 336.804668 520.849795 
L 337.566339 525.632199 
L 339.089681 525.632199 
L 339.851351 530.414604 
L 340.613022 530.414604 
L 341.374693 525.632199 
L 346.706388 525.632199 
L 347.468059 530.414604 
L 348.22973 539.979413 
L 348.9914 530.414604 
L 349.753071 530.414604 
L 350.514742 535.197009 
L 351.276413 530.414604 
L 352.038084 535.197009 
L 352.799754 530.414604 
L 353.561425 535.197009 
L 354.323096 530.414604 
L 355.084767 535.197009 
L 355.846437 525.632199 
L 356.608108 525.632199 
L 357.369779 535.197009 
L 358.13145 525.632199 
L 358.89312 535.197009 
L 359.654791 535.197009 
L 360.416462 530.414604 
L 361.178133 544.761818 
L 361.939803 535.197009 
L 364.986486 535.197009 
L 365.748157 539.979413 
L 368.79484 539.979413 
L 370.318182 530.414604 
L 372.603194 544.761818 
L 373.364865 535.197009 
L 374.126536 544.761818 
L 375.649877 535.197009 
L 377.934889 535.197009 
L 378.69656 539.979413 
L 379.458231 530.414604 
L 380.981572 530.414604 
L 381.743243 525.632199 
L 382.504914 539.979413 
L 383.266585 535.197009 
L 384.789926 535.197009 
L 385.551597 539.979413 
L 386.313268 539.979413 
L 387.074939 530.414604 
L 387.836609 530.414604 
L 388.59828 535.197009 
L 389.359951 535.197009 
L 390.121622 530.414604 
L 390.883292 530.414604 
L 391.644963 535.197009 
L 392.406634 530.414604 
L 393.168305 535.197009 
L 394.691646 535.197009 
L 396.214988 544.761818 
L 396.976658 539.979413 
L 397.738329 544.761818 
L 398.5 539.979413 
L 401.546683 539.979413 
L 402.308354 535.197009 
L 403.070025 535.197009 
L 403.831695 539.979413 
L 406.878378 539.979413 
L 407.640049 535.197009 
L 408.40172 539.979413 
L 410.686732 539.979413 
L 412.971744 525.632199 
L 413.733415 530.414604 
L 414.495086 530.414604 
L 415.256757 539.979413 
L 417.541769 539.979413 
L 418.30344 544.761818 
L 422.111794 544.761818 
L 422.873464 539.979413 
L 423.635135 544.761818 
L 426.681818 544.761818 
L 427.443489 539.979413 
L 430.490172 539.979413 
L 431.251843 535.197009 
L 432.013514 539.979413 
L 432.775184 539.979413 
L 433.536855 530.414604 
L 434.298526 530.414604 
L 435.821867 539.979413 
L 436.583538 539.979413 
L 437.345209 544.761818 
L 438.10688 539.979413 
L 438.86855 544.761818 
L 440.391892 544.761818 
L 441.153563 539.979413 
L 443.438575 539.979413 
L 444.200246 544.761818 
L 444.961916 544.761818 
L 445.723587 539.979413 
L 452.578624 539.979413 
L 453.340295 535.197009 
L 462.480344 535.197009 
L 463.242015 525.632199 
L 464.003686 530.414604 
L 467.812039 530.414604 
L 468.57371 520.849795 
L 469.335381 525.632199 
L 470.097052 520.849795 
L 470.858722 525.632199 
L 471.620393 520.849795 
L 472.382064 520.849795 
L 473.143735 525.632199 
L 475.428747 525.632199 
L 476.190418 530.414604 
L 476.952088 525.632199 
L 477.713759 530.414604 
L 478.47543 530.414604 
L 479.237101 525.632199 
L 481.522113 525.632199 
L 482.283784 535.197009 
L 483.807125 535.197009 
L 484.568796 530.414604 
L 485.330467 530.414604 
L 486.092138 535.197009 
L 486.853808 525.632199 
L 487.615479 530.414604 
L 488.37715 530.414604 
L 489.138821 525.632199 
L 492.947174 525.632199 
L 493.708845 530.414604 
L 494.470516 530.414604 
L 495.232187 525.632199 
L 495.993857 530.414604 
L 496.755528 530.414604 
L 497.517199 525.632199 
L 503.610565 525.632199 
L 504.372236 520.849795 
L 505.133907 525.632199 
L 511.227273 525.632199 
L 511.988943 520.849795 
L 512.750614 520.849795 
L 513.512285 516.06739 
L 514.273956 525.632199 
L 515.035627 525.632199 
L 515.797297 520.849795 
L 516.558968 520.849795 
L 517.320639 516.06739 
L 518.08231 516.06739 
L 518.84398 520.849795 
L 524.937346 520.849795 
L 525.699017 516.06739 
L 527.984029 516.06739 
L 528.7457 520.849795 
L 533.315725 520.849795 
L 534.077396 516.06739 
L 535.600737 516.06739 
L 536.362408 520.849795 
L 537.124079 516.06739 
L 537.885749 516.06739 
L 538.64742 520.849795 
L 540.932432 520.849795 
L 541.694103 525.632199 
L 542.455774 525.632199 
L 543.217445 516.06739 
L 543.979115 520.849795 
L 544.740786 516.06739 
L 545.502457 525.632199 
L 546.264128 525.632199 
L 547.025799 520.849795 
L 548.54914 520.849795 
L 549.310811 525.632199 
L 554.642506 525.632199 
L 555.404177 520.849795 
L 556.165848 525.632199 
L 559.212531 525.632199 
L 559.974201 520.849795 
L 560.735872 525.632199 
L 566.829238 525.632199 
L 567.590909 520.849795 
L 569.114251 520.849795 
L 569.875921 525.632199 
L 575.207617 525.632199 
L 575.969287 520.849795 
L 579.015971 520.849795 
L 579.777641 525.632199 
L 580.539312 520.849795 
L 581.300983 520.849795 
L 582.062654 525.632199 
L 582.824324 516.06739 
L 583.585995 525.632199 
L 584.347666 525.632199 
L 585.109337 516.06739 
L 585.871007 520.849795 
L 586.632678 516.06739 
L 588.15602 516.06739 
L 588.91769 520.849795 
L 589.679361 516.06739 
L 590.441032 520.849795 
L 603.389435 520.849795 
L 604.151106 525.632199 
L 605.674447 525.632199 
L 606.436118 520.849795 
L 607.197789 525.632199 
L 607.959459 520.849795 
L 608.72113 525.632199 
L 610.244472 525.632199 
L 611.006143 520.849795 
L 616.337838 520.849795 
L 617.099509 525.632199 
L 617.861179 520.849795 
L 624.716216 520.849795 
L 625.477887 516.06739 
L 630.047912 516.06739 
L 630.809582 511.284985 
L 631.571253 516.06739 
L 632.332924 516.06739 
L 633.094595 511.284985 
L 634.617936 520.849795 
L 636.902948 520.849795 
L 637.664619 516.06739 
L 639.187961 516.06739 
L 639.949631 520.849795 
L 640.711302 516.06739 
L 642.996314 516.06739 
L 643.757985 520.849795 
L 647.566339 520.849795 
L 648.32801 525.632199 
L 649.089681 516.06739 
L 649.851351 516.06739 
L 650.613022 520.849795 
L 651.374693 516.06739 
L 652.136364 520.849795 
L 652.898034 520.849795 
L 653.659705 525.632199 
L 654.421376 525.632199 
L 655.183047 520.849795 
L 656.706388 520.849795 
L 657.468059 516.06739 
L 658.9914 516.06739 
L 659.753071 511.284985 
L 661.276413 511.284985 
L 662.038084 525.632199 
L 662.799754 520.849795 
L 663.561425 520.849795 
L 664.323096 516.06739 
L 666.608108 516.06739 
L 667.369779 511.284985 
L 668.13145 520.849795 
L 675.748157 520.849795 
L 676.509828 516.06739 
L 678.03317 516.06739 
L 678.79484 520.849795 
L 681.079853 506.502581 
L 681.841523 511.284985 
L 682.603194 506.502581 
L 684.126536 516.06739 
L 685.649877 516.06739 
L 686.411548 506.502581 
L 687.173219 516.06739 
L 687.934889 516.06739 
L 688.69656 511.284985 
L 692.504914 511.284985 
L 693.266585 516.06739 
L 694.789926 516.06739 
L 695.551597 501.720176 
L 696.313268 506.502581 
L 697.074939 496.937771 
L 698.59828 506.502581 
L 699.359951 506.502581 
L 700.121622 501.720176 
L 700.883292 501.720176 
L 701.644963 506.502581 
L 702.406634 501.720176 
L 703.168305 511.284985 
L 707.738329 511.284985 
L 709.261671 501.720176 
L 710.785012 501.720176 
L 711.546683 506.502581 
L 712.308354 501.720176 
L 719.163391 501.720176 
L 719.925061 496.937771 
L 721.448403 496.937771 
L 722.210074 501.720176 
L 722.971744 501.720176 
L 723.733415 496.937771 
L 724.495086 501.720176 
L 731.350123 501.720176 
L 732.111794 496.937771 
L 732.873464 501.720176 
L 733.635135 501.720176 
L 734.396806 496.937771 
L 736.681818 496.937771 
L 737.443489 501.720176 
L 738.96683 501.720176 
L 739.728501 496.937771 
L 751.153563 496.937771 
L 752.676904 506.502581 
L 754.200246 506.502581 
L 754.961916 501.720176 
L 755.723587 501.720176 
L 756.485258 506.502581 
L 758.0086 506.502581 
L 758.77027 501.720176 
L 759.531941 501.720176 
L 760.293612 506.502581 
L 761.055283 501.720176 
L 761.816953 501.720176 
L 762.578624 506.502581 
L 763.340295 501.720176 
L 850.932432 501.720176 
L 851.694103 496.937771 
L 852.455774 501.720176 
L 872.259214 501.720176 
L 873.020885 496.937771 
L 873.782555 501.720176 
L 874.544226 496.937771 
L 875.305897 496.937771 
L 876.067568 501.720176 
L 876.829238 496.937771 
L 877.590909 496.937771 
L 878.35258 501.720176 
L 879.114251 496.937771 
L 881.399263 496.937771 
L 882.160934 501.720176 
L 898.15602 501.720176 
L 898.91769 511.284985 
L 899.679361 496.937771 
L 901.202703 506.502581 
L 902.726044 506.502581 
L 903.487715 501.720176 
L 904.249386 506.502581 
L 905.772727 487.372962 
L 906.534398 482.590557 
L 907.296069 487.372962 
L 908.05774 487.372962 
L 908.81941 492.155367 
L 909.581081 482.590557 
L 910.342752 492.155367 
L 911.866093 492.155367 
L 912.627764 487.372962 
L 914.151106 496.937771 
L 914.912776 496.937771 
L 915.674447 506.502581 
L 916.436118 496.937771 
L 917.959459 506.502581 
L 918.72113 506.502581 
L 919.482801 501.720176 
L 920.244472 501.720176 
L 921.006143 506.502581 
L 922.529484 506.502581 
L 923.291155 501.720176 
L 924.052826 506.502581 
L 924.814496 506.502581 
L 925.576167 501.720176 
L 926.337838 487.372962 
L 927.099509 482.590557 
L 927.861179 492.155367 
L 928.62285 487.372962 
L 929.384521 487.372962 
L 930.146192 482.590557 
L 930.907862 492.155367 
L 931.669533 482.590557 
L 932.431204 477.808152 
L 933.192875 492.155367 
L 933.954545 477.808152 
L 933.954545 477.808152 
" style="fill:none;stroke:#ff00ff;stroke-linecap:square;"/>
   </g>
   <g id="patch_3">
    <path d="M 135 567 
L 135 77.76 
" style="fill:none;stroke:#000000;stroke-linecap:square;stroke-linejoin:miter;stroke-width:0.8;"/>
   </g>
   <g id="patch_4">
    <path d="M 972 567 
L 972 77.76 
" style="fill:none;stroke:#000000;stroke-linecap:square;stroke-linejoin:miter;stroke-width:0.8;"/>
   </g>
   <g id="patch_5">
    <path d="M 135 567 
L 972 567 
" style="fill:none;stroke:#000000;stroke-linecap:square;stroke-linejoin:miter;stroke-width:0.8;"/>
   </g>
   <g id="patch_6">
    <path d="M 135 77.76 
L 972 77.76 
" style="fill:none;stroke:#000000;stroke-linecap:square;stroke-linejoin:miter;stroke-width:0.8;"/>
   </g>
   <g id="text_20">
    <!-- PSO Optimised NN with Tanh Activation -->
    <g transform="translate(307.511719 71.76)scale(0.25 -0.25)">
     <defs>
      <path d="M 19.671875 64.796875 
L 19.671875 37.40625 
L 32.078125 37.40625 
Q 38.96875 37.40625 42.71875 40.96875 
Q 46.484375 44.53125 46.484375 51.125 
Q 46.484375 57.671875 42.71875 61.234375 
Q 38.96875 64.796875 32.078125 64.796875 
z
M 9.8125 72.90625 
L 32.078125 72.90625 
Q 44.34375 72.90625 50.609375 67.359375 
Q 56.890625 61.8125 56.890625 51.125 
Q 56.890625 40.328125 50.609375 34.8125 
Q 44.34375 29.296875 32.078125 29.296875 
L 19.671875 29.296875 
L 19.671875 0 
L 9.8125 0 
z
" id="DejaVuSans-80"/>
      <path d="M 39.40625 66.21875 
Q 28.65625 66.21875 22.328125 58.203125 
Q 16.015625 50.203125 16.015625 36.375 
Q 16.015625 22.609375 22.328125 14.59375 
Q 28.65625 6.59375 39.40625 6.59375 
Q 50.140625 6.59375 56.421875 14.59375 
Q 62.703125 22.609375 62.703125 36.375 
Q 62.703125 50.203125 56.421875 58.203125 
Q 50.140625 66.21875 39.40625 66.21875 
z
M 39.40625 74.21875 
Q 54.734375 74.21875 63.90625 63.9375 
Q 73.09375 53.65625 73.09375 36.375 
Q 73.09375 19.140625 63.90625 8.859375 
Q 54.734375 -1.421875 39.40625 -1.421875 
Q 24.03125 -1.421875 14.8125 8.828125 
Q 5.609375 19.09375 5.609375 36.375 
Q 5.609375 53.65625 14.8125 63.9375 
Q 24.03125 74.21875 39.40625 74.21875 
z
" id="DejaVuSans-79"/>
      <path d="M 18.109375 8.203125 
L 18.109375 -20.796875 
L 9.078125 -20.796875 
L 9.078125 54.6875 
L 18.109375 54.6875 
L 18.109375 46.390625 
Q 20.953125 51.265625 25.265625 53.625 
Q 29.59375 56 35.59375 56 
Q 45.5625 56 51.78125 48.09375 
Q 58.015625 40.1875 58.015625 27.296875 
Q 58.015625 14.40625 51.78125 6.484375 
Q 45.5625 -1.421875 35.59375 -1.421875 
Q 29.59375 -1.421875 25.265625 0.953125 
Q 20.953125 3.328125 18.109375 8.203125 
z
M 48.6875 27.296875 
Q 48.6875 37.203125 44.609375 42.84375 
Q 40.53125 48.484375 33.40625 48.484375 
Q 26.265625 48.484375 22.1875 42.84375 
Q 18.109375 37.203125 18.109375 27.296875 
Q 18.109375 17.390625 22.1875 11.75 
Q 26.265625 6.109375 33.40625 6.109375 
Q 40.53125 6.109375 44.609375 11.75 
Q 48.6875 17.390625 48.6875 27.296875 
z
" id="DejaVuSans-112"/>
      <path d="M 52 44.1875 
Q 55.375 50.25 60.0625 53.125 
Q 64.75 56 71.09375 56 
Q 79.640625 56 84.28125 50.015625 
Q 88.921875 44.046875 88.921875 33.015625 
L 88.921875 0 
L 79.890625 0 
L 79.890625 32.71875 
Q 79.890625 40.578125 77.09375 44.375 
Q 74.3125 48.1875 68.609375 48.1875 
Q 61.625 48.1875 57.5625 43.546875 
Q 53.515625 38.921875 53.515625 30.90625 
L 53.515625 0 
L 44.484375 0 
L 44.484375 32.71875 
Q 44.484375 40.625 41.703125 44.40625 
Q 38.921875 48.1875 33.109375 48.1875 
Q 26.21875 48.1875 22.15625 43.53125 
Q 18.109375 38.875 18.109375 30.90625 
L 18.109375 0 
L 9.078125 0 
L 9.078125 54.6875 
L 18.109375 54.6875 
L 18.109375 46.1875 
Q 21.1875 51.21875 25.484375 53.609375 
Q 29.78125 56 35.6875 56 
Q 41.65625 56 45.828125 52.96875 
Q 50 49.953125 52 44.1875 
z
" id="DejaVuSans-109"/>
      <path d="M 45.40625 46.390625 
L 45.40625 75.984375 
L 54.390625 75.984375 
L 54.390625 0 
L 45.40625 0 
L 45.40625 8.203125 
Q 42.578125 3.328125 38.25 0.953125 
Q 33.9375 -1.421875 27.875 -1.421875 
Q 17.96875 -1.421875 11.734375 6.484375 
Q 5.515625 14.40625 5.515625 27.296875 
Q 5.515625 40.1875 11.734375 48.09375 
Q 17.96875 56 27.875 56 
Q 33.9375 56 38.25 53.625 
Q 42.578125 51.265625 45.40625 46.390625 
z
M 14.796875 27.296875 
Q 14.796875 17.390625 18.875 11.75 
Q 22.953125 6.109375 30.078125 6.109375 
Q 37.203125 6.109375 41.296875 11.75 
Q 45.40625 17.390625 45.40625 27.296875 
Q 45.40625 37.203125 41.296875 42.84375 
Q 37.203125 48.484375 30.078125 48.484375 
Q 22.953125 48.484375 18.875 42.84375 
Q 14.796875 37.203125 14.796875 27.296875 
z
" id="DejaVuSans-100"/>
      <path d="M 9.8125 72.90625 
L 23.09375 72.90625 
L 55.421875 11.921875 
L 55.421875 72.90625 
L 64.984375 72.90625 
L 64.984375 0 
L 51.703125 0 
L 19.390625 60.984375 
L 19.390625 0 
L 9.8125 0 
z
" id="DejaVuSans-78"/>
      <path d="M 4.203125 54.6875 
L 13.1875 54.6875 
L 24.421875 12.015625 
L 35.59375 54.6875 
L 46.1875 54.6875 
L 57.421875 12.015625 
L 68.609375 54.6875 
L 77.59375 54.6875 
L 63.28125 0 
L 52.6875 0 
L 40.921875 44.828125 
L 29.109375 0 
L 18.5 0 
z
" id="DejaVuSans-119"/>
      <path d="M 54.890625 33.015625 
L 54.890625 0 
L 45.90625 0 
L 45.90625 32.71875 
Q 45.90625 40.484375 42.875 44.328125 
Q 39.84375 48.1875 33.796875 48.1875 
Q 26.515625 48.1875 22.3125 43.546875 
Q 18.109375 38.921875 18.109375 30.90625 
L 18.109375 0 
L 9.078125 0 
L 9.078125 75.984375 
L 18.109375 75.984375 
L 18.109375 46.1875 
Q 21.34375 51.125 25.703125 53.5625 
Q 30.078125 56 35.796875 56 
Q 45.21875 56 50.046875 50.171875 
Q 54.890625 44.34375 54.890625 33.015625 
z
" id="DejaVuSans-104"/>
      <path d="M 34.1875 63.1875 
L 20.796875 26.90625 
L 47.609375 26.90625 
z
M 28.609375 72.90625 
L 39.796875 72.90625 
L 67.578125 0 
L 57.328125 0 
L 50.6875 18.703125 
L 17.828125 18.703125 
L 11.1875 0 
L 0.78125 0 
z
" id="DejaVuSans-65"/>
      <path d="M 48.78125 52.59375 
L 48.78125 44.1875 
Q 44.96875 46.296875 41.140625 47.34375 
Q 37.3125 48.390625 33.40625 48.390625 
Q 24.65625 48.390625 19.8125 42.84375 
Q 14.984375 37.3125 14.984375 27.296875 
Q 14.984375 17.28125 19.8125 11.734375 
Q 24.65625 6.203125 33.40625 6.203125 
Q 37.3125 6.203125 41.140625 7.25 
Q 44.96875 8.296875 48.78125 10.40625 
L 48.78125 2.09375 
Q 45.015625 0.34375 40.984375 -0.53125 
Q 36.96875 -1.421875 32.421875 -1.421875 
Q 20.0625 -1.421875 12.78125 6.34375 
Q 5.515625 14.109375 5.515625 27.296875 
Q 5.515625 40.671875 12.859375 48.328125 
Q 20.21875 56 33.015625 56 
Q 37.15625 56 41.109375 55.140625 
Q 45.0625 54.296875 48.78125 52.59375 
z
" id="DejaVuSans-99"/>
      <path d="M 2.984375 54.6875 
L 12.5 54.6875 
L 29.59375 8.796875 
L 46.6875 54.6875 
L 56.203125 54.6875 
L 35.6875 0 
L 23.484375 0 
z
" id="DejaVuSans-118"/>
     </defs>
     <use xlink:href="#DejaVuSans-80"/>
     <use x="60.302734" xlink:href="#DejaVuSans-83"/>
     <use x="123.779297" xlink:href="#DejaVuSans-79"/>
     <use x="202.490234" xlink:href="#DejaVuSans-32"/>
     <use x="234.277344" xlink:href="#DejaVuSans-79"/>
     <use x="312.988281" xlink:href="#DejaVuSans-112"/>
     <use x="376.464844" xlink:href="#DejaVuSans-116"/>
     <use x="415.673828" xlink:href="#DejaVuSans-105"/>
     <use x="443.457031" xlink:href="#DejaVuSans-109"/>
     <use x="540.869141" xlink:href="#DejaVuSans-105"/>
     <use x="568.652344" xlink:href="#DejaVuSans-115"/>
     <use x="620.751953" xlink:href="#DejaVuSans-101"/>
     <use x="682.275391" xlink:href="#DejaVuSans-100"/>
     <use x="745.751953" xlink:href="#DejaVuSans-32"/>
     <use x="777.539062" xlink:href="#DejaVuSans-78"/>
     <use x="852.34375" xlink:href="#DejaVuSans-78"/>
     <use x="927.148438" xlink:href="#DejaVuSans-32"/>
     <use x="958.935547" xlink:href="#DejaVuSans-119"/>
     <use x="1040.722656" xlink:href="#DejaVuSans-105"/>
     <use x="1068.505859" xlink:href="#DejaVuSans-116"/>
     <use x="1107.714844" xlink:href="#DejaVuSans-104"/>
     <use x="1171.09375" xlink:href="#DejaVuSans-32"/>
     <use x="1202.880859" xlink:href="#DejaVuSans-84"/>
     <use x="1247.464844" xlink:href="#DejaVuSans-97"/>
     <use x="1308.744141" xlink:href="#DejaVuSans-110"/>
     <use x="1372.123047" xlink:href="#DejaVuSans-104"/>
     <use x="1435.501953" xlink:href="#DejaVuSans-32"/>
     <use x="1467.289062" xlink:href="#DejaVuSans-65"/>
     <use x="1533.947266" xlink:href="#DejaVuSans-99"/>
     <use x="1588.927734" xlink:href="#DejaVuSans-116"/>
     <use x="1628.136719" xlink:href="#DejaVuSans-105"/>
     <use x="1655.919922" xlink:href="#DejaVuSans-118"/>
     <use x="1715.099609" xlink:href="#DejaVuSans-97"/>
     <use x="1776.378906" xlink:href="#DejaVuSans-116"/>
     <use x="1815.587891" xlink:href="#DejaVuSans-105"/>
     <use x="1843.371094" xlink:href="#DejaVuSans-111"/>
     <use x="1904.552734" xlink:href="#DejaVuSans-110"/>
    </g>
   </g>
   <g id="legend_1">
    <g id="patch_7">
     <path d="M 791.871875 240.54125 
L 958 240.54125 
Q 962 240.54125 962 236.54125 
L 962 91.76 
Q 962 87.76 958 87.76 
L 791.871875 87.76 
Q 787.871875 87.76 787.871875 91.76 
L 787.871875 236.54125 
Q 787.871875 240.54125 791.871875 240.54125 
z
" style="fill:#ffffff;opacity:0.8;stroke:#cccccc;stroke-linejoin:miter;"/>
    </g>
    <g id="line2d_23">
     <path d="M 795.871875 103.956875 
L 835.871875 103.956875 
" style="fill:none;stroke:#ff0000;stroke-linecap:square;"/>
    </g>
    <g id="line2d_24"/>
    <g id="text_21">
     <!-- 4 Neurons -->
     <g transform="translate(851.871875 110.956875)scale(0.2 -0.2)">
      <defs>
       <path d="M 8.5 21.578125 
L 8.5 54.6875 
L 17.484375 54.6875 
L 17.484375 21.921875 
Q 17.484375 14.15625 20.5 10.265625 
Q 23.53125 6.390625 29.59375 6.390625 
Q 36.859375 6.390625 41.078125 11.03125 
Q 45.3125 15.671875 45.3125 23.6875 
L 45.3125 54.6875 
L 54.296875 54.6875 
L 54.296875 0 
L 45.3125 0 
L 45.3125 8.40625 
Q 42.046875 3.421875 37.71875 1 
Q 33.40625 -1.421875 27.6875 -1.421875 
Q 18.265625 -1.421875 13.375 4.4375 
Q 8.5 10.296875 8.5 21.578125 
z
M 31.109375 56 
z
" id="DejaVuSans-117"/>
      </defs>
      <use xlink:href="#DejaVuSans-52"/>
      <use x="63.623047" xlink:href="#DejaVuSans-32"/>
      <use x="95.410156" xlink:href="#DejaVuSans-78"/>
      <use x="170.214844" xlink:href="#DejaVuSans-101"/>
      <use x="231.738281" xlink:href="#DejaVuSans-117"/>
      <use x="295.117188" xlink:href="#DejaVuSans-114"/>
      <use x="333.980469" xlink:href="#DejaVuSans-111"/>
      <use x="395.162109" xlink:href="#DejaVuSans-110"/>
      <use x="458.541016" xlink:href="#DejaVuSans-115"/>
     </g>
    </g>
    <g id="line2d_25">
     <path d="M 795.871875 133.313125 
L 835.871875 133.313125 
" style="fill:none;stroke:#006400;stroke-linecap:square;"/>
    </g>
    <g id="line2d_26"/>
    <g id="text_22">
     <!-- 5 Neurons -->
     <g transform="translate(851.871875 140.313125)scale(0.2 -0.2)">
      <use xlink:href="#DejaVuSans-53"/>
      <use x="63.623047" xlink:href="#DejaVuSans-32"/>
      <use x="95.410156" xlink:href="#DejaVuSans-78"/>
      <use x="170.214844" xlink:href="#DejaVuSans-101"/>
      <use x="231.738281" xlink:href="#DejaVuSans-117"/>
      <use x="295.117188" xlink:href="#DejaVuSans-114"/>
      <use x="333.980469" xlink:href="#DejaVuSans-111"/>
      <use x="395.162109" xlink:href="#DejaVuSans-110"/>
      <use x="458.541016" xlink:href="#DejaVuSans-115"/>
     </g>
    </g>
    <g id="line2d_27">
     <path d="M 795.871875 162.669375 
L 835.871875 162.669375 
" style="fill:none;stroke:#0000ff;stroke-linecap:square;"/>
    </g>
    <g id="line2d_28"/>
    <g id="text_23">
     <!-- 6 Neurons -->
     <g transform="translate(851.871875 169.669375)scale(0.2 -0.2)">
      <defs>
       <path d="M 33.015625 40.375 
Q 26.375 40.375 22.484375 35.828125 
Q 18.609375 31.296875 18.609375 23.390625 
Q 18.609375 15.53125 22.484375 10.953125 
Q 26.375 6.390625 33.015625 6.390625 
Q 39.65625 6.390625 43.53125 10.953125 
Q 47.40625 15.53125 47.40625 23.390625 
Q 47.40625 31.296875 43.53125 35.828125 
Q 39.65625 40.375 33.015625 40.375 
z
M 52.59375 71.296875 
L 52.59375 62.3125 
Q 48.875 64.0625 45.09375 64.984375 
Q 41.3125 65.921875 37.59375 65.921875 
Q 27.828125 65.921875 22.671875 59.328125 
Q 17.53125 52.734375 16.796875 39.40625 
Q 19.671875 43.65625 24.015625 45.921875 
Q 28.375 48.1875 33.59375 48.1875 
Q 44.578125 48.1875 50.953125 41.515625 
Q 57.328125 34.859375 57.328125 23.390625 
Q 57.328125 12.15625 50.6875 5.359375 
Q 44.046875 -1.421875 33.015625 -1.421875 
Q 20.359375 -1.421875 13.671875 8.265625 
Q 6.984375 17.96875 6.984375 36.375 
Q 6.984375 53.65625 15.1875 63.9375 
Q 23.390625 74.21875 37.203125 74.21875 
Q 40.921875 74.21875 44.703125 73.484375 
Q 48.484375 72.75 52.59375 71.296875 
z
" id="DejaVuSans-54"/>
      </defs>
      <use xlink:href="#DejaVuSans-54"/>
      <use x="63.623047" xlink:href="#DejaVuSans-32"/>
      <use x="95.410156" xlink:href="#DejaVuSans-78"/>
      <use x="170.214844" xlink:href="#DejaVuSans-101"/>
      <use x="231.738281" xlink:href="#DejaVuSans-117"/>
      <use x="295.117188" xlink:href="#DejaVuSans-114"/>
      <use x="333.980469" xlink:href="#DejaVuSans-111"/>
      <use x="395.162109" xlink:href="#DejaVuSans-110"/>
      <use x="458.541016" xlink:href="#DejaVuSans-115"/>
     </g>
    </g>
    <g id="line2d_29">
     <path d="M 795.871875 192.025625 
L 835.871875 192.025625 
" style="fill:none;stroke:#000000;stroke-linecap:square;"/>
    </g>
    <g id="line2d_30"/>
    <g id="text_24">
     <!-- 7 Neurons -->
     <g transform="translate(851.871875 199.025625)scale(0.2 -0.2)">
      <use xlink:href="#DejaVuSans-55"/>
      <use x="63.623047" xlink:href="#DejaVuSans-32"/>
      <use x="95.410156" xlink:href="#DejaVuSans-78"/>
      <use x="170.214844" xlink:href="#DejaVuSans-101"/>
      <use x="231.738281" xlink:href="#DejaVuSans-117"/>
      <use x="295.117188" xlink:href="#DejaVuSans-114"/>
      <use x="333.980469" xlink:href="#DejaVuSans-111"/>
      <use x="395.162109" xlink:href="#DejaVuSans-110"/>
      <use x="458.541016" xlink:href="#DejaVuSans-115"/>
     </g>
    </g>
    <g id="line2d_31">
     <path d="M 795.871875 221.381875 
L 835.871875 221.381875 
" style="fill:none;stroke:#ff00ff;stroke-linecap:square;"/>
    </g>
    <g id="line2d_32"/>
    <g id="text_25">
     <!-- 8 Neurons -->
     <g transform="translate(851.871875 228.381875)scale(0.2 -0.2)">
      <defs>
       <path d="M 31.78125 34.625 
Q 24.75 34.625 20.71875 30.859375 
Q 16.703125 27.09375 16.703125 20.515625 
Q 16.703125 13.921875 20.71875 10.15625 
Q 24.75 6.390625 31.78125 6.390625 
Q 38.8125 6.390625 42.859375 10.171875 
Q 46.921875 13.96875 46.921875 20.515625 
Q 46.921875 27.09375 42.890625 30.859375 
Q 38.875 34.625 31.78125 34.625 
z
M 21.921875 38.8125 
Q 15.578125 40.375 12.03125 44.71875 
Q 8.5 49.078125 8.5 55.328125 
Q 8.5 64.0625 14.71875 69.140625 
Q 20.953125 74.21875 31.78125 74.21875 
Q 42.671875 74.21875 48.875 69.140625 
Q 55.078125 64.0625 55.078125 55.328125 
Q 55.078125 49.078125 51.53125 44.71875 
Q 48 40.375 41.703125 38.8125 
Q 48.828125 37.15625 52.796875 32.3125 
Q 56.78125 27.484375 56.78125 20.515625 
Q 56.78125 9.90625 50.3125 4.234375 
Q 43.84375 -1.421875 31.78125 -1.421875 
Q 19.734375 -1.421875 13.25 4.234375 
Q 6.78125 9.90625 6.78125 20.515625 
Q 6.78125 27.484375 10.78125 32.3125 
Q 14.796875 37.15625 21.921875 38.8125 
z
M 18.3125 54.390625 
Q 18.3125 48.734375 21.84375 45.5625 
Q 25.390625 42.390625 31.78125 42.390625 
Q 38.140625 42.390625 41.71875 45.5625 
Q 45.3125 48.734375 45.3125 54.390625 
Q 45.3125 60.0625 41.71875 63.234375 
Q 38.140625 66.40625 31.78125 66.40625 
Q 25.390625 66.40625 21.84375 63.234375 
Q 18.3125 60.0625 18.3125 54.390625 
z
" id="DejaVuSans-56"/>
      </defs>
      <use xlink:href="#DejaVuSans-56"/>
      <use x="63.623047" xlink:href="#DejaVuSans-32"/>
      <use x="95.410156" xlink:href="#DejaVuSans-78"/>
      <use x="170.214844" xlink:href="#DejaVuSans-101"/>
      <use x="231.738281" xlink:href="#DejaVuSans-117"/>
      <use x="295.117188" xlink:href="#DejaVuSans-114"/>
      <use x="333.980469" xlink:href="#DejaVuSans-111"/>
      <use x="395.162109" xlink:href="#DejaVuSans-110"/>
      <use x="458.541016" xlink:href="#DejaVuSans-115"/>
     </g>
    </g>
   </g>
  </g>
 </g>
 <defs>
  <clipPath id="p09db3ae657">
   <rect height="489.24" width="837" x="135" y="77.76"/>
  </clipPath>
 </defs>
</svg>
