<?xml version="1.0" encoding="utf-8" standalone="no"?>
<!DOCTYPE svg PUBLIC "-//W3C//DTD SVG 1.1//EN"
  "http://www.w3.org/Graphics/SVG/1.1/DTD/svg11.dtd">
<!-- Created with matplotlib (https://matplotlib.org/) -->
<svg height="648pt" version="1.1" viewBox="0 0 1080 648" width="1080pt" xmlns="http://www.w3.org/2000/svg" xmlns:xlink="http://www.w3.org/1999/xlink">
 <metadata>
  <rdf:RDF xmlns:cc="http://creativecommons.org/ns#" xmlns:dc="http://purl.org/dc/elements/1.1/" xmlns:rdf="http://www.w3.org/1999/02/22-rdf-syntax-ns#">
   <cc:Work>
    <dc:type rdf:resource="http://purl.org/dc/dcmitype/StillImage"/>
    <dc:date>2020-11-17T17:40:51.808439</dc:date>
    <dc:format>image/svg+xml</dc:format>
    <dc:creator>
     <cc:Agent>
      <dc:title>Matplotlib v3.3.2, https://matplotlib.org/</dc:title>
     </cc:Agent>
    </dc:creator>
   </cc:Work>
  </rdf:RDF>
 </metadata>
 <defs>
  <style type="text/css">*{stroke-linecap:butt;stroke-linejoin:round;}</style>
 </defs>
 <g id="figure_1">
  <g id="patch_1">
   <path d="M 0 648 
L 1080 648 
L 1080 0 
L 0 0 
z
" style="fill:none;"/>
  </g>
  <g id="axes_1">
   <g id="patch_2">
    <path d="M 135 567 
L 972 567 
L 972 77.76 
L 135 77.76 
z
" style="fill:#ffffff;"/>
   </g>
   <g id="matplotlib.axis_1">
    <g id="xtick_1">
     <g id="line2d_1">
      <defs>
       <path d="M 0 0 
L 0 3.5 
" id="m47a4c08861" style="stroke:#000000;stroke-width:0.8;"/>
      </defs>
      <g>
       <use style="stroke:#000000;stroke-width:0.8;" x="172.537674" xlink:href="#m47a4c08861" y="567"/>
      </g>
     </g>
     <g id="text_1">
      <!-- 0 -->
      <g transform="translate(169.356424 581.598438)scale(0.1 -0.1)">
       <defs>
        <path d="M 31.78125 66.40625 
Q 24.171875 66.40625 20.328125 58.90625 
Q 16.5 51.421875 16.5 36.375 
Q 16.5 21.390625 20.328125 13.890625 
Q 24.171875 6.390625 31.78125 6.390625 
Q 39.453125 6.390625 43.28125 13.890625 
Q 47.125 21.390625 47.125 36.375 
Q 47.125 51.421875 43.28125 58.90625 
Q 39.453125 66.40625 31.78125 66.40625 
z
M 31.78125 74.21875 
Q 44.046875 74.21875 50.515625 64.515625 
Q 56.984375 54.828125 56.984375 36.375 
Q 56.984375 17.96875 50.515625 8.265625 
Q 44.046875 -1.421875 31.78125 -1.421875 
Q 19.53125 -1.421875 13.0625 8.265625 
Q 6.59375 17.96875 6.59375 36.375 
Q 6.59375 54.828125 13.0625 64.515625 
Q 19.53125 74.21875 31.78125 74.21875 
z
" id="DejaVuSans-48"/>
       </defs>
       <use xlink:href="#DejaVuSans-48"/>
      </g>
     </g>
    </g>
    <g id="xtick_2">
     <g id="line2d_2">
      <g>
       <use style="stroke:#000000;stroke-width:0.8;" x="299.482801" xlink:href="#m47a4c08861" y="567"/>
      </g>
     </g>
     <g id="text_2">
      <!-- 10000 -->
      <g transform="translate(283.576551 581.598438)scale(0.1 -0.1)">
       <defs>
        <path d="M 12.40625 8.296875 
L 28.515625 8.296875 
L 28.515625 63.921875 
L 10.984375 60.40625 
L 10.984375 69.390625 
L 28.421875 72.90625 
L 38.28125 72.90625 
L 38.28125 8.296875 
L 54.390625 8.296875 
L 54.390625 0 
L 12.40625 0 
z
" id="DejaVuSans-49"/>
       </defs>
       <use xlink:href="#DejaVuSans-49"/>
       <use x="63.623047" xlink:href="#DejaVuSans-48"/>
       <use x="127.246094" xlink:href="#DejaVuSans-48"/>
       <use x="190.869141" xlink:href="#DejaVuSans-48"/>
       <use x="254.492188" xlink:href="#DejaVuSans-48"/>
      </g>
     </g>
    </g>
    <g id="xtick_3">
     <g id="line2d_3">
      <g>
       <use style="stroke:#000000;stroke-width:0.8;" x="426.427928" xlink:href="#m47a4c08861" y="567"/>
      </g>
     </g>
     <g id="text_3">
      <!-- 20000 -->
      <g transform="translate(410.521678 581.598438)scale(0.1 -0.1)">
       <defs>
        <path d="M 19.1875 8.296875 
L 53.609375 8.296875 
L 53.609375 0 
L 7.328125 0 
L 7.328125 8.296875 
Q 12.9375 14.109375 22.625 23.890625 
Q 32.328125 33.6875 34.8125 36.53125 
Q 39.546875 41.84375 41.421875 45.53125 
Q 43.3125 49.21875 43.3125 52.78125 
Q 43.3125 58.59375 39.234375 62.25 
Q 35.15625 65.921875 28.609375 65.921875 
Q 23.96875 65.921875 18.8125 64.3125 
Q 13.671875 62.703125 7.8125 59.421875 
L 7.8125 69.390625 
Q 13.765625 71.78125 18.9375 73 
Q 24.125 74.21875 28.421875 74.21875 
Q 39.75 74.21875 46.484375 68.546875 
Q 53.21875 62.890625 53.21875 53.421875 
Q 53.21875 48.921875 51.53125 44.890625 
Q 49.859375 40.875 45.40625 35.40625 
Q 44.1875 33.984375 37.640625 27.21875 
Q 31.109375 20.453125 19.1875 8.296875 
z
" id="DejaVuSans-50"/>
       </defs>
       <use xlink:href="#DejaVuSans-50"/>
       <use x="63.623047" xlink:href="#DejaVuSans-48"/>
       <use x="127.246094" xlink:href="#DejaVuSans-48"/>
       <use x="190.869141" xlink:href="#DejaVuSans-48"/>
       <use x="254.492188" xlink:href="#DejaVuSans-48"/>
      </g>
     </g>
    </g>
    <g id="xtick_4">
     <g id="line2d_4">
      <g>
       <use style="stroke:#000000;stroke-width:0.8;" x="553.373055" xlink:href="#m47a4c08861" y="567"/>
      </g>
     </g>
     <g id="text_4">
      <!-- 30000 -->
      <g transform="translate(537.466805 581.598438)scale(0.1 -0.1)">
       <defs>
        <path d="M 40.578125 39.3125 
Q 47.65625 37.796875 51.625 33 
Q 55.609375 28.21875 55.609375 21.1875 
Q 55.609375 10.40625 48.1875 4.484375 
Q 40.765625 -1.421875 27.09375 -1.421875 
Q 22.515625 -1.421875 17.65625 -0.515625 
Q 12.796875 0.390625 7.625 2.203125 
L 7.625 11.71875 
Q 11.71875 9.328125 16.59375 8.109375 
Q 21.484375 6.890625 26.8125 6.890625 
Q 36.078125 6.890625 40.9375 10.546875 
Q 45.796875 14.203125 45.796875 21.1875 
Q 45.796875 27.640625 41.28125 31.265625 
Q 36.765625 34.90625 28.71875 34.90625 
L 20.21875 34.90625 
L 20.21875 43.015625 
L 29.109375 43.015625 
Q 36.375 43.015625 40.234375 45.921875 
Q 44.09375 48.828125 44.09375 54.296875 
Q 44.09375 59.90625 40.109375 62.90625 
Q 36.140625 65.921875 28.71875 65.921875 
Q 24.65625 65.921875 20.015625 65.03125 
Q 15.375 64.15625 9.8125 62.3125 
L 9.8125 71.09375 
Q 15.4375 72.65625 20.34375 73.4375 
Q 25.25 74.21875 29.59375 74.21875 
Q 40.828125 74.21875 47.359375 69.109375 
Q 53.90625 64.015625 53.90625 55.328125 
Q 53.90625 49.265625 50.4375 45.09375 
Q 46.96875 40.921875 40.578125 39.3125 
z
" id="DejaVuSans-51"/>
       </defs>
       <use xlink:href="#DejaVuSans-51"/>
       <use x="63.623047" xlink:href="#DejaVuSans-48"/>
       <use x="127.246094" xlink:href="#DejaVuSans-48"/>
       <use x="190.869141" xlink:href="#DejaVuSans-48"/>
       <use x="254.492188" xlink:href="#DejaVuSans-48"/>
      </g>
     </g>
    </g>
    <g id="xtick_5">
     <g id="line2d_5">
      <g>
       <use style="stroke:#000000;stroke-width:0.8;" x="680.318182" xlink:href="#m47a4c08861" y="567"/>
      </g>
     </g>
     <g id="text_5">
      <!-- 40000 -->
      <g transform="translate(664.411932 581.598438)scale(0.1 -0.1)">
       <defs>
        <path d="M 37.796875 64.3125 
L 12.890625 25.390625 
L 37.796875 25.390625 
z
M 35.203125 72.90625 
L 47.609375 72.90625 
L 47.609375 25.390625 
L 58.015625 25.390625 
L 58.015625 17.1875 
L 47.609375 17.1875 
L 47.609375 0 
L 37.796875 0 
L 37.796875 17.1875 
L 4.890625 17.1875 
L 4.890625 26.703125 
z
" id="DejaVuSans-52"/>
       </defs>
       <use xlink:href="#DejaVuSans-52"/>
       <use x="63.623047" xlink:href="#DejaVuSans-48"/>
       <use x="127.246094" xlink:href="#DejaVuSans-48"/>
       <use x="190.869141" xlink:href="#DejaVuSans-48"/>
       <use x="254.492188" xlink:href="#DejaVuSans-48"/>
      </g>
     </g>
    </g>
    <g id="xtick_6">
     <g id="line2d_6">
      <g>
       <use style="stroke:#000000;stroke-width:0.8;" x="807.263309" xlink:href="#m47a4c08861" y="567"/>
      </g>
     </g>
     <g id="text_6">
      <!-- 50000 -->
      <g transform="translate(791.357059 581.598438)scale(0.1 -0.1)">
       <defs>
        <path d="M 10.796875 72.90625 
L 49.515625 72.90625 
L 49.515625 64.59375 
L 19.828125 64.59375 
L 19.828125 46.734375 
Q 21.96875 47.46875 24.109375 47.828125 
Q 26.265625 48.1875 28.421875 48.1875 
Q 40.625 48.1875 47.75 41.5 
Q 54.890625 34.8125 54.890625 23.390625 
Q 54.890625 11.625 47.5625 5.09375 
Q 40.234375 -1.421875 26.90625 -1.421875 
Q 22.3125 -1.421875 17.546875 -0.640625 
Q 12.796875 0.140625 7.71875 1.703125 
L 7.71875 11.625 
Q 12.109375 9.234375 16.796875 8.0625 
Q 21.484375 6.890625 26.703125 6.890625 
Q 35.15625 6.890625 40.078125 11.328125 
Q 45.015625 15.765625 45.015625 23.390625 
Q 45.015625 31 40.078125 35.4375 
Q 35.15625 39.890625 26.703125 39.890625 
Q 22.75 39.890625 18.8125 39.015625 
Q 14.890625 38.140625 10.796875 36.28125 
z
" id="DejaVuSans-53"/>
       </defs>
       <use xlink:href="#DejaVuSans-53"/>
       <use x="63.623047" xlink:href="#DejaVuSans-48"/>
       <use x="127.246094" xlink:href="#DejaVuSans-48"/>
       <use x="190.869141" xlink:href="#DejaVuSans-48"/>
       <use x="254.492188" xlink:href="#DejaVuSans-48"/>
      </g>
     </g>
    </g>
    <g id="xtick_7">
     <g id="line2d_7">
      <g>
       <use style="stroke:#000000;stroke-width:0.8;" x="934.208436" xlink:href="#m47a4c08861" y="567"/>
      </g>
     </g>
     <g id="text_7">
      <!-- 60000 -->
      <g transform="translate(918.302186 581.598438)scale(0.1 -0.1)">
       <defs>
        <path d="M 33.015625 40.375 
Q 26.375 40.375 22.484375 35.828125 
Q 18.609375 31.296875 18.609375 23.390625 
Q 18.609375 15.53125 22.484375 10.953125 
Q 26.375 6.390625 33.015625 6.390625 
Q 39.65625 6.390625 43.53125 10.953125 
Q 47.40625 15.53125 47.40625 23.390625 
Q 47.40625 31.296875 43.53125 35.828125 
Q 39.65625 40.375 33.015625 40.375 
z
M 52.59375 71.296875 
L 52.59375 62.3125 
Q 48.875 64.0625 45.09375 64.984375 
Q 41.3125 65.921875 37.59375 65.921875 
Q 27.828125 65.921875 22.671875 59.328125 
Q 17.53125 52.734375 16.796875 39.40625 
Q 19.671875 43.65625 24.015625 45.921875 
Q 28.375 48.1875 33.59375 48.1875 
Q 44.578125 48.1875 50.953125 41.515625 
Q 57.328125 34.859375 57.328125 23.390625 
Q 57.328125 12.15625 50.6875 5.359375 
Q 44.046875 -1.421875 33.015625 -1.421875 
Q 20.359375 -1.421875 13.671875 8.265625 
Q 6.984375 17.96875 6.984375 36.375 
Q 6.984375 53.65625 15.1875 63.9375 
Q 23.390625 74.21875 37.203125 74.21875 
Q 40.921875 74.21875 44.703125 73.484375 
Q 48.484375 72.75 52.59375 71.296875 
z
" id="DejaVuSans-54"/>
       </defs>
       <use xlink:href="#DejaVuSans-54"/>
       <use x="63.623047" xlink:href="#DejaVuSans-48"/>
       <use x="127.246094" xlink:href="#DejaVuSans-48"/>
       <use x="190.869141" xlink:href="#DejaVuSans-48"/>
       <use x="254.492188" xlink:href="#DejaVuSans-48"/>
      </g>
     </g>
    </g>
    <g id="text_8">
     <!-- Iterations -->
     <g transform="translate(510.636094 601.355312)scale(0.18 -0.18)">
      <defs>
       <path d="M 9.8125 72.90625 
L 19.671875 72.90625 
L 19.671875 0 
L 9.8125 0 
z
" id="DejaVuSans-73"/>
       <path d="M 18.3125 70.21875 
L 18.3125 54.6875 
L 36.8125 54.6875 
L 36.8125 47.703125 
L 18.3125 47.703125 
L 18.3125 18.015625 
Q 18.3125 11.328125 20.140625 9.421875 
Q 21.96875 7.515625 27.59375 7.515625 
L 36.8125 7.515625 
L 36.8125 0 
L 27.59375 0 
Q 17.1875 0 13.234375 3.875 
Q 9.28125 7.765625 9.28125 18.015625 
L 9.28125 47.703125 
L 2.6875 47.703125 
L 2.6875 54.6875 
L 9.28125 54.6875 
L 9.28125 70.21875 
z
" id="DejaVuSans-116"/>
       <path d="M 56.203125 29.59375 
L 56.203125 25.203125 
L 14.890625 25.203125 
Q 15.484375 15.921875 20.484375 11.0625 
Q 25.484375 6.203125 34.421875 6.203125 
Q 39.59375 6.203125 44.453125 7.46875 
Q 49.3125 8.734375 54.109375 11.28125 
L 54.109375 2.78125 
Q 49.265625 0.734375 44.1875 -0.34375 
Q 39.109375 -1.421875 33.890625 -1.421875 
Q 20.796875 -1.421875 13.15625 6.1875 
Q 5.515625 13.8125 5.515625 26.8125 
Q 5.515625 40.234375 12.765625 48.109375 
Q 20.015625 56 32.328125 56 
Q 43.359375 56 49.78125 48.890625 
Q 56.203125 41.796875 56.203125 29.59375 
z
M 47.21875 32.234375 
Q 47.125 39.59375 43.09375 43.984375 
Q 39.0625 48.390625 32.421875 48.390625 
Q 24.90625 48.390625 20.390625 44.140625 
Q 15.875 39.890625 15.1875 32.171875 
z
" id="DejaVuSans-101"/>
       <path d="M 41.109375 46.296875 
Q 39.59375 47.171875 37.8125 47.578125 
Q 36.03125 48 33.890625 48 
Q 26.265625 48 22.1875 43.046875 
Q 18.109375 38.09375 18.109375 28.8125 
L 18.109375 0 
L 9.078125 0 
L 9.078125 54.6875 
L 18.109375 54.6875 
L 18.109375 46.1875 
Q 20.953125 51.171875 25.484375 53.578125 
Q 30.03125 56 36.53125 56 
Q 37.453125 56 38.578125 55.875 
Q 39.703125 55.765625 41.0625 55.515625 
z
" id="DejaVuSans-114"/>
       <path d="M 34.28125 27.484375 
Q 23.390625 27.484375 19.1875 25 
Q 14.984375 22.515625 14.984375 16.5 
Q 14.984375 11.71875 18.140625 8.90625 
Q 21.296875 6.109375 26.703125 6.109375 
Q 34.1875 6.109375 38.703125 11.40625 
Q 43.21875 16.703125 43.21875 25.484375 
L 43.21875 27.484375 
z
M 52.203125 31.203125 
L 52.203125 0 
L 43.21875 0 
L 43.21875 8.296875 
Q 40.140625 3.328125 35.546875 0.953125 
Q 30.953125 -1.421875 24.3125 -1.421875 
Q 15.921875 -1.421875 10.953125 3.296875 
Q 6 8.015625 6 15.921875 
Q 6 25.140625 12.171875 29.828125 
Q 18.359375 34.515625 30.609375 34.515625 
L 43.21875 34.515625 
L 43.21875 35.40625 
Q 43.21875 41.609375 39.140625 45 
Q 35.0625 48.390625 27.6875 48.390625 
Q 23 48.390625 18.546875 47.265625 
Q 14.109375 46.140625 10.015625 43.890625 
L 10.015625 52.203125 
Q 14.9375 54.109375 19.578125 55.046875 
Q 24.21875 56 28.609375 56 
Q 40.484375 56 46.34375 49.84375 
Q 52.203125 43.703125 52.203125 31.203125 
z
" id="DejaVuSans-97"/>
       <path d="M 9.421875 54.6875 
L 18.40625 54.6875 
L 18.40625 0 
L 9.421875 0 
z
M 9.421875 75.984375 
L 18.40625 75.984375 
L 18.40625 64.59375 
L 9.421875 64.59375 
z
" id="DejaVuSans-105"/>
       <path d="M 30.609375 48.390625 
Q 23.390625 48.390625 19.1875 42.75 
Q 14.984375 37.109375 14.984375 27.296875 
Q 14.984375 17.484375 19.15625 11.84375 
Q 23.34375 6.203125 30.609375 6.203125 
Q 37.796875 6.203125 41.984375 11.859375 
Q 46.1875 17.53125 46.1875 27.296875 
Q 46.1875 37.015625 41.984375 42.703125 
Q 37.796875 48.390625 30.609375 48.390625 
z
M 30.609375 56 
Q 42.328125 56 49.015625 48.375 
Q 55.71875 40.765625 55.71875 27.296875 
Q 55.71875 13.875 49.015625 6.21875 
Q 42.328125 -1.421875 30.609375 -1.421875 
Q 18.84375 -1.421875 12.171875 6.21875 
Q 5.515625 13.875 5.515625 27.296875 
Q 5.515625 40.765625 12.171875 48.375 
Q 18.84375 56 30.609375 56 
z
" id="DejaVuSans-111"/>
       <path d="M 54.890625 33.015625 
L 54.890625 0 
L 45.90625 0 
L 45.90625 32.71875 
Q 45.90625 40.484375 42.875 44.328125 
Q 39.84375 48.1875 33.796875 48.1875 
Q 26.515625 48.1875 22.3125 43.546875 
Q 18.109375 38.921875 18.109375 30.90625 
L 18.109375 0 
L 9.078125 0 
L 9.078125 54.6875 
L 18.109375 54.6875 
L 18.109375 46.1875 
Q 21.34375 51.125 25.703125 53.5625 
Q 30.078125 56 35.796875 56 
Q 45.21875 56 50.046875 50.171875 
Q 54.890625 44.34375 54.890625 33.015625 
z
" id="DejaVuSans-110"/>
       <path d="M 44.28125 53.078125 
L 44.28125 44.578125 
Q 40.484375 46.53125 36.375 47.5 
Q 32.28125 48.484375 27.875 48.484375 
Q 21.1875 48.484375 17.84375 46.4375 
Q 14.5 44.390625 14.5 40.28125 
Q 14.5 37.15625 16.890625 35.375 
Q 19.28125 33.59375 26.515625 31.984375 
L 29.59375 31.296875 
Q 39.15625 29.25 43.1875 25.515625 
Q 47.21875 21.78125 47.21875 15.09375 
Q 47.21875 7.46875 41.1875 3.015625 
Q 35.15625 -1.421875 24.609375 -1.421875 
Q 20.21875 -1.421875 15.453125 -0.5625 
Q 10.6875 0.296875 5.421875 2 
L 5.421875 11.28125 
Q 10.40625 8.6875 15.234375 7.390625 
Q 20.0625 6.109375 24.8125 6.109375 
Q 31.15625 6.109375 34.5625 8.28125 
Q 37.984375 10.453125 37.984375 14.40625 
Q 37.984375 18.0625 35.515625 20.015625 
Q 33.0625 21.96875 24.703125 23.78125 
L 21.578125 24.515625 
Q 13.234375 26.265625 9.515625 29.90625 
Q 5.8125 33.546875 5.8125 39.890625 
Q 5.8125 47.609375 11.28125 51.796875 
Q 16.75 56 26.8125 56 
Q 31.78125 56 36.171875 55.265625 
Q 40.578125 54.546875 44.28125 53.078125 
z
" id="DejaVuSans-115"/>
      </defs>
      <use xlink:href="#DejaVuSans-73"/>
      <use x="29.492188" xlink:href="#DejaVuSans-116"/>
      <use x="68.701172" xlink:href="#DejaVuSans-101"/>
      <use x="130.224609" xlink:href="#DejaVuSans-114"/>
      <use x="171.337891" xlink:href="#DejaVuSans-97"/>
      <use x="232.617188" xlink:href="#DejaVuSans-116"/>
      <use x="271.826172" xlink:href="#DejaVuSans-105"/>
      <use x="299.609375" xlink:href="#DejaVuSans-111"/>
      <use x="360.791016" xlink:href="#DejaVuSans-110"/>
      <use x="424.169922" xlink:href="#DejaVuSans-115"/>
     </g>
    </g>
   </g>
   <g id="matplotlib.axis_2">
    <g id="ytick_1">
     <g id="line2d_8">
      <defs>
       <path d="M 0 0 
L -3.5 0 
" id="ma3f80bfd75" style="stroke:#000000;stroke-width:0.8;"/>
      </defs>
      <g>
       <use style="stroke:#000000;stroke-width:0.8;" x="135" xlink:href="#ma3f80bfd75" y="532.054286"/>
      </g>
     </g>
     <g id="text_9">
      <!-- 0.25 -->
      <g transform="translate(105.734375 535.853504)scale(0.1 -0.1)">
       <defs>
        <path d="M 10.6875 12.40625 
L 21 12.40625 
L 21 0 
L 10.6875 0 
z
" id="DejaVuSans-46"/>
       </defs>
       <use xlink:href="#DejaVuSans-48"/>
       <use x="63.623047" xlink:href="#DejaVuSans-46"/>
       <use x="95.410156" xlink:href="#DejaVuSans-50"/>
       <use x="159.033203" xlink:href="#DejaVuSans-53"/>
      </g>
     </g>
    </g>
    <g id="ytick_2">
     <g id="line2d_9">
      <g>
       <use style="stroke:#000000;stroke-width:0.8;" x="135" xlink:href="#ma3f80bfd75" y="448.184571"/>
      </g>
     </g>
     <g id="text_10">
      <!-- 0.30 -->
      <g transform="translate(105.734375 451.98379)scale(0.1 -0.1)">
       <use xlink:href="#DejaVuSans-48"/>
       <use x="63.623047" xlink:href="#DejaVuSans-46"/>
       <use x="95.410156" xlink:href="#DejaVuSans-51"/>
       <use x="159.033203" xlink:href="#DejaVuSans-48"/>
      </g>
     </g>
    </g>
    <g id="ytick_3">
     <g id="line2d_10">
      <g>
       <use style="stroke:#000000;stroke-width:0.8;" x="135" xlink:href="#ma3f80bfd75" y="364.314857"/>
      </g>
     </g>
     <g id="text_11">
      <!-- 0.35 -->
      <g transform="translate(105.734375 368.114076)scale(0.1 -0.1)">
       <use xlink:href="#DejaVuSans-48"/>
       <use x="63.623047" xlink:href="#DejaVuSans-46"/>
       <use x="95.410156" xlink:href="#DejaVuSans-51"/>
       <use x="159.033203" xlink:href="#DejaVuSans-53"/>
      </g>
     </g>
    </g>
    <g id="ytick_4">
     <g id="line2d_11">
      <g>
       <use style="stroke:#000000;stroke-width:0.8;" x="135" xlink:href="#ma3f80bfd75" y="280.445143"/>
      </g>
     </g>
     <g id="text_12">
      <!-- 0.40 -->
      <g transform="translate(105.734375 284.244362)scale(0.1 -0.1)">
       <use xlink:href="#DejaVuSans-48"/>
       <use x="63.623047" xlink:href="#DejaVuSans-46"/>
       <use x="95.410156" xlink:href="#DejaVuSans-52"/>
       <use x="159.033203" xlink:href="#DejaVuSans-48"/>
      </g>
     </g>
    </g>
    <g id="ytick_5">
     <g id="line2d_12">
      <g>
       <use style="stroke:#000000;stroke-width:0.8;" x="135" xlink:href="#ma3f80bfd75" y="196.575429"/>
      </g>
     </g>
     <g id="text_13">
      <!-- 0.45 -->
      <g transform="translate(105.734375 200.374647)scale(0.1 -0.1)">
       <use xlink:href="#DejaVuSans-48"/>
       <use x="63.623047" xlink:href="#DejaVuSans-46"/>
       <use x="95.410156" xlink:href="#DejaVuSans-52"/>
       <use x="159.033203" xlink:href="#DejaVuSans-53"/>
      </g>
     </g>
    </g>
    <g id="ytick_6">
     <g id="line2d_13">
      <g>
       <use style="stroke:#000000;stroke-width:0.8;" x="135" xlink:href="#ma3f80bfd75" y="112.705714"/>
      </g>
     </g>
     <g id="text_14">
      <!-- 0.50 -->
      <g transform="translate(105.734375 116.504933)scale(0.1 -0.1)">
       <use xlink:href="#DejaVuSans-48"/>
       <use x="63.623047" xlink:href="#DejaVuSans-46"/>
       <use x="95.410156" xlink:href="#DejaVuSans-53"/>
       <use x="159.033203" xlink:href="#DejaVuSans-48"/>
      </g>
     </g>
    </g>
    <g id="text_15">
     <!-- Test Error (MSE) -->
     <g transform="translate(97.990938 393.944062)rotate(-90)scale(0.18 -0.18)">
      <defs>
       <path d="M -0.296875 72.90625 
L 61.375 72.90625 
L 61.375 64.59375 
L 35.5 64.59375 
L 35.5 0 
L 25.59375 0 
L 25.59375 64.59375 
L -0.296875 64.59375 
z
" id="DejaVuSans-84"/>
       <path id="DejaVuSans-32"/>
       <path d="M 9.8125 72.90625 
L 55.90625 72.90625 
L 55.90625 64.59375 
L 19.671875 64.59375 
L 19.671875 43.015625 
L 54.390625 43.015625 
L 54.390625 34.71875 
L 19.671875 34.71875 
L 19.671875 8.296875 
L 56.78125 8.296875 
L 56.78125 0 
L 9.8125 0 
z
" id="DejaVuSans-69"/>
       <path d="M 31 75.875 
Q 24.46875 64.65625 21.28125 53.65625 
Q 18.109375 42.671875 18.109375 31.390625 
Q 18.109375 20.125 21.3125 9.0625 
Q 24.515625 -2 31 -13.1875 
L 23.1875 -13.1875 
Q 15.875 -1.703125 12.234375 9.375 
Q 8.59375 20.453125 8.59375 31.390625 
Q 8.59375 42.28125 12.203125 53.3125 
Q 15.828125 64.359375 23.1875 75.875 
z
" id="DejaVuSans-40"/>
       <path d="M 9.8125 72.90625 
L 24.515625 72.90625 
L 43.109375 23.296875 
L 61.8125 72.90625 
L 76.515625 72.90625 
L 76.515625 0 
L 66.890625 0 
L 66.890625 64.015625 
L 48.09375 14.015625 
L 38.1875 14.015625 
L 19.390625 64.015625 
L 19.390625 0 
L 9.8125 0 
z
" id="DejaVuSans-77"/>
       <path d="M 53.515625 70.515625 
L 53.515625 60.890625 
Q 47.90625 63.578125 42.921875 64.890625 
Q 37.9375 66.21875 33.296875 66.21875 
Q 25.25 66.21875 20.875 63.09375 
Q 16.5 59.96875 16.5 54.203125 
Q 16.5 49.359375 19.40625 46.890625 
Q 22.3125 44.4375 30.421875 42.921875 
L 36.375 41.703125 
Q 47.40625 39.59375 52.65625 34.296875 
Q 57.90625 29 57.90625 20.125 
Q 57.90625 9.515625 50.796875 4.046875 
Q 43.703125 -1.421875 29.984375 -1.421875 
Q 24.8125 -1.421875 18.96875 -0.25 
Q 13.140625 0.921875 6.890625 3.21875 
L 6.890625 13.375 
Q 12.890625 10.015625 18.65625 8.296875 
Q 24.421875 6.59375 29.984375 6.59375 
Q 38.421875 6.59375 43.015625 9.90625 
Q 47.609375 13.234375 47.609375 19.390625 
Q 47.609375 24.75 44.3125 27.78125 
Q 41.015625 30.8125 33.5 32.328125 
L 27.484375 33.5 
Q 16.453125 35.6875 11.515625 40.375 
Q 6.59375 45.0625 6.59375 53.421875 
Q 6.59375 63.09375 13.40625 68.65625 
Q 20.21875 74.21875 32.171875 74.21875 
Q 37.3125 74.21875 42.625 73.28125 
Q 47.953125 72.359375 53.515625 70.515625 
z
" id="DejaVuSans-83"/>
       <path d="M 8.015625 75.875 
L 15.828125 75.875 
Q 23.140625 64.359375 26.78125 53.3125 
Q 30.421875 42.28125 30.421875 31.390625 
Q 30.421875 20.453125 26.78125 9.375 
Q 23.140625 -1.703125 15.828125 -13.1875 
L 8.015625 -13.1875 
Q 14.5 -2 17.703125 9.0625 
Q 20.90625 20.125 20.90625 31.390625 
Q 20.90625 42.671875 17.703125 53.65625 
Q 14.5 64.65625 8.015625 75.875 
z
" id="DejaVuSans-41"/>
      </defs>
      <use xlink:href="#DejaVuSans-84"/>
      <use x="44.083984" xlink:href="#DejaVuSans-101"/>
      <use x="105.607422" xlink:href="#DejaVuSans-115"/>
      <use x="157.707031" xlink:href="#DejaVuSans-116"/>
      <use x="196.916016" xlink:href="#DejaVuSans-32"/>
      <use x="228.703125" xlink:href="#DejaVuSans-69"/>
      <use x="291.886719" xlink:href="#DejaVuSans-114"/>
      <use x="331.25" xlink:href="#DejaVuSans-114"/>
      <use x="370.113281" xlink:href="#DejaVuSans-111"/>
      <use x="431.294922" xlink:href="#DejaVuSans-114"/>
      <use x="472.408203" xlink:href="#DejaVuSans-32"/>
      <use x="504.195312" xlink:href="#DejaVuSans-40"/>
      <use x="543.208984" xlink:href="#DejaVuSans-77"/>
      <use x="629.488281" xlink:href="#DejaVuSans-83"/>
      <use x="692.964844" xlink:href="#DejaVuSans-69"/>
      <use x="756.148438" xlink:href="#DejaVuSans-41"/>
     </g>
    </g>
   </g>
   <g id="line2d_14">
    <path clip-path="url(#p86b5148041)" d="M 173.045455 157.182078 
L 173.299345 271.54987 
L 173.553235 284.257403 
L 173.807125 290.611169 
L 174.061016 347.795065 
L 174.314906 462.162857 
L 174.568796 455.809091 
L 174.822686 462.162857 
L 175.076577 443.101558 
L 175.330467 449.455325 
L 176.092138 449.455325 
L 176.599918 436.747792 
L 176.853808 436.747792 
L 177.107699 449.455325 
L 177.361589 443.101558 
L 177.615479 443.101558 
L 177.869369 449.455325 
L 178.12326 443.101558 
L 180.662162 443.101558 
L 180.916052 449.455325 
L 181.169943 449.455325 
L 181.423833 443.101558 
L 181.677723 449.455325 
L 181.931613 443.101558 
L 184.216626 443.101558 
L 184.724406 455.809091 
L 188.02498 455.809091 
L 188.27887 449.455325 
L 190.563882 449.455325 
L 190.817772 455.809091 
L 191.325553 455.809091 
L 191.579443 449.455325 
L 191.833333 449.455325 
L 192.087224 455.809091 
L 199.196151 455.809091 
L 199.450041 449.455325 
L 199.703931 449.455325 
L 199.957821 455.809091 
L 200.211712 449.455325 
L 200.973382 449.455325 
L 201.227273 455.809091 
L 201.481163 449.455325 
L 202.750614 449.455325 
L 203.004505 455.809091 
L 203.258395 449.455325 
L 208.08231 449.455325 
L 208.3362 455.809091 
L 214.937346 455.809091 
L 215.191237 449.455325 
L 215.445127 449.455325 
L 215.699017 443.101558 
L 217.730139 443.101558 
L 217.984029 449.455325 
L 218.23792 443.101558 
L 219.253481 443.101558 
L 219.507371 449.455325 
L 219.761261 443.101558 
L 220.776822 443.101558 
L 221.030713 449.455325 
L 222.300164 449.455325 
L 222.554054 443.101558 
L 223.315725 443.101558 
L 223.569615 449.455325 
L 225.854627 449.455325 
L 226.108518 443.101558 
L 226.616298 443.101558 
L 226.870188 449.455325 
L 227.124079 449.455325 
L 227.377969 443.101558 
L 228.39353 443.101558 
L 228.64742 449.455325 
L 231.947993 449.455325 
L 232.201884 443.101558 
L 232.455774 443.101558 
L 232.709664 449.455325 
L 232.963554 443.101558 
L 233.471335 443.101558 
L 233.725225 449.455325 
L 234.994676 449.455325 
L 235.248567 443.101558 
L 236.264128 443.101558 
L 236.518018 449.455325 
L 239.564701 449.455325 
L 239.818591 443.101558 
L 240.072482 449.455325 
L 246.673628 449.455325 
L 246.927518 455.809091 
L 247.181409 455.809091 
L 247.435299 449.455325 
L 247.689189 455.809091 
L 247.943079 455.809091 
L 248.19697 449.455325 
L 266.730958 449.455325 
L 266.984848 455.809091 
L 269.777641 455.809091 
L 270.031532 462.162857 
L 270.285422 455.809091 
L 270.793202 455.809091 
L 271.047093 462.162857 
L 271.300983 455.809091 
L 271.554873 462.162857 
L 271.808763 455.809091 
L 273.078215 455.809091 
L 273.332105 462.162857 
L 273.585995 455.809091 
L 317.762899 455.809091 
L 318.01679 449.455325 
L 318.27068 449.455325 
L 318.52457 455.809091 
L 318.77846 449.455325 
L 319.032351 455.809091 
L 319.286241 449.455325 
L 319.540131 455.809091 
L 325.633497 455.809091 
L 325.887387 449.455325 
L 326.395168 449.455325 
L 326.649058 455.809091 
L 334.773546 455.809091 
L 335.027437 449.455325 
L 335.281327 449.455325 
L 335.535217 455.809091 
L 335.789107 449.455325 
L 336.042998 449.455325 
L 336.296888 455.809091 
L 336.804668 455.809091 
L 337.058559 449.455325 
L 337.566339 449.455325 
L 337.820229 455.809091 
L 338.07412 449.455325 
L 338.32801 455.809091 
L 339.089681 455.809091 
L 339.343571 449.455325 
L 339.851351 449.455325 
L 340.105242 455.809091 
L 342.898034 455.809091 
L 343.151925 449.455325 
L 343.405815 455.809091 
L 343.659705 455.809091 
L 343.913595 449.455325 
L 344.421376 449.455325 
L 344.675266 455.809091 
L 345.183047 455.809091 
L 345.436937 449.455325 
L 348.22973 449.455325 
L 348.48362 455.809091 
L 348.73751 449.455325 
L 354.576986 449.455325 
L 354.830876 455.809091 
L 409.163391 455.809091 
L 409.417281 449.455325 
L 409.671171 455.809091 
L 423.889025 455.809091 
L 424.142916 449.455325 
L 424.396806 455.809091 
L 424.650696 449.455325 
L 424.904586 449.455325 
L 425.158477 455.809091 
L 425.412367 455.809091 
L 425.666257 449.455325 
L 425.920147 455.809091 
L 427.189599 455.809091 
L 427.443489 449.455325 
L 433.790745 449.455325 
L 434.044636 455.809091 
L 434.298526 449.455325 
L 437.599099 449.455325 
L 437.852989 455.809091 
L 460.703112 455.809091 
L 460.957002 449.455325 
L 463.749795 449.455325 
L 464.003686 455.809091 
L 464.257576 455.809091 
L 464.511466 449.455325 
L 465.019247 449.455325 
L 465.273137 455.809091 
L 465.527027 449.455325 
L 465.780917 449.455325 
L 466.034808 455.809091 
L 466.288698 449.455325 
L 467.050369 449.455325 
L 467.304259 455.809091 
L 467.558149 449.455325 
L 468.8276 449.455325 
L 469.081491 455.809091 
L 469.589271 455.809091 
L 469.843161 449.455325 
L 470.097052 455.809091 
L 472.889844 455.809091 
L 473.143735 449.455325 
L 478.98321 449.455325 
L 479.237101 455.809091 
L 479.490991 449.455325 
L 486.346028 449.455325 
L 486.599918 455.809091 
L 488.12326 455.809091 
L 488.37715 449.455325 
L 488.63104 455.809091 
L 489.392711 455.809091 
L 489.646601 449.455325 
L 489.900491 455.809091 
L 490.916052 455.809091 
L 491.169943 449.455325 
L 505.895577 449.455325 
L 506.149468 455.809091 
L 506.403358 455.809091 
L 506.657248 449.455325 
L 509.703931 449.455325 
L 509.957821 455.809091 
L 510.211712 449.455325 
L 520.621212 449.455325 
L 520.875102 455.809091 
L 521.636773 455.809091 
L 521.890663 449.455325 
L 523.921785 449.455325 
L 524.175676 455.809091 
L 524.429566 449.455325 
L 525.445127 449.455325 
L 525.699017 455.809091 
L 525.952907 449.455325 
L 526.206798 455.809091 
L 746.583538 455.809091 
L 746.837428 449.455325 
L 747.091319 455.809091 
L 857.533579 455.809091 
L 857.787469 449.455325 
L 868.70475 449.455325 
L 868.95864 455.809091 
L 869.212531 455.809091 
L 869.466421 449.455325 
L 869.720311 449.455325 
L 869.974201 455.809091 
L 870.481982 455.809091 
L 870.735872 449.455325 
L 916.690008 449.455325 
L 916.943898 455.809091 
L 917.451679 455.809091 
L 917.705569 449.455325 
L 917.959459 455.809091 
L 919.990581 455.809091 
L 920.244472 449.455325 
L 933.954545 449.455325 
L 933.954545 449.455325 
" style="fill:none;stroke:#ff0000;stroke-linecap:square;"/>
   </g>
   <g id="line2d_15">
    <path clip-path="url(#p86b5148041)" d="M 173.045455 99.998182 
L 174.061016 169.88961 
L 174.314906 131.767013 
L 174.822686 252.488571 
L 175.330467 201.658442 
L 175.584357 188.950909 
L 175.838247 214.365974 
L 176.092138 182.597143 
L 176.346028 195.304675 
L 176.599918 201.658442 
L 176.853808 182.597143 
L 177.107699 182.597143 
L 177.361589 169.88961 
L 177.615479 176.243377 
L 178.12326 163.535844 
L 178.37715 169.88961 
L 178.88493 239.781039 
L 179.138821 227.073506 
L 179.646601 182.597143 
L 179.900491 208.012208 
L 180.154382 214.365974 
L 180.408272 214.365974 
L 180.662162 188.950909 
L 181.169943 188.950909 
L 181.423833 208.012208 
L 181.677723 195.304675 
L 181.931613 201.658442 
L 182.185504 182.597143 
L 182.439394 214.365974 
L 182.693284 208.012208 
L 182.947174 233.427273 
L 183.201065 239.781039 
L 183.454955 233.427273 
L 183.708845 252.488571 
L 184.216626 239.781039 
L 184.470516 246.134805 
L 184.724406 309.672468 
L 184.978296 277.903636 
L 185.232187 277.903636 
L 185.739967 303.318701 
L 185.993857 296.964935 
L 186.247748 309.672468 
L 186.501638 296.964935 
L 186.755528 290.611169 
L 187.009419 296.964935 
L 187.263309 284.257403 
L 187.517199 284.257403 
L 187.771089 290.611169 
L 188.02498 290.611169 
L 188.27887 271.54987 
L 188.53276 265.196104 
L 188.78665 265.196104 
L 189.040541 271.54987 
L 189.294431 284.257403 
L 189.548321 309.672468 
L 189.802211 316.026234 
L 190.056102 328.733766 
L 190.309992 322.38 
L 190.817772 347.795065 
L 191.325553 335.087532 
L 191.579443 322.38 
L 191.833333 341.441299 
L 192.087224 347.795065 
L 192.341114 341.441299 
L 192.848894 341.441299 
L 193.102785 366.856364 
L 193.356675 347.795065 
L 193.610565 354.148831 
L 193.864455 366.856364 
L 194.118346 360.502597 
L 194.372236 347.795065 
L 194.626126 341.441299 
L 194.880016 347.795065 
L 195.387797 347.795065 
L 195.895577 373.21013 
L 196.149468 341.441299 
L 196.403358 354.148831 
L 196.657248 341.441299 
L 196.911138 335.087532 
L 197.165029 335.087532 
L 197.418919 341.441299 
L 197.672809 328.733766 
L 197.926699 341.441299 
L 198.18059 347.795065 
L 198.43448 347.795065 
L 198.68837 335.087532 
L 198.94226 341.441299 
L 199.196151 335.087532 
L 199.450041 341.441299 
L 199.957821 341.441299 
L 200.211712 347.795065 
L 200.465602 341.441299 
L 200.719492 347.795065 
L 200.973382 347.795065 
L 201.227273 341.441299 
L 203.258395 341.441299 
L 203.512285 354.148831 
L 203.766175 354.148831 
L 204.020066 360.502597 
L 204.273956 379.563896 
L 204.781736 379.563896 
L 205.289517 392.271429 
L 206.812858 392.271429 
L 207.066749 385.917662 
L 207.574529 385.917662 
L 207.828419 392.271429 
L 208.08231 354.148831 
L 208.3362 366.856364 
L 209.097871 366.856364 
L 209.859541 347.795065 
L 210.113432 366.856364 
L 210.367322 366.856364 
L 210.621212 373.21013 
L 210.875102 373.21013 
L 211.128993 379.563896 
L 211.382883 379.563896 
L 211.636773 373.21013 
L 211.890663 379.563896 
L 212.144554 373.21013 
L 212.652334 373.21013 
L 212.906224 379.563896 
L 213.160115 373.21013 
L 213.667895 373.21013 
L 213.921785 379.563896 
L 215.191237 379.563896 
L 215.699017 392.271429 
L 215.952907 385.917662 
L 219.507371 385.917662 
L 219.761261 373.21013 
L 220.522932 373.21013 
L 220.776822 347.795065 
L 221.030713 354.148831 
L 221.284603 354.148831 
L 221.538493 360.502597 
L 221.792383 360.502597 
L 222.554054 379.563896 
L 222.807944 360.502597 
L 223.061835 354.148831 
L 223.315725 366.856364 
L 223.569615 354.148831 
L 223.823505 373.21013 
L 224.077396 354.148831 
L 224.331286 366.856364 
L 225.092957 366.856364 
L 225.346847 360.502597 
L 225.600737 366.856364 
L 226.108518 354.148831 
L 226.362408 360.502597 
L 226.870188 360.502597 
L 227.124079 354.148831 
L 227.377969 366.856364 
L 227.631859 373.21013 
L 227.885749 360.502597 
L 228.13964 360.502597 
L 228.39353 354.148831 
L 228.64742 360.502597 
L 228.90131 360.502597 
L 229.155201 354.148831 
L 230.678542 354.148831 
L 230.932432 347.795065 
L 231.186323 354.148831 
L 231.694103 354.148831 
L 231.947993 360.502597 
L 232.201884 354.148831 
L 232.455774 360.502597 
L 234.740786 360.502597 
L 234.994676 366.856364 
L 235.248567 360.502597 
L 235.502457 360.502597 
L 235.756347 354.148831 
L 236.010238 354.148831 
L 236.264128 360.502597 
L 236.518018 354.148831 
L 236.771908 354.148831 
L 237.025799 360.502597 
L 237.279689 354.148831 
L 237.533579 366.856364 
L 243.373055 366.856364 
L 243.626945 360.502597 
L 245.911957 360.502597 
L 246.165848 347.795065 
L 246.419738 347.795065 
L 246.673628 341.441299 
L 247.181409 341.441299 
L 247.689189 354.148831 
L 249.466421 354.148831 
L 249.720311 347.795065 
L 250.228092 347.795065 
L 250.481982 354.148831 
L 250.735872 354.148831 
L 250.989762 347.795065 
L 251.243653 347.795065 
L 251.497543 354.148831 
L 251.751433 347.795065 
L 252.005324 347.795065 
L 252.259214 354.148831 
L 252.766994 354.148831 
L 253.020885 347.795065 
L 254.036446 347.795065 
L 254.544226 335.087532 
L 254.798116 335.087532 
L 255.052007 341.441299 
L 255.305897 335.087532 
L 255.559787 341.441299 
L 255.813677 335.087532 
L 256.067568 341.441299 
L 256.321458 328.733766 
L 256.575348 335.087532 
L 257.590909 335.087532 
L 257.844799 328.733766 
L 258.86036 328.733766 
L 259.114251 341.441299 
L 259.368141 341.441299 
L 259.622031 335.087532 
L 259.875921 341.441299 
L 260.129812 328.733766 
L 260.637592 328.733766 
L 260.891482 341.441299 
L 261.907043 341.441299 
L 262.160934 335.087532 
L 262.414824 335.087532 
L 262.668714 341.441299 
L 263.430385 341.441299 
L 263.684275 335.087532 
L 265.461507 335.087532 
L 265.715397 341.441299 
L 268.00041 341.441299 
L 268.2543 335.087532 
L 270.285422 335.087532 
L 270.539312 322.38 
L 270.793202 328.733766 
L 271.300983 328.733766 
L 271.554873 335.087532 
L 271.808763 322.38 
L 273.332105 322.38 
L 273.585995 328.733766 
L 273.839885 322.38 
L 274.093776 322.38 
L 274.347666 328.733766 
L 274.601556 341.441299 
L 274.855446 335.087532 
L 275.363227 335.087532 
L 275.871007 347.795065 
L 276.124898 328.733766 
L 276.378788 335.087532 
L 276.886568 335.087532 
L 277.140459 341.441299 
L 277.394349 341.441299 
L 277.648239 335.087532 
L 277.902129 341.441299 
L 278.6638 341.441299 
L 279.171581 328.733766 
L 279.425471 335.087532 
L 279.679361 328.733766 
L 279.933251 335.087532 
L 280.187142 335.087532 
L 280.441032 328.733766 
L 286.026618 328.733766 
L 286.280508 341.441299 
L 286.534398 335.087532 
L 286.788288 341.441299 
L 287.042179 335.087532 
L 287.549959 335.087532 
L 287.803849 341.441299 
L 288.31163 341.441299 
L 288.56552 328.733766 
L 288.81941 328.733766 
L 289.073301 335.087532 
L 289.327191 328.733766 
L 289.834971 328.733766 
L 290.342752 341.441299 
L 291.612203 341.441299 
L 291.866093 328.733766 
L 292.119984 328.733766 
L 292.881654 347.795065 
L 293.135545 335.087532 
L 293.389435 341.441299 
L 293.643325 335.087532 
L 293.897215 335.087532 
L 294.404996 347.795065 
L 294.658886 341.441299 
L 294.912776 341.441299 
L 295.166667 347.795065 
L 295.420557 341.441299 
L 295.674447 347.795065 
L 298.46724 347.795065 
L 298.72113 341.441299 
L 299.736691 341.441299 
L 299.990581 347.795065 
L 302.021704 347.795065 
L 302.275594 341.441299 
L 302.529484 341.441299 
L 302.783374 347.795065 
L 303.545045 347.795065 
L 303.798935 341.441299 
L 304.052826 347.795065 
L 304.306716 347.795065 
L 304.560606 341.441299 
L 304.814496 341.441299 
L 305.068387 347.795065 
L 305.322277 341.441299 
L 305.576167 347.795065 
L 307.353399 347.795065 
L 307.607289 341.441299 
L 308.62285 341.441299 
L 308.87674 347.795065 
L 311.923423 347.795065 
L 312.177314 341.441299 
L 312.431204 347.795065 
L 312.938984 347.795065 
L 313.192875 341.441299 
L 313.446765 341.441299 
L 313.700655 347.795065 
L 313.954545 341.441299 
L 314.716216 341.441299 
L 314.970106 347.795065 
L 315.223997 341.441299 
L 315.477887 347.795065 
L 315.731777 341.441299 
L 315.985667 341.441299 
L 316.239558 347.795065 
L 316.493448 341.441299 
L 317.255119 341.441299 
L 317.509009 347.795065 
L 317.762899 341.441299 
L 319.540131 341.441299 
L 319.794021 335.087532 
L 320.047912 335.087532 
L 320.301802 341.441299 
L 320.555692 335.087532 
L 320.809582 335.087532 
L 321.063473 341.441299 
L 322.586814 341.441299 
L 322.840704 328.733766 
L 323.094595 335.087532 
L 323.348485 335.087532 
L 323.602375 328.733766 
L 323.856265 335.087532 
L 324.110156 328.733766 
L 325.125717 328.733766 
L 325.379607 347.795065 
L 325.887387 335.087532 
L 327.410729 335.087532 
L 327.664619 341.441299 
L 328.1724 328.733766 
L 328.42629 335.087532 
L 328.68018 328.733766 
L 328.93407 335.087532 
L 330.965192 335.087532 
L 331.219083 328.733766 
L 331.726863 328.733766 
L 331.980753 335.087532 
L 332.234644 328.733766 
L 332.488534 335.087532 
L 332.996314 335.087532 
L 333.250205 328.733766 
L 333.504095 335.087532 
L 333.757985 335.087532 
L 334.011876 328.733766 
L 334.265766 328.733766 
L 334.519656 335.087532 
L 337.566339 335.087532 
L 337.820229 341.441299 
L 338.32801 341.441299 
L 338.5819 335.087532 
L 338.83579 347.795065 
L 339.089681 341.441299 
L 339.343571 341.441299 
L 339.851351 328.733766 
L 340.613022 328.733766 
L 340.866912 335.087532 
L 341.628583 335.087532 
L 341.882473 328.733766 
L 349.245291 328.733766 
L 349.499181 322.38 
L 350.514742 322.38 
L 350.768632 328.733766 
L 363.463145 328.733766 
L 363.717035 322.38 
L 363.970925 328.733766 
L 365.494267 328.733766 
L 365.748157 322.38 
L 407.893939 322.38 
L 408.14783 316.026234 
L 415.256757 316.026234 
L 415.510647 322.38 
L 415.764537 322.38 
L 416.018428 316.026234 
L 416.272318 322.38 
L 416.526208 316.026234 
L 416.780098 322.38 
L 437.091319 322.38 
L 437.345209 316.026234 
L 437.599099 316.026234 
L 437.852989 322.38 
L 456.133088 322.38 
L 456.386978 316.026234 
L 459.941441 316.026234 
L 460.195332 322.38 
L 465.527027 322.38 
L 465.780917 316.026234 
L 466.034808 316.026234 
L 466.288698 322.38 
L 466.542588 322.38 
L 466.796478 316.026234 
L 467.304259 316.026234 
L 467.558149 322.38 
L 469.335381 322.38 
L 469.589271 328.733766 
L 479.744881 328.733766 
L 479.998771 322.38 
L 480.506552 322.38 
L 480.760442 316.026234 
L 481.014333 316.026234 
L 481.268223 322.38 
L 481.522113 322.38 
L 481.776003 316.026234 
L 482.029894 316.026234 
L 482.283784 322.38 
L 482.537674 316.026234 
L 482.791564 322.38 
L 498.53276 322.38 
L 498.78665 316.026234 
L 501.833333 316.026234 
L 502.087224 322.38 
L 503.610565 322.38 
L 503.864455 316.026234 
L 504.118346 322.38 
L 504.372236 316.026234 
L 504.626126 322.38 
L 505.387797 322.38 
L 505.641687 316.026234 
L 516.558968 316.026234 
L 516.812858 309.672468 
L 524.429566 309.672468 
L 524.683456 316.026234 
L 547.279689 316.026234 
L 547.533579 322.38 
L 563.782555 322.38 
L 564.036446 316.026234 
L 564.290336 322.38 
L 564.798116 322.38 
L 565.052007 316.026234 
L 569.114251 316.026234 
L 569.368141 309.672468 
L 569.622031 309.672468 
L 569.875921 316.026234 
L 570.129812 316.026234 
L 570.383702 309.672468 
L 706.722768 309.672468 
L 706.976658 303.318701 
L 707.230549 309.672468 
L 754.708026 309.672468 
L 754.961916 303.318701 
L 778.57371 303.318701 
L 778.8276 309.672468 
L 779.081491 303.318701 
L 933.954545 303.318701 
L 933.954545 303.318701 
" style="fill:none;stroke:#006400;stroke-linecap:square;"/>
   </g>
   <g id="line2d_16">
    <path clip-path="url(#p86b5148041)" d="M 173.045455 182.597143 
L 173.299345 157.182078 
L 173.553235 411.332727 
L 173.807125 417.686494 
L 174.061016 411.332727 
L 174.314906 417.686494 
L 174.568796 430.394026 
L 174.822686 449.455325 
L 175.076577 487.577922 
L 175.330467 487.577922 
L 175.584357 500.285455 
L 175.838247 506.639221 
L 176.092138 506.639221 
L 176.346028 493.931688 
L 176.599918 493.931688 
L 176.853808 500.285455 
L 177.107699 493.931688 
L 177.361589 500.285455 
L 177.615479 500.285455 
L 177.869369 506.639221 
L 178.12326 500.285455 
L 178.37715 487.577922 
L 178.63104 487.577922 
L 179.138821 500.285455 
L 179.392711 487.577922 
L 179.646601 487.577922 
L 179.900491 500.285455 
L 180.408272 487.577922 
L 181.169943 487.577922 
L 181.423833 500.285455 
L 183.201065 500.285455 
L 183.454955 493.931688 
L 183.708845 493.931688 
L 183.962735 487.577922 
L 184.470516 487.577922 
L 184.724406 500.285455 
L 200.211712 500.285455 
L 200.465602 493.931688 
L 200.973382 493.931688 
L 201.227273 487.577922 
L 211.382883 487.577922 
L 211.636773 481.224156 
L 216.460688 481.224156 
L 216.714578 487.577922 
L 216.968468 481.224156 
L 217.476249 481.224156 
L 217.984029 493.931688 
L 218.49181 481.224156 
L 219.253481 481.224156 
L 219.507371 487.577922 
L 238.29525 487.577922 
L 238.54914 493.931688 
L 299.736691 493.931688 
L 299.990581 500.285455 
L 304.052826 500.285455 
L 304.306716 493.931688 
L 323.602375 493.931688 
L 323.856265 519.346753 
L 324.110156 519.346753 
L 324.364046 512.992987 
L 325.379607 512.992987 
L 325.633497 532.054286 
L 326.141278 519.346753 
L 326.395168 519.346753 
L 326.649058 532.054286 
L 326.902948 538.408052 
L 327.156839 525.700519 
L 327.664619 512.992987 
L 327.918509 512.992987 
L 328.1724 525.700519 
L 328.68018 525.700519 
L 328.93407 532.054286 
L 329.187961 525.700519 
L 330.965192 525.700519 
L 331.219083 532.054286 
L 331.472973 532.054286 
L 331.726863 525.700519 
L 345.183047 525.700519 
L 345.436937 532.054286 
L 374.634316 532.054286 
L 374.888206 538.408052 
L 375.142097 538.408052 
L 375.395987 544.761818 
L 375.649877 538.408052 
L 375.903767 538.408052 
L 376.157658 544.761818 
L 376.411548 544.761818 
L 376.665438 538.408052 
L 381.235463 538.408052 
L 381.489353 544.761818 
L 497.771089 544.761818 
L 498.02498 538.408052 
L 578.2543 538.408052 
L 578.50819 544.761818 
L 933.954545 544.761818 
L 933.954545 544.761818 
" style="fill:none;stroke:#0000ff;stroke-linecap:square;"/>
   </g>
   <g id="line2d_17">
    <path clip-path="url(#p86b5148041)" d="M 173.045455 277.903636 
L 173.553235 277.903636 
L 173.807125 271.54987 
L 174.061016 284.257403 
L 174.314906 284.257403 
L 174.568796 296.964935 
L 174.822686 296.964935 
L 175.076577 290.611169 
L 175.330467 296.964935 
L 178.88493 296.964935 
L 179.138821 303.318701 
L 179.392711 296.964935 
L 179.900491 309.672468 
L 180.154382 303.318701 
L 180.408272 309.672468 
L 183.454955 309.672468 
L 183.708845 303.318701 
L 183.962735 309.672468 
L 184.216626 303.318701 
L 186.501638 303.318701 
L 186.755528 309.672468 
L 230.932432 309.672468 
L 231.186323 316.026234 
L 231.440213 309.672468 
L 231.694103 316.026234 
L 237.025799 316.026234 
L 237.279689 322.38 
L 238.04136 322.38 
L 238.29525 316.026234 
L 238.54914 322.38 
L 239.056921 322.38 
L 239.310811 316.026234 
L 239.564701 335.087532 
L 239.818591 335.087532 
L 240.072482 341.441299 
L 240.834152 341.441299 
L 241.088043 347.795065 
L 241.595823 347.795065 
L 241.849713 354.148831 
L 242.103604 347.795065 
L 242.357494 347.795065 
L 242.611384 354.148831 
L 244.134726 354.148831 
L 244.388616 385.917662 
L 244.642506 373.21013 
L 244.896396 404.978961 
L 245.150287 404.978961 
L 245.404177 398.625195 
L 245.658067 404.978961 
L 245.911957 404.978961 
L 246.419738 392.271429 
L 246.673628 404.978961 
L 247.689189 404.978961 
L 247.943079 398.625195 
L 248.19697 404.978961 
L 250.481982 404.978961 
L 250.735872 411.332727 
L 255.052007 411.332727 
L 255.305897 417.686494 
L 255.559787 411.332727 
L 256.829238 411.332727 
L 257.083129 417.686494 
L 257.337019 417.686494 
L 257.590909 411.332727 
L 257.844799 417.686494 
L 261.907043 417.686494 
L 262.160934 411.332727 
L 262.414824 417.686494 
L 262.668714 411.332727 
L 263.430385 411.332727 
L 263.684275 417.686494 
L 263.938165 411.332727 
L 296.943898 411.332727 
L 297.197789 417.686494 
L 304.560606 417.686494 
L 304.814496 411.332727 
L 311.669533 411.332727 
L 311.923423 417.686494 
L 312.177314 411.332727 
L 314.716216 411.332727 
L 314.970106 417.686494 
L 315.477887 417.686494 
L 315.731777 411.332727 
L 315.985667 411.332727 
L 316.239558 417.686494 
L 316.747338 417.686494 
L 317.001229 411.332727 
L 319.794021 411.332727 
L 320.047912 417.686494 
L 320.555692 417.686494 
L 320.809582 411.332727 
L 321.317363 411.332727 
L 321.571253 417.686494 
L 328.93407 417.686494 
L 329.187961 411.332727 
L 329.695741 411.332727 
L 329.949631 417.686494 
L 473.143735 417.686494 
L 473.397625 424.04026 
L 532.807944 424.04026 
L 533.061835 417.686494 
L 584.347666 417.686494 
L 584.601556 424.04026 
L 585.109337 424.04026 
L 585.363227 417.686494 
L 585.617117 424.04026 
L 585.871007 417.686494 
L 586.124898 424.04026 
L 586.378788 417.686494 
L 589.425471 417.686494 
L 589.679361 424.04026 
L 589.933251 417.686494 
L 593.487715 417.686494 
L 593.741605 424.04026 
L 593.995495 417.686494 
L 594.249386 424.04026 
L 600.342752 424.04026 
L 600.596642 430.394026 
L 722.717854 430.394026 
L 722.971744 424.04026 
L 741.759623 424.04026 
L 742.013514 430.394026 
L 742.267404 424.04026 
L 742.521294 424.04026 
L 742.775184 430.394026 
L 743.029075 424.04026 
L 743.536855 424.04026 
L 743.790745 430.394026 
L 750.645782 430.394026 
L 750.899672 424.04026 
L 933.954545 424.04026 
L 933.954545 424.04026 
" style="fill:none;stroke:#000000;stroke-linecap:square;"/>
   </g>
   <g id="line2d_18">
    <path clip-path="url(#p86b5148041)" d="M 173.045455 265.196104 
L 173.299345 316.026234 
L 173.807125 328.733766 
L 174.061016 277.903636 
L 174.314906 290.611169 
L 174.568796 290.611169 
L 175.330467 271.54987 
L 175.584357 284.257403 
L 175.838247 284.257403 
L 176.092138 290.611169 
L 176.346028 303.318701 
L 176.599918 309.672468 
L 176.853808 309.672468 
L 177.107699 316.026234 
L 177.361589 316.026234 
L 177.869369 290.611169 
L 178.12326 303.318701 
L 178.88493 303.318701 
L 179.138821 322.38 
L 179.392711 322.38 
L 179.646601 316.026234 
L 181.423833 316.026234 
L 181.677723 328.733766 
L 181.931613 366.856364 
L 182.185504 354.148831 
L 182.693284 354.148831 
L 182.947174 379.563896 
L 183.201065 379.563896 
L 183.454955 481.224156 
L 183.708845 474.87039 
L 183.962735 481.224156 
L 184.216626 481.224156 
L 184.724406 493.931688 
L 185.486077 493.931688 
L 185.739967 474.87039 
L 185.993857 468.516623 
L 186.247748 474.87039 
L 186.501638 474.87039 
L 186.755528 468.516623 
L 187.263309 468.516623 
L 187.517199 462.162857 
L 187.771089 481.224156 
L 188.02498 481.224156 
L 188.27887 462.162857 
L 188.53276 474.87039 
L 189.040541 474.87039 
L 189.294431 481.224156 
L 191.325553 481.224156 
L 191.579443 474.87039 
L 192.087224 474.87039 
L 192.341114 481.224156 
L 208.08231 481.224156 
L 208.3362 487.577922 
L 210.113432 487.577922 
L 210.367322 493.931688 
L 210.621212 487.577922 
L 210.875102 493.931688 
L 211.128993 493.931688 
L 211.636773 481.224156 
L 211.890663 487.577922 
L 212.652334 487.577922 
L 212.906224 493.931688 
L 213.160115 493.931688 
L 213.414005 487.577922 
L 213.921785 487.577922 
L 214.175676 493.931688 
L 214.429566 487.577922 
L 214.683456 487.577922 
L 214.937346 493.931688 
L 215.191237 493.931688 
L 215.445127 487.577922 
L 215.699017 493.931688 
L 215.952907 487.577922 
L 216.968468 487.577922 
L 217.222359 481.224156 
L 217.476249 487.577922 
L 217.984029 487.577922 
L 218.23792 493.931688 
L 220.269042 493.931688 
L 220.522932 487.577922 
L 221.538493 487.577922 
L 221.792383 493.931688 
L 223.061835 493.931688 
L 223.315725 500.285455 
L 227.631859 500.285455 
L 227.885749 493.931688 
L 295.420557 493.931688 
L 295.674447 487.577922 
L 330.457412 487.577922 
L 330.711302 481.224156 
L 360.162572 481.224156 
L 360.416462 474.87039 
L 364.224816 474.87039 
L 364.478706 481.224156 
L 364.732596 474.87039 
L 364.986486 481.224156 
L 365.240377 481.224156 
L 365.494267 474.87039 
L 365.748157 481.224156 
L 366.002048 474.87039 
L 366.255938 481.224156 
L 366.509828 474.87039 
L 370.064292 474.87039 
L 370.318182 481.224156 
L 370.572072 481.224156 
L 370.825962 474.87039 
L 371.079853 474.87039 
L 371.333743 481.224156 
L 371.587633 481.224156 
L 371.841523 474.87039 
L 372.095414 474.87039 
L 372.349304 481.224156 
L 381.489353 481.224156 
L 381.743243 474.87039 
L 463.495905 474.87039 
L 463.749795 468.516623 
L 470.097052 468.516623 
L 470.350942 462.162857 
L 473.651515 462.162857 
L 473.905405 468.516623 
L 474.159296 462.162857 
L 474.413186 468.516623 
L 477.459869 468.516623 
L 477.713759 474.87039 
L 479.998771 474.87039 
L 480.252662 481.224156 
L 490.662162 481.224156 
L 490.916052 487.577922 
L 491.169943 487.577922 
L 491.423833 481.224156 
L 492.185504 481.224156 
L 492.439394 487.577922 
L 518.59009 487.577922 
L 518.84398 481.224156 
L 520.113432 481.224156 
L 520.367322 474.87039 
L 521.128993 474.87039 
L 521.382883 481.224156 
L 522.398444 481.224156 
L 522.652334 487.577922 
L 523.160115 487.577922 
L 523.414005 481.224156 
L 523.667895 481.224156 
L 523.921785 487.577922 
L 524.175676 487.577922 
L 524.429566 481.224156 
L 525.191237 481.224156 
L 525.445127 487.577922 
L 527.730139 487.577922 
L 527.984029 481.224156 
L 869.212531 481.224156 
L 869.466421 487.577922 
L 872.513104 487.577922 
L 872.766994 481.224156 
L 880.637592 481.224156 
L 880.891482 487.577922 
L 884.445946 487.577922 
L 884.699836 481.224156 
L 892.824324 481.224156 
L 893.078215 487.577922 
L 894.093776 487.577922 
L 894.347666 481.224156 
L 933.954545 481.224156 
L 933.954545 481.224156 
" style="fill:none;stroke:#ff00ff;stroke-linecap:square;"/>
   </g>
   <g id="patch_3">
    <path d="M 135 567 
L 135 77.76 
" style="fill:none;stroke:#000000;stroke-linecap:square;stroke-linejoin:miter;stroke-width:0.8;"/>
   </g>
   <g id="patch_4">
    <path d="M 972 567 
L 972 77.76 
" style="fill:none;stroke:#000000;stroke-linecap:square;stroke-linejoin:miter;stroke-width:0.8;"/>
   </g>
   <g id="patch_5">
    <path d="M 135 567 
L 972 567 
" style="fill:none;stroke:#000000;stroke-linecap:square;stroke-linejoin:miter;stroke-width:0.8;"/>
   </g>
   <g id="patch_6">
    <path d="M 135 77.76 
L 972 77.76 
" style="fill:none;stroke:#000000;stroke-linecap:square;stroke-linejoin:miter;stroke-width:0.8;"/>
   </g>
   <g id="text_16">
    <!-- PSO Optimised NN with Relu Activation -->
    <g transform="translate(309.378906 71.76)scale(0.25 -0.25)">
     <defs>
      <path d="M 19.671875 64.796875 
L 19.671875 37.40625 
L 32.078125 37.40625 
Q 38.96875 37.40625 42.71875 40.96875 
Q 46.484375 44.53125 46.484375 51.125 
Q 46.484375 57.671875 42.71875 61.234375 
Q 38.96875 64.796875 32.078125 64.796875 
z
M 9.8125 72.90625 
L 32.078125 72.90625 
Q 44.34375 72.90625 50.609375 67.359375 
Q 56.890625 61.8125 56.890625 51.125 
Q 56.890625 40.328125 50.609375 34.8125 
Q 44.34375 29.296875 32.078125 29.296875 
L 19.671875 29.296875 
L 19.671875 0 
L 9.8125 0 
z
" id="DejaVuSans-80"/>
      <path d="M 39.40625 66.21875 
Q 28.65625 66.21875 22.328125 58.203125 
Q 16.015625 50.203125 16.015625 36.375 
Q 16.015625 22.609375 22.328125 14.59375 
Q 28.65625 6.59375 39.40625 6.59375 
Q 50.140625 6.59375 56.421875 14.59375 
Q 62.703125 22.609375 62.703125 36.375 
Q 62.703125 50.203125 56.421875 58.203125 
Q 50.140625 66.21875 39.40625 66.21875 
z
M 39.40625 74.21875 
Q 54.734375 74.21875 63.90625 63.9375 
Q 73.09375 53.65625 73.09375 36.375 
Q 73.09375 19.140625 63.90625 8.859375 
Q 54.734375 -1.421875 39.40625 -1.421875 
Q 24.03125 -1.421875 14.8125 8.828125 
Q 5.609375 19.09375 5.609375 36.375 
Q 5.609375 53.65625 14.8125 63.9375 
Q 24.03125 74.21875 39.40625 74.21875 
z
" id="DejaVuSans-79"/>
      <path d="M 18.109375 8.203125 
L 18.109375 -20.796875 
L 9.078125 -20.796875 
L 9.078125 54.6875 
L 18.109375 54.6875 
L 18.109375 46.390625 
Q 20.953125 51.265625 25.265625 53.625 
Q 29.59375 56 35.59375 56 
Q 45.5625 56 51.78125 48.09375 
Q 58.015625 40.1875 58.015625 27.296875 
Q 58.015625 14.40625 51.78125 6.484375 
Q 45.5625 -1.421875 35.59375 -1.421875 
Q 29.59375 -1.421875 25.265625 0.953125 
Q 20.953125 3.328125 18.109375 8.203125 
z
M 48.6875 27.296875 
Q 48.6875 37.203125 44.609375 42.84375 
Q 40.53125 48.484375 33.40625 48.484375 
Q 26.265625 48.484375 22.1875 42.84375 
Q 18.109375 37.203125 18.109375 27.296875 
Q 18.109375 17.390625 22.1875 11.75 
Q 26.265625 6.109375 33.40625 6.109375 
Q 40.53125 6.109375 44.609375 11.75 
Q 48.6875 17.390625 48.6875 27.296875 
z
" id="DejaVuSans-112"/>
      <path d="M 52 44.1875 
Q 55.375 50.25 60.0625 53.125 
Q 64.75 56 71.09375 56 
Q 79.640625 56 84.28125 50.015625 
Q 88.921875 44.046875 88.921875 33.015625 
L 88.921875 0 
L 79.890625 0 
L 79.890625 32.71875 
Q 79.890625 40.578125 77.09375 44.375 
Q 74.3125 48.1875 68.609375 48.1875 
Q 61.625 48.1875 57.5625 43.546875 
Q 53.515625 38.921875 53.515625 30.90625 
L 53.515625 0 
L 44.484375 0 
L 44.484375 32.71875 
Q 44.484375 40.625 41.703125 44.40625 
Q 38.921875 48.1875 33.109375 48.1875 
Q 26.21875 48.1875 22.15625 43.53125 
Q 18.109375 38.875 18.109375 30.90625 
L 18.109375 0 
L 9.078125 0 
L 9.078125 54.6875 
L 18.109375 54.6875 
L 18.109375 46.1875 
Q 21.1875 51.21875 25.484375 53.609375 
Q 29.78125 56 35.6875 56 
Q 41.65625 56 45.828125 52.96875 
Q 50 49.953125 52 44.1875 
z
" id="DejaVuSans-109"/>
      <path d="M 45.40625 46.390625 
L 45.40625 75.984375 
L 54.390625 75.984375 
L 54.390625 0 
L 45.40625 0 
L 45.40625 8.203125 
Q 42.578125 3.328125 38.25 0.953125 
Q 33.9375 -1.421875 27.875 -1.421875 
Q 17.96875 -1.421875 11.734375 6.484375 
Q 5.515625 14.40625 5.515625 27.296875 
Q 5.515625 40.1875 11.734375 48.09375 
Q 17.96875 56 27.875 56 
Q 33.9375 56 38.25 53.625 
Q 42.578125 51.265625 45.40625 46.390625 
z
M 14.796875 27.296875 
Q 14.796875 17.390625 18.875 11.75 
Q 22.953125 6.109375 30.078125 6.109375 
Q 37.203125 6.109375 41.296875 11.75 
Q 45.40625 17.390625 45.40625 27.296875 
Q 45.40625 37.203125 41.296875 42.84375 
Q 37.203125 48.484375 30.078125 48.484375 
Q 22.953125 48.484375 18.875 42.84375 
Q 14.796875 37.203125 14.796875 27.296875 
z
" id="DejaVuSans-100"/>
      <path d="M 9.8125 72.90625 
L 23.09375 72.90625 
L 55.421875 11.921875 
L 55.421875 72.90625 
L 64.984375 72.90625 
L 64.984375 0 
L 51.703125 0 
L 19.390625 60.984375 
L 19.390625 0 
L 9.8125 0 
z
" id="DejaVuSans-78"/>
      <path d="M 4.203125 54.6875 
L 13.1875 54.6875 
L 24.421875 12.015625 
L 35.59375 54.6875 
L 46.1875 54.6875 
L 57.421875 12.015625 
L 68.609375 54.6875 
L 77.59375 54.6875 
L 63.28125 0 
L 52.6875 0 
L 40.921875 44.828125 
L 29.109375 0 
L 18.5 0 
z
" id="DejaVuSans-119"/>
      <path d="M 54.890625 33.015625 
L 54.890625 0 
L 45.90625 0 
L 45.90625 32.71875 
Q 45.90625 40.484375 42.875 44.328125 
Q 39.84375 48.1875 33.796875 48.1875 
Q 26.515625 48.1875 22.3125 43.546875 
Q 18.109375 38.921875 18.109375 30.90625 
L 18.109375 0 
L 9.078125 0 
L 9.078125 75.984375 
L 18.109375 75.984375 
L 18.109375 46.1875 
Q 21.34375 51.125 25.703125 53.5625 
Q 30.078125 56 35.796875 56 
Q 45.21875 56 50.046875 50.171875 
Q 54.890625 44.34375 54.890625 33.015625 
z
" id="DejaVuSans-104"/>
      <path d="M 44.390625 34.1875 
Q 47.5625 33.109375 50.5625 29.59375 
Q 53.5625 26.078125 56.59375 19.921875 
L 66.609375 0 
L 56 0 
L 46.6875 18.703125 
Q 43.0625 26.03125 39.671875 28.421875 
Q 36.28125 30.8125 30.421875 30.8125 
L 19.671875 30.8125 
L 19.671875 0 
L 9.8125 0 
L 9.8125 72.90625 
L 32.078125 72.90625 
Q 44.578125 72.90625 50.734375 67.671875 
Q 56.890625 62.453125 56.890625 51.90625 
Q 56.890625 45.015625 53.6875 40.46875 
Q 50.484375 35.9375 44.390625 34.1875 
z
M 19.671875 64.796875 
L 19.671875 38.921875 
L 32.078125 38.921875 
Q 39.203125 38.921875 42.84375 42.21875 
Q 46.484375 45.515625 46.484375 51.90625 
Q 46.484375 58.296875 42.84375 61.546875 
Q 39.203125 64.796875 32.078125 64.796875 
z
" id="DejaVuSans-82"/>
      <path d="M 9.421875 75.984375 
L 18.40625 75.984375 
L 18.40625 0 
L 9.421875 0 
z
" id="DejaVuSans-108"/>
      <path d="M 8.5 21.578125 
L 8.5 54.6875 
L 17.484375 54.6875 
L 17.484375 21.921875 
Q 17.484375 14.15625 20.5 10.265625 
Q 23.53125 6.390625 29.59375 6.390625 
Q 36.859375 6.390625 41.078125 11.03125 
Q 45.3125 15.671875 45.3125 23.6875 
L 45.3125 54.6875 
L 54.296875 54.6875 
L 54.296875 0 
L 45.3125 0 
L 45.3125 8.40625 
Q 42.046875 3.421875 37.71875 1 
Q 33.40625 -1.421875 27.6875 -1.421875 
Q 18.265625 -1.421875 13.375 4.4375 
Q 8.5 10.296875 8.5 21.578125 
z
M 31.109375 56 
z
" id="DejaVuSans-117"/>
      <path d="M 34.1875 63.1875 
L 20.796875 26.90625 
L 47.609375 26.90625 
z
M 28.609375 72.90625 
L 39.796875 72.90625 
L 67.578125 0 
L 57.328125 0 
L 50.6875 18.703125 
L 17.828125 18.703125 
L 11.1875 0 
L 0.78125 0 
z
" id="DejaVuSans-65"/>
      <path d="M 48.78125 52.59375 
L 48.78125 44.1875 
Q 44.96875 46.296875 41.140625 47.34375 
Q 37.3125 48.390625 33.40625 48.390625 
Q 24.65625 48.390625 19.8125 42.84375 
Q 14.984375 37.3125 14.984375 27.296875 
Q 14.984375 17.28125 19.8125 11.734375 
Q 24.65625 6.203125 33.40625 6.203125 
Q 37.3125 6.203125 41.140625 7.25 
Q 44.96875 8.296875 48.78125 10.40625 
L 48.78125 2.09375 
Q 45.015625 0.34375 40.984375 -0.53125 
Q 36.96875 -1.421875 32.421875 -1.421875 
Q 20.0625 -1.421875 12.78125 6.34375 
Q 5.515625 14.109375 5.515625 27.296875 
Q 5.515625 40.671875 12.859375 48.328125 
Q 20.21875 56 33.015625 56 
Q 37.15625 56 41.109375 55.140625 
Q 45.0625 54.296875 48.78125 52.59375 
z
" id="DejaVuSans-99"/>
      <path d="M 2.984375 54.6875 
L 12.5 54.6875 
L 29.59375 8.796875 
L 46.6875 54.6875 
L 56.203125 54.6875 
L 35.6875 0 
L 23.484375 0 
z
" id="DejaVuSans-118"/>
     </defs>
     <use xlink:href="#DejaVuSans-80"/>
     <use x="60.302734" xlink:href="#DejaVuSans-83"/>
     <use x="123.779297" xlink:href="#DejaVuSans-79"/>
     <use x="202.490234" xlink:href="#DejaVuSans-32"/>
     <use x="234.277344" xlink:href="#DejaVuSans-79"/>
     <use x="312.988281" xlink:href="#DejaVuSans-112"/>
     <use x="376.464844" xlink:href="#DejaVuSans-116"/>
     <use x="415.673828" xlink:href="#DejaVuSans-105"/>
     <use x="443.457031" xlink:href="#DejaVuSans-109"/>
     <use x="540.869141" xlink:href="#DejaVuSans-105"/>
     <use x="568.652344" xlink:href="#DejaVuSans-115"/>
     <use x="620.751953" xlink:href="#DejaVuSans-101"/>
     <use x="682.275391" xlink:href="#DejaVuSans-100"/>
     <use x="745.751953" xlink:href="#DejaVuSans-32"/>
     <use x="777.539062" xlink:href="#DejaVuSans-78"/>
     <use x="852.34375" xlink:href="#DejaVuSans-78"/>
     <use x="927.148438" xlink:href="#DejaVuSans-32"/>
     <use x="958.935547" xlink:href="#DejaVuSans-119"/>
     <use x="1040.722656" xlink:href="#DejaVuSans-105"/>
     <use x="1068.505859" xlink:href="#DejaVuSans-116"/>
     <use x="1107.714844" xlink:href="#DejaVuSans-104"/>
     <use x="1171.09375" xlink:href="#DejaVuSans-32"/>
     <use x="1202.880859" xlink:href="#DejaVuSans-82"/>
     <use x="1267.863281" xlink:href="#DejaVuSans-101"/>
     <use x="1329.386719" xlink:href="#DejaVuSans-108"/>
     <use x="1357.169922" xlink:href="#DejaVuSans-117"/>
     <use x="1420.548828" xlink:href="#DejaVuSans-32"/>
     <use x="1452.335938" xlink:href="#DejaVuSans-65"/>
     <use x="1518.994141" xlink:href="#DejaVuSans-99"/>
     <use x="1573.974609" xlink:href="#DejaVuSans-116"/>
     <use x="1613.183594" xlink:href="#DejaVuSans-105"/>
     <use x="1640.966797" xlink:href="#DejaVuSans-118"/>
     <use x="1700.146484" xlink:href="#DejaVuSans-97"/>
     <use x="1761.425781" xlink:href="#DejaVuSans-116"/>
     <use x="1800.634766" xlink:href="#DejaVuSans-105"/>
     <use x="1828.417969" xlink:href="#DejaVuSans-111"/>
     <use x="1889.599609" xlink:href="#DejaVuSans-110"/>
    </g>
   </g>
   <g id="legend_1">
    <g id="patch_7">
     <path d="M 791.871875 240.54125 
L 958 240.54125 
Q 962 240.54125 962 236.54125 
L 962 91.76 
Q 962 87.76 958 87.76 
L 791.871875 87.76 
Q 787.871875 87.76 787.871875 91.76 
L 787.871875 236.54125 
Q 787.871875 240.54125 791.871875 240.54125 
z
" style="fill:#ffffff;opacity:0.8;stroke:#cccccc;stroke-linejoin:miter;"/>
    </g>
    <g id="line2d_19">
     <path d="M 795.871875 103.956875 
L 835.871875 103.956875 
" style="fill:none;stroke:#ff0000;stroke-linecap:square;"/>
    </g>
    <g id="line2d_20"/>
    <g id="text_17">
     <!-- 4 Neurons -->
     <g transform="translate(851.871875 110.956875)scale(0.2 -0.2)">
      <use xlink:href="#DejaVuSans-52"/>
      <use x="63.623047" xlink:href="#DejaVuSans-32"/>
      <use x="95.410156" xlink:href="#DejaVuSans-78"/>
      <use x="170.214844" xlink:href="#DejaVuSans-101"/>
      <use x="231.738281" xlink:href="#DejaVuSans-117"/>
      <use x="295.117188" xlink:href="#DejaVuSans-114"/>
      <use x="333.980469" xlink:href="#DejaVuSans-111"/>
      <use x="395.162109" xlink:href="#DejaVuSans-110"/>
      <use x="458.541016" xlink:href="#DejaVuSans-115"/>
     </g>
    </g>
    <g id="line2d_21">
     <path d="M 795.871875 133.313125 
L 835.871875 133.313125 
" style="fill:none;stroke:#006400;stroke-linecap:square;"/>
    </g>
    <g id="line2d_22"/>
    <g id="text_18">
     <!-- 5 Neurons -->
     <g transform="translate(851.871875 140.313125)scale(0.2 -0.2)">
      <use xlink:href="#DejaVuSans-53"/>
      <use x="63.623047" xlink:href="#DejaVuSans-32"/>
      <use x="95.410156" xlink:href="#DejaVuSans-78"/>
      <use x="170.214844" xlink:href="#DejaVuSans-101"/>
      <use x="231.738281" xlink:href="#DejaVuSans-117"/>
      <use x="295.117188" xlink:href="#DejaVuSans-114"/>
      <use x="333.980469" xlink:href="#DejaVuSans-111"/>
      <use x="395.162109" xlink:href="#DejaVuSans-110"/>
      <use x="458.541016" xlink:href="#DejaVuSans-115"/>
     </g>
    </g>
    <g id="line2d_23">
     <path d="M 795.871875 162.669375 
L 835.871875 162.669375 
" style="fill:none;stroke:#0000ff;stroke-linecap:square;"/>
    </g>
    <g id="line2d_24"/>
    <g id="text_19">
     <!-- 6 Neurons -->
     <g transform="translate(851.871875 169.669375)scale(0.2 -0.2)">
      <use xlink:href="#DejaVuSans-54"/>
      <use x="63.623047" xlink:href="#DejaVuSans-32"/>
      <use x="95.410156" xlink:href="#DejaVuSans-78"/>
      <use x="170.214844" xlink:href="#DejaVuSans-101"/>
      <use x="231.738281" xlink:href="#DejaVuSans-117"/>
      <use x="295.117188" xlink:href="#DejaVuSans-114"/>
      <use x="333.980469" xlink:href="#DejaVuSans-111"/>
      <use x="395.162109" xlink:href="#DejaVuSans-110"/>
      <use x="458.541016" xlink:href="#DejaVuSans-115"/>
     </g>
    </g>
    <g id="line2d_25">
     <path d="M 795.871875 192.025625 
L 835.871875 192.025625 
" style="fill:none;stroke:#000000;stroke-linecap:square;"/>
    </g>
    <g id="line2d_26"/>
    <g id="text_20">
     <!-- 7 Neurons -->
     <g transform="translate(851.871875 199.025625)scale(0.2 -0.2)">
      <defs>
       <path d="M 8.203125 72.90625 
L 55.078125 72.90625 
L 55.078125 68.703125 
L 28.609375 0 
L 18.3125 0 
L 43.21875 64.59375 
L 8.203125 64.59375 
z
" id="DejaVuSans-55"/>
      </defs>
      <use xlink:href="#DejaVuSans-55"/>
      <use x="63.623047" xlink:href="#DejaVuSans-32"/>
      <use x="95.410156" xlink:href="#DejaVuSans-78"/>
      <use x="170.214844" xlink:href="#DejaVuSans-101"/>
      <use x="231.738281" xlink:href="#DejaVuSans-117"/>
      <use x="295.117188" xlink:href="#DejaVuSans-114"/>
      <use x="333.980469" xlink:href="#DejaVuSans-111"/>
      <use x="395.162109" xlink:href="#DejaVuSans-110"/>
      <use x="458.541016" xlink:href="#DejaVuSans-115"/>
     </g>
    </g>
    <g id="line2d_27">
     <path d="M 795.871875 221.381875 
L 835.871875 221.381875 
" style="fill:none;stroke:#ff00ff;stroke-linecap:square;"/>
    </g>
    <g id="line2d_28"/>
    <g id="text_21">
     <!-- 8 Neurons -->
     <g transform="translate(851.871875 228.381875)scale(0.2 -0.2)">
      <defs>
       <path d="M 31.78125 34.625 
Q 24.75 34.625 20.71875 30.859375 
Q 16.703125 27.09375 16.703125 20.515625 
Q 16.703125 13.921875 20.71875 10.15625 
Q 24.75 6.390625 31.78125 6.390625 
Q 38.8125 6.390625 42.859375 10.171875 
Q 46.921875 13.96875 46.921875 20.515625 
Q 46.921875 27.09375 42.890625 30.859375 
Q 38.875 34.625 31.78125 34.625 
z
M 21.921875 38.8125 
Q 15.578125 40.375 12.03125 44.71875 
Q 8.5 49.078125 8.5 55.328125 
Q 8.5 64.0625 14.71875 69.140625 
Q 20.953125 74.21875 31.78125 74.21875 
Q 42.671875 74.21875 48.875 69.140625 
Q 55.078125 64.0625 55.078125 55.328125 
Q 55.078125 49.078125 51.53125 44.71875 
Q 48 40.375 41.703125 38.8125 
Q 48.828125 37.15625 52.796875 32.3125 
Q 56.78125 27.484375 56.78125 20.515625 
Q 56.78125 9.90625 50.3125 4.234375 
Q 43.84375 -1.421875 31.78125 -1.421875 
Q 19.734375 -1.421875 13.25 4.234375 
Q 6.78125 9.90625 6.78125 20.515625 
Q 6.78125 27.484375 10.78125 32.3125 
Q 14.796875 37.15625 21.921875 38.8125 
z
M 18.3125 54.390625 
Q 18.3125 48.734375 21.84375 45.5625 
Q 25.390625 42.390625 31.78125 42.390625 
Q 38.140625 42.390625 41.71875 45.5625 
Q 45.3125 48.734375 45.3125 54.390625 
Q 45.3125 60.0625 41.71875 63.234375 
Q 38.140625 66.40625 31.78125 66.40625 
Q 25.390625 66.40625 21.84375 63.234375 
Q 18.3125 60.0625 18.3125 54.390625 
z
" id="DejaVuSans-56"/>
      </defs>
      <use xlink:href="#DejaVuSans-56"/>
      <use x="63.623047" xlink:href="#DejaVuSans-32"/>
      <use x="95.410156" xlink:href="#DejaVuSans-78"/>
      <use x="170.214844" xlink:href="#DejaVuSans-101"/>
      <use x="231.738281" xlink:href="#DejaVuSans-117"/>
      <use x="295.117188" xlink:href="#DejaVuSans-114"/>
      <use x="333.980469" xlink:href="#DejaVuSans-111"/>
      <use x="395.162109" xlink:href="#DejaVuSans-110"/>
      <use x="458.541016" xlink:href="#DejaVuSans-115"/>
     </g>
    </g>
   </g>
  </g>
 </g>
 <defs>
  <clipPath id="p86b5148041">
   <rect height="489.24" width="837" x="135" y="77.76"/>
  </clipPath>
 </defs>
</svg>
