<?xml version="1.0" encoding="utf-8" standalone="no"?>
<!DOCTYPE svg PUBLIC "-//W3C//DTD SVG 1.1//EN"
  "http://www.w3.org/Graphics/SVG/1.1/DTD/svg11.dtd">
<!-- Created with matplotlib (https://matplotlib.org/) -->
<svg height="648pt" version="1.1" viewBox="0 0 1080 648" width="1080pt" xmlns="http://www.w3.org/2000/svg" xmlns:xlink="http://www.w3.org/1999/xlink">
 <metadata>
  <rdf:RDF xmlns:cc="http://creativecommons.org/ns#" xmlns:dc="http://purl.org/dc/elements/1.1/" xmlns:rdf="http://www.w3.org/1999/02/22-rdf-syntax-ns#">
   <cc:Work>
    <dc:type rdf:resource="http://purl.org/dc/dcmitype/StillImage"/>
    <dc:date>2020-11-14T23:55:59.311785</dc:date>
    <dc:format>image/svg+xml</dc:format>
    <dc:creator>
     <cc:Agent>
      <dc:title>Matplotlib v3.3.2, https://matplotlib.org/</dc:title>
     </cc:Agent>
    </dc:creator>
   </cc:Work>
  </rdf:RDF>
 </metadata>
 <defs>
  <style type="text/css">*{stroke-linecap:butt;stroke-linejoin:round;}</style>
 </defs>
 <g id="figure_1">
  <g id="patch_1">
   <path d="M 0 648 
L 1080 648 
L 1080 0 
L 0 0 
z
" style="fill:none;"/>
  </g>
  <g id="axes_1">
   <g id="patch_2">
    <path d="M 135 567 
L 972 567 
L 972 77.76 
L 135 77.76 
z
" style="fill:#ffffff;"/>
   </g>
   <g id="matplotlib.axis_1">
    <g id="xtick_1">
     <g id="line2d_1">
      <defs>
       <path d="M 0 0 
L 0 3.5 
" id="m73020d21f4" style="stroke:#000000;stroke-width:0.8;"/>
      </defs>
      <g>
       <use style="stroke:#000000;stroke-width:0.8;" x="173.045455" xlink:href="#m73020d21f4" y="567"/>
      </g>
     </g>
     <g id="text_1">
      <!-- 0 -->
      <g transform="translate(169.864205 581.598438)scale(0.1 -0.1)">
       <defs>
        <path d="M 31.78125 66.40625 
Q 24.171875 66.40625 20.328125 58.90625 
Q 16.5 51.421875 16.5 36.375 
Q 16.5 21.390625 20.328125 13.890625 
Q 24.171875 6.390625 31.78125 6.390625 
Q 39.453125 6.390625 43.28125 13.890625 
Q 47.125 21.390625 47.125 36.375 
Q 47.125 51.421875 43.28125 58.90625 
Q 39.453125 66.40625 31.78125 66.40625 
z
M 31.78125 74.21875 
Q 44.046875 74.21875 50.515625 64.515625 
Q 56.984375 54.828125 56.984375 36.375 
Q 56.984375 17.96875 50.515625 8.265625 
Q 44.046875 -1.421875 31.78125 -1.421875 
Q 19.53125 -1.421875 13.0625 8.265625 
Q 6.59375 17.96875 6.59375 36.375 
Q 6.59375 54.828125 13.0625 64.515625 
Q 19.53125 74.21875 31.78125 74.21875 
z
" id="DejaVuSans-48"/>
       </defs>
       <use xlink:href="#DejaVuSans-48"/>
      </g>
     </g>
    </g>
    <g id="xtick_2">
     <g id="line2d_2">
      <g>
       <use style="stroke:#000000;stroke-width:0.8;" x="326.764463" xlink:href="#m73020d21f4" y="567"/>
      </g>
     </g>
     <g id="text_2">
      <!-- 1000 -->
      <g transform="translate(314.039463 581.598438)scale(0.1 -0.1)">
       <defs>
        <path d="M 12.40625 8.296875 
L 28.515625 8.296875 
L 28.515625 63.921875 
L 10.984375 60.40625 
L 10.984375 69.390625 
L 28.421875 72.90625 
L 38.28125 72.90625 
L 38.28125 8.296875 
L 54.390625 8.296875 
L 54.390625 0 
L 12.40625 0 
z
" id="DejaVuSans-49"/>
       </defs>
       <use xlink:href="#DejaVuSans-49"/>
       <use x="63.623047" xlink:href="#DejaVuSans-48"/>
       <use x="127.246094" xlink:href="#DejaVuSans-48"/>
       <use x="190.869141" xlink:href="#DejaVuSans-48"/>
      </g>
     </g>
    </g>
    <g id="xtick_3">
     <g id="line2d_3">
      <g>
       <use style="stroke:#000000;stroke-width:0.8;" x="480.483471" xlink:href="#m73020d21f4" y="567"/>
      </g>
     </g>
     <g id="text_3">
      <!-- 2000 -->
      <g transform="translate(467.758471 581.598438)scale(0.1 -0.1)">
       <defs>
        <path d="M 19.1875 8.296875 
L 53.609375 8.296875 
L 53.609375 0 
L 7.328125 0 
L 7.328125 8.296875 
Q 12.9375 14.109375 22.625 23.890625 
Q 32.328125 33.6875 34.8125 36.53125 
Q 39.546875 41.84375 41.421875 45.53125 
Q 43.3125 49.21875 43.3125 52.78125 
Q 43.3125 58.59375 39.234375 62.25 
Q 35.15625 65.921875 28.609375 65.921875 
Q 23.96875 65.921875 18.8125 64.3125 
Q 13.671875 62.703125 7.8125 59.421875 
L 7.8125 69.390625 
Q 13.765625 71.78125 18.9375 73 
Q 24.125 74.21875 28.421875 74.21875 
Q 39.75 74.21875 46.484375 68.546875 
Q 53.21875 62.890625 53.21875 53.421875 
Q 53.21875 48.921875 51.53125 44.890625 
Q 49.859375 40.875 45.40625 35.40625 
Q 44.1875 33.984375 37.640625 27.21875 
Q 31.109375 20.453125 19.1875 8.296875 
z
" id="DejaVuSans-50"/>
       </defs>
       <use xlink:href="#DejaVuSans-50"/>
       <use x="63.623047" xlink:href="#DejaVuSans-48"/>
       <use x="127.246094" xlink:href="#DejaVuSans-48"/>
       <use x="190.869141" xlink:href="#DejaVuSans-48"/>
      </g>
     </g>
    </g>
    <g id="xtick_4">
     <g id="line2d_4">
      <g>
       <use style="stroke:#000000;stroke-width:0.8;" x="634.202479" xlink:href="#m73020d21f4" y="567"/>
      </g>
     </g>
     <g id="text_4">
      <!-- 3000 -->
      <g transform="translate(621.477479 581.598438)scale(0.1 -0.1)">
       <defs>
        <path d="M 40.578125 39.3125 
Q 47.65625 37.796875 51.625 33 
Q 55.609375 28.21875 55.609375 21.1875 
Q 55.609375 10.40625 48.1875 4.484375 
Q 40.765625 -1.421875 27.09375 -1.421875 
Q 22.515625 -1.421875 17.65625 -0.515625 
Q 12.796875 0.390625 7.625 2.203125 
L 7.625 11.71875 
Q 11.71875 9.328125 16.59375 8.109375 
Q 21.484375 6.890625 26.8125 6.890625 
Q 36.078125 6.890625 40.9375 10.546875 
Q 45.796875 14.203125 45.796875 21.1875 
Q 45.796875 27.640625 41.28125 31.265625 
Q 36.765625 34.90625 28.71875 34.90625 
L 20.21875 34.90625 
L 20.21875 43.015625 
L 29.109375 43.015625 
Q 36.375 43.015625 40.234375 45.921875 
Q 44.09375 48.828125 44.09375 54.296875 
Q 44.09375 59.90625 40.109375 62.90625 
Q 36.140625 65.921875 28.71875 65.921875 
Q 24.65625 65.921875 20.015625 65.03125 
Q 15.375 64.15625 9.8125 62.3125 
L 9.8125 71.09375 
Q 15.4375 72.65625 20.34375 73.4375 
Q 25.25 74.21875 29.59375 74.21875 
Q 40.828125 74.21875 47.359375 69.109375 
Q 53.90625 64.015625 53.90625 55.328125 
Q 53.90625 49.265625 50.4375 45.09375 
Q 46.96875 40.921875 40.578125 39.3125 
z
" id="DejaVuSans-51"/>
       </defs>
       <use xlink:href="#DejaVuSans-51"/>
       <use x="63.623047" xlink:href="#DejaVuSans-48"/>
       <use x="127.246094" xlink:href="#DejaVuSans-48"/>
       <use x="190.869141" xlink:href="#DejaVuSans-48"/>
      </g>
     </g>
    </g>
    <g id="xtick_5">
     <g id="line2d_5">
      <g>
       <use style="stroke:#000000;stroke-width:0.8;" x="787.921488" xlink:href="#m73020d21f4" y="567"/>
      </g>
     </g>
     <g id="text_5">
      <!-- 4000 -->
      <g transform="translate(775.196488 581.598438)scale(0.1 -0.1)">
       <defs>
        <path d="M 37.796875 64.3125 
L 12.890625 25.390625 
L 37.796875 25.390625 
z
M 35.203125 72.90625 
L 47.609375 72.90625 
L 47.609375 25.390625 
L 58.015625 25.390625 
L 58.015625 17.1875 
L 47.609375 17.1875 
L 47.609375 0 
L 37.796875 0 
L 37.796875 17.1875 
L 4.890625 17.1875 
L 4.890625 26.703125 
z
" id="DejaVuSans-52"/>
       </defs>
       <use xlink:href="#DejaVuSans-52"/>
       <use x="63.623047" xlink:href="#DejaVuSans-48"/>
       <use x="127.246094" xlink:href="#DejaVuSans-48"/>
       <use x="190.869141" xlink:href="#DejaVuSans-48"/>
      </g>
     </g>
    </g>
    <g id="xtick_6">
     <g id="line2d_6">
      <g>
       <use style="stroke:#000000;stroke-width:0.8;" x="941.640496" xlink:href="#m73020d21f4" y="567"/>
      </g>
     </g>
     <g id="text_6">
      <!-- 5000 -->
      <g transform="translate(928.915496 581.598438)scale(0.1 -0.1)">
       <defs>
        <path d="M 10.796875 72.90625 
L 49.515625 72.90625 
L 49.515625 64.59375 
L 19.828125 64.59375 
L 19.828125 46.734375 
Q 21.96875 47.46875 24.109375 47.828125 
Q 26.265625 48.1875 28.421875 48.1875 
Q 40.625 48.1875 47.75 41.5 
Q 54.890625 34.8125 54.890625 23.390625 
Q 54.890625 11.625 47.5625 5.09375 
Q 40.234375 -1.421875 26.90625 -1.421875 
Q 22.3125 -1.421875 17.546875 -0.640625 
Q 12.796875 0.140625 7.71875 1.703125 
L 7.71875 11.625 
Q 12.109375 9.234375 16.796875 8.0625 
Q 21.484375 6.890625 26.703125 6.890625 
Q 35.15625 6.890625 40.078125 11.328125 
Q 45.015625 15.765625 45.015625 23.390625 
Q 45.015625 31 40.078125 35.4375 
Q 35.15625 39.890625 26.703125 39.890625 
Q 22.75 39.890625 18.8125 39.015625 
Q 14.890625 38.140625 10.796875 36.28125 
z
" id="DejaVuSans-53"/>
       </defs>
       <use xlink:href="#DejaVuSans-53"/>
       <use x="63.623047" xlink:href="#DejaVuSans-48"/>
       <use x="127.246094" xlink:href="#DejaVuSans-48"/>
       <use x="190.869141" xlink:href="#DejaVuSans-48"/>
      </g>
     </g>
    </g>
    <g id="text_7">
     <!-- Iterations -->
     <g transform="translate(510.636094 601.355312)scale(0.18 -0.18)">
      <defs>
       <path d="M 9.8125 72.90625 
L 19.671875 72.90625 
L 19.671875 0 
L 9.8125 0 
z
" id="DejaVuSans-73"/>
       <path d="M 18.3125 70.21875 
L 18.3125 54.6875 
L 36.8125 54.6875 
L 36.8125 47.703125 
L 18.3125 47.703125 
L 18.3125 18.015625 
Q 18.3125 11.328125 20.140625 9.421875 
Q 21.96875 7.515625 27.59375 7.515625 
L 36.8125 7.515625 
L 36.8125 0 
L 27.59375 0 
Q 17.1875 0 13.234375 3.875 
Q 9.28125 7.765625 9.28125 18.015625 
L 9.28125 47.703125 
L 2.6875 47.703125 
L 2.6875 54.6875 
L 9.28125 54.6875 
L 9.28125 70.21875 
z
" id="DejaVuSans-116"/>
       <path d="M 56.203125 29.59375 
L 56.203125 25.203125 
L 14.890625 25.203125 
Q 15.484375 15.921875 20.484375 11.0625 
Q 25.484375 6.203125 34.421875 6.203125 
Q 39.59375 6.203125 44.453125 7.46875 
Q 49.3125 8.734375 54.109375 11.28125 
L 54.109375 2.78125 
Q 49.265625 0.734375 44.1875 -0.34375 
Q 39.109375 -1.421875 33.890625 -1.421875 
Q 20.796875 -1.421875 13.15625 6.1875 
Q 5.515625 13.8125 5.515625 26.8125 
Q 5.515625 40.234375 12.765625 48.109375 
Q 20.015625 56 32.328125 56 
Q 43.359375 56 49.78125 48.890625 
Q 56.203125 41.796875 56.203125 29.59375 
z
M 47.21875 32.234375 
Q 47.125 39.59375 43.09375 43.984375 
Q 39.0625 48.390625 32.421875 48.390625 
Q 24.90625 48.390625 20.390625 44.140625 
Q 15.875 39.890625 15.1875 32.171875 
z
" id="DejaVuSans-101"/>
       <path d="M 41.109375 46.296875 
Q 39.59375 47.171875 37.8125 47.578125 
Q 36.03125 48 33.890625 48 
Q 26.265625 48 22.1875 43.046875 
Q 18.109375 38.09375 18.109375 28.8125 
L 18.109375 0 
L 9.078125 0 
L 9.078125 54.6875 
L 18.109375 54.6875 
L 18.109375 46.1875 
Q 20.953125 51.171875 25.484375 53.578125 
Q 30.03125 56 36.53125 56 
Q 37.453125 56 38.578125 55.875 
Q 39.703125 55.765625 41.0625 55.515625 
z
" id="DejaVuSans-114"/>
       <path d="M 34.28125 27.484375 
Q 23.390625 27.484375 19.1875 25 
Q 14.984375 22.515625 14.984375 16.5 
Q 14.984375 11.71875 18.140625 8.90625 
Q 21.296875 6.109375 26.703125 6.109375 
Q 34.1875 6.109375 38.703125 11.40625 
Q 43.21875 16.703125 43.21875 25.484375 
L 43.21875 27.484375 
z
M 52.203125 31.203125 
L 52.203125 0 
L 43.21875 0 
L 43.21875 8.296875 
Q 40.140625 3.328125 35.546875 0.953125 
Q 30.953125 -1.421875 24.3125 -1.421875 
Q 15.921875 -1.421875 10.953125 3.296875 
Q 6 8.015625 6 15.921875 
Q 6 25.140625 12.171875 29.828125 
Q 18.359375 34.515625 30.609375 34.515625 
L 43.21875 34.515625 
L 43.21875 35.40625 
Q 43.21875 41.609375 39.140625 45 
Q 35.0625 48.390625 27.6875 48.390625 
Q 23 48.390625 18.546875 47.265625 
Q 14.109375 46.140625 10.015625 43.890625 
L 10.015625 52.203125 
Q 14.9375 54.109375 19.578125 55.046875 
Q 24.21875 56 28.609375 56 
Q 40.484375 56 46.34375 49.84375 
Q 52.203125 43.703125 52.203125 31.203125 
z
" id="DejaVuSans-97"/>
       <path d="M 9.421875 54.6875 
L 18.40625 54.6875 
L 18.40625 0 
L 9.421875 0 
z
M 9.421875 75.984375 
L 18.40625 75.984375 
L 18.40625 64.59375 
L 9.421875 64.59375 
z
" id="DejaVuSans-105"/>
       <path d="M 30.609375 48.390625 
Q 23.390625 48.390625 19.1875 42.75 
Q 14.984375 37.109375 14.984375 27.296875 
Q 14.984375 17.484375 19.15625 11.84375 
Q 23.34375 6.203125 30.609375 6.203125 
Q 37.796875 6.203125 41.984375 11.859375 
Q 46.1875 17.53125 46.1875 27.296875 
Q 46.1875 37.015625 41.984375 42.703125 
Q 37.796875 48.390625 30.609375 48.390625 
z
M 30.609375 56 
Q 42.328125 56 49.015625 48.375 
Q 55.71875 40.765625 55.71875 27.296875 
Q 55.71875 13.875 49.015625 6.21875 
Q 42.328125 -1.421875 30.609375 -1.421875 
Q 18.84375 -1.421875 12.171875 6.21875 
Q 5.515625 13.875 5.515625 27.296875 
Q 5.515625 40.765625 12.171875 48.375 
Q 18.84375 56 30.609375 56 
z
" id="DejaVuSans-111"/>
       <path d="M 54.890625 33.015625 
L 54.890625 0 
L 45.90625 0 
L 45.90625 32.71875 
Q 45.90625 40.484375 42.875 44.328125 
Q 39.84375 48.1875 33.796875 48.1875 
Q 26.515625 48.1875 22.3125 43.546875 
Q 18.109375 38.921875 18.109375 30.90625 
L 18.109375 0 
L 9.078125 0 
L 9.078125 54.6875 
L 18.109375 54.6875 
L 18.109375 46.1875 
Q 21.34375 51.125 25.703125 53.5625 
Q 30.078125 56 35.796875 56 
Q 45.21875 56 50.046875 50.171875 
Q 54.890625 44.34375 54.890625 33.015625 
z
" id="DejaVuSans-110"/>
       <path d="M 44.28125 53.078125 
L 44.28125 44.578125 
Q 40.484375 46.53125 36.375 47.5 
Q 32.28125 48.484375 27.875 48.484375 
Q 21.1875 48.484375 17.84375 46.4375 
Q 14.5 44.390625 14.5 40.28125 
Q 14.5 37.15625 16.890625 35.375 
Q 19.28125 33.59375 26.515625 31.984375 
L 29.59375 31.296875 
Q 39.15625 29.25 43.1875 25.515625 
Q 47.21875 21.78125 47.21875 15.09375 
Q 47.21875 7.46875 41.1875 3.015625 
Q 35.15625 -1.421875 24.609375 -1.421875 
Q 20.21875 -1.421875 15.453125 -0.5625 
Q 10.6875 0.296875 5.421875 2 
L 5.421875 11.28125 
Q 10.40625 8.6875 15.234375 7.390625 
Q 20.0625 6.109375 24.8125 6.109375 
Q 31.15625 6.109375 34.5625 8.28125 
Q 37.984375 10.453125 37.984375 14.40625 
Q 37.984375 18.0625 35.515625 20.015625 
Q 33.0625 21.96875 24.703125 23.78125 
L 21.578125 24.515625 
Q 13.234375 26.265625 9.515625 29.90625 
Q 5.8125 33.546875 5.8125 39.890625 
Q 5.8125 47.609375 11.28125 51.796875 
Q 16.75 56 26.8125 56 
Q 31.78125 56 36.171875 55.265625 
Q 40.578125 54.546875 44.28125 53.078125 
z
" id="DejaVuSans-115"/>
      </defs>
      <use xlink:href="#DejaVuSans-73"/>
      <use x="29.492188" xlink:href="#DejaVuSans-116"/>
      <use x="68.701172" xlink:href="#DejaVuSans-101"/>
      <use x="130.224609" xlink:href="#DejaVuSans-114"/>
      <use x="171.337891" xlink:href="#DejaVuSans-97"/>
      <use x="232.617188" xlink:href="#DejaVuSans-116"/>
      <use x="271.826172" xlink:href="#DejaVuSans-105"/>
      <use x="299.609375" xlink:href="#DejaVuSans-111"/>
      <use x="360.791016" xlink:href="#DejaVuSans-110"/>
      <use x="424.169922" xlink:href="#DejaVuSans-115"/>
     </g>
    </g>
   </g>
   <g id="matplotlib.axis_2">
    <g id="ytick_1">
     <g id="line2d_7">
      <defs>
       <path d="M 0 0 
L -3.5 0 
" id="m25b677617e" style="stroke:#000000;stroke-width:0.8;"/>
      </defs>
      <g>
       <use style="stroke:#000000;stroke-width:0.8;" x="135" xlink:href="#m25b677617e" y="530.888457"/>
      </g>
     </g>
     <g id="text_8">
      <!-- 0.1 -->
      <g transform="translate(112.096875 534.687676)scale(0.1 -0.1)">
       <defs>
        <path d="M 10.6875 12.40625 
L 21 12.40625 
L 21 0 
L 10.6875 0 
z
" id="DejaVuSans-46"/>
       </defs>
       <use xlink:href="#DejaVuSans-48"/>
       <use x="63.623047" xlink:href="#DejaVuSans-46"/>
       <use x="95.410156" xlink:href="#DejaVuSans-49"/>
      </g>
     </g>
    </g>
    <g id="ytick_2">
     <g id="line2d_8">
      <g>
       <use style="stroke:#000000;stroke-width:0.8;" x="135" xlink:href="#m25b677617e" y="423.165888"/>
      </g>
     </g>
     <g id="text_9">
      <!-- 0.2 -->
      <g transform="translate(112.096875 426.965107)scale(0.1 -0.1)">
       <use xlink:href="#DejaVuSans-48"/>
       <use x="63.623047" xlink:href="#DejaVuSans-46"/>
       <use x="95.410156" xlink:href="#DejaVuSans-50"/>
      </g>
     </g>
    </g>
    <g id="ytick_3">
     <g id="line2d_9">
      <g>
       <use style="stroke:#000000;stroke-width:0.8;" x="135" xlink:href="#m25b677617e" y="315.443319"/>
      </g>
     </g>
     <g id="text_10">
      <!-- 0.3 -->
      <g transform="translate(112.096875 319.242538)scale(0.1 -0.1)">
       <use xlink:href="#DejaVuSans-48"/>
       <use x="63.623047" xlink:href="#DejaVuSans-46"/>
       <use x="95.410156" xlink:href="#DejaVuSans-51"/>
      </g>
     </g>
    </g>
    <g id="ytick_4">
     <g id="line2d_10">
      <g>
       <use style="stroke:#000000;stroke-width:0.8;" x="135" xlink:href="#m25b677617e" y="207.720751"/>
      </g>
     </g>
     <g id="text_11">
      <!-- 0.4 -->
      <g transform="translate(112.096875 211.519969)scale(0.1 -0.1)">
       <use xlink:href="#DejaVuSans-48"/>
       <use x="63.623047" xlink:href="#DejaVuSans-46"/>
       <use x="95.410156" xlink:href="#DejaVuSans-52"/>
      </g>
     </g>
    </g>
    <g id="ytick_5">
     <g id="line2d_11">
      <g>
       <use style="stroke:#000000;stroke-width:0.8;" x="135" xlink:href="#m25b677617e" y="99.998182"/>
      </g>
     </g>
     <g id="text_12">
      <!-- 0.5 -->
      <g transform="translate(112.096875 103.797401)scale(0.1 -0.1)">
       <use xlink:href="#DejaVuSans-48"/>
       <use x="63.623047" xlink:href="#DejaVuSans-46"/>
       <use x="95.410156" xlink:href="#DejaVuSans-53"/>
      </g>
     </g>
    </g>
    <g id="text_13">
     <!-- Test Error (MSE) -->
     <g transform="translate(104.353437 393.944062)rotate(-90)scale(0.18 -0.18)">
      <defs>
       <path d="M -0.296875 72.90625 
L 61.375 72.90625 
L 61.375 64.59375 
L 35.5 64.59375 
L 35.5 0 
L 25.59375 0 
L 25.59375 64.59375 
L -0.296875 64.59375 
z
" id="DejaVuSans-84"/>
       <path id="DejaVuSans-32"/>
       <path d="M 9.8125 72.90625 
L 55.90625 72.90625 
L 55.90625 64.59375 
L 19.671875 64.59375 
L 19.671875 43.015625 
L 54.390625 43.015625 
L 54.390625 34.71875 
L 19.671875 34.71875 
L 19.671875 8.296875 
L 56.78125 8.296875 
L 56.78125 0 
L 9.8125 0 
z
" id="DejaVuSans-69"/>
       <path d="M 31 75.875 
Q 24.46875 64.65625 21.28125 53.65625 
Q 18.109375 42.671875 18.109375 31.390625 
Q 18.109375 20.125 21.3125 9.0625 
Q 24.515625 -2 31 -13.1875 
L 23.1875 -13.1875 
Q 15.875 -1.703125 12.234375 9.375 
Q 8.59375 20.453125 8.59375 31.390625 
Q 8.59375 42.28125 12.203125 53.3125 
Q 15.828125 64.359375 23.1875 75.875 
z
" id="DejaVuSans-40"/>
       <path d="M 9.8125 72.90625 
L 24.515625 72.90625 
L 43.109375 23.296875 
L 61.8125 72.90625 
L 76.515625 72.90625 
L 76.515625 0 
L 66.890625 0 
L 66.890625 64.015625 
L 48.09375 14.015625 
L 38.1875 14.015625 
L 19.390625 64.015625 
L 19.390625 0 
L 9.8125 0 
z
" id="DejaVuSans-77"/>
       <path d="M 53.515625 70.515625 
L 53.515625 60.890625 
Q 47.90625 63.578125 42.921875 64.890625 
Q 37.9375 66.21875 33.296875 66.21875 
Q 25.25 66.21875 20.875 63.09375 
Q 16.5 59.96875 16.5 54.203125 
Q 16.5 49.359375 19.40625 46.890625 
Q 22.3125 44.4375 30.421875 42.921875 
L 36.375 41.703125 
Q 47.40625 39.59375 52.65625 34.296875 
Q 57.90625 29 57.90625 20.125 
Q 57.90625 9.515625 50.796875 4.046875 
Q 43.703125 -1.421875 29.984375 -1.421875 
Q 24.8125 -1.421875 18.96875 -0.25 
Q 13.140625 0.921875 6.890625 3.21875 
L 6.890625 13.375 
Q 12.890625 10.015625 18.65625 8.296875 
Q 24.421875 6.59375 29.984375 6.59375 
Q 38.421875 6.59375 43.015625 9.90625 
Q 47.609375 13.234375 47.609375 19.390625 
Q 47.609375 24.75 44.3125 27.78125 
Q 41.015625 30.8125 33.5 32.328125 
L 27.484375 33.5 
Q 16.453125 35.6875 11.515625 40.375 
Q 6.59375 45.0625 6.59375 53.421875 
Q 6.59375 63.09375 13.40625 68.65625 
Q 20.21875 74.21875 32.171875 74.21875 
Q 37.3125 74.21875 42.625 73.28125 
Q 47.953125 72.359375 53.515625 70.515625 
z
" id="DejaVuSans-83"/>
       <path d="M 8.015625 75.875 
L 15.828125 75.875 
Q 23.140625 64.359375 26.78125 53.3125 
Q 30.421875 42.28125 30.421875 31.390625 
Q 30.421875 20.453125 26.78125 9.375 
Q 23.140625 -1.703125 15.828125 -13.1875 
L 8.015625 -13.1875 
Q 14.5 -2 17.703125 9.0625 
Q 20.90625 20.125 20.90625 31.390625 
Q 20.90625 42.671875 17.703125 53.65625 
Q 14.5 64.65625 8.015625 75.875 
z
" id="DejaVuSans-41"/>
      </defs>
      <use xlink:href="#DejaVuSans-84"/>
      <use x="44.083984" xlink:href="#DejaVuSans-101"/>
      <use x="105.607422" xlink:href="#DejaVuSans-115"/>
      <use x="157.707031" xlink:href="#DejaVuSans-116"/>
      <use x="196.916016" xlink:href="#DejaVuSans-32"/>
      <use x="228.703125" xlink:href="#DejaVuSans-69"/>
      <use x="291.886719" xlink:href="#DejaVuSans-114"/>
      <use x="331.25" xlink:href="#DejaVuSans-114"/>
      <use x="370.113281" xlink:href="#DejaVuSans-111"/>
      <use x="431.294922" xlink:href="#DejaVuSans-114"/>
      <use x="472.408203" xlink:href="#DejaVuSans-32"/>
      <use x="504.195312" xlink:href="#DejaVuSans-40"/>
      <use x="543.208984" xlink:href="#DejaVuSans-77"/>
      <use x="629.488281" xlink:href="#DejaVuSans-83"/>
      <use x="692.964844" xlink:href="#DejaVuSans-69"/>
      <use x="756.148438" xlink:href="#DejaVuSans-41"/>
     </g>
    </g>
   </g>
   <g id="line2d_12">
    <path clip-path="url(#pc9177baee8)" d="M 173.045455 99.998182 
L 181.5 255.053394 
L 189.954545 263.214195 
L 198.409091 263.214195 
L 206.863636 283.616197 
L 215.318182 291.776997 
L 223.772727 271.374996 
L 232.227273 295.857398 
L 240.681818 304.018198 
L 249.136364 299.937798 
L 257.590909 308.098599 
L 266.045455 316.259399 
L 274.5 312.178999 
L 282.954545 312.178999 
L 291.409091 304.018198 
L 299.863636 308.098599 
L 308.318182 304.018198 
L 316.772727 308.098599 
L 325.227273 312.178999 
L 333.681818 316.259399 
L 342.136364 312.178999 
L 350.590909 312.178999 
L 359.045455 316.259399 
L 367.5 312.178999 
L 375.954545 312.178999 
L 384.409091 316.259399 
L 392.863636 316.259399 
L 401.318182 320.3398 
L 409.772727 320.3398 
L 418.227273 320.3398 
L 426.681818 324.4202 
L 435.136364 320.3398 
L 443.590909 320.3398 
L 452.045455 324.4202 
L 460.5 324.4202 
L 468.954545 324.4202 
L 477.409091 328.500601 
L 485.863636 332.581001 
L 494.318182 328.500601 
L 502.772727 324.4202 
L 511.227273 328.500601 
L 519.681818 328.500601 
L 528.136364 328.500601 
L 536.590909 328.500601 
L 545.045455 332.581001 
L 553.5 328.500601 
L 561.954545 328.500601 
L 570.409091 328.500601 
L 578.863636 328.500601 
L 587.318182 332.581001 
L 595.772727 328.500601 
L 604.227273 332.581001 
L 612.681818 332.581001 
L 621.136364 332.581001 
L 629.590909 332.581001 
L 638.045455 328.500601 
L 646.5 332.581001 
L 654.954545 332.581001 
L 663.409091 332.581001 
L 671.863636 332.581001 
L 680.318182 332.581001 
L 688.772727 332.581001 
L 697.227273 332.581001 
L 705.681818 332.581001 
L 714.136364 332.581001 
L 722.590909 332.581001 
L 731.045455 332.581001 
L 739.5 332.581001 
L 747.954545 332.581001 
L 756.409091 332.581001 
L 764.863636 324.4202 
L 773.318182 324.4202 
L 781.772727 324.4202 
L 790.227273 324.4202 
L 798.681818 316.259399 
L 807.136364 316.259399 
L 815.590909 320.3398 
L 824.045455 320.3398 
L 832.5 316.259399 
L 840.954545 320.3398 
L 849.409091 324.4202 
L 857.863636 316.259399 
L 866.318182 316.259399 
L 874.772727 316.259399 
L 883.227273 324.4202 
L 891.681818 316.259399 
L 900.136364 308.098599 
L 908.590909 308.098599 
L 917.045455 316.259399 
L 925.5 308.098599 
L 933.954545 316.259399 
" style="fill:none;stroke:#ff0000;stroke-linecap:square;"/>
   </g>
   <g id="line2d_13">
    <path clip-path="url(#pc9177baee8)" d="M 173.045455 99.998182 
L 181.5 234.651393 
L 189.954545 316.259399 
L 198.409091 316.259399 
L 206.863636 332.581001 
L 215.318182 357.063403 
L 223.772727 340.741802 
L 232.227273 357.063403 
L 240.681818 352.983003 
L 249.136364 357.063403 
L 257.590909 365.224204 
L 266.045455 373.385004 
L 274.5 377.465405 
L 282.954545 393.787006 
L 291.409091 393.787006 
L 299.863636 385.626205 
L 308.318182 397.867406 
L 316.772727 414.189008 
L 325.227273 414.189008 
L 333.681818 414.189008 
L 342.136364 422.349808 
L 350.590909 422.349808 
L 359.045455 414.189008 
L 367.5 414.189008 
L 375.954545 418.269408 
L 384.409091 406.028207 
L 392.863636 414.189008 
L 401.318182 414.189008 
L 409.772727 414.189008 
L 418.227273 418.269408 
L 426.681818 414.189008 
L 435.136364 410.108607 
L 443.590909 414.189008 
L 452.045455 410.108607 
L 460.5 406.028207 
L 468.954545 406.028207 
L 477.409091 410.108607 
L 485.863636 414.189008 
L 494.318182 410.108607 
L 502.772727 410.108607 
L 511.227273 410.108607 
L 519.681818 406.028207 
L 528.136364 414.189008 
L 536.590909 414.189008 
L 545.045455 414.189008 
L 553.5 418.269408 
L 561.954545 414.189008 
L 570.409091 414.189008 
L 578.863636 414.189008 
L 587.318182 414.189008 
L 595.772727 414.189008 
L 604.227273 414.189008 
L 612.681818 414.189008 
L 621.136364 418.269408 
L 629.590909 418.269408 
L 638.045455 418.269408 
L 646.5 418.269408 
L 654.954545 418.269408 
L 663.409091 418.269408 
L 671.863636 414.189008 
L 680.318182 418.269408 
L 688.772727 414.189008 
L 697.227273 414.189008 
L 705.681818 414.189008 
L 714.136364 414.189008 
L 722.590909 418.269408 
L 731.045455 418.269408 
L 739.5 418.269408 
L 747.954545 418.269408 
L 756.409091 410.108607 
L 764.863636 410.108607 
L 773.318182 410.108607 
L 781.772727 410.108607 
L 790.227273 410.108607 
L 798.681818 410.108607 
L 807.136364 410.108607 
L 815.590909 410.108607 
L 824.045455 406.028207 
L 832.5 406.028207 
L 840.954545 406.028207 
L 849.409091 406.028207 
L 857.863636 401.947807 
L 866.318182 401.947807 
L 874.772727 406.028207 
L 883.227273 410.108607 
L 891.681818 410.108607 
L 900.136364 410.108607 
L 908.590909 406.028207 
L 917.045455 401.947807 
L 925.5 401.947807 
L 933.954545 401.947807 
" style="fill:none;stroke:#006400;stroke-linecap:square;"/>
   </g>
   <g id="line2d_14">
    <path clip-path="url(#pc9177baee8)" d="M 173.045455 99.998182 
L 181.5 206.08859 
L 189.954545 259.133795 
L 198.409091 332.581001 
L 206.863636 365.224204 
L 215.318182 348.902602 
L 223.772727 373.385004 
L 232.227273 369.304604 
L 240.681818 426.430209 
L 249.136364 479.475413 
L 257.590909 512.118616 
L 266.045455 544.761818 
L 274.5 532.520617 
L 282.954545 532.520617 
L 291.409091 532.520617 
L 299.863636 524.359817 
L 308.318182 524.359817 
L 316.772727 512.118616 
L 325.227273 524.359817 
L 333.681818 516.199016 
L 342.136364 520.279416 
L 350.590909 512.118616 
L 359.045455 516.199016 
L 367.5 503.957815 
L 375.954545 503.957815 
L 384.409091 508.038215 
L 392.863636 483.555813 
L 401.318182 483.555813 
L 409.772727 491.716614 
L 418.227273 491.716614 
L 426.681818 483.555813 
L 435.136364 487.636214 
L 443.590909 483.555813 
L 452.045455 487.636214 
L 460.5 483.555813 
L 468.954545 483.555813 
L 477.409091 483.555813 
L 485.863636 487.636214 
L 494.318182 483.555813 
L 502.772727 483.555813 
L 511.227273 483.555813 
L 519.681818 479.475413 
L 528.136364 483.555813 
L 536.590909 483.555813 
L 545.045455 483.555813 
L 553.5 483.555813 
L 561.954545 483.555813 
L 570.409091 479.475413 
L 578.863636 483.555813 
L 587.318182 483.555813 
L 595.772727 483.555813 
L 604.227273 479.475413 
L 612.681818 479.475413 
L 621.136364 479.475413 
L 629.590909 479.475413 
L 638.045455 479.475413 
L 646.5 479.475413 
L 654.954545 479.475413 
L 663.409091 479.475413 
L 671.863636 479.475413 
L 680.318182 479.475413 
L 688.772727 479.475413 
L 697.227273 483.555813 
L 705.681818 479.475413 
L 714.136364 479.475413 
L 722.590909 479.475413 
L 731.045455 479.475413 
L 739.5 479.475413 
L 747.954545 479.475413 
L 756.409091 479.475413 
L 764.863636 479.475413 
L 773.318182 479.475413 
L 781.772727 479.475413 
L 790.227273 479.475413 
L 798.681818 479.475413 
L 807.136364 479.475413 
L 815.590909 479.475413 
L 824.045455 479.475413 
L 832.5 479.475413 
L 840.954545 479.475413 
L 849.409091 479.475413 
L 857.863636 479.475413 
L 866.318182 479.475413 
L 874.772727 479.475413 
L 883.227273 479.475413 
L 891.681818 479.475413 
L 900.136364 479.475413 
L 908.590909 479.475413 
L 917.045455 479.475413 
L 925.5 475.395013 
L 933.954545 479.475413 
" style="fill:none;stroke:#0000ff;stroke-linecap:square;"/>
   </g>
   <g id="line2d_15">
    <path clip-path="url(#pc9177baee8)" d="M 173.045455 99.998182 
L 181.5 242.812193 
L 189.954545 287.696597 
L 198.409091 304.018198 
L 206.863636 357.063403 
L 215.318182 348.902602 
L 223.772727 352.983003 
L 232.227273 348.902602 
L 240.681818 357.063403 
L 249.136364 357.063403 
L 257.590909 348.902602 
L 266.045455 369.304604 
L 274.5 344.822202 
L 282.954545 357.063403 
L 291.409091 365.224204 
L 299.863636 365.224204 
L 308.318182 365.224204 
L 316.772727 365.224204 
L 325.227273 365.224204 
L 333.681818 365.224204 
L 342.136364 365.224204 
L 350.590909 361.143803 
L 359.045455 361.143803 
L 367.5 361.143803 
L 375.954545 361.143803 
L 384.409091 361.143803 
L 392.863636 365.224204 
L 401.318182 369.304604 
L 409.772727 365.224204 
L 418.227273 365.224204 
L 426.681818 365.224204 
L 435.136364 365.224204 
L 443.590909 365.224204 
L 452.045455 365.224204 
L 460.5 365.224204 
L 468.954545 365.224204 
L 477.409091 369.304604 
L 485.863636 365.224204 
L 494.318182 369.304604 
L 502.772727 365.224204 
L 511.227273 377.465405 
L 519.681818 365.224204 
L 528.136364 377.465405 
L 536.590909 369.304604 
L 545.045455 373.385004 
L 553.5 381.545805 
L 561.954545 377.465405 
L 570.409091 377.465405 
L 578.863636 385.626205 
L 587.318182 389.706606 
L 595.772727 381.545805 
L 604.227273 393.787006 
L 612.681818 389.706606 
L 621.136364 377.465405 
L 629.590909 389.706606 
L 638.045455 397.867406 
L 646.5 389.706606 
L 654.954545 397.867406 
L 663.409091 385.626205 
L 671.863636 422.349808 
L 680.318182 418.269408 
L 688.772727 430.510609 
L 697.227273 434.591009 
L 705.681818 418.269408 
L 714.136364 430.510609 
L 722.590909 426.430209 
L 731.045455 422.349808 
L 739.5 426.430209 
L 747.954545 422.349808 
L 756.409091 434.591009 
L 764.863636 414.189008 
L 773.318182 438.67141 
L 781.772727 430.510609 
L 790.227273 446.83221 
L 798.681818 450.912611 
L 807.136364 450.912611 
L 815.590909 450.912611 
L 824.045455 463.153812 
L 832.5 463.153812 
L 840.954545 454.993011 
L 849.409091 459.073411 
L 857.863636 459.073411 
L 866.318182 467.234212 
L 874.772727 459.073411 
L 883.227273 459.073411 
L 891.681818 459.073411 
L 900.136364 467.234212 
L 908.590909 467.234212 
L 917.045455 463.153812 
L 925.5 459.073411 
L 933.954545 454.993011 
" style="fill:none;stroke:#000000;stroke-linecap:square;"/>
   </g>
   <g id="line2d_16">
    <path clip-path="url(#pc9177baee8)" d="M 173.045455 99.998182 
L 181.5 169.364987 
L 189.954545 267.294595 
L 198.409091 263.214195 
L 206.863636 275.455396 
L 215.318182 304.018198 
L 223.772727 320.3398 
L 232.227273 340.741802 
L 240.681818 357.063403 
L 249.136364 397.867406 
L 257.590909 430.510609 
L 266.045455 430.510609 
L 274.5 442.75181 
L 282.954545 467.234212 
L 291.409091 463.153812 
L 299.863636 475.395013 
L 308.318182 475.395013 
L 316.772727 475.395013 
L 325.227273 495.797014 
L 333.681818 503.957815 
L 342.136364 495.797014 
L 350.590909 503.957815 
L 359.045455 459.073411 
L 367.5 479.475413 
L 375.954545 483.555813 
L 384.409091 483.555813 
L 392.863636 495.797014 
L 401.318182 487.636214 
L 409.772727 499.877415 
L 418.227273 483.555813 
L 426.681818 495.797014 
L 435.136364 495.797014 
L 443.590909 495.797014 
L 452.045455 495.797014 
L 460.5 512.118616 
L 468.954545 508.038215 
L 477.409091 499.877415 
L 485.863636 487.636214 
L 494.318182 483.555813 
L 502.772727 495.797014 
L 511.227273 495.797014 
L 519.681818 471.314612 
L 528.136364 483.555813 
L 536.590909 487.636214 
L 545.045455 503.957815 
L 553.5 503.957815 
L 561.954545 503.957815 
L 570.409091 499.877415 
L 578.863636 508.038215 
L 587.318182 508.038215 
L 595.772727 499.877415 
L 604.227273 499.877415 
L 612.681818 508.038215 
L 621.136364 508.038215 
L 629.590909 508.038215 
L 638.045455 499.877415 
L 646.5 503.957815 
L 654.954545 516.199016 
L 663.409091 516.199016 
L 671.863636 524.359817 
L 680.318182 528.440217 
L 688.772727 528.440217 
L 697.227273 532.520617 
L 705.681818 532.520617 
L 714.136364 528.440217 
L 722.590909 532.520617 
L 731.045455 524.359817 
L 739.5 524.359817 
L 747.954545 528.440217 
L 756.409091 528.440217 
L 764.863636 520.279416 
L 773.318182 516.199016 
L 781.772727 516.199016 
L 790.227273 516.199016 
L 798.681818 516.199016 
L 807.136364 516.199016 
L 815.590909 524.359817 
L 824.045455 520.279416 
L 832.5 524.359817 
L 840.954545 524.359817 
L 849.409091 524.359817 
L 857.863636 524.359817 
L 866.318182 524.359817 
L 874.772727 524.359817 
L 883.227273 524.359817 
L 891.681818 524.359817 
L 900.136364 524.359817 
L 908.590909 520.279416 
L 917.045455 520.279416 
L 925.5 524.359817 
L 933.954545 524.359817 
" style="fill:none;stroke:#ff00ff;stroke-linecap:square;"/>
   </g>
   <g id="patch_3">
    <path d="M 135 567 
L 135 77.76 
" style="fill:none;stroke:#000000;stroke-linecap:square;stroke-linejoin:miter;stroke-width:0.8;"/>
   </g>
   <g id="patch_4">
    <path d="M 972 567 
L 972 77.76 
" style="fill:none;stroke:#000000;stroke-linecap:square;stroke-linejoin:miter;stroke-width:0.8;"/>
   </g>
   <g id="patch_5">
    <path d="M 135 567 
L 972 567 
" style="fill:none;stroke:#000000;stroke-linecap:square;stroke-linejoin:miter;stroke-width:0.8;"/>
   </g>
   <g id="patch_6">
    <path d="M 135 77.76 
L 972 77.76 
" style="fill:none;stroke:#000000;stroke-linecap:square;stroke-linejoin:miter;stroke-width:0.8;"/>
   </g>
   <g id="text_14">
    <!-- PSO Optimised NN with Sigmoid Activation -->
    <g transform="translate(286.011719 71.76)scale(0.25 -0.25)">
     <defs>
      <path d="M 19.671875 64.796875 
L 19.671875 37.40625 
L 32.078125 37.40625 
Q 38.96875 37.40625 42.71875 40.96875 
Q 46.484375 44.53125 46.484375 51.125 
Q 46.484375 57.671875 42.71875 61.234375 
Q 38.96875 64.796875 32.078125 64.796875 
z
M 9.8125 72.90625 
L 32.078125 72.90625 
Q 44.34375 72.90625 50.609375 67.359375 
Q 56.890625 61.8125 56.890625 51.125 
Q 56.890625 40.328125 50.609375 34.8125 
Q 44.34375 29.296875 32.078125 29.296875 
L 19.671875 29.296875 
L 19.671875 0 
L 9.8125 0 
z
" id="DejaVuSans-80"/>
      <path d="M 39.40625 66.21875 
Q 28.65625 66.21875 22.328125 58.203125 
Q 16.015625 50.203125 16.015625 36.375 
Q 16.015625 22.609375 22.328125 14.59375 
Q 28.65625 6.59375 39.40625 6.59375 
Q 50.140625 6.59375 56.421875 14.59375 
Q 62.703125 22.609375 62.703125 36.375 
Q 62.703125 50.203125 56.421875 58.203125 
Q 50.140625 66.21875 39.40625 66.21875 
z
M 39.40625 74.21875 
Q 54.734375 74.21875 63.90625 63.9375 
Q 73.09375 53.65625 73.09375 36.375 
Q 73.09375 19.140625 63.90625 8.859375 
Q 54.734375 -1.421875 39.40625 -1.421875 
Q 24.03125 -1.421875 14.8125 8.828125 
Q 5.609375 19.09375 5.609375 36.375 
Q 5.609375 53.65625 14.8125 63.9375 
Q 24.03125 74.21875 39.40625 74.21875 
z
" id="DejaVuSans-79"/>
      <path d="M 18.109375 8.203125 
L 18.109375 -20.796875 
L 9.078125 -20.796875 
L 9.078125 54.6875 
L 18.109375 54.6875 
L 18.109375 46.390625 
Q 20.953125 51.265625 25.265625 53.625 
Q 29.59375 56 35.59375 56 
Q 45.5625 56 51.78125 48.09375 
Q 58.015625 40.1875 58.015625 27.296875 
Q 58.015625 14.40625 51.78125 6.484375 
Q 45.5625 -1.421875 35.59375 -1.421875 
Q 29.59375 -1.421875 25.265625 0.953125 
Q 20.953125 3.328125 18.109375 8.203125 
z
M 48.6875 27.296875 
Q 48.6875 37.203125 44.609375 42.84375 
Q 40.53125 48.484375 33.40625 48.484375 
Q 26.265625 48.484375 22.1875 42.84375 
Q 18.109375 37.203125 18.109375 27.296875 
Q 18.109375 17.390625 22.1875 11.75 
Q 26.265625 6.109375 33.40625 6.109375 
Q 40.53125 6.109375 44.609375 11.75 
Q 48.6875 17.390625 48.6875 27.296875 
z
" id="DejaVuSans-112"/>
      <path d="M 52 44.1875 
Q 55.375 50.25 60.0625 53.125 
Q 64.75 56 71.09375 56 
Q 79.640625 56 84.28125 50.015625 
Q 88.921875 44.046875 88.921875 33.015625 
L 88.921875 0 
L 79.890625 0 
L 79.890625 32.71875 
Q 79.890625 40.578125 77.09375 44.375 
Q 74.3125 48.1875 68.609375 48.1875 
Q 61.625 48.1875 57.5625 43.546875 
Q 53.515625 38.921875 53.515625 30.90625 
L 53.515625 0 
L 44.484375 0 
L 44.484375 32.71875 
Q 44.484375 40.625 41.703125 44.40625 
Q 38.921875 48.1875 33.109375 48.1875 
Q 26.21875 48.1875 22.15625 43.53125 
Q 18.109375 38.875 18.109375 30.90625 
L 18.109375 0 
L 9.078125 0 
L 9.078125 54.6875 
L 18.109375 54.6875 
L 18.109375 46.1875 
Q 21.1875 51.21875 25.484375 53.609375 
Q 29.78125 56 35.6875 56 
Q 41.65625 56 45.828125 52.96875 
Q 50 49.953125 52 44.1875 
z
" id="DejaVuSans-109"/>
      <path d="M 45.40625 46.390625 
L 45.40625 75.984375 
L 54.390625 75.984375 
L 54.390625 0 
L 45.40625 0 
L 45.40625 8.203125 
Q 42.578125 3.328125 38.25 0.953125 
Q 33.9375 -1.421875 27.875 -1.421875 
Q 17.96875 -1.421875 11.734375 6.484375 
Q 5.515625 14.40625 5.515625 27.296875 
Q 5.515625 40.1875 11.734375 48.09375 
Q 17.96875 56 27.875 56 
Q 33.9375 56 38.25 53.625 
Q 42.578125 51.265625 45.40625 46.390625 
z
M 14.796875 27.296875 
Q 14.796875 17.390625 18.875 11.75 
Q 22.953125 6.109375 30.078125 6.109375 
Q 37.203125 6.109375 41.296875 11.75 
Q 45.40625 17.390625 45.40625 27.296875 
Q 45.40625 37.203125 41.296875 42.84375 
Q 37.203125 48.484375 30.078125 48.484375 
Q 22.953125 48.484375 18.875 42.84375 
Q 14.796875 37.203125 14.796875 27.296875 
z
" id="DejaVuSans-100"/>
      <path d="M 9.8125 72.90625 
L 23.09375 72.90625 
L 55.421875 11.921875 
L 55.421875 72.90625 
L 64.984375 72.90625 
L 64.984375 0 
L 51.703125 0 
L 19.390625 60.984375 
L 19.390625 0 
L 9.8125 0 
z
" id="DejaVuSans-78"/>
      <path d="M 4.203125 54.6875 
L 13.1875 54.6875 
L 24.421875 12.015625 
L 35.59375 54.6875 
L 46.1875 54.6875 
L 57.421875 12.015625 
L 68.609375 54.6875 
L 77.59375 54.6875 
L 63.28125 0 
L 52.6875 0 
L 40.921875 44.828125 
L 29.109375 0 
L 18.5 0 
z
" id="DejaVuSans-119"/>
      <path d="M 54.890625 33.015625 
L 54.890625 0 
L 45.90625 0 
L 45.90625 32.71875 
Q 45.90625 40.484375 42.875 44.328125 
Q 39.84375 48.1875 33.796875 48.1875 
Q 26.515625 48.1875 22.3125 43.546875 
Q 18.109375 38.921875 18.109375 30.90625 
L 18.109375 0 
L 9.078125 0 
L 9.078125 75.984375 
L 18.109375 75.984375 
L 18.109375 46.1875 
Q 21.34375 51.125 25.703125 53.5625 
Q 30.078125 56 35.796875 56 
Q 45.21875 56 50.046875 50.171875 
Q 54.890625 44.34375 54.890625 33.015625 
z
" id="DejaVuSans-104"/>
      <path d="M 45.40625 27.984375 
Q 45.40625 37.75 41.375 43.109375 
Q 37.359375 48.484375 30.078125 48.484375 
Q 22.859375 48.484375 18.828125 43.109375 
Q 14.796875 37.75 14.796875 27.984375 
Q 14.796875 18.265625 18.828125 12.890625 
Q 22.859375 7.515625 30.078125 7.515625 
Q 37.359375 7.515625 41.375 12.890625 
Q 45.40625 18.265625 45.40625 27.984375 
z
M 54.390625 6.78125 
Q 54.390625 -7.171875 48.1875 -13.984375 
Q 42 -20.796875 29.203125 -20.796875 
Q 24.46875 -20.796875 20.265625 -20.09375 
Q 16.0625 -19.390625 12.109375 -17.921875 
L 12.109375 -9.1875 
Q 16.0625 -11.328125 19.921875 -12.34375 
Q 23.78125 -13.375 27.78125 -13.375 
Q 36.625 -13.375 41.015625 -8.765625 
Q 45.40625 -4.15625 45.40625 5.171875 
L 45.40625 9.625 
Q 42.625 4.78125 38.28125 2.390625 
Q 33.9375 0 27.875 0 
Q 17.828125 0 11.671875 7.65625 
Q 5.515625 15.328125 5.515625 27.984375 
Q 5.515625 40.671875 11.671875 48.328125 
Q 17.828125 56 27.875 56 
Q 33.9375 56 38.28125 53.609375 
Q 42.625 51.21875 45.40625 46.390625 
L 45.40625 54.6875 
L 54.390625 54.6875 
z
" id="DejaVuSans-103"/>
      <path d="M 34.1875 63.1875 
L 20.796875 26.90625 
L 47.609375 26.90625 
z
M 28.609375 72.90625 
L 39.796875 72.90625 
L 67.578125 0 
L 57.328125 0 
L 50.6875 18.703125 
L 17.828125 18.703125 
L 11.1875 0 
L 0.78125 0 
z
" id="DejaVuSans-65"/>
      <path d="M 48.78125 52.59375 
L 48.78125 44.1875 
Q 44.96875 46.296875 41.140625 47.34375 
Q 37.3125 48.390625 33.40625 48.390625 
Q 24.65625 48.390625 19.8125 42.84375 
Q 14.984375 37.3125 14.984375 27.296875 
Q 14.984375 17.28125 19.8125 11.734375 
Q 24.65625 6.203125 33.40625 6.203125 
Q 37.3125 6.203125 41.140625 7.25 
Q 44.96875 8.296875 48.78125 10.40625 
L 48.78125 2.09375 
Q 45.015625 0.34375 40.984375 -0.53125 
Q 36.96875 -1.421875 32.421875 -1.421875 
Q 20.0625 -1.421875 12.78125 6.34375 
Q 5.515625 14.109375 5.515625 27.296875 
Q 5.515625 40.671875 12.859375 48.328125 
Q 20.21875 56 33.015625 56 
Q 37.15625 56 41.109375 55.140625 
Q 45.0625 54.296875 48.78125 52.59375 
z
" id="DejaVuSans-99"/>
      <path d="M 2.984375 54.6875 
L 12.5 54.6875 
L 29.59375 8.796875 
L 46.6875 54.6875 
L 56.203125 54.6875 
L 35.6875 0 
L 23.484375 0 
z
" id="DejaVuSans-118"/>
     </defs>
     <use xlink:href="#DejaVuSans-80"/>
     <use x="60.302734" xlink:href="#DejaVuSans-83"/>
     <use x="123.779297" xlink:href="#DejaVuSans-79"/>
     <use x="202.490234" xlink:href="#DejaVuSans-32"/>
     <use x="234.277344" xlink:href="#DejaVuSans-79"/>
     <use x="312.988281" xlink:href="#DejaVuSans-112"/>
     <use x="376.464844" xlink:href="#DejaVuSans-116"/>
     <use x="415.673828" xlink:href="#DejaVuSans-105"/>
     <use x="443.457031" xlink:href="#DejaVuSans-109"/>
     <use x="540.869141" xlink:href="#DejaVuSans-105"/>
     <use x="568.652344" xlink:href="#DejaVuSans-115"/>
     <use x="620.751953" xlink:href="#DejaVuSans-101"/>
     <use x="682.275391" xlink:href="#DejaVuSans-100"/>
     <use x="745.751953" xlink:href="#DejaVuSans-32"/>
     <use x="777.539062" xlink:href="#DejaVuSans-78"/>
     <use x="852.34375" xlink:href="#DejaVuSans-78"/>
     <use x="927.148438" xlink:href="#DejaVuSans-32"/>
     <use x="958.935547" xlink:href="#DejaVuSans-119"/>
     <use x="1040.722656" xlink:href="#DejaVuSans-105"/>
     <use x="1068.505859" xlink:href="#DejaVuSans-116"/>
     <use x="1107.714844" xlink:href="#DejaVuSans-104"/>
     <use x="1171.09375" xlink:href="#DejaVuSans-32"/>
     <use x="1202.880859" xlink:href="#DejaVuSans-83"/>
     <use x="1266.357422" xlink:href="#DejaVuSans-105"/>
     <use x="1294.140625" xlink:href="#DejaVuSans-103"/>
     <use x="1357.617188" xlink:href="#DejaVuSans-109"/>
     <use x="1455.029297" xlink:href="#DejaVuSans-111"/>
     <use x="1516.210938" xlink:href="#DejaVuSans-105"/>
     <use x="1543.994141" xlink:href="#DejaVuSans-100"/>
     <use x="1607.470703" xlink:href="#DejaVuSans-32"/>
     <use x="1639.257812" xlink:href="#DejaVuSans-65"/>
     <use x="1705.916016" xlink:href="#DejaVuSans-99"/>
     <use x="1760.896484" xlink:href="#DejaVuSans-116"/>
     <use x="1800.105469" xlink:href="#DejaVuSans-105"/>
     <use x="1827.888672" xlink:href="#DejaVuSans-118"/>
     <use x="1887.068359" xlink:href="#DejaVuSans-97"/>
     <use x="1948.347656" xlink:href="#DejaVuSans-116"/>
     <use x="1987.556641" xlink:href="#DejaVuSans-105"/>
     <use x="2015.339844" xlink:href="#DejaVuSans-111"/>
     <use x="2076.521484" xlink:href="#DejaVuSans-110"/>
    </g>
   </g>
   <g id="legend_1">
    <g id="patch_7">
     <path d="M 791.871875 240.54125 
L 958 240.54125 
Q 962 240.54125 962 236.54125 
L 962 91.76 
Q 962 87.76 958 87.76 
L 791.871875 87.76 
Q 787.871875 87.76 787.871875 91.76 
L 787.871875 236.54125 
Q 787.871875 240.54125 791.871875 240.54125 
z
" style="fill:#ffffff;opacity:0.8;stroke:#cccccc;stroke-linejoin:miter;"/>
    </g>
    <g id="line2d_17">
     <path d="M 795.871875 103.956875 
L 835.871875 103.956875 
" style="fill:none;stroke:#ff0000;stroke-linecap:square;"/>
    </g>
    <g id="line2d_18"/>
    <g id="text_15">
     <!-- 4 Neurons -->
     <g transform="translate(851.871875 110.956875)scale(0.2 -0.2)">
      <defs>
       <path d="M 8.5 21.578125 
L 8.5 54.6875 
L 17.484375 54.6875 
L 17.484375 21.921875 
Q 17.484375 14.15625 20.5 10.265625 
Q 23.53125 6.390625 29.59375 6.390625 
Q 36.859375 6.390625 41.078125 11.03125 
Q 45.3125 15.671875 45.3125 23.6875 
L 45.3125 54.6875 
L 54.296875 54.6875 
L 54.296875 0 
L 45.3125 0 
L 45.3125 8.40625 
Q 42.046875 3.421875 37.71875 1 
Q 33.40625 -1.421875 27.6875 -1.421875 
Q 18.265625 -1.421875 13.375 4.4375 
Q 8.5 10.296875 8.5 21.578125 
z
M 31.109375 56 
z
" id="DejaVuSans-117"/>
      </defs>
      <use xlink:href="#DejaVuSans-52"/>
      <use x="63.623047" xlink:href="#DejaVuSans-32"/>
      <use x="95.410156" xlink:href="#DejaVuSans-78"/>
      <use x="170.214844" xlink:href="#DejaVuSans-101"/>
      <use x="231.738281" xlink:href="#DejaVuSans-117"/>
      <use x="295.117188" xlink:href="#DejaVuSans-114"/>
      <use x="333.980469" xlink:href="#DejaVuSans-111"/>
      <use x="395.162109" xlink:href="#DejaVuSans-110"/>
      <use x="458.541016" xlink:href="#DejaVuSans-115"/>
     </g>
    </g>
    <g id="line2d_19">
     <path d="M 795.871875 133.313125 
L 835.871875 133.313125 
" style="fill:none;stroke:#006400;stroke-linecap:square;"/>
    </g>
    <g id="line2d_20"/>
    <g id="text_16">
     <!-- 5 Neurons -->
     <g transform="translate(851.871875 140.313125)scale(0.2 -0.2)">
      <use xlink:href="#DejaVuSans-53"/>
      <use x="63.623047" xlink:href="#DejaVuSans-32"/>
      <use x="95.410156" xlink:href="#DejaVuSans-78"/>
      <use x="170.214844" xlink:href="#DejaVuSans-101"/>
      <use x="231.738281" xlink:href="#DejaVuSans-117"/>
      <use x="295.117188" xlink:href="#DejaVuSans-114"/>
      <use x="333.980469" xlink:href="#DejaVuSans-111"/>
      <use x="395.162109" xlink:href="#DejaVuSans-110"/>
      <use x="458.541016" xlink:href="#DejaVuSans-115"/>
     </g>
    </g>
    <g id="line2d_21">
     <path d="M 795.871875 162.669375 
L 835.871875 162.669375 
" style="fill:none;stroke:#0000ff;stroke-linecap:square;"/>
    </g>
    <g id="line2d_22"/>
    <g id="text_17">
     <!-- 6 Neurons -->
     <g transform="translate(851.871875 169.669375)scale(0.2 -0.2)">
      <defs>
       <path d="M 33.015625 40.375 
Q 26.375 40.375 22.484375 35.828125 
Q 18.609375 31.296875 18.609375 23.390625 
Q 18.609375 15.53125 22.484375 10.953125 
Q 26.375 6.390625 33.015625 6.390625 
Q 39.65625 6.390625 43.53125 10.953125 
Q 47.40625 15.53125 47.40625 23.390625 
Q 47.40625 31.296875 43.53125 35.828125 
Q 39.65625 40.375 33.015625 40.375 
z
M 52.59375 71.296875 
L 52.59375 62.3125 
Q 48.875 64.0625 45.09375 64.984375 
Q 41.3125 65.921875 37.59375 65.921875 
Q 27.828125 65.921875 22.671875 59.328125 
Q 17.53125 52.734375 16.796875 39.40625 
Q 19.671875 43.65625 24.015625 45.921875 
Q 28.375 48.1875 33.59375 48.1875 
Q 44.578125 48.1875 50.953125 41.515625 
Q 57.328125 34.859375 57.328125 23.390625 
Q 57.328125 12.15625 50.6875 5.359375 
Q 44.046875 -1.421875 33.015625 -1.421875 
Q 20.359375 -1.421875 13.671875 8.265625 
Q 6.984375 17.96875 6.984375 36.375 
Q 6.984375 53.65625 15.1875 63.9375 
Q 23.390625 74.21875 37.203125 74.21875 
Q 40.921875 74.21875 44.703125 73.484375 
Q 48.484375 72.75 52.59375 71.296875 
z
" id="DejaVuSans-54"/>
      </defs>
      <use xlink:href="#DejaVuSans-54"/>
      <use x="63.623047" xlink:href="#DejaVuSans-32"/>
      <use x="95.410156" xlink:href="#DejaVuSans-78"/>
      <use x="170.214844" xlink:href="#DejaVuSans-101"/>
      <use x="231.738281" xlink:href="#DejaVuSans-117"/>
      <use x="295.117188" xlink:href="#DejaVuSans-114"/>
      <use x="333.980469" xlink:href="#DejaVuSans-111"/>
      <use x="395.162109" xlink:href="#DejaVuSans-110"/>
      <use x="458.541016" xlink:href="#DejaVuSans-115"/>
     </g>
    </g>
    <g id="line2d_23">
     <path d="M 795.871875 192.025625 
L 835.871875 192.025625 
" style="fill:none;stroke:#000000;stroke-linecap:square;"/>
    </g>
    <g id="line2d_24"/>
    <g id="text_18">
     <!-- 7 Neurons -->
     <g transform="translate(851.871875 199.025625)scale(0.2 -0.2)">
      <defs>
       <path d="M 8.203125 72.90625 
L 55.078125 72.90625 
L 55.078125 68.703125 
L 28.609375 0 
L 18.3125 0 
L 43.21875 64.59375 
L 8.203125 64.59375 
z
" id="DejaVuSans-55"/>
      </defs>
      <use xlink:href="#DejaVuSans-55"/>
      <use x="63.623047" xlink:href="#DejaVuSans-32"/>
      <use x="95.410156" xlink:href="#DejaVuSans-78"/>
      <use x="170.214844" xlink:href="#DejaVuSans-101"/>
      <use x="231.738281" xlink:href="#DejaVuSans-117"/>
      <use x="295.117188" xlink:href="#DejaVuSans-114"/>
      <use x="333.980469" xlink:href="#DejaVuSans-111"/>
      <use x="395.162109" xlink:href="#DejaVuSans-110"/>
      <use x="458.541016" xlink:href="#DejaVuSans-115"/>
     </g>
    </g>
    <g id="line2d_25">
     <path d="M 795.871875 221.381875 
L 835.871875 221.381875 
" style="fill:none;stroke:#ff00ff;stroke-linecap:square;"/>
    </g>
    <g id="line2d_26"/>
    <g id="text_19">
     <!-- 8 Neurons -->
     <g transform="translate(851.871875 228.381875)scale(0.2 -0.2)">
      <defs>
       <path d="M 31.78125 34.625 
Q 24.75 34.625 20.71875 30.859375 
Q 16.703125 27.09375 16.703125 20.515625 
Q 16.703125 13.921875 20.71875 10.15625 
Q 24.75 6.390625 31.78125 6.390625 
Q 38.8125 6.390625 42.859375 10.171875 
Q 46.921875 13.96875 46.921875 20.515625 
Q 46.921875 27.09375 42.890625 30.859375 
Q 38.875 34.625 31.78125 34.625 
z
M 21.921875 38.8125 
Q 15.578125 40.375 12.03125 44.71875 
Q 8.5 49.078125 8.5 55.328125 
Q 8.5 64.0625 14.71875 69.140625 
Q 20.953125 74.21875 31.78125 74.21875 
Q 42.671875 74.21875 48.875 69.140625 
Q 55.078125 64.0625 55.078125 55.328125 
Q 55.078125 49.078125 51.53125 44.71875 
Q 48 40.375 41.703125 38.8125 
Q 48.828125 37.15625 52.796875 32.3125 
Q 56.78125 27.484375 56.78125 20.515625 
Q 56.78125 9.90625 50.3125 4.234375 
Q 43.84375 -1.421875 31.78125 -1.421875 
Q 19.734375 -1.421875 13.25 4.234375 
Q 6.78125 9.90625 6.78125 20.515625 
Q 6.78125 27.484375 10.78125 32.3125 
Q 14.796875 37.15625 21.921875 38.8125 
z
M 18.3125 54.390625 
Q 18.3125 48.734375 21.84375 45.5625 
Q 25.390625 42.390625 31.78125 42.390625 
Q 38.140625 42.390625 41.71875 45.5625 
Q 45.3125 48.734375 45.3125 54.390625 
Q 45.3125 60.0625 41.71875 63.234375 
Q 38.140625 66.40625 31.78125 66.40625 
Q 25.390625 66.40625 21.84375 63.234375 
Q 18.3125 60.0625 18.3125 54.390625 
z
" id="DejaVuSans-56"/>
      </defs>
      <use xlink:href="#DejaVuSans-56"/>
      <use x="63.623047" xlink:href="#DejaVuSans-32"/>
      <use x="95.410156" xlink:href="#DejaVuSans-78"/>
      <use x="170.214844" xlink:href="#DejaVuSans-101"/>
      <use x="231.738281" xlink:href="#DejaVuSans-117"/>
      <use x="295.117188" xlink:href="#DejaVuSans-114"/>
      <use x="333.980469" xlink:href="#DejaVuSans-111"/>
      <use x="395.162109" xlink:href="#DejaVuSans-110"/>
      <use x="458.541016" xlink:href="#DejaVuSans-115"/>
     </g>
    </g>
   </g>
  </g>
 </g>
 <defs>
  <clipPath id="pc9177baee8">
   <rect height="489.24" width="837" x="135" y="77.76"/>
  </clipPath>
 </defs>
</svg>
