<?xml version="1.0" encoding="utf-8" standalone="no"?>
<!DOCTYPE svg PUBLIC "-//W3C//DTD SVG 1.1//EN"
  "http://www.w3.org/Graphics/SVG/1.1/DTD/svg11.dtd">
<!-- Created with matplotlib (https://matplotlib.org/) -->
<svg height="648pt" version="1.1" viewBox="0 0 1080 648" width="1080pt" xmlns="http://www.w3.org/2000/svg" xmlns:xlink="http://www.w3.org/1999/xlink">
 <metadata>
  <rdf:RDF xmlns:cc="http://creativecommons.org/ns#" xmlns:dc="http://purl.org/dc/elements/1.1/" xmlns:rdf="http://www.w3.org/1999/02/22-rdf-syntax-ns#">
   <cc:Work>
    <dc:type rdf:resource="http://purl.org/dc/dcmitype/StillImage"/>
    <dc:date>2020-11-15T02:02:43.110858</dc:date>
    <dc:format>image/svg+xml</dc:format>
    <dc:creator>
     <cc:Agent>
      <dc:title>Matplotlib v3.3.2, https://matplotlib.org/</dc:title>
     </cc:Agent>
    </dc:creator>
   </cc:Work>
  </rdf:RDF>
 </metadata>
 <defs>
  <style type="text/css">*{stroke-linecap:butt;stroke-linejoin:round;}</style>
 </defs>
 <g id="figure_1">
  <g id="patch_1">
   <path d="M 0 648 
L 1080 648 
L 1080 0 
L 0 0 
z
" style="fill:none;"/>
  </g>
  <g id="axes_1">
   <g id="patch_2">
    <path d="M 135 567 
L 972 567 
L 972 77.76 
L 135 77.76 
z
" style="fill:#ffffff;"/>
   </g>
   <g id="matplotlib.axis_1">
    <g id="xtick_1">
     <g id="line2d_1">
      <defs>
       <path d="M 0 0 
L 0 3.5 
" id="m82412445c5" style="stroke:#000000;stroke-width:0.8;"/>
      </defs>
      <g>
       <use style="stroke:#000000;stroke-width:0.8;" x="173.045455" xlink:href="#m82412445c5" y="567"/>
      </g>
     </g>
     <g id="text_1">
      <!-- 0 -->
      <g transform="translate(169.864205 581.598438)scale(0.1 -0.1)">
       <defs>
        <path d="M 31.78125 66.40625 
Q 24.171875 66.40625 20.328125 58.90625 
Q 16.5 51.421875 16.5 36.375 
Q 16.5 21.390625 20.328125 13.890625 
Q 24.171875 6.390625 31.78125 6.390625 
Q 39.453125 6.390625 43.28125 13.890625 
Q 47.125 21.390625 47.125 36.375 
Q 47.125 51.421875 43.28125 58.90625 
Q 39.453125 66.40625 31.78125 66.40625 
z
M 31.78125 74.21875 
Q 44.046875 74.21875 50.515625 64.515625 
Q 56.984375 54.828125 56.984375 36.375 
Q 56.984375 17.96875 50.515625 8.265625 
Q 44.046875 -1.421875 31.78125 -1.421875 
Q 19.53125 -1.421875 13.0625 8.265625 
Q 6.59375 17.96875 6.59375 36.375 
Q 6.59375 54.828125 13.0625 64.515625 
Q 19.53125 74.21875 31.78125 74.21875 
z
" id="DejaVuSans-48"/>
       </defs>
       <use xlink:href="#DejaVuSans-48"/>
      </g>
     </g>
    </g>
    <g id="xtick_2">
     <g id="line2d_2">
      <g>
       <use style="stroke:#000000;stroke-width:0.8;" x="268.397471" xlink:href="#m82412445c5" y="567"/>
      </g>
     </g>
     <g id="text_2">
      <!-- 500 -->
      <g transform="translate(258.853721 581.598438)scale(0.1 -0.1)">
       <defs>
        <path d="M 10.796875 72.90625 
L 49.515625 72.90625 
L 49.515625 64.59375 
L 19.828125 64.59375 
L 19.828125 46.734375 
Q 21.96875 47.46875 24.109375 47.828125 
Q 26.265625 48.1875 28.421875 48.1875 
Q 40.625 48.1875 47.75 41.5 
Q 54.890625 34.8125 54.890625 23.390625 
Q 54.890625 11.625 47.5625 5.09375 
Q 40.234375 -1.421875 26.90625 -1.421875 
Q 22.3125 -1.421875 17.546875 -0.640625 
Q 12.796875 0.140625 7.71875 1.703125 
L 7.71875 11.625 
Q 12.109375 9.234375 16.796875 8.0625 
Q 21.484375 6.890625 26.703125 6.890625 
Q 35.15625 6.890625 40.078125 11.328125 
Q 45.015625 15.765625 45.015625 23.390625 
Q 45.015625 31 40.078125 35.4375 
Q 35.15625 39.890625 26.703125 39.890625 
Q 22.75 39.890625 18.8125 39.015625 
Q 14.890625 38.140625 10.796875 36.28125 
z
" id="DejaVuSans-53"/>
       </defs>
       <use xlink:href="#DejaVuSans-53"/>
       <use x="63.623047" xlink:href="#DejaVuSans-48"/>
       <use x="127.246094" xlink:href="#DejaVuSans-48"/>
      </g>
     </g>
    </g>
    <g id="xtick_3">
     <g id="line2d_3">
      <g>
       <use style="stroke:#000000;stroke-width:0.8;" x="363.749487" xlink:href="#m82412445c5" y="567"/>
      </g>
     </g>
     <g id="text_3">
      <!-- 1000 -->
      <g transform="translate(351.024487 581.598438)scale(0.1 -0.1)">
       <defs>
        <path d="M 12.40625 8.296875 
L 28.515625 8.296875 
L 28.515625 63.921875 
L 10.984375 60.40625 
L 10.984375 69.390625 
L 28.421875 72.90625 
L 38.28125 72.90625 
L 38.28125 8.296875 
L 54.390625 8.296875 
L 54.390625 0 
L 12.40625 0 
z
" id="DejaVuSans-49"/>
       </defs>
       <use xlink:href="#DejaVuSans-49"/>
       <use x="63.623047" xlink:href="#DejaVuSans-48"/>
       <use x="127.246094" xlink:href="#DejaVuSans-48"/>
       <use x="190.869141" xlink:href="#DejaVuSans-48"/>
      </g>
     </g>
    </g>
    <g id="xtick_4">
     <g id="line2d_4">
      <g>
       <use style="stroke:#000000;stroke-width:0.8;" x="459.101504" xlink:href="#m82412445c5" y="567"/>
      </g>
     </g>
     <g id="text_4">
      <!-- 1500 -->
      <g transform="translate(446.376504 581.598438)scale(0.1 -0.1)">
       <use xlink:href="#DejaVuSans-49"/>
       <use x="63.623047" xlink:href="#DejaVuSans-53"/>
       <use x="127.246094" xlink:href="#DejaVuSans-48"/>
       <use x="190.869141" xlink:href="#DejaVuSans-48"/>
      </g>
     </g>
    </g>
    <g id="xtick_5">
     <g id="line2d_5">
      <g>
       <use style="stroke:#000000;stroke-width:0.8;" x="554.45352" xlink:href="#m82412445c5" y="567"/>
      </g>
     </g>
     <g id="text_5">
      <!-- 2000 -->
      <g transform="translate(541.72852 581.598438)scale(0.1 -0.1)">
       <defs>
        <path d="M 19.1875 8.296875 
L 53.609375 8.296875 
L 53.609375 0 
L 7.328125 0 
L 7.328125 8.296875 
Q 12.9375 14.109375 22.625 23.890625 
Q 32.328125 33.6875 34.8125 36.53125 
Q 39.546875 41.84375 41.421875 45.53125 
Q 43.3125 49.21875 43.3125 52.78125 
Q 43.3125 58.59375 39.234375 62.25 
Q 35.15625 65.921875 28.609375 65.921875 
Q 23.96875 65.921875 18.8125 64.3125 
Q 13.671875 62.703125 7.8125 59.421875 
L 7.8125 69.390625 
Q 13.765625 71.78125 18.9375 73 
Q 24.125 74.21875 28.421875 74.21875 
Q 39.75 74.21875 46.484375 68.546875 
Q 53.21875 62.890625 53.21875 53.421875 
Q 53.21875 48.921875 51.53125 44.890625 
Q 49.859375 40.875 45.40625 35.40625 
Q 44.1875 33.984375 37.640625 27.21875 
Q 31.109375 20.453125 19.1875 8.296875 
z
" id="DejaVuSans-50"/>
       </defs>
       <use xlink:href="#DejaVuSans-50"/>
       <use x="63.623047" xlink:href="#DejaVuSans-48"/>
       <use x="127.246094" xlink:href="#DejaVuSans-48"/>
       <use x="190.869141" xlink:href="#DejaVuSans-48"/>
      </g>
     </g>
    </g>
    <g id="xtick_6">
     <g id="line2d_6">
      <g>
       <use style="stroke:#000000;stroke-width:0.8;" x="649.805537" xlink:href="#m82412445c5" y="567"/>
      </g>
     </g>
     <g id="text_6">
      <!-- 2500 -->
      <g transform="translate(637.080537 581.598438)scale(0.1 -0.1)">
       <use xlink:href="#DejaVuSans-50"/>
       <use x="63.623047" xlink:href="#DejaVuSans-53"/>
       <use x="127.246094" xlink:href="#DejaVuSans-48"/>
       <use x="190.869141" xlink:href="#DejaVuSans-48"/>
      </g>
     </g>
    </g>
    <g id="xtick_7">
     <g id="line2d_7">
      <g>
       <use style="stroke:#000000;stroke-width:0.8;" x="745.157553" xlink:href="#m82412445c5" y="567"/>
      </g>
     </g>
     <g id="text_7">
      <!-- 3000 -->
      <g transform="translate(732.432553 581.598438)scale(0.1 -0.1)">
       <defs>
        <path d="M 40.578125 39.3125 
Q 47.65625 37.796875 51.625 33 
Q 55.609375 28.21875 55.609375 21.1875 
Q 55.609375 10.40625 48.1875 4.484375 
Q 40.765625 -1.421875 27.09375 -1.421875 
Q 22.515625 -1.421875 17.65625 -0.515625 
Q 12.796875 0.390625 7.625 2.203125 
L 7.625 11.71875 
Q 11.71875 9.328125 16.59375 8.109375 
Q 21.484375 6.890625 26.8125 6.890625 
Q 36.078125 6.890625 40.9375 10.546875 
Q 45.796875 14.203125 45.796875 21.1875 
Q 45.796875 27.640625 41.28125 31.265625 
Q 36.765625 34.90625 28.71875 34.90625 
L 20.21875 34.90625 
L 20.21875 43.015625 
L 29.109375 43.015625 
Q 36.375 43.015625 40.234375 45.921875 
Q 44.09375 48.828125 44.09375 54.296875 
Q 44.09375 59.90625 40.109375 62.90625 
Q 36.140625 65.921875 28.71875 65.921875 
Q 24.65625 65.921875 20.015625 65.03125 
Q 15.375 64.15625 9.8125 62.3125 
L 9.8125 71.09375 
Q 15.4375 72.65625 20.34375 73.4375 
Q 25.25 74.21875 29.59375 74.21875 
Q 40.828125 74.21875 47.359375 69.109375 
Q 53.90625 64.015625 53.90625 55.328125 
Q 53.90625 49.265625 50.4375 45.09375 
Q 46.96875 40.921875 40.578125 39.3125 
z
" id="DejaVuSans-51"/>
       </defs>
       <use xlink:href="#DejaVuSans-51"/>
       <use x="63.623047" xlink:href="#DejaVuSans-48"/>
       <use x="127.246094" xlink:href="#DejaVuSans-48"/>
       <use x="190.869141" xlink:href="#DejaVuSans-48"/>
      </g>
     </g>
    </g>
    <g id="xtick_8">
     <g id="line2d_8">
      <g>
       <use style="stroke:#000000;stroke-width:0.8;" x="840.509569" xlink:href="#m82412445c5" y="567"/>
      </g>
     </g>
     <g id="text_8">
      <!-- 3500 -->
      <g transform="translate(827.784569 581.598438)scale(0.1 -0.1)">
       <use xlink:href="#DejaVuSans-51"/>
       <use x="63.623047" xlink:href="#DejaVuSans-53"/>
       <use x="127.246094" xlink:href="#DejaVuSans-48"/>
       <use x="190.869141" xlink:href="#DejaVuSans-48"/>
      </g>
     </g>
    </g>
    <g id="xtick_9">
     <g id="line2d_9">
      <g>
       <use style="stroke:#000000;stroke-width:0.8;" x="935.861586" xlink:href="#m82412445c5" y="567"/>
      </g>
     </g>
     <g id="text_9">
      <!-- 4000 -->
      <g transform="translate(923.136586 581.598438)scale(0.1 -0.1)">
       <defs>
        <path d="M 37.796875 64.3125 
L 12.890625 25.390625 
L 37.796875 25.390625 
z
M 35.203125 72.90625 
L 47.609375 72.90625 
L 47.609375 25.390625 
L 58.015625 25.390625 
L 58.015625 17.1875 
L 47.609375 17.1875 
L 47.609375 0 
L 37.796875 0 
L 37.796875 17.1875 
L 4.890625 17.1875 
L 4.890625 26.703125 
z
" id="DejaVuSans-52"/>
       </defs>
       <use xlink:href="#DejaVuSans-52"/>
       <use x="63.623047" xlink:href="#DejaVuSans-48"/>
       <use x="127.246094" xlink:href="#DejaVuSans-48"/>
       <use x="190.869141" xlink:href="#DejaVuSans-48"/>
      </g>
     </g>
    </g>
    <g id="text_10">
     <!-- Iterations -->
     <g transform="translate(510.636094 601.355312)scale(0.18 -0.18)">
      <defs>
       <path d="M 9.8125 72.90625 
L 19.671875 72.90625 
L 19.671875 0 
L 9.8125 0 
z
" id="DejaVuSans-73"/>
       <path d="M 18.3125 70.21875 
L 18.3125 54.6875 
L 36.8125 54.6875 
L 36.8125 47.703125 
L 18.3125 47.703125 
L 18.3125 18.015625 
Q 18.3125 11.328125 20.140625 9.421875 
Q 21.96875 7.515625 27.59375 7.515625 
L 36.8125 7.515625 
L 36.8125 0 
L 27.59375 0 
Q 17.1875 0 13.234375 3.875 
Q 9.28125 7.765625 9.28125 18.015625 
L 9.28125 47.703125 
L 2.6875 47.703125 
L 2.6875 54.6875 
L 9.28125 54.6875 
L 9.28125 70.21875 
z
" id="DejaVuSans-116"/>
       <path d="M 56.203125 29.59375 
L 56.203125 25.203125 
L 14.890625 25.203125 
Q 15.484375 15.921875 20.484375 11.0625 
Q 25.484375 6.203125 34.421875 6.203125 
Q 39.59375 6.203125 44.453125 7.46875 
Q 49.3125 8.734375 54.109375 11.28125 
L 54.109375 2.78125 
Q 49.265625 0.734375 44.1875 -0.34375 
Q 39.109375 -1.421875 33.890625 -1.421875 
Q 20.796875 -1.421875 13.15625 6.1875 
Q 5.515625 13.8125 5.515625 26.8125 
Q 5.515625 40.234375 12.765625 48.109375 
Q 20.015625 56 32.328125 56 
Q 43.359375 56 49.78125 48.890625 
Q 56.203125 41.796875 56.203125 29.59375 
z
M 47.21875 32.234375 
Q 47.125 39.59375 43.09375 43.984375 
Q 39.0625 48.390625 32.421875 48.390625 
Q 24.90625 48.390625 20.390625 44.140625 
Q 15.875 39.890625 15.1875 32.171875 
z
" id="DejaVuSans-101"/>
       <path d="M 41.109375 46.296875 
Q 39.59375 47.171875 37.8125 47.578125 
Q 36.03125 48 33.890625 48 
Q 26.265625 48 22.1875 43.046875 
Q 18.109375 38.09375 18.109375 28.8125 
L 18.109375 0 
L 9.078125 0 
L 9.078125 54.6875 
L 18.109375 54.6875 
L 18.109375 46.1875 
Q 20.953125 51.171875 25.484375 53.578125 
Q 30.03125 56 36.53125 56 
Q 37.453125 56 38.578125 55.875 
Q 39.703125 55.765625 41.0625 55.515625 
z
" id="DejaVuSans-114"/>
       <path d="M 34.28125 27.484375 
Q 23.390625 27.484375 19.1875 25 
Q 14.984375 22.515625 14.984375 16.5 
Q 14.984375 11.71875 18.140625 8.90625 
Q 21.296875 6.109375 26.703125 6.109375 
Q 34.1875 6.109375 38.703125 11.40625 
Q 43.21875 16.703125 43.21875 25.484375 
L 43.21875 27.484375 
z
M 52.203125 31.203125 
L 52.203125 0 
L 43.21875 0 
L 43.21875 8.296875 
Q 40.140625 3.328125 35.546875 0.953125 
Q 30.953125 -1.421875 24.3125 -1.421875 
Q 15.921875 -1.421875 10.953125 3.296875 
Q 6 8.015625 6 15.921875 
Q 6 25.140625 12.171875 29.828125 
Q 18.359375 34.515625 30.609375 34.515625 
L 43.21875 34.515625 
L 43.21875 35.40625 
Q 43.21875 41.609375 39.140625 45 
Q 35.0625 48.390625 27.6875 48.390625 
Q 23 48.390625 18.546875 47.265625 
Q 14.109375 46.140625 10.015625 43.890625 
L 10.015625 52.203125 
Q 14.9375 54.109375 19.578125 55.046875 
Q 24.21875 56 28.609375 56 
Q 40.484375 56 46.34375 49.84375 
Q 52.203125 43.703125 52.203125 31.203125 
z
" id="DejaVuSans-97"/>
       <path d="M 9.421875 54.6875 
L 18.40625 54.6875 
L 18.40625 0 
L 9.421875 0 
z
M 9.421875 75.984375 
L 18.40625 75.984375 
L 18.40625 64.59375 
L 9.421875 64.59375 
z
" id="DejaVuSans-105"/>
       <path d="M 30.609375 48.390625 
Q 23.390625 48.390625 19.1875 42.75 
Q 14.984375 37.109375 14.984375 27.296875 
Q 14.984375 17.484375 19.15625 11.84375 
Q 23.34375 6.203125 30.609375 6.203125 
Q 37.796875 6.203125 41.984375 11.859375 
Q 46.1875 17.53125 46.1875 27.296875 
Q 46.1875 37.015625 41.984375 42.703125 
Q 37.796875 48.390625 30.609375 48.390625 
z
M 30.609375 56 
Q 42.328125 56 49.015625 48.375 
Q 55.71875 40.765625 55.71875 27.296875 
Q 55.71875 13.875 49.015625 6.21875 
Q 42.328125 -1.421875 30.609375 -1.421875 
Q 18.84375 -1.421875 12.171875 6.21875 
Q 5.515625 13.875 5.515625 27.296875 
Q 5.515625 40.765625 12.171875 48.375 
Q 18.84375 56 30.609375 56 
z
" id="DejaVuSans-111"/>
       <path d="M 54.890625 33.015625 
L 54.890625 0 
L 45.90625 0 
L 45.90625 32.71875 
Q 45.90625 40.484375 42.875 44.328125 
Q 39.84375 48.1875 33.796875 48.1875 
Q 26.515625 48.1875 22.3125 43.546875 
Q 18.109375 38.921875 18.109375 30.90625 
L 18.109375 0 
L 9.078125 0 
L 9.078125 54.6875 
L 18.109375 54.6875 
L 18.109375 46.1875 
Q 21.34375 51.125 25.703125 53.5625 
Q 30.078125 56 35.796875 56 
Q 45.21875 56 50.046875 50.171875 
Q 54.890625 44.34375 54.890625 33.015625 
z
" id="DejaVuSans-110"/>
       <path d="M 44.28125 53.078125 
L 44.28125 44.578125 
Q 40.484375 46.53125 36.375 47.5 
Q 32.28125 48.484375 27.875 48.484375 
Q 21.1875 48.484375 17.84375 46.4375 
Q 14.5 44.390625 14.5 40.28125 
Q 14.5 37.15625 16.890625 35.375 
Q 19.28125 33.59375 26.515625 31.984375 
L 29.59375 31.296875 
Q 39.15625 29.25 43.1875 25.515625 
Q 47.21875 21.78125 47.21875 15.09375 
Q 47.21875 7.46875 41.1875 3.015625 
Q 35.15625 -1.421875 24.609375 -1.421875 
Q 20.21875 -1.421875 15.453125 -0.5625 
Q 10.6875 0.296875 5.421875 2 
L 5.421875 11.28125 
Q 10.40625 8.6875 15.234375 7.390625 
Q 20.0625 6.109375 24.8125 6.109375 
Q 31.15625 6.109375 34.5625 8.28125 
Q 37.984375 10.453125 37.984375 14.40625 
Q 37.984375 18.0625 35.515625 20.015625 
Q 33.0625 21.96875 24.703125 23.78125 
L 21.578125 24.515625 
Q 13.234375 26.265625 9.515625 29.90625 
Q 5.8125 33.546875 5.8125 39.890625 
Q 5.8125 47.609375 11.28125 51.796875 
Q 16.75 56 26.8125 56 
Q 31.78125 56 36.171875 55.265625 
Q 40.578125 54.546875 44.28125 53.078125 
z
" id="DejaVuSans-115"/>
      </defs>
      <use xlink:href="#DejaVuSans-73"/>
      <use x="29.492188" xlink:href="#DejaVuSans-116"/>
      <use x="68.701172" xlink:href="#DejaVuSans-101"/>
      <use x="130.224609" xlink:href="#DejaVuSans-114"/>
      <use x="171.337891" xlink:href="#DejaVuSans-97"/>
      <use x="232.617188" xlink:href="#DejaVuSans-116"/>
      <use x="271.826172" xlink:href="#DejaVuSans-105"/>
      <use x="299.609375" xlink:href="#DejaVuSans-111"/>
      <use x="360.791016" xlink:href="#DejaVuSans-110"/>
      <use x="424.169922" xlink:href="#DejaVuSans-115"/>
     </g>
    </g>
   </g>
   <g id="matplotlib.axis_2">
    <g id="ytick_1">
     <g id="line2d_10">
      <defs>
       <path d="M 0 0 
L -3.5 0 
" id="mb28e115cfa" style="stroke:#000000;stroke-width:0.8;"/>
      </defs>
      <g>
       <use style="stroke:#000000;stroke-width:0.8;" x="135" xlink:href="#mb28e115cfa" y="504.886458"/>
      </g>
     </g>
     <g id="text_11">
      <!-- 0.1 -->
      <g transform="translate(112.096875 508.685676)scale(0.1 -0.1)">
       <defs>
        <path d="M 10.6875 12.40625 
L 21 12.40625 
L 21 0 
L 10.6875 0 
z
" id="DejaVuSans-46"/>
       </defs>
       <use xlink:href="#DejaVuSans-48"/>
       <use x="63.623047" xlink:href="#DejaVuSans-46"/>
       <use x="95.410156" xlink:href="#DejaVuSans-49"/>
      </g>
     </g>
    </g>
    <g id="ytick_2">
     <g id="line2d_11">
      <g>
       <use style="stroke:#000000;stroke-width:0.8;" x="135" xlink:href="#mb28e115cfa" y="403.664389"/>
      </g>
     </g>
     <g id="text_12">
      <!-- 0.2 -->
      <g transform="translate(112.096875 407.463607)scale(0.1 -0.1)">
       <use xlink:href="#DejaVuSans-48"/>
       <use x="63.623047" xlink:href="#DejaVuSans-46"/>
       <use x="95.410156" xlink:href="#DejaVuSans-50"/>
      </g>
     </g>
    </g>
    <g id="ytick_3">
     <g id="line2d_12">
      <g>
       <use style="stroke:#000000;stroke-width:0.8;" x="135" xlink:href="#mb28e115cfa" y="302.44232"/>
      </g>
     </g>
     <g id="text_13">
      <!-- 0.3 -->
      <g transform="translate(112.096875 306.241538)scale(0.1 -0.1)">
       <use xlink:href="#DejaVuSans-48"/>
       <use x="63.623047" xlink:href="#DejaVuSans-46"/>
       <use x="95.410156" xlink:href="#DejaVuSans-51"/>
      </g>
     </g>
    </g>
    <g id="ytick_4">
     <g id="line2d_13">
      <g>
       <use style="stroke:#000000;stroke-width:0.8;" x="135" xlink:href="#mb28e115cfa" y="201.220251"/>
      </g>
     </g>
     <g id="text_14">
      <!-- 0.4 -->
      <g transform="translate(112.096875 205.01947)scale(0.1 -0.1)">
       <use xlink:href="#DejaVuSans-48"/>
       <use x="63.623047" xlink:href="#DejaVuSans-46"/>
       <use x="95.410156" xlink:href="#DejaVuSans-52"/>
      </g>
     </g>
    </g>
    <g id="ytick_5">
     <g id="line2d_14">
      <g>
       <use style="stroke:#000000;stroke-width:0.8;" x="135" xlink:href="#mb28e115cfa" y="99.998182"/>
      </g>
     </g>
     <g id="text_15">
      <!-- 0.5 -->
      <g transform="translate(112.096875 103.797401)scale(0.1 -0.1)">
       <use xlink:href="#DejaVuSans-48"/>
       <use x="63.623047" xlink:href="#DejaVuSans-46"/>
       <use x="95.410156" xlink:href="#DejaVuSans-53"/>
      </g>
     </g>
    </g>
    <g id="text_16">
     <!-- Test Error (MSE) -->
     <g transform="translate(104.353437 393.944062)rotate(-90)scale(0.18 -0.18)">
      <defs>
       <path d="M -0.296875 72.90625 
L 61.375 72.90625 
L 61.375 64.59375 
L 35.5 64.59375 
L 35.5 0 
L 25.59375 0 
L 25.59375 64.59375 
L -0.296875 64.59375 
z
" id="DejaVuSans-84"/>
       <path id="DejaVuSans-32"/>
       <path d="M 9.8125 72.90625 
L 55.90625 72.90625 
L 55.90625 64.59375 
L 19.671875 64.59375 
L 19.671875 43.015625 
L 54.390625 43.015625 
L 54.390625 34.71875 
L 19.671875 34.71875 
L 19.671875 8.296875 
L 56.78125 8.296875 
L 56.78125 0 
L 9.8125 0 
z
" id="DejaVuSans-69"/>
       <path d="M 31 75.875 
Q 24.46875 64.65625 21.28125 53.65625 
Q 18.109375 42.671875 18.109375 31.390625 
Q 18.109375 20.125 21.3125 9.0625 
Q 24.515625 -2 31 -13.1875 
L 23.1875 -13.1875 
Q 15.875 -1.703125 12.234375 9.375 
Q 8.59375 20.453125 8.59375 31.390625 
Q 8.59375 42.28125 12.203125 53.3125 
Q 15.828125 64.359375 23.1875 75.875 
z
" id="DejaVuSans-40"/>
       <path d="M 9.8125 72.90625 
L 24.515625 72.90625 
L 43.109375 23.296875 
L 61.8125 72.90625 
L 76.515625 72.90625 
L 76.515625 0 
L 66.890625 0 
L 66.890625 64.015625 
L 48.09375 14.015625 
L 38.1875 14.015625 
L 19.390625 64.015625 
L 19.390625 0 
L 9.8125 0 
z
" id="DejaVuSans-77"/>
       <path d="M 53.515625 70.515625 
L 53.515625 60.890625 
Q 47.90625 63.578125 42.921875 64.890625 
Q 37.9375 66.21875 33.296875 66.21875 
Q 25.25 66.21875 20.875 63.09375 
Q 16.5 59.96875 16.5 54.203125 
Q 16.5 49.359375 19.40625 46.890625 
Q 22.3125 44.4375 30.421875 42.921875 
L 36.375 41.703125 
Q 47.40625 39.59375 52.65625 34.296875 
Q 57.90625 29 57.90625 20.125 
Q 57.90625 9.515625 50.796875 4.046875 
Q 43.703125 -1.421875 29.984375 -1.421875 
Q 24.8125 -1.421875 18.96875 -0.25 
Q 13.140625 0.921875 6.890625 3.21875 
L 6.890625 13.375 
Q 12.890625 10.015625 18.65625 8.296875 
Q 24.421875 6.59375 29.984375 6.59375 
Q 38.421875 6.59375 43.015625 9.90625 
Q 47.609375 13.234375 47.609375 19.390625 
Q 47.609375 24.75 44.3125 27.78125 
Q 41.015625 30.8125 33.5 32.328125 
L 27.484375 33.5 
Q 16.453125 35.6875 11.515625 40.375 
Q 6.59375 45.0625 6.59375 53.421875 
Q 6.59375 63.09375 13.40625 68.65625 
Q 20.21875 74.21875 32.171875 74.21875 
Q 37.3125 74.21875 42.625 73.28125 
Q 47.953125 72.359375 53.515625 70.515625 
z
" id="DejaVuSans-83"/>
       <path d="M 8.015625 75.875 
L 15.828125 75.875 
Q 23.140625 64.359375 26.78125 53.3125 
Q 30.421875 42.28125 30.421875 31.390625 
Q 30.421875 20.453125 26.78125 9.375 
Q 23.140625 -1.703125 15.828125 -13.1875 
L 8.015625 -13.1875 
Q 14.5 -2 17.703125 9.0625 
Q 20.90625 20.125 20.90625 31.390625 
Q 20.90625 42.671875 17.703125 53.65625 
Q 14.5 64.65625 8.015625 75.875 
z
" id="DejaVuSans-41"/>
      </defs>
      <use xlink:href="#DejaVuSans-84"/>
      <use x="44.083984" xlink:href="#DejaVuSans-101"/>
      <use x="105.607422" xlink:href="#DejaVuSans-115"/>
      <use x="157.707031" xlink:href="#DejaVuSans-116"/>
      <use x="196.916016" xlink:href="#DejaVuSans-32"/>
      <use x="228.703125" xlink:href="#DejaVuSans-69"/>
      <use x="291.886719" xlink:href="#DejaVuSans-114"/>
      <use x="331.25" xlink:href="#DejaVuSans-114"/>
      <use x="370.113281" xlink:href="#DejaVuSans-111"/>
      <use x="431.294922" xlink:href="#DejaVuSans-114"/>
      <use x="472.408203" xlink:href="#DejaVuSans-32"/>
      <use x="504.195312" xlink:href="#DejaVuSans-40"/>
      <use x="543.208984" xlink:href="#DejaVuSans-77"/>
      <use x="629.488281" xlink:href="#DejaVuSans-83"/>
      <use x="692.964844" xlink:href="#DejaVuSans-69"/>
      <use x="756.148438" xlink:href="#DejaVuSans-41"/>
     </g>
    </g>
   </g>
   <g id="line2d_15">
    <path clip-path="url(#p830298031b)" d="M 173.045455 99.998182 
L 178.766576 176.681567 
L 181.627136 180.515737 
L 184.487697 195.852414 
L 187.348257 195.852414 
L 190.208817 192.018245 
L 193.069378 211.189091 
L 195.929938 211.189091 
L 198.790499 234.194107 
L 201.651059 253.364953 
L 204.51162 245.696614 
L 207.37218 272.535799 
L 210.232741 234.194107 
L 213.093301 257.199122 
L 215.953862 257.199122 
L 218.814422 268.70163 
L 221.674983 264.867461 
L 224.535543 272.535799 
L 227.396104 276.369969 
L 233.117225 276.369969 
L 235.977785 272.535799 
L 238.838346 272.535799 
L 241.698906 284.038307 
L 244.559467 291.706646 
L 247.420027 284.038307 
L 250.280588 280.204138 
L 253.141148 272.535799 
L 256.001709 291.706646 
L 258.862269 276.369969 
L 261.72283 287.872476 
L 264.58339 284.038307 
L 267.443951 272.535799 
L 270.304511 295.540815 
L 273.165072 295.540815 
L 276.025632 291.706646 
L 278.886193 276.369969 
L 281.746753 284.038307 
L 284.607314 284.038307 
L 287.467874 287.872476 
L 290.328435 284.038307 
L 293.188995 295.540815 
L 296.049556 299.374984 
L 298.910116 299.374984 
L 301.770677 295.540815 
L 304.631237 299.374984 
L 310.352358 299.374984 
L 313.212919 291.706646 
L 316.073479 295.540815 
L 324.655161 295.540815 
L 327.515721 299.374984 
L 330.376282 299.374984 
L 333.236842 295.540815 
L 336.097403 299.374984 
L 338.957963 295.540815 
L 350.400205 295.540815 
L 353.260766 291.706646 
L 356.121326 295.540815 
L 367.563568 295.540815 
L 370.424129 291.706646 
L 373.284689 291.706646 
L 376.145249 299.374984 
L 379.00581 291.706646 
L 381.86637 295.540815 
L 393.308612 295.540815 
L 396.169173 303.209154 
L 399.029733 299.374984 
L 401.890294 299.374984 
L 404.750854 291.706646 
L 407.611415 287.872476 
L 410.471975 287.872476 
L 413.332536 284.038307 
L 453.380383 284.038307 
L 456.240943 287.872476 
L 459.101504 284.038307 
L 479.125427 284.038307 
L 481.985988 280.204138 
L 487.707109 280.204138 
L 490.567669 284.038307 
L 493.42823 280.204138 
L 496.28879 280.204138 
L 499.149351 284.038307 
L 516.312714 284.038307 
L 519.173274 280.204138 
L 522.033835 280.204138 
L 524.894395 276.369969 
L 527.754956 280.204138 
L 539.197198 280.204138 
L 542.057758 284.038307 
L 547.778879 284.038307 
L 550.63944 280.204138 
L 553.5 280.204138 
L 556.36056 284.038307 
L 562.081681 284.038307 
L 564.942242 280.204138 
L 567.802802 284.038307 
L 584.966165 284.038307 
L 587.826726 280.204138 
L 590.687286 280.204138 
L 593.547847 284.038307 
L 599.268968 276.369969 
L 602.129528 284.038307 
L 604.990089 287.872476 
L 607.850649 287.872476 
L 610.71121 284.038307 
L 613.57177 287.872476 
L 616.432331 287.872476 
L 619.292891 268.70163 
L 622.153452 284.038307 
L 625.014012 284.038307 
L 627.874573 287.872476 
L 630.735133 284.038307 
L 642.177375 284.038307 
L 645.037936 280.204138 
L 647.898496 280.204138 
L 650.759057 287.872476 
L 653.619617 280.204138 
L 656.480178 268.70163 
L 659.340738 272.535799 
L 662.201299 272.535799 
L 665.061859 284.038307 
L 667.92242 276.369969 
L 670.78298 272.535799 
L 673.643541 280.204138 
L 676.504101 276.369969 
L 679.364662 276.369969 
L 682.225222 268.70163 
L 685.085783 276.369969 
L 690.806904 268.70163 
L 693.667464 284.038307 
L 696.528025 276.369969 
L 699.388585 276.369969 
L 702.249146 284.038307 
L 705.109706 284.038307 
L 707.970267 276.369969 
L 713.691388 276.369969 
L 716.551948 272.535799 
L 719.412509 272.535799 
L 722.273069 284.038307 
L 725.13363 276.369969 
L 727.99419 284.038307 
L 730.854751 280.204138 
L 733.715311 280.204138 
L 739.436432 272.535799 
L 742.296992 264.867461 
L 745.157553 268.70163 
L 748.018113 268.70163 
L 750.878674 253.364953 
L 753.739234 261.033292 
L 756.599795 261.033292 
L 759.460355 264.867461 
L 762.320916 261.033292 
L 765.181476 249.530784 
L 768.042037 280.204138 
L 770.902597 264.867461 
L 773.763158 253.364953 
L 776.623718 257.199122 
L 782.344839 249.530784 
L 788.06596 249.530784 
L 790.926521 253.364953 
L 793.787081 241.862445 
L 796.647642 249.530784 
L 799.508202 238.028276 
L 802.368763 234.194107 
L 805.229323 238.028276 
L 808.089884 238.028276 
L 810.950444 230.359937 
L 813.811005 241.862445 
L 819.532126 234.194107 
L 822.392686 218.857429 
L 825.253247 230.359937 
L 828.113807 222.691599 
L 836.695489 234.194107 
L 839.556049 226.525768 
L 842.41661 241.862445 
L 845.27717 230.359937 
L 848.137731 238.028276 
L 850.998291 238.028276 
L 853.858852 241.862445 
L 856.719412 238.028276 
L 859.579973 241.862445 
L 862.440533 238.028276 
L 865.301094 238.028276 
L 868.161654 226.525768 
L 871.022215 241.862445 
L 873.882775 234.194107 
L 876.743336 234.194107 
L 879.603896 253.364953 
L 882.464457 245.696614 
L 885.325017 241.862445 
L 888.185578 241.862445 
L 891.046138 245.696614 
L 893.906699 241.862445 
L 896.767259 226.525768 
L 899.62782 238.028276 
L 902.48838 245.696614 
L 905.348941 249.530784 
L 908.209501 249.530784 
L 911.070062 257.199122 
L 913.930622 257.199122 
L 916.791183 261.033292 
L 919.651743 261.033292 
L 922.512303 253.364953 
L 925.372864 257.199122 
L 928.233424 257.199122 
L 931.093985 261.033292 
L 933.954545 257.199122 
L 933.954545 257.199122 
" style="fill:none;stroke:#ff0000;stroke-linecap:square;"/>
   </g>
   <g id="line2d_16">
    <path clip-path="url(#p830298031b)" d="M 173.045455 99.998182 
L 175.906015 103.832351 
L 178.766576 153.676552 
L 181.627136 165.17906 
L 184.487697 218.857429 
L 187.348257 215.02326 
L 190.208817 257.199122 
L 193.069378 230.359937 
L 195.929938 241.862445 
L 198.790499 241.862445 
L 201.651059 195.852414 
L 204.51162 241.862445 
L 207.37218 215.02326 
L 210.232741 276.369969 
L 213.093301 284.038307 
L 215.953862 261.033292 
L 218.814422 272.535799 
L 221.674983 295.540815 
L 224.535543 291.706646 
L 227.396104 291.706646 
L 230.256664 299.374984 
L 233.117225 295.540815 
L 235.977785 314.711661 
L 238.838346 303.209154 
L 244.559467 310.877492 
L 247.420027 303.209154 
L 250.280588 314.711661 
L 253.141148 314.711661 
L 256.001709 318.545831 
L 258.862269 318.545831 
L 261.72283 314.711661 
L 267.443951 314.711661 
L 270.304511 318.545831 
L 278.886193 307.043323 
L 281.746753 307.043323 
L 284.607314 303.209154 
L 290.328435 310.877492 
L 293.188995 303.209154 
L 296.049556 291.706646 
L 298.910116 303.209154 
L 301.770677 303.209154 
L 304.631237 299.374984 
L 307.491798 303.209154 
L 313.212919 303.209154 
L 316.073479 299.374984 
L 318.93404 303.209154 
L 321.7946 303.209154 
L 324.655161 307.043323 
L 327.515721 303.209154 
L 333.236842 303.209154 
L 338.957963 310.877492 
L 341.818524 322.38 
L 344.679084 318.545831 
L 347.539645 310.877492 
L 350.400205 310.877492 
L 353.260766 314.711661 
L 356.121326 337.716677 
L 361.842447 330.048339 
L 373.284689 330.048339 
L 376.145249 333.882508 
L 379.00581 341.550846 
L 381.86637 337.716677 
L 387.587491 337.716677 
L 390.448052 341.550846 
L 396.169173 333.882508 
L 399.029733 337.716677 
L 401.890294 333.882508 
L 404.750854 333.882508 
L 407.611415 330.048339 
L 410.471975 341.550846 
L 413.332536 337.716677 
L 424.774778 337.716677 
L 427.635338 341.550846 
L 439.07758 341.550846 
L 441.938141 337.716677 
L 444.798701 341.550846 
L 467.683185 341.550846 
L 470.543746 345.385016 
L 473.404306 356.887524 
L 479.125427 356.887524 
L 481.985988 330.048339 
L 484.846548 360.721693 
L 487.707109 345.385016 
L 493.42823 345.385016 
L 496.28879 349.219185 
L 499.149351 345.385016 
L 504.870472 345.385016 
L 507.731032 360.721693 
L 510.591593 345.385016 
L 516.312714 345.385016 
L 519.173274 356.887524 
L 522.033835 353.053354 
L 562.081681 353.053354 
L 564.942242 368.390031 
L 627.874573 368.390031 
L 633.595694 376.05837 
L 636.456254 376.05837 
L 639.316815 372.224201 
L 642.177375 376.05837 
L 645.037936 372.224201 
L 647.898496 376.05837 
L 650.759057 372.224201 
L 653.619617 376.05837 
L 659.340738 376.05837 
L 662.201299 372.224201 
L 667.92242 372.224201 
L 670.78298 376.05837 
L 673.643541 372.224201 
L 676.504101 376.05837 
L 685.085783 376.05837 
L 687.946343 372.224201 
L 702.249146 372.224201 
L 705.109706 376.05837 
L 933.954545 376.05837 
L 933.954545 376.05837 
" style="fill:none;stroke:#006400;stroke-linecap:square;"/>
   </g>
   <g id="line2d_17">
    <path clip-path="url(#p830298031b)" d="M 173.045455 99.998182 
L 175.906015 107.66652 
L 178.766576 226.525768 
L 181.627136 188.184075 
L 184.487697 222.691599 
L 187.348257 203.520752 
L 190.208817 176.681567 
L 193.069378 165.17906 
L 195.929938 253.364953 
L 198.790499 234.194107 
L 201.651059 257.199122 
L 204.51162 234.194107 
L 207.37218 272.535799 
L 210.232741 264.867461 
L 213.093301 276.369969 
L 215.953862 303.209154 
L 218.814422 303.209154 
L 221.674983 299.374984 
L 224.535543 333.882508 
L 227.396104 318.545831 
L 230.256664 333.882508 
L 233.117225 345.385016 
L 235.977785 345.385016 
L 238.838346 349.219185 
L 241.698906 349.219185 
L 244.559467 364.555862 
L 250.280588 364.555862 
L 253.141148 368.390031 
L 256.001709 356.887524 
L 258.862269 356.887524 
L 261.72283 372.224201 
L 264.58339 368.390031 
L 267.443951 379.892539 
L 270.304511 368.390031 
L 273.165072 376.05837 
L 281.746753 376.05837 
L 284.607314 368.390031 
L 287.467874 368.390031 
L 290.328435 372.224201 
L 293.188995 372.224201 
L 296.049556 368.390031 
L 298.910116 368.390031 
L 301.770677 372.224201 
L 304.631237 368.390031 
L 310.352358 376.05837 
L 313.212919 391.395047 
L 318.93404 383.726708 
L 321.7946 383.726708 
L 324.655161 391.395047 
L 327.515721 391.395047 
L 330.376282 387.560878 
L 333.236842 391.395047 
L 336.097403 399.063386 
L 338.957963 399.063386 
L 341.818524 406.731724 
L 347.539645 406.731724 
L 350.400205 410.565893 
L 353.260766 410.565893 
L 356.121326 402.897555 
L 361.842447 410.565893 
L 370.424129 410.565893 
L 373.284689 414.400063 
L 376.145249 410.565893 
L 379.00581 414.400063 
L 381.86637 410.565893 
L 384.726931 410.565893 
L 390.448052 418.234232 
L 393.308612 414.400063 
L 399.029733 414.400063 
L 401.890294 410.565893 
L 404.750854 410.565893 
L 407.611415 406.731724 
L 410.471975 410.565893 
L 416.193096 410.565893 
L 419.053657 406.731724 
L 424.774778 406.731724 
L 427.635338 410.565893 
L 430.495899 410.565893 
L 433.356459 414.400063 
L 436.21702 414.400063 
L 439.07758 410.565893 
L 441.938141 410.565893 
L 444.798701 402.897555 
L 447.659262 406.731724 
L 450.519822 402.897555 
L 453.380383 410.565893 
L 456.240943 410.565893 
L 459.101504 395.229216 
L 461.962064 391.395047 
L 464.822625 395.229216 
L 470.543746 395.229216 
L 473.404306 399.063386 
L 476.264867 395.229216 
L 479.125427 395.229216 
L 481.985988 399.063386 
L 484.846548 395.229216 
L 490.567669 402.897555 
L 493.42823 402.897555 
L 496.28879 399.063386 
L 499.149351 399.063386 
L 504.870472 406.731724 
L 507.731032 395.229216 
L 510.591593 402.897555 
L 513.452153 402.897555 
L 516.312714 395.229216 
L 519.173274 395.229216 
L 522.033835 402.897555 
L 524.894395 391.395047 
L 527.754956 387.560878 
L 533.476077 395.229216 
L 536.336637 395.229216 
L 544.918319 406.731724 
L 547.778879 406.731724 
L 550.63944 410.565893 
L 553.5 402.897555 
L 556.36056 406.731724 
L 559.221121 406.731724 
L 562.081681 399.063386 
L 564.942242 402.897555 
L 567.802802 410.565893 
L 570.663363 410.565893 
L 573.523923 406.731724 
L 576.384484 414.400063 
L 579.245044 410.565893 
L 582.105605 410.565893 
L 584.966165 406.731724 
L 590.687286 406.731724 
L 593.547847 414.400063 
L 596.408407 406.731724 
L 665.061859 406.731724 
L 667.92242 410.565893 
L 670.78298 410.565893 
L 673.643541 414.400063 
L 676.504101 406.731724 
L 679.364662 410.565893 
L 682.225222 406.731724 
L 687.946343 406.731724 
L 690.806904 410.565893 
L 696.528025 402.897555 
L 699.388585 402.897555 
L 702.249146 399.063386 
L 705.109706 399.063386 
L 707.970267 402.897555 
L 713.691388 395.229216 
L 716.551948 395.229216 
L 719.412509 391.395047 
L 742.296992 391.395047 
L 745.157553 402.897555 
L 748.018113 395.229216 
L 750.878674 406.731724 
L 753.739234 402.897555 
L 759.460355 402.897555 
L 762.320916 395.229216 
L 768.042037 402.897555 
L 773.763158 402.897555 
L 776.623718 399.063386 
L 788.06596 399.063386 
L 790.926521 402.897555 
L 793.787081 402.897555 
L 796.647642 399.063386 
L 802.368763 399.063386 
L 805.229323 402.897555 
L 808.089884 399.063386 
L 816.671565 399.063386 
L 819.532126 402.897555 
L 828.113807 402.897555 
L 830.974368 399.063386 
L 833.834928 402.897555 
L 836.695489 402.897555 
L 839.556049 399.063386 
L 842.41661 402.897555 
L 845.27717 402.897555 
L 848.137731 399.063386 
L 879.603896 399.063386 
L 882.464457 402.897555 
L 888.185578 402.897555 
L 891.046138 399.063386 
L 933.954545 399.063386 
L 933.954545 399.063386 
" style="fill:none;stroke:#0000ff;stroke-linecap:square;"/>
   </g>
   <g id="line2d_18">
    <path clip-path="url(#p830298031b)" d="M 173.045455 99.998182 
L 175.906015 188.184075 
L 178.766576 172.847398 
L 181.627136 211.189091 
L 184.487697 192.018245 
L 187.348257 215.02326 
L 190.208817 203.520752 
L 193.069378 226.525768 
L 195.929938 264.867461 
L 198.790499 264.867461 
L 201.651059 295.540815 
L 204.51162 295.540815 
L 207.37218 291.706646 
L 210.232741 295.540815 
L 213.093301 303.209154 
L 215.953862 337.716677 
L 218.814422 349.219185 
L 221.674983 337.716677 
L 224.535543 322.38 
L 227.396104 333.882508 
L 230.256664 330.048339 
L 233.117225 322.38 
L 235.977785 326.214169 
L 238.838346 353.053354 
L 241.698906 353.053354 
L 244.559467 356.887524 
L 247.420027 383.726708 
L 253.141148 376.05837 
L 256.001709 379.892539 
L 261.72283 379.892539 
L 264.58339 376.05837 
L 267.443951 376.05837 
L 270.304511 387.560878 
L 273.165072 372.224201 
L 281.746753 395.229216 
L 284.607314 383.726708 
L 287.467874 376.05837 
L 290.328435 391.395047 
L 293.188995 383.726708 
L 298.910116 383.726708 
L 301.770677 391.395047 
L 307.491798 391.395047 
L 313.212919 383.726708 
L 318.93404 383.726708 
L 321.7946 379.892539 
L 324.655161 379.892539 
L 327.515721 383.726708 
L 330.376282 391.395047 
L 333.236842 406.731724 
L 336.097403 399.063386 
L 338.957963 402.897555 
L 341.818524 395.229216 
L 344.679084 406.731724 
L 350.400205 391.395047 
L 353.260766 399.063386 
L 356.121326 399.063386 
L 358.981887 395.229216 
L 364.703008 395.229216 
L 367.563568 387.560878 
L 376.145249 410.565893 
L 379.00581 402.897555 
L 381.86637 414.400063 
L 384.726931 410.565893 
L 387.587491 418.234232 
L 390.448052 410.565893 
L 396.169173 410.565893 
L 399.029733 422.068401 
L 401.890294 425.902571 
L 404.750854 422.068401 
L 407.611415 429.73674 
L 413.332536 422.068401 
L 416.193096 422.068401 
L 419.053657 410.565893 
L 421.914217 429.73674 
L 424.774778 425.902571 
L 427.635338 429.73674 
L 430.495899 437.405078 
L 433.356459 429.73674 
L 436.21702 429.73674 
L 439.07758 433.570909 
L 441.938141 441.239248 
L 444.798701 425.902571 
L 450.519822 441.239248 
L 453.380383 422.068401 
L 456.240943 433.570909 
L 461.962064 418.234232 
L 464.822625 441.239248 
L 467.683185 445.073417 
L 470.543746 437.405078 
L 473.404306 441.239248 
L 476.264867 433.570909 
L 479.125427 452.741755 
L 481.985988 452.741755 
L 484.846548 445.073417 
L 487.707109 460.410094 
L 490.567669 456.575925 
L 493.42823 437.405078 
L 499.149351 460.410094 
L 502.009911 460.410094 
L 504.870472 468.078433 
L 510.591593 460.410094 
L 513.452153 445.073417 
L 516.312714 445.073417 
L 519.173274 441.239248 
L 527.754956 452.741755 
L 530.615516 468.078433 
L 536.336637 468.078433 
L 539.197198 464.244263 
L 542.057758 456.575925 
L 544.918319 456.575925 
L 550.63944 464.244263 
L 553.5 456.575925 
L 556.36056 456.575925 
L 559.221121 464.244263 
L 562.081681 452.741755 
L 564.942242 452.741755 
L 567.802802 460.410094 
L 570.663363 460.410094 
L 573.523923 464.244263 
L 576.384484 460.410094 
L 579.245044 468.078433 
L 582.105605 464.244263 
L 584.966165 464.244263 
L 587.826726 460.410094 
L 590.687286 471.912602 
L 593.547847 468.078433 
L 596.408407 468.078433 
L 599.268968 448.907586 
L 602.129528 468.078433 
L 604.990089 471.912602 
L 607.850649 468.078433 
L 610.71121 460.410094 
L 613.57177 464.244263 
L 616.432331 464.244263 
L 619.292891 468.078433 
L 622.153452 468.078433 
L 625.014012 460.410094 
L 627.874573 468.078433 
L 630.735133 460.410094 
L 633.595694 448.907586 
L 636.456254 460.410094 
L 639.316815 460.410094 
L 642.177375 456.575925 
L 645.037936 456.575925 
L 647.898496 468.078433 
L 650.759057 464.244263 
L 653.619617 468.078433 
L 656.480178 468.078433 
L 659.340738 460.410094 
L 662.201299 471.912602 
L 665.061859 471.912602 
L 667.92242 460.410094 
L 670.78298 460.410094 
L 673.643541 456.575925 
L 676.504101 468.078433 
L 679.364662 468.078433 
L 682.225222 471.912602 
L 685.085783 468.078433 
L 687.946343 475.746771 
L 690.806904 471.912602 
L 693.667464 464.244263 
L 696.528025 471.912602 
L 699.388585 464.244263 
L 705.109706 464.244263 
L 710.830827 471.912602 
L 713.691388 468.078433 
L 722.273069 468.078433 
L 725.13363 471.912602 
L 727.99419 471.912602 
L 730.854751 468.078433 
L 736.575871 475.746771 
L 739.436432 475.746771 
L 742.296992 479.58094 
L 745.157553 475.746771 
L 750.878674 483.41511 
L 753.739234 483.41511 
L 756.599795 491.083448 
L 759.460355 494.917618 
L 762.320916 487.249279 
L 765.181476 491.083448 
L 768.042037 487.249279 
L 770.902597 487.249279 
L 773.763158 494.917618 
L 776.623718 491.083448 
L 782.344839 491.083448 
L 785.2054 483.41511 
L 790.926521 475.746771 
L 796.647642 483.41511 
L 799.508202 471.912602 
L 802.368763 475.746771 
L 805.229323 468.078433 
L 810.950444 483.41511 
L 813.811005 487.249279 
L 816.671565 479.58094 
L 819.532126 479.58094 
L 822.392686 487.249279 
L 825.253247 479.58094 
L 828.113807 475.746771 
L 830.974368 464.244263 
L 833.834928 487.249279 
L 839.556049 471.912602 
L 842.41661 483.41511 
L 845.27717 483.41511 
L 848.137731 479.58094 
L 850.998291 460.410094 
L 853.858852 487.249279 
L 862.440533 487.249279 
L 868.161654 494.917618 
L 871.022215 487.249279 
L 873.882775 491.083448 
L 876.743336 491.083448 
L 879.603896 487.249279 
L 882.464457 494.917618 
L 888.185578 494.917618 
L 891.046138 483.41511 
L 893.906699 479.58094 
L 896.767259 494.917618 
L 899.62782 491.083448 
L 902.48838 479.58094 
L 905.348941 487.249279 
L 908.209501 491.083448 
L 911.070062 483.41511 
L 913.930622 487.249279 
L 922.512303 475.746771 
L 928.233424 483.41511 
L 931.093985 479.58094 
L 933.954545 471.912602 
L 933.954545 471.912602 
" style="fill:none;stroke:#000000;stroke-linecap:square;"/>
   </g>
   <g id="line2d_19">
    <path clip-path="url(#p830298031b)" d="M 173.045455 99.998182 
L 175.906015 146.008213 
L 178.766576 149.842382 
L 181.627136 192.018245 
L 184.487697 138.339875 
L 187.348257 207.354922 
L 190.208817 207.354922 
L 193.069378 176.681567 
L 195.929938 211.189091 
L 198.790499 241.862445 
L 201.651059 241.862445 
L 204.51162 226.525768 
L 207.37218 249.530784 
L 210.232741 280.204138 
L 213.093301 272.535799 
L 215.953862 287.872476 
L 218.814422 264.867461 
L 221.674983 291.706646 
L 224.535543 303.209154 
L 227.396104 310.877492 
L 230.256664 360.721693 
L 233.117225 333.882508 
L 235.977785 402.897555 
L 238.838346 402.897555 
L 241.698906 383.726708 
L 247.420027 399.063386 
L 250.280588 395.229216 
L 253.141148 376.05837 
L 256.001709 391.395047 
L 258.862269 399.063386 
L 261.72283 391.395047 
L 264.58339 399.063386 
L 267.443951 395.229216 
L 270.304511 402.897555 
L 273.165072 406.731724 
L 276.025632 399.063386 
L 278.886193 387.560878 
L 281.746753 402.897555 
L 287.467874 395.229216 
L 290.328435 402.897555 
L 293.188995 406.731724 
L 298.910116 391.395047 
L 301.770677 414.400063 
L 304.631237 456.575925 
L 307.491798 468.078433 
L 310.352358 464.244263 
L 313.212919 456.575925 
L 316.073479 464.244263 
L 318.93404 460.410094 
L 321.7946 468.078433 
L 324.655161 468.078433 
L 327.515721 475.746771 
L 330.376282 468.078433 
L 333.236842 468.078433 
L 336.097403 475.746771 
L 338.957963 491.083448 
L 341.818524 494.917618 
L 344.679084 487.249279 
L 347.539645 491.083448 
L 350.400205 483.41511 
L 353.260766 498.751787 
L 356.121326 491.083448 
L 358.981887 494.917618 
L 361.842447 494.917618 
L 364.703008 502.585956 
L 367.563568 498.751787 
L 373.284689 506.420125 
L 376.145249 498.751787 
L 379.00581 502.585956 
L 387.587491 502.585956 
L 393.308612 494.917618 
L 399.029733 502.585956 
L 401.890294 498.751787 
L 404.750854 498.751787 
L 410.471975 506.420125 
L 413.332536 498.751787 
L 416.193096 506.420125 
L 419.053657 506.420125 
L 421.914217 510.254295 
L 424.774778 525.590972 
L 427.635338 517.922633 
L 430.495899 521.756803 
L 433.356459 529.425141 
L 439.07758 537.09348 
L 441.938141 533.25931 
L 444.798701 525.590972 
L 447.659262 537.09348 
L 450.519822 537.09348 
L 453.380383 533.25931 
L 459.101504 533.25931 
L 461.962064 537.09348 
L 476.264867 537.09348 
L 479.125427 533.25931 
L 481.985988 533.25931 
L 484.846548 537.09348 
L 493.42823 537.09348 
L 496.28879 529.425141 
L 499.149351 537.09348 
L 502.009911 529.425141 
L 510.591593 529.425141 
L 513.452153 533.25931 
L 516.312714 544.761818 
L 527.754956 544.761818 
L 530.615516 540.927649 
L 533.476077 544.761818 
L 553.5 544.761818 
L 556.36056 540.927649 
L 570.663363 540.927649 
L 573.523923 537.09348 
L 576.384484 537.09348 
L 579.245044 540.927649 
L 582.105605 537.09348 
L 584.966165 540.927649 
L 587.826726 540.927649 
L 590.687286 537.09348 
L 593.547847 540.927649 
L 596.408407 537.09348 
L 602.129528 537.09348 
L 604.990089 544.761818 
L 619.292891 544.761818 
L 625.014012 537.09348 
L 630.735133 544.761818 
L 633.595694 544.761818 
L 636.456254 540.927649 
L 665.061859 540.927649 
L 667.92242 544.761818 
L 670.78298 540.927649 
L 676.504101 540.927649 
L 679.364662 544.761818 
L 682.225222 540.927649 
L 685.085783 544.761818 
L 690.806904 544.761818 
L 693.667464 540.927649 
L 716.551948 540.927649 
L 719.412509 544.761818 
L 722.273069 544.761818 
L 725.13363 540.927649 
L 727.99419 544.761818 
L 730.854751 540.927649 
L 733.715311 540.927649 
L 736.575871 544.761818 
L 739.436432 544.761818 
L 742.296992 540.927649 
L 745.157553 544.761818 
L 748.018113 544.761818 
L 750.878674 540.927649 
L 753.739234 544.761818 
L 756.599795 540.927649 
L 773.763158 540.927649 
L 776.623718 544.761818 
L 779.484279 540.927649 
L 782.344839 540.927649 
L 785.2054 544.761818 
L 802.368763 544.761818 
L 805.229323 540.927649 
L 808.089884 544.761818 
L 828.113807 544.761818 
L 830.974368 540.927649 
L 836.695489 540.927649 
L 839.556049 544.761818 
L 853.858852 544.761818 
L 856.719412 540.927649 
L 859.579973 544.761818 
L 862.440533 544.761818 
L 865.301094 540.927649 
L 873.882775 540.927649 
L 876.743336 537.09348 
L 882.464457 544.761818 
L 885.325017 537.09348 
L 893.906699 537.09348 
L 899.62782 529.425141 
L 902.48838 529.425141 
L 905.348941 521.756803 
L 911.070062 521.756803 
L 913.930622 529.425141 
L 922.512303 529.425141 
L 925.372864 525.590972 
L 931.093985 525.590972 
L 933.954545 529.425141 
L 933.954545 529.425141 
" style="fill:none;stroke:#ff00ff;stroke-linecap:square;"/>
   </g>
   <g id="patch_3">
    <path d="M 135 567 
L 135 77.76 
" style="fill:none;stroke:#000000;stroke-linecap:square;stroke-linejoin:miter;stroke-width:0.8;"/>
   </g>
   <g id="patch_4">
    <path d="M 972 567 
L 972 77.76 
" style="fill:none;stroke:#000000;stroke-linecap:square;stroke-linejoin:miter;stroke-width:0.8;"/>
   </g>
   <g id="patch_5">
    <path d="M 135 567 
L 972 567 
" style="fill:none;stroke:#000000;stroke-linecap:square;stroke-linejoin:miter;stroke-width:0.8;"/>
   </g>
   <g id="patch_6">
    <path d="M 135 77.76 
L 972 77.76 
" style="fill:none;stroke:#000000;stroke-linecap:square;stroke-linejoin:miter;stroke-width:0.8;"/>
   </g>
   <g id="text_17">
    <!-- PSO Optimised NN with Sigmoid Activation -->
    <g transform="translate(286.011719 71.76)scale(0.25 -0.25)">
     <defs>
      <path d="M 19.671875 64.796875 
L 19.671875 37.40625 
L 32.078125 37.40625 
Q 38.96875 37.40625 42.71875 40.96875 
Q 46.484375 44.53125 46.484375 51.125 
Q 46.484375 57.671875 42.71875 61.234375 
Q 38.96875 64.796875 32.078125 64.796875 
z
M 9.8125 72.90625 
L 32.078125 72.90625 
Q 44.34375 72.90625 50.609375 67.359375 
Q 56.890625 61.8125 56.890625 51.125 
Q 56.890625 40.328125 50.609375 34.8125 
Q 44.34375 29.296875 32.078125 29.296875 
L 19.671875 29.296875 
L 19.671875 0 
L 9.8125 0 
z
" id="DejaVuSans-80"/>
      <path d="M 39.40625 66.21875 
Q 28.65625 66.21875 22.328125 58.203125 
Q 16.015625 50.203125 16.015625 36.375 
Q 16.015625 22.609375 22.328125 14.59375 
Q 28.65625 6.59375 39.40625 6.59375 
Q 50.140625 6.59375 56.421875 14.59375 
Q 62.703125 22.609375 62.703125 36.375 
Q 62.703125 50.203125 56.421875 58.203125 
Q 50.140625 66.21875 39.40625 66.21875 
z
M 39.40625 74.21875 
Q 54.734375 74.21875 63.90625 63.9375 
Q 73.09375 53.65625 73.09375 36.375 
Q 73.09375 19.140625 63.90625 8.859375 
Q 54.734375 -1.421875 39.40625 -1.421875 
Q 24.03125 -1.421875 14.8125 8.828125 
Q 5.609375 19.09375 5.609375 36.375 
Q 5.609375 53.65625 14.8125 63.9375 
Q 24.03125 74.21875 39.40625 74.21875 
z
" id="DejaVuSans-79"/>
      <path d="M 18.109375 8.203125 
L 18.109375 -20.796875 
L 9.078125 -20.796875 
L 9.078125 54.6875 
L 18.109375 54.6875 
L 18.109375 46.390625 
Q 20.953125 51.265625 25.265625 53.625 
Q 29.59375 56 35.59375 56 
Q 45.5625 56 51.78125 48.09375 
Q 58.015625 40.1875 58.015625 27.296875 
Q 58.015625 14.40625 51.78125 6.484375 
Q 45.5625 -1.421875 35.59375 -1.421875 
Q 29.59375 -1.421875 25.265625 0.953125 
Q 20.953125 3.328125 18.109375 8.203125 
z
M 48.6875 27.296875 
Q 48.6875 37.203125 44.609375 42.84375 
Q 40.53125 48.484375 33.40625 48.484375 
Q 26.265625 48.484375 22.1875 42.84375 
Q 18.109375 37.203125 18.109375 27.296875 
Q 18.109375 17.390625 22.1875 11.75 
Q 26.265625 6.109375 33.40625 6.109375 
Q 40.53125 6.109375 44.609375 11.75 
Q 48.6875 17.390625 48.6875 27.296875 
z
" id="DejaVuSans-112"/>
      <path d="M 52 44.1875 
Q 55.375 50.25 60.0625 53.125 
Q 64.75 56 71.09375 56 
Q 79.640625 56 84.28125 50.015625 
Q 88.921875 44.046875 88.921875 33.015625 
L 88.921875 0 
L 79.890625 0 
L 79.890625 32.71875 
Q 79.890625 40.578125 77.09375 44.375 
Q 74.3125 48.1875 68.609375 48.1875 
Q 61.625 48.1875 57.5625 43.546875 
Q 53.515625 38.921875 53.515625 30.90625 
L 53.515625 0 
L 44.484375 0 
L 44.484375 32.71875 
Q 44.484375 40.625 41.703125 44.40625 
Q 38.921875 48.1875 33.109375 48.1875 
Q 26.21875 48.1875 22.15625 43.53125 
Q 18.109375 38.875 18.109375 30.90625 
L 18.109375 0 
L 9.078125 0 
L 9.078125 54.6875 
L 18.109375 54.6875 
L 18.109375 46.1875 
Q 21.1875 51.21875 25.484375 53.609375 
Q 29.78125 56 35.6875 56 
Q 41.65625 56 45.828125 52.96875 
Q 50 49.953125 52 44.1875 
z
" id="DejaVuSans-109"/>
      <path d="M 45.40625 46.390625 
L 45.40625 75.984375 
L 54.390625 75.984375 
L 54.390625 0 
L 45.40625 0 
L 45.40625 8.203125 
Q 42.578125 3.328125 38.25 0.953125 
Q 33.9375 -1.421875 27.875 -1.421875 
Q 17.96875 -1.421875 11.734375 6.484375 
Q 5.515625 14.40625 5.515625 27.296875 
Q 5.515625 40.1875 11.734375 48.09375 
Q 17.96875 56 27.875 56 
Q 33.9375 56 38.25 53.625 
Q 42.578125 51.265625 45.40625 46.390625 
z
M 14.796875 27.296875 
Q 14.796875 17.390625 18.875 11.75 
Q 22.953125 6.109375 30.078125 6.109375 
Q 37.203125 6.109375 41.296875 11.75 
Q 45.40625 17.390625 45.40625 27.296875 
Q 45.40625 37.203125 41.296875 42.84375 
Q 37.203125 48.484375 30.078125 48.484375 
Q 22.953125 48.484375 18.875 42.84375 
Q 14.796875 37.203125 14.796875 27.296875 
z
" id="DejaVuSans-100"/>
      <path d="M 9.8125 72.90625 
L 23.09375 72.90625 
L 55.421875 11.921875 
L 55.421875 72.90625 
L 64.984375 72.90625 
L 64.984375 0 
L 51.703125 0 
L 19.390625 60.984375 
L 19.390625 0 
L 9.8125 0 
z
" id="DejaVuSans-78"/>
      <path d="M 4.203125 54.6875 
L 13.1875 54.6875 
L 24.421875 12.015625 
L 35.59375 54.6875 
L 46.1875 54.6875 
L 57.421875 12.015625 
L 68.609375 54.6875 
L 77.59375 54.6875 
L 63.28125 0 
L 52.6875 0 
L 40.921875 44.828125 
L 29.109375 0 
L 18.5 0 
z
" id="DejaVuSans-119"/>
      <path d="M 54.890625 33.015625 
L 54.890625 0 
L 45.90625 0 
L 45.90625 32.71875 
Q 45.90625 40.484375 42.875 44.328125 
Q 39.84375 48.1875 33.796875 48.1875 
Q 26.515625 48.1875 22.3125 43.546875 
Q 18.109375 38.921875 18.109375 30.90625 
L 18.109375 0 
L 9.078125 0 
L 9.078125 75.984375 
L 18.109375 75.984375 
L 18.109375 46.1875 
Q 21.34375 51.125 25.703125 53.5625 
Q 30.078125 56 35.796875 56 
Q 45.21875 56 50.046875 50.171875 
Q 54.890625 44.34375 54.890625 33.015625 
z
" id="DejaVuSans-104"/>
      <path d="M 45.40625 27.984375 
Q 45.40625 37.75 41.375 43.109375 
Q 37.359375 48.484375 30.078125 48.484375 
Q 22.859375 48.484375 18.828125 43.109375 
Q 14.796875 37.75 14.796875 27.984375 
Q 14.796875 18.265625 18.828125 12.890625 
Q 22.859375 7.515625 30.078125 7.515625 
Q 37.359375 7.515625 41.375 12.890625 
Q 45.40625 18.265625 45.40625 27.984375 
z
M 54.390625 6.78125 
Q 54.390625 -7.171875 48.1875 -13.984375 
Q 42 -20.796875 29.203125 -20.796875 
Q 24.46875 -20.796875 20.265625 -20.09375 
Q 16.0625 -19.390625 12.109375 -17.921875 
L 12.109375 -9.1875 
Q 16.0625 -11.328125 19.921875 -12.34375 
Q 23.78125 -13.375 27.78125 -13.375 
Q 36.625 -13.375 41.015625 -8.765625 
Q 45.40625 -4.15625 45.40625 5.171875 
L 45.40625 9.625 
Q 42.625 4.78125 38.28125 2.390625 
Q 33.9375 0 27.875 0 
Q 17.828125 0 11.671875 7.65625 
Q 5.515625 15.328125 5.515625 27.984375 
Q 5.515625 40.671875 11.671875 48.328125 
Q 17.828125 56 27.875 56 
Q 33.9375 56 38.28125 53.609375 
Q 42.625 51.21875 45.40625 46.390625 
L 45.40625 54.6875 
L 54.390625 54.6875 
z
" id="DejaVuSans-103"/>
      <path d="M 34.1875 63.1875 
L 20.796875 26.90625 
L 47.609375 26.90625 
z
M 28.609375 72.90625 
L 39.796875 72.90625 
L 67.578125 0 
L 57.328125 0 
L 50.6875 18.703125 
L 17.828125 18.703125 
L 11.1875 0 
L 0.78125 0 
z
" id="DejaVuSans-65"/>
      <path d="M 48.78125 52.59375 
L 48.78125 44.1875 
Q 44.96875 46.296875 41.140625 47.34375 
Q 37.3125 48.390625 33.40625 48.390625 
Q 24.65625 48.390625 19.8125 42.84375 
Q 14.984375 37.3125 14.984375 27.296875 
Q 14.984375 17.28125 19.8125 11.734375 
Q 24.65625 6.203125 33.40625 6.203125 
Q 37.3125 6.203125 41.140625 7.25 
Q 44.96875 8.296875 48.78125 10.40625 
L 48.78125 2.09375 
Q 45.015625 0.34375 40.984375 -0.53125 
Q 36.96875 -1.421875 32.421875 -1.421875 
Q 20.0625 -1.421875 12.78125 6.34375 
Q 5.515625 14.109375 5.515625 27.296875 
Q 5.515625 40.671875 12.859375 48.328125 
Q 20.21875 56 33.015625 56 
Q 37.15625 56 41.109375 55.140625 
Q 45.0625 54.296875 48.78125 52.59375 
z
" id="DejaVuSans-99"/>
      <path d="M 2.984375 54.6875 
L 12.5 54.6875 
L 29.59375 8.796875 
L 46.6875 54.6875 
L 56.203125 54.6875 
L 35.6875 0 
L 23.484375 0 
z
" id="DejaVuSans-118"/>
     </defs>
     <use xlink:href="#DejaVuSans-80"/>
     <use x="60.302734" xlink:href="#DejaVuSans-83"/>
     <use x="123.779297" xlink:href="#DejaVuSans-79"/>
     <use x="202.490234" xlink:href="#DejaVuSans-32"/>
     <use x="234.277344" xlink:href="#DejaVuSans-79"/>
     <use x="312.988281" xlink:href="#DejaVuSans-112"/>
     <use x="376.464844" xlink:href="#DejaVuSans-116"/>
     <use x="415.673828" xlink:href="#DejaVuSans-105"/>
     <use x="443.457031" xlink:href="#DejaVuSans-109"/>
     <use x="540.869141" xlink:href="#DejaVuSans-105"/>
     <use x="568.652344" xlink:href="#DejaVuSans-115"/>
     <use x="620.751953" xlink:href="#DejaVuSans-101"/>
     <use x="682.275391" xlink:href="#DejaVuSans-100"/>
     <use x="745.751953" xlink:href="#DejaVuSans-32"/>
     <use x="777.539062" xlink:href="#DejaVuSans-78"/>
     <use x="852.34375" xlink:href="#DejaVuSans-78"/>
     <use x="927.148438" xlink:href="#DejaVuSans-32"/>
     <use x="958.935547" xlink:href="#DejaVuSans-119"/>
     <use x="1040.722656" xlink:href="#DejaVuSans-105"/>
     <use x="1068.505859" xlink:href="#DejaVuSans-116"/>
     <use x="1107.714844" xlink:href="#DejaVuSans-104"/>
     <use x="1171.09375" xlink:href="#DejaVuSans-32"/>
     <use x="1202.880859" xlink:href="#DejaVuSans-83"/>
     <use x="1266.357422" xlink:href="#DejaVuSans-105"/>
     <use x="1294.140625" xlink:href="#DejaVuSans-103"/>
     <use x="1357.617188" xlink:href="#DejaVuSans-109"/>
     <use x="1455.029297" xlink:href="#DejaVuSans-111"/>
     <use x="1516.210938" xlink:href="#DejaVuSans-105"/>
     <use x="1543.994141" xlink:href="#DejaVuSans-100"/>
     <use x="1607.470703" xlink:href="#DejaVuSans-32"/>
     <use x="1639.257812" xlink:href="#DejaVuSans-65"/>
     <use x="1705.916016" xlink:href="#DejaVuSans-99"/>
     <use x="1760.896484" xlink:href="#DejaVuSans-116"/>
     <use x="1800.105469" xlink:href="#DejaVuSans-105"/>
     <use x="1827.888672" xlink:href="#DejaVuSans-118"/>
     <use x="1887.068359" xlink:href="#DejaVuSans-97"/>
     <use x="1948.347656" xlink:href="#DejaVuSans-116"/>
     <use x="1987.556641" xlink:href="#DejaVuSans-105"/>
     <use x="2015.339844" xlink:href="#DejaVuSans-111"/>
     <use x="2076.521484" xlink:href="#DejaVuSans-110"/>
    </g>
   </g>
   <g id="legend_1">
    <g id="patch_7">
     <path d="M 470.435938 240.54125 
L 636.564063 240.54125 
Q 640.564063 240.54125 640.564063 236.54125 
L 640.564063 91.76 
Q 640.564063 87.76 636.564063 87.76 
L 470.435938 87.76 
Q 466.435938 87.76 466.435938 91.76 
L 466.435938 236.54125 
Q 466.435938 240.54125 470.435938 240.54125 
z
" style="fill:#ffffff;opacity:0.8;stroke:#cccccc;stroke-linejoin:miter;"/>
    </g>
    <g id="line2d_20">
     <path d="M 474.435938 103.956875 
L 514.435938 103.956875 
" style="fill:none;stroke:#ff0000;stroke-linecap:square;"/>
    </g>
    <g id="line2d_21"/>
    <g id="text_18">
     <!-- 4 Neurons -->
     <g transform="translate(530.435938 110.956875)scale(0.2 -0.2)">
      <defs>
       <path d="M 8.5 21.578125 
L 8.5 54.6875 
L 17.484375 54.6875 
L 17.484375 21.921875 
Q 17.484375 14.15625 20.5 10.265625 
Q 23.53125 6.390625 29.59375 6.390625 
Q 36.859375 6.390625 41.078125 11.03125 
Q 45.3125 15.671875 45.3125 23.6875 
L 45.3125 54.6875 
L 54.296875 54.6875 
L 54.296875 0 
L 45.3125 0 
L 45.3125 8.40625 
Q 42.046875 3.421875 37.71875 1 
Q 33.40625 -1.421875 27.6875 -1.421875 
Q 18.265625 -1.421875 13.375 4.4375 
Q 8.5 10.296875 8.5 21.578125 
z
M 31.109375 56 
z
" id="DejaVuSans-117"/>
      </defs>
      <use xlink:href="#DejaVuSans-52"/>
      <use x="63.623047" xlink:href="#DejaVuSans-32"/>
      <use x="95.410156" xlink:href="#DejaVuSans-78"/>
      <use x="170.214844" xlink:href="#DejaVuSans-101"/>
      <use x="231.738281" xlink:href="#DejaVuSans-117"/>
      <use x="295.117188" xlink:href="#DejaVuSans-114"/>
      <use x="333.980469" xlink:href="#DejaVuSans-111"/>
      <use x="395.162109" xlink:href="#DejaVuSans-110"/>
      <use x="458.541016" xlink:href="#DejaVuSans-115"/>
     </g>
    </g>
    <g id="line2d_22">
     <path d="M 474.435938 133.313125 
L 514.435938 133.313125 
" style="fill:none;stroke:#006400;stroke-linecap:square;"/>
    </g>
    <g id="line2d_23"/>
    <g id="text_19">
     <!-- 5 Neurons -->
     <g transform="translate(530.435938 140.313125)scale(0.2 -0.2)">
      <use xlink:href="#DejaVuSans-53"/>
      <use x="63.623047" xlink:href="#DejaVuSans-32"/>
      <use x="95.410156" xlink:href="#DejaVuSans-78"/>
      <use x="170.214844" xlink:href="#DejaVuSans-101"/>
      <use x="231.738281" xlink:href="#DejaVuSans-117"/>
      <use x="295.117188" xlink:href="#DejaVuSans-114"/>
      <use x="333.980469" xlink:href="#DejaVuSans-111"/>
      <use x="395.162109" xlink:href="#DejaVuSans-110"/>
      <use x="458.541016" xlink:href="#DejaVuSans-115"/>
     </g>
    </g>
    <g id="line2d_24">
     <path d="M 474.435938 162.669375 
L 514.435938 162.669375 
" style="fill:none;stroke:#0000ff;stroke-linecap:square;"/>
    </g>
    <g id="line2d_25"/>
    <g id="text_20">
     <!-- 6 Neurons -->
     <g transform="translate(530.435938 169.669375)scale(0.2 -0.2)">
      <defs>
       <path d="M 33.015625 40.375 
Q 26.375 40.375 22.484375 35.828125 
Q 18.609375 31.296875 18.609375 23.390625 
Q 18.609375 15.53125 22.484375 10.953125 
Q 26.375 6.390625 33.015625 6.390625 
Q 39.65625 6.390625 43.53125 10.953125 
Q 47.40625 15.53125 47.40625 23.390625 
Q 47.40625 31.296875 43.53125 35.828125 
Q 39.65625 40.375 33.015625 40.375 
z
M 52.59375 71.296875 
L 52.59375 62.3125 
Q 48.875 64.0625 45.09375 64.984375 
Q 41.3125 65.921875 37.59375 65.921875 
Q 27.828125 65.921875 22.671875 59.328125 
Q 17.53125 52.734375 16.796875 39.40625 
Q 19.671875 43.65625 24.015625 45.921875 
Q 28.375 48.1875 33.59375 48.1875 
Q 44.578125 48.1875 50.953125 41.515625 
Q 57.328125 34.859375 57.328125 23.390625 
Q 57.328125 12.15625 50.6875 5.359375 
Q 44.046875 -1.421875 33.015625 -1.421875 
Q 20.359375 -1.421875 13.671875 8.265625 
Q 6.984375 17.96875 6.984375 36.375 
Q 6.984375 53.65625 15.1875 63.9375 
Q 23.390625 74.21875 37.203125 74.21875 
Q 40.921875 74.21875 44.703125 73.484375 
Q 48.484375 72.75 52.59375 71.296875 
z
" id="DejaVuSans-54"/>
      </defs>
      <use xlink:href="#DejaVuSans-54"/>
      <use x="63.623047" xlink:href="#DejaVuSans-32"/>
      <use x="95.410156" xlink:href="#DejaVuSans-78"/>
      <use x="170.214844" xlink:href="#DejaVuSans-101"/>
      <use x="231.738281" xlink:href="#DejaVuSans-117"/>
      <use x="295.117188" xlink:href="#DejaVuSans-114"/>
      <use x="333.980469" xlink:href="#DejaVuSans-111"/>
      <use x="395.162109" xlink:href="#DejaVuSans-110"/>
      <use x="458.541016" xlink:href="#DejaVuSans-115"/>
     </g>
    </g>
    <g id="line2d_26">
     <path d="M 474.435938 192.025625 
L 514.435938 192.025625 
" style="fill:none;stroke:#000000;stroke-linecap:square;"/>
    </g>
    <g id="line2d_27"/>
    <g id="text_21">
     <!-- 7 Neurons -->
     <g transform="translate(530.435938 199.025625)scale(0.2 -0.2)">
      <defs>
       <path d="M 8.203125 72.90625 
L 55.078125 72.90625 
L 55.078125 68.703125 
L 28.609375 0 
L 18.3125 0 
L 43.21875 64.59375 
L 8.203125 64.59375 
z
" id="DejaVuSans-55"/>
      </defs>
      <use xlink:href="#DejaVuSans-55"/>
      <use x="63.623047" xlink:href="#DejaVuSans-32"/>
      <use x="95.410156" xlink:href="#DejaVuSans-78"/>
      <use x="170.214844" xlink:href="#DejaVuSans-101"/>
      <use x="231.738281" xlink:href="#DejaVuSans-117"/>
      <use x="295.117188" xlink:href="#DejaVuSans-114"/>
      <use x="333.980469" xlink:href="#DejaVuSans-111"/>
      <use x="395.162109" xlink:href="#DejaVuSans-110"/>
      <use x="458.541016" xlink:href="#DejaVuSans-115"/>
     </g>
    </g>
    <g id="line2d_28">
     <path d="M 474.435938 221.381875 
L 514.435938 221.381875 
" style="fill:none;stroke:#ff00ff;stroke-linecap:square;"/>
    </g>
    <g id="line2d_29"/>
    <g id="text_22">
     <!-- 8 Neurons -->
     <g transform="translate(530.435938 228.381875)scale(0.2 -0.2)">
      <defs>
       <path d="M 31.78125 34.625 
Q 24.75 34.625 20.71875 30.859375 
Q 16.703125 27.09375 16.703125 20.515625 
Q 16.703125 13.921875 20.71875 10.15625 
Q 24.75 6.390625 31.78125 6.390625 
Q 38.8125 6.390625 42.859375 10.171875 
Q 46.921875 13.96875 46.921875 20.515625 
Q 46.921875 27.09375 42.890625 30.859375 
Q 38.875 34.625 31.78125 34.625 
z
M 21.921875 38.8125 
Q 15.578125 40.375 12.03125 44.71875 
Q 8.5 49.078125 8.5 55.328125 
Q 8.5 64.0625 14.71875 69.140625 
Q 20.953125 74.21875 31.78125 74.21875 
Q 42.671875 74.21875 48.875 69.140625 
Q 55.078125 64.0625 55.078125 55.328125 
Q 55.078125 49.078125 51.53125 44.71875 
Q 48 40.375 41.703125 38.8125 
Q 48.828125 37.15625 52.796875 32.3125 
Q 56.78125 27.484375 56.78125 20.515625 
Q 56.78125 9.90625 50.3125 4.234375 
Q 43.84375 -1.421875 31.78125 -1.421875 
Q 19.734375 -1.421875 13.25 4.234375 
Q 6.78125 9.90625 6.78125 20.515625 
Q 6.78125 27.484375 10.78125 32.3125 
Q 14.796875 37.15625 21.921875 38.8125 
z
M 18.3125 54.390625 
Q 18.3125 48.734375 21.84375 45.5625 
Q 25.390625 42.390625 31.78125 42.390625 
Q 38.140625 42.390625 41.71875 45.5625 
Q 45.3125 48.734375 45.3125 54.390625 
Q 45.3125 60.0625 41.71875 63.234375 
Q 38.140625 66.40625 31.78125 66.40625 
Q 25.390625 66.40625 21.84375 63.234375 
Q 18.3125 60.0625 18.3125 54.390625 
z
" id="DejaVuSans-56"/>
      </defs>
      <use xlink:href="#DejaVuSans-56"/>
      <use x="63.623047" xlink:href="#DejaVuSans-32"/>
      <use x="95.410156" xlink:href="#DejaVuSans-78"/>
      <use x="170.214844" xlink:href="#DejaVuSans-101"/>
      <use x="231.738281" xlink:href="#DejaVuSans-117"/>
      <use x="295.117188" xlink:href="#DejaVuSans-114"/>
      <use x="333.980469" xlink:href="#DejaVuSans-111"/>
      <use x="395.162109" xlink:href="#DejaVuSans-110"/>
      <use x="458.541016" xlink:href="#DejaVuSans-115"/>
     </g>
    </g>
   </g>
  </g>
 </g>
 <defs>
  <clipPath id="p830298031b">
   <rect height="489.24" width="837" x="135" y="77.76"/>
  </clipPath>
 </defs>
</svg>
