<?xml version="1.0" encoding="utf-8" standalone="no"?>
<!DOCTYPE svg PUBLIC "-//W3C//DTD SVG 1.1//EN"
  "http://www.w3.org/Graphics/SVG/1.1/DTD/svg11.dtd">
<!-- Created with matplotlib (https://matplotlib.org/) -->
<svg height="648pt" version="1.1" viewBox="0 0 1080 648" width="1080pt" xmlns="http://www.w3.org/2000/svg" xmlns:xlink="http://www.w3.org/1999/xlink">
 <metadata>
  <rdf:RDF xmlns:cc="http://creativecommons.org/ns#" xmlns:dc="http://purl.org/dc/elements/1.1/" xmlns:rdf="http://www.w3.org/1999/02/22-rdf-syntax-ns#">
   <cc:Work>
    <dc:type rdf:resource="http://purl.org/dc/dcmitype/StillImage"/>
    <dc:date>2020-11-17T17:40:50.934094</dc:date>
    <dc:format>image/svg+xml</dc:format>
    <dc:creator>
     <cc:Agent>
      <dc:title>Matplotlib v3.3.2, https://matplotlib.org/</dc:title>
     </cc:Agent>
    </dc:creator>
   </cc:Work>
  </rdf:RDF>
 </metadata>
 <defs>
  <style type="text/css">*{stroke-linecap:butt;stroke-linejoin:round;}</style>
 </defs>
 <g id="figure_1">
  <g id="patch_1">
   <path d="M 0 648 
L 1080 648 
L 1080 0 
L 0 0 
z
" style="fill:none;"/>
  </g>
  <g id="axes_1">
   <g id="patch_2">
    <path d="M 135 567 
L 972 567 
L 972 77.76 
L 135 77.76 
z
" style="fill:#ffffff;"/>
   </g>
   <g id="matplotlib.axis_1">
    <g id="xtick_1">
     <g id="line2d_1">
      <defs>
       <path d="M 0 0 
L 0 3.5 
" id="mc0b8d2e0fb" style="stroke:#000000;stroke-width:0.8;"/>
      </defs>
      <g>
       <use style="stroke:#000000;stroke-width:0.8;" x="173.045455" xlink:href="#mc0b8d2e0fb" y="567"/>
      </g>
     </g>
     <g id="text_1">
      <!-- 0 -->
      <g transform="translate(169.864205 581.598438)scale(0.1 -0.1)">
       <defs>
        <path d="M 31.78125 66.40625 
Q 24.171875 66.40625 20.328125 58.90625 
Q 16.5 51.421875 16.5 36.375 
Q 16.5 21.390625 20.328125 13.890625 
Q 24.171875 6.390625 31.78125 6.390625 
Q 39.453125 6.390625 43.28125 13.890625 
Q 47.125 21.390625 47.125 36.375 
Q 47.125 51.421875 43.28125 58.90625 
Q 39.453125 66.40625 31.78125 66.40625 
z
M 31.78125 74.21875 
Q 44.046875 74.21875 50.515625 64.515625 
Q 56.984375 54.828125 56.984375 36.375 
Q 56.984375 17.96875 50.515625 8.265625 
Q 44.046875 -1.421875 31.78125 -1.421875 
Q 19.53125 -1.421875 13.0625 8.265625 
Q 6.59375 17.96875 6.59375 36.375 
Q 6.59375 54.828125 13.0625 64.515625 
Q 19.53125 74.21875 31.78125 74.21875 
z
" id="DejaVuSans-48"/>
       </defs>
       <use xlink:href="#DejaVuSans-48"/>
      </g>
     </g>
    </g>
    <g id="xtick_2">
     <g id="line2d_2">
      <g>
       <use style="stroke:#000000;stroke-width:0.8;" x="299.905923" xlink:href="#mc0b8d2e0fb" y="567"/>
      </g>
     </g>
     <g id="text_2">
      <!-- 10000 -->
      <g transform="translate(283.999673 581.598438)scale(0.1 -0.1)">
       <defs>
        <path d="M 12.40625 8.296875 
L 28.515625 8.296875 
L 28.515625 63.921875 
L 10.984375 60.40625 
L 10.984375 69.390625 
L 28.421875 72.90625 
L 38.28125 72.90625 
L 38.28125 8.296875 
L 54.390625 8.296875 
L 54.390625 0 
L 12.40625 0 
z
" id="DejaVuSans-49"/>
       </defs>
       <use xlink:href="#DejaVuSans-49"/>
       <use x="63.623047" xlink:href="#DejaVuSans-48"/>
       <use x="127.246094" xlink:href="#DejaVuSans-48"/>
       <use x="190.869141" xlink:href="#DejaVuSans-48"/>
       <use x="254.492188" xlink:href="#DejaVuSans-48"/>
      </g>
     </g>
    </g>
    <g id="xtick_3">
     <g id="line2d_3">
      <g>
       <use style="stroke:#000000;stroke-width:0.8;" x="426.766392" xlink:href="#mc0b8d2e0fb" y="567"/>
      </g>
     </g>
     <g id="text_3">
      <!-- 20000 -->
      <g transform="translate(410.860142 581.598438)scale(0.1 -0.1)">
       <defs>
        <path d="M 19.1875 8.296875 
L 53.609375 8.296875 
L 53.609375 0 
L 7.328125 0 
L 7.328125 8.296875 
Q 12.9375 14.109375 22.625 23.890625 
Q 32.328125 33.6875 34.8125 36.53125 
Q 39.546875 41.84375 41.421875 45.53125 
Q 43.3125 49.21875 43.3125 52.78125 
Q 43.3125 58.59375 39.234375 62.25 
Q 35.15625 65.921875 28.609375 65.921875 
Q 23.96875 65.921875 18.8125 64.3125 
Q 13.671875 62.703125 7.8125 59.421875 
L 7.8125 69.390625 
Q 13.765625 71.78125 18.9375 73 
Q 24.125 74.21875 28.421875 74.21875 
Q 39.75 74.21875 46.484375 68.546875 
Q 53.21875 62.890625 53.21875 53.421875 
Q 53.21875 48.921875 51.53125 44.890625 
Q 49.859375 40.875 45.40625 35.40625 
Q 44.1875 33.984375 37.640625 27.21875 
Q 31.109375 20.453125 19.1875 8.296875 
z
" id="DejaVuSans-50"/>
       </defs>
       <use xlink:href="#DejaVuSans-50"/>
       <use x="63.623047" xlink:href="#DejaVuSans-48"/>
       <use x="127.246094" xlink:href="#DejaVuSans-48"/>
       <use x="190.869141" xlink:href="#DejaVuSans-48"/>
       <use x="254.492188" xlink:href="#DejaVuSans-48"/>
      </g>
     </g>
    </g>
    <g id="xtick_4">
     <g id="line2d_4">
      <g>
       <use style="stroke:#000000;stroke-width:0.8;" x="553.62686" xlink:href="#mc0b8d2e0fb" y="567"/>
      </g>
     </g>
     <g id="text_4">
      <!-- 30000 -->
      <g transform="translate(537.72061 581.598438)scale(0.1 -0.1)">
       <defs>
        <path d="M 40.578125 39.3125 
Q 47.65625 37.796875 51.625 33 
Q 55.609375 28.21875 55.609375 21.1875 
Q 55.609375 10.40625 48.1875 4.484375 
Q 40.765625 -1.421875 27.09375 -1.421875 
Q 22.515625 -1.421875 17.65625 -0.515625 
Q 12.796875 0.390625 7.625 2.203125 
L 7.625 11.71875 
Q 11.71875 9.328125 16.59375 8.109375 
Q 21.484375 6.890625 26.8125 6.890625 
Q 36.078125 6.890625 40.9375 10.546875 
Q 45.796875 14.203125 45.796875 21.1875 
Q 45.796875 27.640625 41.28125 31.265625 
Q 36.765625 34.90625 28.71875 34.90625 
L 20.21875 34.90625 
L 20.21875 43.015625 
L 29.109375 43.015625 
Q 36.375 43.015625 40.234375 45.921875 
Q 44.09375 48.828125 44.09375 54.296875 
Q 44.09375 59.90625 40.109375 62.90625 
Q 36.140625 65.921875 28.71875 65.921875 
Q 24.65625 65.921875 20.015625 65.03125 
Q 15.375 64.15625 9.8125 62.3125 
L 9.8125 71.09375 
Q 15.4375 72.65625 20.34375 73.4375 
Q 25.25 74.21875 29.59375 74.21875 
Q 40.828125 74.21875 47.359375 69.109375 
Q 53.90625 64.015625 53.90625 55.328125 
Q 53.90625 49.265625 50.4375 45.09375 
Q 46.96875 40.921875 40.578125 39.3125 
z
" id="DejaVuSans-51"/>
       </defs>
       <use xlink:href="#DejaVuSans-51"/>
       <use x="63.623047" xlink:href="#DejaVuSans-48"/>
       <use x="127.246094" xlink:href="#DejaVuSans-48"/>
       <use x="190.869141" xlink:href="#DejaVuSans-48"/>
       <use x="254.492188" xlink:href="#DejaVuSans-48"/>
      </g>
     </g>
    </g>
    <g id="xtick_5">
     <g id="line2d_5">
      <g>
       <use style="stroke:#000000;stroke-width:0.8;" x="680.487329" xlink:href="#mc0b8d2e0fb" y="567"/>
      </g>
     </g>
     <g id="text_5">
      <!-- 40000 -->
      <g transform="translate(664.581079 581.598438)scale(0.1 -0.1)">
       <defs>
        <path d="M 37.796875 64.3125 
L 12.890625 25.390625 
L 37.796875 25.390625 
z
M 35.203125 72.90625 
L 47.609375 72.90625 
L 47.609375 25.390625 
L 58.015625 25.390625 
L 58.015625 17.1875 
L 47.609375 17.1875 
L 47.609375 0 
L 37.796875 0 
L 37.796875 17.1875 
L 4.890625 17.1875 
L 4.890625 26.703125 
z
" id="DejaVuSans-52"/>
       </defs>
       <use xlink:href="#DejaVuSans-52"/>
       <use x="63.623047" xlink:href="#DejaVuSans-48"/>
       <use x="127.246094" xlink:href="#DejaVuSans-48"/>
       <use x="190.869141" xlink:href="#DejaVuSans-48"/>
       <use x="254.492188" xlink:href="#DejaVuSans-48"/>
      </g>
     </g>
    </g>
    <g id="xtick_6">
     <g id="line2d_6">
      <g>
       <use style="stroke:#000000;stroke-width:0.8;" x="807.347798" xlink:href="#mc0b8d2e0fb" y="567"/>
      </g>
     </g>
     <g id="text_6">
      <!-- 50000 -->
      <g transform="translate(791.441548 581.598438)scale(0.1 -0.1)">
       <defs>
        <path d="M 10.796875 72.90625 
L 49.515625 72.90625 
L 49.515625 64.59375 
L 19.828125 64.59375 
L 19.828125 46.734375 
Q 21.96875 47.46875 24.109375 47.828125 
Q 26.265625 48.1875 28.421875 48.1875 
Q 40.625 48.1875 47.75 41.5 
Q 54.890625 34.8125 54.890625 23.390625 
Q 54.890625 11.625 47.5625 5.09375 
Q 40.234375 -1.421875 26.90625 -1.421875 
Q 22.3125 -1.421875 17.546875 -0.640625 
Q 12.796875 0.140625 7.71875 1.703125 
L 7.71875 11.625 
Q 12.109375 9.234375 16.796875 8.0625 
Q 21.484375 6.890625 26.703125 6.890625 
Q 35.15625 6.890625 40.078125 11.328125 
Q 45.015625 15.765625 45.015625 23.390625 
Q 45.015625 31 40.078125 35.4375 
Q 35.15625 39.890625 26.703125 39.890625 
Q 22.75 39.890625 18.8125 39.015625 
Q 14.890625 38.140625 10.796875 36.28125 
z
" id="DejaVuSans-53"/>
       </defs>
       <use xlink:href="#DejaVuSans-53"/>
       <use x="63.623047" xlink:href="#DejaVuSans-48"/>
       <use x="127.246094" xlink:href="#DejaVuSans-48"/>
       <use x="190.869141" xlink:href="#DejaVuSans-48"/>
       <use x="254.492188" xlink:href="#DejaVuSans-48"/>
      </g>
     </g>
    </g>
    <g id="xtick_7">
     <g id="line2d_7">
      <g>
       <use style="stroke:#000000;stroke-width:0.8;" x="934.208266" xlink:href="#mc0b8d2e0fb" y="567"/>
      </g>
     </g>
     <g id="text_7">
      <!-- 60000 -->
      <g transform="translate(918.302016 581.598438)scale(0.1 -0.1)">
       <defs>
        <path d="M 33.015625 40.375 
Q 26.375 40.375 22.484375 35.828125 
Q 18.609375 31.296875 18.609375 23.390625 
Q 18.609375 15.53125 22.484375 10.953125 
Q 26.375 6.390625 33.015625 6.390625 
Q 39.65625 6.390625 43.53125 10.953125 
Q 47.40625 15.53125 47.40625 23.390625 
Q 47.40625 31.296875 43.53125 35.828125 
Q 39.65625 40.375 33.015625 40.375 
z
M 52.59375 71.296875 
L 52.59375 62.3125 
Q 48.875 64.0625 45.09375 64.984375 
Q 41.3125 65.921875 37.59375 65.921875 
Q 27.828125 65.921875 22.671875 59.328125 
Q 17.53125 52.734375 16.796875 39.40625 
Q 19.671875 43.65625 24.015625 45.921875 
Q 28.375 48.1875 33.59375 48.1875 
Q 44.578125 48.1875 50.953125 41.515625 
Q 57.328125 34.859375 57.328125 23.390625 
Q 57.328125 12.15625 50.6875 5.359375 
Q 44.046875 -1.421875 33.015625 -1.421875 
Q 20.359375 -1.421875 13.671875 8.265625 
Q 6.984375 17.96875 6.984375 36.375 
Q 6.984375 53.65625 15.1875 63.9375 
Q 23.390625 74.21875 37.203125 74.21875 
Q 40.921875 74.21875 44.703125 73.484375 
Q 48.484375 72.75 52.59375 71.296875 
z
" id="DejaVuSans-54"/>
       </defs>
       <use xlink:href="#DejaVuSans-54"/>
       <use x="63.623047" xlink:href="#DejaVuSans-48"/>
       <use x="127.246094" xlink:href="#DejaVuSans-48"/>
       <use x="190.869141" xlink:href="#DejaVuSans-48"/>
       <use x="254.492188" xlink:href="#DejaVuSans-48"/>
      </g>
     </g>
    </g>
    <g id="text_8">
     <!-- Iterations -->
     <g transform="translate(510.636094 601.355312)scale(0.18 -0.18)">
      <defs>
       <path d="M 9.8125 72.90625 
L 19.671875 72.90625 
L 19.671875 0 
L 9.8125 0 
z
" id="DejaVuSans-73"/>
       <path d="M 18.3125 70.21875 
L 18.3125 54.6875 
L 36.8125 54.6875 
L 36.8125 47.703125 
L 18.3125 47.703125 
L 18.3125 18.015625 
Q 18.3125 11.328125 20.140625 9.421875 
Q 21.96875 7.515625 27.59375 7.515625 
L 36.8125 7.515625 
L 36.8125 0 
L 27.59375 0 
Q 17.1875 0 13.234375 3.875 
Q 9.28125 7.765625 9.28125 18.015625 
L 9.28125 47.703125 
L 2.6875 47.703125 
L 2.6875 54.6875 
L 9.28125 54.6875 
L 9.28125 70.21875 
z
" id="DejaVuSans-116"/>
       <path d="M 56.203125 29.59375 
L 56.203125 25.203125 
L 14.890625 25.203125 
Q 15.484375 15.921875 20.484375 11.0625 
Q 25.484375 6.203125 34.421875 6.203125 
Q 39.59375 6.203125 44.453125 7.46875 
Q 49.3125 8.734375 54.109375 11.28125 
L 54.109375 2.78125 
Q 49.265625 0.734375 44.1875 -0.34375 
Q 39.109375 -1.421875 33.890625 -1.421875 
Q 20.796875 -1.421875 13.15625 6.1875 
Q 5.515625 13.8125 5.515625 26.8125 
Q 5.515625 40.234375 12.765625 48.109375 
Q 20.015625 56 32.328125 56 
Q 43.359375 56 49.78125 48.890625 
Q 56.203125 41.796875 56.203125 29.59375 
z
M 47.21875 32.234375 
Q 47.125 39.59375 43.09375 43.984375 
Q 39.0625 48.390625 32.421875 48.390625 
Q 24.90625 48.390625 20.390625 44.140625 
Q 15.875 39.890625 15.1875 32.171875 
z
" id="DejaVuSans-101"/>
       <path d="M 41.109375 46.296875 
Q 39.59375 47.171875 37.8125 47.578125 
Q 36.03125 48 33.890625 48 
Q 26.265625 48 22.1875 43.046875 
Q 18.109375 38.09375 18.109375 28.8125 
L 18.109375 0 
L 9.078125 0 
L 9.078125 54.6875 
L 18.109375 54.6875 
L 18.109375 46.1875 
Q 20.953125 51.171875 25.484375 53.578125 
Q 30.03125 56 36.53125 56 
Q 37.453125 56 38.578125 55.875 
Q 39.703125 55.765625 41.0625 55.515625 
z
" id="DejaVuSans-114"/>
       <path d="M 34.28125 27.484375 
Q 23.390625 27.484375 19.1875 25 
Q 14.984375 22.515625 14.984375 16.5 
Q 14.984375 11.71875 18.140625 8.90625 
Q 21.296875 6.109375 26.703125 6.109375 
Q 34.1875 6.109375 38.703125 11.40625 
Q 43.21875 16.703125 43.21875 25.484375 
L 43.21875 27.484375 
z
M 52.203125 31.203125 
L 52.203125 0 
L 43.21875 0 
L 43.21875 8.296875 
Q 40.140625 3.328125 35.546875 0.953125 
Q 30.953125 -1.421875 24.3125 -1.421875 
Q 15.921875 -1.421875 10.953125 3.296875 
Q 6 8.015625 6 15.921875 
Q 6 25.140625 12.171875 29.828125 
Q 18.359375 34.515625 30.609375 34.515625 
L 43.21875 34.515625 
L 43.21875 35.40625 
Q 43.21875 41.609375 39.140625 45 
Q 35.0625 48.390625 27.6875 48.390625 
Q 23 48.390625 18.546875 47.265625 
Q 14.109375 46.140625 10.015625 43.890625 
L 10.015625 52.203125 
Q 14.9375 54.109375 19.578125 55.046875 
Q 24.21875 56 28.609375 56 
Q 40.484375 56 46.34375 49.84375 
Q 52.203125 43.703125 52.203125 31.203125 
z
" id="DejaVuSans-97"/>
       <path d="M 9.421875 54.6875 
L 18.40625 54.6875 
L 18.40625 0 
L 9.421875 0 
z
M 9.421875 75.984375 
L 18.40625 75.984375 
L 18.40625 64.59375 
L 9.421875 64.59375 
z
" id="DejaVuSans-105"/>
       <path d="M 30.609375 48.390625 
Q 23.390625 48.390625 19.1875 42.75 
Q 14.984375 37.109375 14.984375 27.296875 
Q 14.984375 17.484375 19.15625 11.84375 
Q 23.34375 6.203125 30.609375 6.203125 
Q 37.796875 6.203125 41.984375 11.859375 
Q 46.1875 17.53125 46.1875 27.296875 
Q 46.1875 37.015625 41.984375 42.703125 
Q 37.796875 48.390625 30.609375 48.390625 
z
M 30.609375 56 
Q 42.328125 56 49.015625 48.375 
Q 55.71875 40.765625 55.71875 27.296875 
Q 55.71875 13.875 49.015625 6.21875 
Q 42.328125 -1.421875 30.609375 -1.421875 
Q 18.84375 -1.421875 12.171875 6.21875 
Q 5.515625 13.875 5.515625 27.296875 
Q 5.515625 40.765625 12.171875 48.375 
Q 18.84375 56 30.609375 56 
z
" id="DejaVuSans-111"/>
       <path d="M 54.890625 33.015625 
L 54.890625 0 
L 45.90625 0 
L 45.90625 32.71875 
Q 45.90625 40.484375 42.875 44.328125 
Q 39.84375 48.1875 33.796875 48.1875 
Q 26.515625 48.1875 22.3125 43.546875 
Q 18.109375 38.921875 18.109375 30.90625 
L 18.109375 0 
L 9.078125 0 
L 9.078125 54.6875 
L 18.109375 54.6875 
L 18.109375 46.1875 
Q 21.34375 51.125 25.703125 53.5625 
Q 30.078125 56 35.796875 56 
Q 45.21875 56 50.046875 50.171875 
Q 54.890625 44.34375 54.890625 33.015625 
z
" id="DejaVuSans-110"/>
       <path d="M 44.28125 53.078125 
L 44.28125 44.578125 
Q 40.484375 46.53125 36.375 47.5 
Q 32.28125 48.484375 27.875 48.484375 
Q 21.1875 48.484375 17.84375 46.4375 
Q 14.5 44.390625 14.5 40.28125 
Q 14.5 37.15625 16.890625 35.375 
Q 19.28125 33.59375 26.515625 31.984375 
L 29.59375 31.296875 
Q 39.15625 29.25 43.1875 25.515625 
Q 47.21875 21.78125 47.21875 15.09375 
Q 47.21875 7.46875 41.1875 3.015625 
Q 35.15625 -1.421875 24.609375 -1.421875 
Q 20.21875 -1.421875 15.453125 -0.5625 
Q 10.6875 0.296875 5.421875 2 
L 5.421875 11.28125 
Q 10.40625 8.6875 15.234375 7.390625 
Q 20.0625 6.109375 24.8125 6.109375 
Q 31.15625 6.109375 34.5625 8.28125 
Q 37.984375 10.453125 37.984375 14.40625 
Q 37.984375 18.0625 35.515625 20.015625 
Q 33.0625 21.96875 24.703125 23.78125 
L 21.578125 24.515625 
Q 13.234375 26.265625 9.515625 29.90625 
Q 5.8125 33.546875 5.8125 39.890625 
Q 5.8125 47.609375 11.28125 51.796875 
Q 16.75 56 26.8125 56 
Q 31.78125 56 36.171875 55.265625 
Q 40.578125 54.546875 44.28125 53.078125 
z
" id="DejaVuSans-115"/>
      </defs>
      <use xlink:href="#DejaVuSans-73"/>
      <use x="29.492188" xlink:href="#DejaVuSans-116"/>
      <use x="68.701172" xlink:href="#DejaVuSans-101"/>
      <use x="130.224609" xlink:href="#DejaVuSans-114"/>
      <use x="171.337891" xlink:href="#DejaVuSans-97"/>
      <use x="232.617188" xlink:href="#DejaVuSans-116"/>
      <use x="271.826172" xlink:href="#DejaVuSans-105"/>
      <use x="299.609375" xlink:href="#DejaVuSans-111"/>
      <use x="360.791016" xlink:href="#DejaVuSans-110"/>
      <use x="424.169922" xlink:href="#DejaVuSans-115"/>
     </g>
    </g>
   </g>
   <g id="matplotlib.axis_2">
    <g id="ytick_1">
     <g id="line2d_8">
      <defs>
       <path d="M 0 0 
L -3.5 0 
" id="m59c364bf5d" style="stroke:#000000;stroke-width:0.8;"/>
      </defs>
      <g>
       <use style="stroke:#000000;stroke-width:0.8;" x="135" xlink:href="#m59c364bf5d" y="555.569159"/>
      </g>
     </g>
     <g id="text_9">
      <!-- 0.10 -->
      <g transform="translate(105.734375 559.368378)scale(0.1 -0.1)">
       <defs>
        <path d="M 10.6875 12.40625 
L 21 12.40625 
L 21 0 
L 10.6875 0 
z
" id="DejaVuSans-46"/>
       </defs>
       <use xlink:href="#DejaVuSans-48"/>
       <use x="63.623047" xlink:href="#DejaVuSans-46"/>
       <use x="95.410156" xlink:href="#DejaVuSans-49"/>
       <use x="159.033203" xlink:href="#DejaVuSans-48"/>
      </g>
     </g>
    </g>
    <g id="ytick_2">
     <g id="line2d_9">
      <g>
       <use style="stroke:#000000;stroke-width:0.8;" x="135" xlink:href="#m59c364bf5d" y="500.701121"/>
      </g>
     </g>
     <g id="text_10">
      <!-- 0.15 -->
      <g transform="translate(105.734375 504.50034)scale(0.1 -0.1)">
       <use xlink:href="#DejaVuSans-48"/>
       <use x="63.623047" xlink:href="#DejaVuSans-46"/>
       <use x="95.410156" xlink:href="#DejaVuSans-49"/>
       <use x="159.033203" xlink:href="#DejaVuSans-53"/>
      </g>
     </g>
    </g>
    <g id="ytick_3">
     <g id="line2d_10">
      <g>
       <use style="stroke:#000000;stroke-width:0.8;" x="135" xlink:href="#m59c364bf5d" y="445.833084"/>
      </g>
     </g>
     <g id="text_11">
      <!-- 0.20 -->
      <g transform="translate(105.734375 449.632303)scale(0.1 -0.1)">
       <use xlink:href="#DejaVuSans-48"/>
       <use x="63.623047" xlink:href="#DejaVuSans-46"/>
       <use x="95.410156" xlink:href="#DejaVuSans-50"/>
       <use x="159.033203" xlink:href="#DejaVuSans-48"/>
      </g>
     </g>
    </g>
    <g id="ytick_4">
     <g id="line2d_11">
      <g>
       <use style="stroke:#000000;stroke-width:0.8;" x="135" xlink:href="#m59c364bf5d" y="390.965047"/>
      </g>
     </g>
     <g id="text_12">
      <!-- 0.25 -->
      <g transform="translate(105.734375 394.764265)scale(0.1 -0.1)">
       <use xlink:href="#DejaVuSans-48"/>
       <use x="63.623047" xlink:href="#DejaVuSans-46"/>
       <use x="95.410156" xlink:href="#DejaVuSans-50"/>
       <use x="159.033203" xlink:href="#DejaVuSans-53"/>
      </g>
     </g>
    </g>
    <g id="ytick_5">
     <g id="line2d_12">
      <g>
       <use style="stroke:#000000;stroke-width:0.8;" x="135" xlink:href="#m59c364bf5d" y="336.097009"/>
      </g>
     </g>
     <g id="text_13">
      <!-- 0.30 -->
      <g transform="translate(105.734375 339.896228)scale(0.1 -0.1)">
       <use xlink:href="#DejaVuSans-48"/>
       <use x="63.623047" xlink:href="#DejaVuSans-46"/>
       <use x="95.410156" xlink:href="#DejaVuSans-51"/>
       <use x="159.033203" xlink:href="#DejaVuSans-48"/>
      </g>
     </g>
    </g>
    <g id="ytick_6">
     <g id="line2d_13">
      <g>
       <use style="stroke:#000000;stroke-width:0.8;" x="135" xlink:href="#m59c364bf5d" y="281.228972"/>
      </g>
     </g>
     <g id="text_14">
      <!-- 0.35 -->
      <g transform="translate(105.734375 285.028191)scale(0.1 -0.1)">
       <use xlink:href="#DejaVuSans-48"/>
       <use x="63.623047" xlink:href="#DejaVuSans-46"/>
       <use x="95.410156" xlink:href="#DejaVuSans-51"/>
       <use x="159.033203" xlink:href="#DejaVuSans-53"/>
      </g>
     </g>
    </g>
    <g id="ytick_7">
     <g id="line2d_14">
      <g>
       <use style="stroke:#000000;stroke-width:0.8;" x="135" xlink:href="#m59c364bf5d" y="226.360935"/>
      </g>
     </g>
     <g id="text_15">
      <!-- 0.40 -->
      <g transform="translate(105.734375 230.160153)scale(0.1 -0.1)">
       <use xlink:href="#DejaVuSans-48"/>
       <use x="63.623047" xlink:href="#DejaVuSans-46"/>
       <use x="95.410156" xlink:href="#DejaVuSans-52"/>
       <use x="159.033203" xlink:href="#DejaVuSans-48"/>
      </g>
     </g>
    </g>
    <g id="ytick_8">
     <g id="line2d_15">
      <g>
       <use style="stroke:#000000;stroke-width:0.8;" x="135" xlink:href="#m59c364bf5d" y="171.492897"/>
      </g>
     </g>
     <g id="text_16">
      <!-- 0.45 -->
      <g transform="translate(105.734375 175.292116)scale(0.1 -0.1)">
       <use xlink:href="#DejaVuSans-48"/>
       <use x="63.623047" xlink:href="#DejaVuSans-46"/>
       <use x="95.410156" xlink:href="#DejaVuSans-52"/>
       <use x="159.033203" xlink:href="#DejaVuSans-53"/>
      </g>
     </g>
    </g>
    <g id="ytick_9">
     <g id="line2d_16">
      <g>
       <use style="stroke:#000000;stroke-width:0.8;" x="135" xlink:href="#m59c364bf5d" y="116.62486"/>
      </g>
     </g>
     <g id="text_17">
      <!-- 0.50 -->
      <g transform="translate(105.734375 120.424079)scale(0.1 -0.1)">
       <use xlink:href="#DejaVuSans-48"/>
       <use x="63.623047" xlink:href="#DejaVuSans-46"/>
       <use x="95.410156" xlink:href="#DejaVuSans-53"/>
       <use x="159.033203" xlink:href="#DejaVuSans-48"/>
      </g>
     </g>
    </g>
    <g id="text_18">
     <!-- Test Error (MSE) -->
     <g transform="translate(97.990938 393.944062)rotate(-90)scale(0.18 -0.18)">
      <defs>
       <path d="M -0.296875 72.90625 
L 61.375 72.90625 
L 61.375 64.59375 
L 35.5 64.59375 
L 35.5 0 
L 25.59375 0 
L 25.59375 64.59375 
L -0.296875 64.59375 
z
" id="DejaVuSans-84"/>
       <path id="DejaVuSans-32"/>
       <path d="M 9.8125 72.90625 
L 55.90625 72.90625 
L 55.90625 64.59375 
L 19.671875 64.59375 
L 19.671875 43.015625 
L 54.390625 43.015625 
L 54.390625 34.71875 
L 19.671875 34.71875 
L 19.671875 8.296875 
L 56.78125 8.296875 
L 56.78125 0 
L 9.8125 0 
z
" id="DejaVuSans-69"/>
       <path d="M 31 75.875 
Q 24.46875 64.65625 21.28125 53.65625 
Q 18.109375 42.671875 18.109375 31.390625 
Q 18.109375 20.125 21.3125 9.0625 
Q 24.515625 -2 31 -13.1875 
L 23.1875 -13.1875 
Q 15.875 -1.703125 12.234375 9.375 
Q 8.59375 20.453125 8.59375 31.390625 
Q 8.59375 42.28125 12.203125 53.3125 
Q 15.828125 64.359375 23.1875 75.875 
z
" id="DejaVuSans-40"/>
       <path d="M 9.8125 72.90625 
L 24.515625 72.90625 
L 43.109375 23.296875 
L 61.8125 72.90625 
L 76.515625 72.90625 
L 76.515625 0 
L 66.890625 0 
L 66.890625 64.015625 
L 48.09375 14.015625 
L 38.1875 14.015625 
L 19.390625 64.015625 
L 19.390625 0 
L 9.8125 0 
z
" id="DejaVuSans-77"/>
       <path d="M 53.515625 70.515625 
L 53.515625 60.890625 
Q 47.90625 63.578125 42.921875 64.890625 
Q 37.9375 66.21875 33.296875 66.21875 
Q 25.25 66.21875 20.875 63.09375 
Q 16.5 59.96875 16.5 54.203125 
Q 16.5 49.359375 19.40625 46.890625 
Q 22.3125 44.4375 30.421875 42.921875 
L 36.375 41.703125 
Q 47.40625 39.59375 52.65625 34.296875 
Q 57.90625 29 57.90625 20.125 
Q 57.90625 9.515625 50.796875 4.046875 
Q 43.703125 -1.421875 29.984375 -1.421875 
Q 24.8125 -1.421875 18.96875 -0.25 
Q 13.140625 0.921875 6.890625 3.21875 
L 6.890625 13.375 
Q 12.890625 10.015625 18.65625 8.296875 
Q 24.421875 6.59375 29.984375 6.59375 
Q 38.421875 6.59375 43.015625 9.90625 
Q 47.609375 13.234375 47.609375 19.390625 
Q 47.609375 24.75 44.3125 27.78125 
Q 41.015625 30.8125 33.5 32.328125 
L 27.484375 33.5 
Q 16.453125 35.6875 11.515625 40.375 
Q 6.59375 45.0625 6.59375 53.421875 
Q 6.59375 63.09375 13.40625 68.65625 
Q 20.21875 74.21875 32.171875 74.21875 
Q 37.3125 74.21875 42.625 73.28125 
Q 47.953125 72.359375 53.515625 70.515625 
z
" id="DejaVuSans-83"/>
       <path d="M 8.015625 75.875 
L 15.828125 75.875 
Q 23.140625 64.359375 26.78125 53.3125 
Q 30.421875 42.28125 30.421875 31.390625 
Q 30.421875 20.453125 26.78125 9.375 
Q 23.140625 -1.703125 15.828125 -13.1875 
L 8.015625 -13.1875 
Q 14.5 -2 17.703125 9.0625 
Q 20.90625 20.125 20.90625 31.390625 
Q 20.90625 42.671875 17.703125 53.65625 
Q 14.5 64.65625 8.015625 75.875 
z
" id="DejaVuSans-41"/>
      </defs>
      <use xlink:href="#DejaVuSans-84"/>
      <use x="44.083984" xlink:href="#DejaVuSans-101"/>
      <use x="105.607422" xlink:href="#DejaVuSans-115"/>
      <use x="157.707031" xlink:href="#DejaVuSans-116"/>
      <use x="196.916016" xlink:href="#DejaVuSans-32"/>
      <use x="228.703125" xlink:href="#DejaVuSans-69"/>
      <use x="291.886719" xlink:href="#DejaVuSans-114"/>
      <use x="331.25" xlink:href="#DejaVuSans-114"/>
      <use x="370.113281" xlink:href="#DejaVuSans-111"/>
      <use x="431.294922" xlink:href="#DejaVuSans-114"/>
      <use x="472.408203" xlink:href="#DejaVuSans-32"/>
      <use x="504.195312" xlink:href="#DejaVuSans-40"/>
      <use x="543.208984" xlink:href="#DejaVuSans-77"/>
      <use x="629.488281" xlink:href="#DejaVuSans-83"/>
      <use x="692.964844" xlink:href="#DejaVuSans-69"/>
      <use x="756.148438" xlink:href="#DejaVuSans-41"/>
     </g>
    </g>
   </g>
   <g id="line2d_17">
    <path clip-path="url(#p53147cc044)" d="M 173.045455 99.998182 
L 173.299175 145.721546 
L 173.552896 154.034885 
L 174.314059 220.541597 
L 174.56778 216.384928 
L 174.821501 249.638284 
L 175.328943 257.951623 
L 175.582664 266.264962 
L 175.836385 307.831657 
L 176.090106 299.518318 
L 176.343827 316.144996 
L 176.851269 295.361648 
L 177.10499 299.518318 
L 177.35871 311.988326 
L 177.612431 311.988326 
L 177.866152 324.458335 
L 178.119873 320.301665 
L 178.373594 328.615004 
L 178.627315 320.301665 
L 178.881036 307.831657 
L 179.134757 336.928343 
L 179.388478 341.085013 
L 179.89592 341.085013 
L 180.149641 349.398352 
L 180.403362 349.398352 
L 180.657083 336.928343 
L 180.910804 336.928343 
L 181.164525 345.241682 
L 181.418245 341.085013 
L 181.671966 345.241682 
L 181.925687 341.085013 
L 182.179408 349.398352 
L 182.433129 332.771674 
L 182.68685 328.615004 
L 182.940571 320.301665 
L 183.194292 328.615004 
L 183.448013 324.458335 
L 190.044757 324.458335 
L 190.298478 328.615004 
L 190.552199 328.615004 
L 190.80592 324.458335 
L 191.059641 324.458335 
L 191.567083 332.771674 
L 191.820804 332.771674 
L 192.074525 328.615004 
L 192.328246 332.771674 
L 192.581967 332.771674 
L 192.835688 328.615004 
L 193.850571 328.615004 
L 194.104292 332.771674 
L 195.119176 332.771674 
L 195.372897 336.928343 
L 195.880339 336.928343 
L 196.13406 328.615004 
L 196.895223 328.615004 
L 197.148944 332.771674 
L 197.656385 332.771674 
L 197.910106 328.615004 
L 198.671269 328.615004 
L 198.92499 332.771674 
L 199.178711 332.771674 
L 199.432432 328.615004 
L 200.701037 328.615004 
L 200.954758 332.771674 
L 201.71592 332.771674 
L 201.969641 328.615004 
L 202.477083 328.615004 
L 202.730804 332.771674 
L 207.551502 332.771674 
L 207.805223 336.928343 
L 208.566386 336.928343 
L 208.820107 332.771674 
L 209.073828 336.928343 
L 245.609643 336.928343 
L 245.863364 332.771674 
L 246.117084 341.085013 
L 246.370805 357.711691 
L 249.415457 357.711691 
L 249.669178 353.555021 
L 249.922899 353.555021 
L 250.176619 357.711691 
L 250.937782 357.711691 
L 251.191503 353.555021 
L 251.698945 353.555021 
L 251.952666 357.711691 
L 252.460108 357.711691 
L 252.713829 353.555021 
L 253.221271 353.555021 
L 253.474992 357.711691 
L 616.549653 357.711691 
L 616.803374 353.555021 
L 618.57942 353.555021 
L 618.833141 357.711691 
L 629.489421 357.711691 
L 629.743142 353.555021 
L 645.220119 353.555021 
L 645.47384 357.711691 
L 786.542681 357.711691 
L 786.796402 353.555021 
L 787.050123 357.711691 
L 787.303844 353.555021 
L 787.557565 353.555021 
L 787.811286 357.711691 
L 790.348495 357.711691 
L 790.602216 353.555021 
L 790.855937 357.711691 
L 791.363379 357.711691 
L 791.6171 353.555021 
L 794.40803 353.555021 
L 794.661751 357.711691 
L 801.258495 357.711691 
L 801.512216 353.555021 
L 802.019658 353.555021 
L 802.273379 357.711691 
L 845.405938 357.711691 
L 845.659659 353.555021 
L 864.181288 353.555021 
L 864.435009 357.711691 
L 933.954545 357.711691 
L 933.954545 357.711691 
" style="fill:none;stroke:#ff0000;stroke-linecap:square;"/>
   </g>
   <g id="line2d_18">
    <path clip-path="url(#p53147cc044)" d="M 173.045455 137.408207 
L 173.299175 195.60158 
L 173.552896 154.034885 
L 173.806617 270.421631 
L 174.060338 295.361648 
L 174.314059 307.831657 
L 174.56778 295.361648 
L 174.821501 307.831657 
L 175.075222 341.085013 
L 175.328943 328.615004 
L 175.582664 299.518318 
L 175.836385 307.831657 
L 176.343827 316.144996 
L 176.851269 332.771674 
L 177.10499 336.928343 
L 177.35871 332.771674 
L 177.612431 345.241682 
L 177.866152 349.398352 
L 178.119873 349.398352 
L 178.373594 336.928343 
L 178.627315 336.928343 
L 178.881036 349.398352 
L 179.134757 336.928343 
L 179.388478 345.241682 
L 179.642199 341.085013 
L 179.89592 341.085013 
L 180.149641 345.241682 
L 180.403362 345.241682 
L 180.657083 341.085013 
L 181.925687 341.085013 
L 182.179408 336.928343 
L 182.433129 341.085013 
L 182.68685 336.928343 
L 182.940571 341.085013 
L 184.209176 341.085013 
L 184.462897 345.241682 
L 184.716618 341.085013 
L 189.283595 341.085013 
L 189.537315 345.241682 
L 189.791036 341.085013 
L 190.044757 341.085013 
L 190.298478 345.241682 
L 191.059641 345.241682 
L 191.313362 341.085013 
L 191.820804 341.085013 
L 192.074525 345.241682 
L 192.328246 341.085013 
L 192.581967 345.241682 
L 192.835688 341.085013 
L 193.089409 345.241682 
L 201.969641 345.241682 
L 202.223362 349.398352 
L 202.477083 345.241682 
L 206.536618 345.241682 
L 206.790339 349.398352 
L 207.04406 345.241682 
L 207.297781 349.398352 
L 207.551502 345.241682 
L 207.805223 345.241682 
L 208.058944 341.085013 
L 208.312665 345.241682 
L 208.566386 341.085013 
L 210.849874 341.085013 
L 211.103595 345.241682 
L 211.357316 341.085013 
L 211.611037 345.241682 
L 212.879642 345.241682 
L 213.133363 341.085013 
L 213.894525 341.085013 
L 214.148246 345.241682 
L 214.401967 341.085013 
L 215.416851 341.085013 
L 215.670572 349.398352 
L 215.924293 345.241682 
L 216.939177 345.241682 
L 217.192898 341.085013 
L 217.446619 345.241682 
L 218.207781 345.241682 
L 218.461502 341.085013 
L 218.715223 341.085013 
L 218.968944 345.241682 
L 219.222665 341.085013 
L 264.384992 341.085013 
L 264.638713 345.241682 
L 264.892434 341.085013 
L 265.146155 345.241682 
L 265.399876 345.241682 
L 265.653597 341.085013 
L 265.907318 345.241682 
L 266.161039 341.085013 
L 266.414759 345.241682 
L 266.922201 345.241682 
L 267.175922 341.085013 
L 284.936388 341.085013 
L 285.190109 336.928343 
L 285.44383 341.085013 
L 285.697551 336.928343 
L 291.279411 336.928343 
L 291.533132 341.085013 
L 291.786853 336.928343 
L 292.548016 336.928343 
L 292.801737 341.085013 
L 293.055458 336.928343 
L 301.428249 336.928343 
L 301.68197 341.085013 
L 303.458016 341.085013 
L 303.711737 336.928343 
L 307.010109 336.928343 
L 307.26383 341.085013 
L 307.771272 341.085013 
L 308.024993 336.928343 
L 310.815923 336.928343 
L 311.069644 341.085013 
L 311.323365 336.928343 
L 311.577086 341.085013 
L 311.830807 336.928343 
L 313.860575 336.928343 
L 314.114296 341.085013 
L 314.368017 336.928343 
L 315.636621 336.928343 
L 315.890342 341.085013 
L 316.144063 336.928343 
L 316.651505 336.928343 
L 316.905226 341.085013 
L 317.158947 341.085013 
L 317.412668 336.928343 
L 317.666389 341.085013 
L 331.367319 341.085013 
L 331.62104 336.928343 
L 331.874761 341.085013 
L 401.648019 341.085013 
L 401.90174 332.771674 
L 402.155461 341.085013 
L 511.001743 341.085013 
L 511.255464 336.928343 
L 511.509185 341.085013 
L 521.404301 341.085013 
L 521.658022 336.928343 
L 521.911743 341.085013 
L 523.180348 341.085013 
L 523.434069 336.928343 
L 523.941511 336.928343 
L 524.195232 341.085013 
L 529.26965 341.085013 
L 529.523371 336.928343 
L 530.791976 336.928343 
L 531.045697 341.085013 
L 531.299418 341.085013 
L 531.553139 336.928343 
L 531.80686 341.085013 
L 532.060581 341.085013 
L 532.568023 332.771674 
L 532.821744 336.928343 
L 540.940814 336.928343 
L 541.194535 332.771674 
L 541.701976 332.771674 
L 541.955697 336.928343 
L 543.224302 336.928343 
L 543.478023 328.615004 
L 543.731744 332.771674 
L 544.492907 332.771674 
L 544.746628 336.928343 
L 545.000349 332.771674 
L 545.761511 332.771674 
L 546.015232 336.928343 
L 546.268953 332.771674 
L 546.776395 332.771674 
L 547.030116 336.928343 
L 565.298024 336.928343 
L 565.551745 332.771674 
L 566.312907 332.771674 
L 566.566628 336.928343 
L 566.820349 332.771674 
L 575.19314 332.771674 
L 575.446861 336.928343 
L 575.700582 332.771674 
L 575.954303 336.928343 
L 576.208024 332.771674 
L 583.31221 332.771674 
L 583.565931 336.928343 
L 583.819652 332.771674 
L 584.073373 336.928343 
L 584.580815 336.928343 
L 584.834536 332.771674 
L 586.10314 332.771674 
L 586.356861 336.928343 
L 586.610582 336.928343 
L 586.864303 332.771674 
L 588.64035 332.771674 
L 588.894071 336.928343 
L 589.147792 332.771674 
L 590.162675 332.771674 
L 590.416396 336.928343 
L 591.177559 336.928343 
L 591.43128 332.771674 
L 591.685001 332.771674 
L 591.938722 336.928343 
L 592.192443 332.771674 
L 605.639653 332.771674 
L 605.893374 336.928343 
L 606.147094 332.771674 
L 610.967792 332.771674 
L 611.221513 336.928343 
L 612.99756 336.928343 
L 613.251281 332.771674 
L 613.758723 332.771674 
L 614.012444 336.928343 
L 614.266164 336.928343 
L 614.519885 332.771674 
L 644.205235 332.771674 
L 644.458956 336.928343 
L 644.966398 336.928343 
L 645.220119 332.771674 
L 646.742444 332.771674 
L 646.996165 336.928343 
L 647.503607 336.928343 
L 647.757328 332.771674 
L 649.787096 332.771674 
L 650.040817 336.928343 
L 650.294538 332.771674 
L 658.667329 332.771674 
L 658.921049 336.928343 
L 659.17477 332.771674 
L 659.428491 336.928343 
L 659.682212 332.771674 
L 660.697096 332.771674 
L 660.950817 336.928343 
L 661.204538 332.771674 
L 697.740353 332.771674 
L 697.994074 336.928343 
L 698.755237 336.928343 
L 699.008958 332.771674 
L 700.023841 332.771674 
L 700.277562 336.928343 
L 700.531283 336.928343 
L 700.785004 332.771674 
L 716.00826 332.771674 
L 716.261981 328.615004 
L 716.515702 332.771674 
L 741.634075 332.771674 
L 741.887796 328.615004 
L 742.141517 332.771674 
L 753.305238 332.771674 
L 753.558959 328.615004 
L 753.81268 328.615004 
L 754.066401 332.771674 
L 754.320122 328.615004 
L 754.573843 332.771674 
L 755.335006 332.771674 
L 755.588727 328.615004 
L 755.842447 328.615004 
L 756.096168 332.771674 
L 756.60361 332.771674 
L 756.857331 328.615004 
L 757.111052 328.615004 
L 757.364773 332.771674 
L 758.125936 332.771674 
L 758.379657 328.615004 
L 760.155703 328.615004 
L 760.409424 332.771674 
L 771.319425 332.771674 
L 771.573146 328.615004 
L 771.826867 332.771674 
L 772.334308 332.771674 
L 772.588029 328.615004 
L 773.602913 328.615004 
L 773.856634 332.771674 
L 774.364076 332.771674 
L 774.617797 328.615004 
L 774.871518 332.771674 
L 775.125239 328.615004 
L 775.37896 332.771674 
L 775.632681 332.771674 
L 775.886402 328.615004 
L 776.140122 332.771674 
L 789.587332 332.771674 
L 790.094774 324.458335 
L 790.348495 328.615004 
L 790.602216 328.615004 
L 790.855937 332.771674 
L 791.109658 328.615004 
L 791.363379 332.771674 
L 791.6171 328.615004 
L 791.870821 332.771674 
L 792.885704 332.771674 
L 793.139425 328.615004 
L 793.646867 328.615004 
L 793.900588 332.771674 
L 794.154309 332.771674 
L 794.40803 328.615004 
L 794.661751 332.771674 
L 794.915472 328.615004 
L 795.169193 332.771674 
L 795.422914 332.771674 
L 795.676635 324.458335 
L 795.930356 332.771674 
L 796.184077 332.771674 
L 796.437797 328.615004 
L 796.691518 332.771674 
L 796.945239 328.615004 
L 797.19896 332.771674 
L 797.452681 332.771674 
L 797.706402 328.615004 
L 797.960123 332.771674 
L 798.213844 332.771674 
L 798.467565 328.615004 
L 798.721286 332.771674 
L 799.482449 332.771674 
L 799.73617 328.615004 
L 800.243612 328.615004 
L 800.497332 332.771674 
L 800.751053 332.771674 
L 801.004774 328.615004 
L 801.258495 332.771674 
L 804.049426 332.771674 
L 804.303147 328.615004 
L 804.556867 332.771674 
L 804.810588 328.615004 
L 805.064309 332.771674 
L 808.616402 332.771674 
L 808.870123 328.615004 
L 809.123844 328.615004 
L 809.377565 332.771674 
L 810.899891 332.771674 
L 811.153612 328.615004 
L 811.407333 332.771674 
L 812.168496 332.771674 
L 812.422216 328.615004 
L 812.675937 328.615004 
L 812.929658 332.771674 
L 816.228031 332.771674 
L 816.481751 328.615004 
L 816.735472 332.771674 
L 818.76524 332.771674 
L 819.018961 328.615004 
L 819.272682 332.771674 
L 820.033845 332.771674 
L 820.287566 328.615004 
L 820.541286 332.771674 
L 821.55617 332.771674 
L 821.809891 328.615004 
L 822.063612 332.771674 
L 822.317333 328.615004 
L 822.571054 328.615004 
L 822.824775 332.771674 
L 823.078496 332.771674 
L 823.332217 328.615004 
L 823.585938 328.615004 
L 823.839659 332.771674 
L 824.347101 324.458335 
L 824.600821 328.615004 
L 824.854542 328.615004 
L 825.108263 332.771674 
L 825.361984 332.771674 
L 825.615705 328.615004 
L 827.138031 328.615004 
L 827.391752 324.458335 
L 827.645473 328.615004 
L 828.406636 328.615004 
L 828.660356 332.771674 
L 832.21245 332.771674 
L 832.466171 328.615004 
L 832.973612 328.615004 
L 833.227333 332.771674 
L 833.481054 328.615004 
L 833.988496 328.615004 
L 834.242217 332.771674 
L 834.495938 332.771674 
L 834.749659 328.615004 
L 835.257101 328.615004 
L 835.510822 332.771674 
L 835.764543 332.771674 
L 836.018264 328.615004 
L 837.79431 328.615004 
L 838.048031 332.771674 
L 838.301752 328.615004 
L 838.555473 332.771674 
L 838.809194 328.615004 
L 843.12245 328.615004 
L 843.376171 332.771674 
L 843.629892 328.615004 
L 844.644776 328.615004 
L 844.898496 332.771674 
L 845.152217 328.615004 
L 845.405938 328.615004 
L 845.659659 332.771674 
L 845.91338 328.615004 
L 846.167101 332.771674 
L 846.420822 328.615004 
L 846.674543 332.771674 
L 846.928264 328.615004 
L 847.435706 328.615004 
L 847.689427 332.771674 
L 847.943148 328.615004 
L 848.45059 328.615004 
L 848.704311 332.771674 
L 848.958031 328.615004 
L 849.719194 328.615004 
L 849.972915 332.771674 
L 850.226636 328.615004 
L 854.539892 328.615004 
L 854.793613 332.771674 
L 855.047334 328.615004 
L 855.301055 328.615004 
L 855.554776 332.771674 
L 856.062218 332.771674 
L 856.315939 328.615004 
L 856.56966 332.771674 
L 856.823381 328.615004 
L 859.106869 328.615004 
L 859.36059 332.771674 
L 860.629195 332.771674 
L 860.882916 328.615004 
L 861.390357 328.615004 
L 861.644078 332.771674 
L 862.405241 332.771674 
L 862.658962 328.615004 
L 862.912683 332.771674 
L 863.166404 332.771674 
L 863.420125 328.615004 
L 871.285474 328.615004 
L 871.539195 332.771674 
L 876.867335 332.771674 
L 877.121056 328.615004 
L 877.374776 332.771674 
L 878.897102 332.771674 
L 879.150823 328.615004 
L 879.404544 332.771674 
L 879.911986 332.771674 
L 880.165707 328.615004 
L 880.419428 328.615004 
L 880.673149 332.771674 
L 885.493846 332.771674 
L 885.747567 328.615004 
L 886.001288 328.615004 
L 886.255009 332.771674 
L 886.50873 328.615004 
L 886.762451 332.771674 
L 887.269893 332.771674 
L 887.523614 328.615004 
L 889.553381 328.615004 
L 889.807102 332.771674 
L 890.314544 332.771674 
L 890.821986 324.458335 
L 891.075707 324.458335 
L 891.583149 332.771674 
L 891.83687 328.615004 
L 892.090591 332.771674 
L 892.344312 328.615004 
L 892.598033 332.771674 
L 892.851754 328.615004 
L 893.359195 328.615004 
L 893.612916 332.771674 
L 894.374079 332.771674 
L 894.6278 328.615004 
L 895.135242 328.615004 
L 895.388963 332.771674 
L 895.642684 324.458335 
L 895.896405 324.458335 
L 896.150126 332.771674 
L 896.403847 324.458335 
L 896.657568 328.615004 
L 896.911289 328.615004 
L 897.16501 324.458335 
L 897.41873 328.615004 
L 897.672451 328.615004 
L 897.926172 332.771674 
L 898.433614 332.771674 
L 898.687335 324.458335 
L 898.941056 324.458335 
L 899.448498 332.771674 
L 899.702219 332.771674 
L 899.95594 324.458335 
L 900.717103 324.458335 
L 900.970824 332.771674 
L 901.224545 332.771674 
L 901.478265 324.458335 
L 901.985707 324.458335 
L 902.239428 328.615004 
L 902.493149 324.458335 
L 902.74687 324.458335 
L 903.000591 332.771674 
L 903.761754 332.771674 
L 904.015475 324.458335 
L 904.269196 328.615004 
L 904.522917 328.615004 
L 904.776638 332.771674 
L 905.030359 332.771674 
L 905.28408 324.458335 
L 905.5378 332.771674 
L 908.836173 332.771674 
L 909.089894 324.458335 
L 909.343615 324.458335 
L 909.597335 332.771674 
L 911.119661 332.771674 
L 911.373382 328.615004 
L 911.627103 332.771674 
L 913.910591 332.771674 
L 914.418033 324.458335 
L 914.671754 332.771674 
L 914.925475 328.615004 
L 915.179196 328.615004 
L 915.432917 332.771674 
L 915.686638 332.771674 
L 915.940359 324.458335 
L 916.447801 332.771674 
L 916.701522 332.771674 
L 916.955243 328.615004 
L 917.208964 332.771674 
L 917.462685 332.771674 
L 917.716405 328.615004 
L 917.970126 332.771674 
L 918.98501 332.771674 
L 919.238731 324.458335 
L 919.492452 328.615004 
L 919.746173 328.615004 
L 919.999894 332.771674 
L 920.253615 328.615004 
L 920.507336 328.615004 
L 920.761057 324.458335 
L 921.014778 332.771674 
L 921.268499 332.771674 
L 921.52222 324.458335 
L 921.77594 332.771674 
L 922.029661 324.458335 
L 922.283382 332.771674 
L 922.790824 332.771674 
L 923.044545 324.458335 
L 923.298266 328.615004 
L 923.551987 328.615004 
L 923.805708 324.458335 
L 924.31315 332.771674 
L 924.566871 324.458335 
L 924.820592 332.771674 
L 925.074313 328.615004 
L 925.328034 328.615004 
L 925.581755 332.771674 
L 925.835475 324.458335 
L 926.596638 324.458335 
L 926.850359 328.615004 
L 927.10408 324.458335 
L 927.357801 324.458335 
L 927.611522 332.771674 
L 927.865243 328.615004 
L 928.118964 328.615004 
L 928.372685 324.458335 
L 928.626406 328.615004 
L 928.880127 328.615004 
L 929.133848 324.458335 
L 929.387569 332.771674 
L 929.64129 324.458335 
L 931.671057 324.458335 
L 931.924778 328.615004 
L 932.178499 324.458335 
L 932.43222 328.615004 
L 932.685941 324.458335 
L 933.193383 324.458335 
L 933.447104 328.615004 
L 933.700825 324.458335 
L 933.954545 324.458335 
L 933.954545 324.458335 
" style="fill:none;stroke:#006400;stroke-linecap:square;"/>
   </g>
   <g id="line2d_19">
    <path clip-path="url(#p53147cc044)" d="M 173.045455 133.251538 
L 173.552896 141.564877 
L 174.060338 311.988326 
L 174.314059 328.615004 
L 174.56778 353.555021 
L 174.821501 390.965047 
L 175.075222 382.651708 
L 175.328943 390.965047 
L 175.582664 386.808377 
L 175.836385 399.278386 
L 176.090106 420.061733 
L 176.343827 420.061733 
L 176.597548 428.375072 
L 176.851269 432.531742 
L 177.10499 432.531742 
L 177.35871 440.845081 
L 177.612431 440.845081 
L 177.866152 436.688411 
L 178.119873 436.688411 
L 178.373594 453.315089 
L 178.627315 449.15842 
L 178.881036 453.315089 
L 179.134757 449.15842 
L 179.388478 453.315089 
L 179.642199 453.315089 
L 179.89592 457.471759 
L 180.149641 457.471759 
L 180.403362 461.628428 
L 180.657083 461.628428 
L 180.910804 465.785098 
L 181.418245 465.785098 
L 181.671966 469.941767 
L 181.925687 465.785098 
L 182.68685 465.785098 
L 182.940571 469.941767 
L 183.701734 469.941767 
L 183.955455 465.785098 
L 184.209176 469.941767 
L 184.462897 478.255106 
L 184.716618 474.098437 
L 184.970339 461.628428 
L 185.47778 469.941767 
L 185.731501 494.881784 
L 185.985222 494.881784 
L 186.238943 490.725115 
L 186.492664 499.038454 
L 186.746385 499.038454 
L 187.000106 507.351793 
L 187.253827 528.13514 
L 187.507548 523.978471 
L 188.01499 540.605149 
L 188.776153 540.605149 
L 189.029874 536.448479 
L 190.044757 536.448479 
L 190.298478 540.605149 
L 190.80592 540.605149 
L 191.059641 536.448479 
L 191.313362 540.605149 
L 191.567083 540.605149 
L 191.820804 536.448479 
L 192.328246 536.448479 
L 192.581967 540.605149 
L 196.13406 540.605149 
L 196.387781 536.448479 
L 200.193595 536.448479 
L 200.447316 532.29181 
L 200.701037 536.448479 
L 211.864758 536.448479 
L 212.118479 532.29181 
L 212.3722 536.448479 
L 213.133363 536.448479 
L 213.387084 532.29181 
L 213.640805 536.448479 
L 214.148246 536.448479 
L 214.401967 532.29181 
L 214.655688 536.448479 
L 215.924293 536.448479 
L 216.178014 532.29181 
L 216.431735 532.29181 
L 216.685456 536.448479 
L 217.192898 536.448479 
L 217.446619 532.29181 
L 217.70034 536.448479 
L 219.983828 536.448479 
L 220.237549 532.29181 
L 220.744991 540.605149 
L 220.998712 540.605149 
L 221.252433 536.448479 
L 221.506154 544.761818 
L 221.759875 544.761818 
L 222.013595 540.605149 
L 222.267316 540.605149 
L 222.521037 532.29181 
L 222.774758 536.448479 
L 223.028479 536.448479 
L 223.2822 532.29181 
L 223.535921 536.448479 
L 223.789642 532.29181 
L 224.043363 540.605149 
L 224.297084 540.605149 
L 224.550805 536.448479 
L 224.804526 536.448479 
L 225.058247 540.605149 
L 225.311968 536.448479 
L 225.565689 540.605149 
L 226.580572 540.605149 
L 226.834293 536.448479 
L 227.088014 536.448479 
L 227.341735 540.605149 
L 228.864061 540.605149 
L 229.117782 536.448479 
L 229.878944 536.448479 
L 230.132665 540.605149 
L 231.147549 540.605149 
L 231.40127 536.448479 
L 231.654991 536.448479 
L 231.908712 540.605149 
L 232.416154 540.605149 
L 232.669875 536.448479 
L 233.177317 536.448479 
L 233.431038 540.605149 
L 235.460805 540.605149 
L 235.714526 536.448479 
L 239.266619 536.448479 
L 239.52034 532.29181 
L 239.774061 532.29181 
L 240.027782 536.448479 
L 240.281503 532.29181 
L 240.535224 532.29181 
L 240.788945 536.448479 
L 241.803829 536.448479 
L 242.057549 540.605149 
L 242.31127 540.605149 
L 242.564991 544.761818 
L 242.818712 544.761818 
L 243.072433 540.605149 
L 243.579875 540.605149 
L 243.833596 536.448479 
L 244.087317 536.448479 
L 244.341038 540.605149 
L 244.594759 540.605149 
L 244.84848 544.761818 
L 245.102201 532.29181 
L 245.863364 532.29181 
L 246.117084 536.448479 
L 246.370805 536.448479 
L 246.624526 532.29181 
L 246.878247 532.29181 
L 247.385689 540.605149 
L 247.63941 540.605149 
L 247.893131 536.448479 
L 248.146852 540.605149 
L 249.161736 540.605149 
L 249.415457 536.448479 
L 249.669178 540.605149 
L 250.684061 540.605149 
L 250.937782 536.448479 
L 251.445224 536.448479 
L 251.698945 540.605149 
L 251.952666 536.448479 
L 252.460108 536.448479 
L 252.713829 540.605149 
L 253.982434 540.605149 
L 254.236154 536.448479 
L 254.997317 536.448479 
L 255.251038 532.29181 
L 255.75848 540.605149 
L 256.012201 536.448479 
L 256.773364 536.448479 
L 257.027085 540.605149 
L 257.280806 536.448479 
L 259.564294 536.448479 
L 259.818015 540.605149 
L 260.071736 536.448479 
L 261.340341 536.448479 
L 261.594062 532.29181 
L 262.101504 532.29181 
L 262.355224 536.448479 
L 262.608945 532.29181 
L 262.862666 536.448479 
L 263.116387 532.29181 
L 263.370108 532.29181 
L 263.623829 536.448479 
L 265.146155 536.448479 
L 265.399876 540.605149 
L 265.653597 536.448479 
L 266.66848 536.448479 
L 266.922201 532.29181 
L 267.175922 536.448479 
L 267.429643 532.29181 
L 267.683364 532.29181 
L 267.937085 540.605149 
L 268.190806 536.448479 
L 268.698248 536.448479 
L 268.951969 532.29181 
L 269.20569 532.29181 
L 269.459411 536.448479 
L 269.713132 532.29181 
L 270.220574 532.29181 
L 270.474294 536.448479 
L 270.728015 536.448479 
L 270.981736 532.29181 
L 271.235457 540.605149 
L 271.489178 536.448479 
L 272.250341 536.448479 
L 272.504062 540.605149 
L 272.757783 532.29181 
L 273.011504 540.605149 
L 273.265225 536.448479 
L 273.518946 540.605149 
L 274.026388 540.605149 
L 274.280109 536.448479 
L 274.533829 540.605149 
L 274.78755 536.448479 
L 275.548713 536.448479 
L 275.802434 540.605149 
L 278.593364 540.605149 
L 278.847085 536.448479 
L 280.369411 536.448479 
L 280.623132 540.605149 
L 282.399179 540.605149 
L 282.652899 544.761818 
L 282.90662 540.605149 
L 283.414062 540.605149 
L 283.921504 532.29181 
L 284.175225 536.448479 
L 284.428946 532.29181 
L 288.742202 532.29181 
L 288.995923 536.448479 
L 289.249644 532.29181 
L 290.264528 532.29181 
L 290.518249 540.605149 
L 291.02569 532.29181 
L 291.786853 532.29181 
L 292.040574 536.448479 
L 292.294295 536.448479 
L 292.548016 532.29181 
L 293.055458 540.605149 
L 293.309179 536.448479 
L 293.816621 536.448479 
L 294.070342 540.605149 
L 294.831504 540.605149 
L 295.085225 536.448479 
L 296.100109 536.448479 
L 296.607551 544.761818 
L 297.114993 536.448479 
L 297.368714 540.605149 
L 298.383598 540.605149 
L 298.637319 544.761818 
L 298.891039 540.605149 
L 301.68197 540.605149 
L 301.935691 536.448479 
L 302.189412 540.605149 
L 306.502668 540.605149 
L 306.756388 536.448479 
L 307.771272 536.448479 
L 308.024993 540.605149 
L 313.099412 540.605149 
L 313.353133 536.448479 
L 323.755691 536.448479 
L 324.009412 540.605149 
L 324.263133 540.605149 
L 324.516854 536.448479 
L 324.770575 540.605149 
L 325.024296 536.448479 
L 326.800343 536.448479 
L 327.054063 540.605149 
L 327.307784 536.448479 
L 327.815226 536.448479 
L 328.068947 540.605149 
L 328.322668 536.448479 
L 329.337552 536.448479 
L 329.591273 540.605149 
L 329.844994 540.605149 
L 330.098715 536.448479 
L 330.352436 540.605149 
L 330.606157 536.448479 
L 331.62104 536.448479 
L 331.874761 540.605149 
L 337.202901 540.605149 
L 337.456622 536.448479 
L 337.710343 540.605149 
L 340.754994 540.605149 
L 341.008715 536.448479 
L 341.262436 536.448479 
L 341.516157 540.605149 
L 346.844297 540.605149 
L 347.098018 536.448479 
L 349.381506 536.448479 
L 349.888948 544.761818 
L 350.142669 540.605149 
L 350.650111 540.605149 
L 350.903832 544.761818 
L 351.411273 536.448479 
L 351.664994 540.605149 
L 351.918715 536.448479 
L 352.172436 540.605149 
L 354.709646 540.605149 
L 354.963367 536.448479 
L 357.500576 536.448479 
L 357.754297 540.605149 
L 358.008018 536.448479 
L 358.51546 536.448479 
L 359.022902 544.761818 
L 359.276623 540.605149 
L 359.784064 540.605149 
L 360.037785 544.761818 
L 360.291506 540.605149 
L 360.545227 544.761818 
L 361.052669 544.761818 
L 361.30639 540.605149 
L 361.560111 544.761818 
L 361.813832 540.605149 
L 362.828716 540.605149 
L 363.082437 544.761818 
L 363.336158 536.448479 
L 363.843599 536.448479 
L 364.09732 540.605149 
L 364.604762 540.605149 
L 364.858483 544.761818 
L 365.112204 544.761818 
L 365.365925 540.605149 
L 366.127088 540.605149 
L 366.380809 536.448479 
L 367.395693 536.448479 
L 367.649413 540.605149 
L 367.903134 536.448479 
L 368.664297 536.448479 
L 368.918018 540.605149 
L 369.171739 536.448479 
L 369.932902 536.448479 
L 370.186623 540.605149 
L 370.440344 536.448479 
L 370.694065 540.605149 
L 371.201507 540.605149 
L 371.455228 536.448479 
L 371.708948 536.448479 
L 371.962669 540.605149 
L 373.484995 540.605149 
L 373.738716 536.448479 
L 373.992437 536.448479 
L 374.246158 540.605149 
L 376.275925 540.605149 
L 376.529646 536.448479 
L 376.783367 540.605149 
L 377.290809 540.605149 
L 377.54453 536.448479 
L 377.798251 540.605149 
L 385.917321 540.605149 
L 386.171042 536.448479 
L 386.424763 540.605149 
L 389.215693 540.605149 
L 389.469414 536.448479 
L 389.723135 540.605149 
L 390.484298 540.605149 
L 390.738019 536.448479 
L 390.99174 540.605149 
L 391.245461 540.605149 
L 391.499182 536.448479 
L 391.752902 536.448479 
L 392.006623 540.605149 
L 392.514065 540.605149 
L 392.767786 536.448479 
L 393.021507 540.605149 
L 398.349647 540.605149 
L 398.603368 536.448479 
L 398.857089 540.605149 
L 399.11081 536.448479 
L 402.155461 536.448479 
L 402.409182 540.605149 
L 409.005926 540.605149 
L 409.259647 536.448479 
L 410.02081 536.448479 
L 410.274531 540.605149 
L 421.184531 540.605149 
L 421.438252 536.448479 
L 425.751508 536.448479 
L 426.005229 532.29181 
L 426.25895 536.448479 
L 427.020113 536.448479 
L 427.273834 532.29181 
L 427.527555 532.29181 
L 427.781276 536.448479 
L 428.034997 532.29181 
L 428.288717 532.29181 
L 428.542438 536.448479 
L 428.796159 536.448479 
L 429.04988 532.29181 
L 429.303601 540.605149 
L 429.557322 540.605149 
L 429.811043 536.448479 
L 430.572206 536.448479 
L 430.825927 540.605149 
L 431.079648 536.448479 
L 432.094532 536.448479 
L 432.348252 540.605149 
L 432.601973 536.448479 
L 440.974764 536.448479 
L 441.228485 540.605149 
L 441.482206 536.448479 
L 442.49709 536.448479 
L 442.750811 540.605149 
L 443.511974 540.605149 
L 443.765695 536.448479 
L 445.28802 536.448479 
L 445.541741 540.605149 
L 447.064067 540.605149 
L 447.317788 536.448479 
L 449.854997 536.448479 
L 450.108718 540.605149 
L 450.362439 536.448479 
L 450.61616 540.605149 
L 453.153369 540.605149 
L 453.40709 536.448479 
L 453.914532 536.448479 
L 454.168253 540.605149 
L 454.421974 540.605149 
L 454.675695 536.448479 
L 476.241975 536.448479 
L 476.495696 532.29181 
L 480.808951 532.29181 
L 481.062672 536.448479 
L 483.09244 536.448479 
L 483.346161 532.29181 
L 483.599882 532.29181 
L 483.853603 536.448479 
L 484.868486 536.448479 
L 485.122207 532.29181 
L 485.375928 536.448479 
L 485.629649 532.29181 
L 485.88337 536.448479 
L 495.524766 536.448479 
L 495.778487 540.605149 
L 496.032208 536.448479 
L 509.225696 536.448479 
L 509.479417 540.605149 
L 509.733138 536.448479 
L 512.016627 536.448479 
L 512.270348 540.605149 
L 512.524069 536.448479 
L 512.77779 540.605149 
L 514.807557 540.605149 
L 515.061278 536.448479 
L 517.852208 536.448479 
L 518.105929 540.605149 
L 518.35965 536.448479 
L 518.613371 536.448479 
L 518.867092 540.605149 
L 519.120813 536.448479 
L 530.030813 536.448479 
L 530.284534 540.605149 
L 536.627558 540.605149 
L 536.881279 536.448479 
L 537.135 536.448479 
L 537.38872 540.605149 
L 539.164767 540.605149 
L 539.418488 536.448479 
L 550.582209 536.448479 
L 550.83593 540.605149 
L 553.119419 540.605149 
L 553.37314 536.448479 
L 553.62686 540.605149 
L 554.388023 540.605149 
L 554.641744 536.448479 
L 555.656628 536.448479 
L 555.910349 540.605149 
L 633.548956 540.605149 
L 633.802677 536.448479 
L 634.056398 536.448479 
L 634.310119 540.605149 
L 636.086165 540.605149 
L 636.339886 536.448479 
L 636.847328 536.448479 
L 637.101049 540.605149 
L 637.35477 536.448479 
L 683.278259 536.448479 
L 683.53198 540.605149 
L 684.546864 540.605149 
L 684.800585 536.448479 
L 690.128725 536.448479 
L 690.382446 540.605149 
L 690.636167 536.448479 
L 692.665934 536.448479 
L 692.919655 540.605149 
L 705.351981 540.605149 
L 705.605702 536.448479 
L 705.859423 540.605149 
L 706.620586 540.605149 
L 706.874307 536.448479 
L 707.128028 540.605149 
L 713.724772 540.605149 
L 713.978493 536.448479 
L 714.232214 540.605149 
L 723.112447 540.605149 
L 723.366168 536.448479 
L 725.395935 536.448479 
L 725.649656 540.605149 
L 725.903377 536.448479 
L 726.157098 536.448479 
L 726.410819 540.605149 
L 727.171982 540.605149 
L 727.425703 536.448479 
L 798.467565 536.448479 
L 798.721286 532.29181 
L 798.975007 536.448479 
L 799.228728 532.29181 
L 822.317333 532.29181 
L 822.571054 536.448479 
L 831.451287 536.448479 
L 831.705008 532.29181 
L 832.21245 532.29181 
L 832.466171 536.448479 
L 834.749659 536.448479 
L 835.00338 532.29181 
L 855.047334 532.29181 
L 855.301055 536.448479 
L 862.15152 536.448479 
L 862.405241 532.29181 
L 862.658962 532.29181 
L 862.912683 536.448479 
L 863.420125 536.448479 
L 863.673846 532.29181 
L 865.703613 532.29181 
L 865.957334 536.448479 
L 866.718497 536.448479 
L 866.972218 532.29181 
L 917.970126 532.29181 
L 918.223847 528.13514 
L 918.477568 528.13514 
L 918.731289 532.29181 
L 920.253615 532.29181 
L 920.507336 528.13514 
L 921.268499 528.13514 
L 921.52222 532.29181 
L 924.059429 532.29181 
L 924.31315 528.13514 
L 924.566871 532.29181 
L 932.178499 532.29181 
L 932.43222 528.13514 
L 933.954545 528.13514 
L 933.954545 528.13514 
" style="fill:none;stroke:#0000ff;stroke-linecap:square;"/>
   </g>
   <g id="line2d_20">
    <path clip-path="url(#p53147cc044)" d="M 173.045455 141.564877 
L 173.299175 108.311521 
L 173.552896 129.094868 
L 174.060338 220.541597 
L 174.314059 253.794953 
L 174.56778 262.108292 
L 174.821501 237.168275 
L 175.075222 291.204979 
L 175.328943 299.518318 
L 175.582664 299.518318 
L 175.836385 307.831657 
L 176.090106 299.518318 
L 176.343827 316.144996 
L 176.597548 316.144996 
L 176.851269 378.495038 
L 177.10499 366.02503 
L 177.35871 361.86836 
L 177.612431 353.555021 
L 178.119873 361.86836 
L 178.373594 357.711691 
L 178.627315 382.651708 
L 178.881036 374.338369 
L 179.134757 382.651708 
L 179.388478 386.808377 
L 179.89592 386.808377 
L 180.149641 390.965047 
L 182.68685 390.965047 
L 182.940571 386.808377 
L 183.194292 395.121716 
L 183.448013 390.965047 
L 183.701734 399.278386 
L 183.955455 395.121716 
L 184.462897 395.121716 
L 184.716618 390.965047 
L 184.970339 390.965047 
L 185.22406 374.338369 
L 185.47778 390.965047 
L 185.731501 390.965047 
L 185.985222 370.181699 
L 186.238943 374.338369 
L 186.492664 403.435055 
L 186.746385 403.435055 
L 187.000106 390.965047 
L 187.507548 382.651708 
L 187.761269 382.651708 
L 188.01499 386.808377 
L 188.268711 407.591725 
L 188.522432 407.591725 
L 188.776153 428.375072 
L 189.029874 461.628428 
L 189.537315 494.881784 
L 189.791036 494.881784 
L 190.044757 490.725115 
L 190.298478 482.411776 
L 190.552199 486.568445 
L 190.80592 499.038454 
L 191.059641 499.038454 
L 191.313362 494.881784 
L 191.567083 494.881784 
L 191.820804 490.725115 
L 192.074525 499.038454 
L 192.328246 494.881784 
L 192.581967 503.195123 
L 192.835688 503.195123 
L 193.089409 499.038454 
L 193.34313 499.038454 
L 193.59685 503.195123 
L 194.611734 503.195123 
L 194.865455 507.351793 
L 195.372897 499.038454 
L 195.626618 511.508462 
L 195.880339 503.195123 
L 196.13406 486.568445 
L 196.641502 486.568445 
L 197.148944 478.255106 
L 197.402665 482.411776 
L 197.656385 478.255106 
L 197.910106 478.255106 
L 198.163827 486.568445 
L 198.417548 482.411776 
L 198.671269 482.411776 
L 199.178711 474.098437 
L 199.432432 482.411776 
L 199.939874 482.411776 
L 200.193595 474.098437 
L 200.447316 478.255106 
L 200.701037 478.255106 
L 200.954758 482.411776 
L 201.4622 474.098437 
L 201.71592 478.255106 
L 201.969641 474.098437 
L 202.223362 478.255106 
L 202.730804 478.255106 
L 202.984525 474.098437 
L 203.238246 478.255106 
L 203.491967 474.098437 
L 204.506851 474.098437 
L 204.760572 478.255106 
L 205.014293 474.098437 
L 208.058944 474.098437 
L 208.312665 478.255106 
L 208.566386 469.941767 
L 208.820107 474.098437 
L 209.073828 474.098437 
L 209.327549 478.255106 
L 209.58127 474.098437 
L 212.3722 474.098437 
L 212.625921 469.941767 
L 212.879642 469.941767 
L 213.133363 474.098437 
L 214.401967 474.098437 
L 214.655688 478.255106 
L 214.909409 478.255106 
L 215.16313 482.411776 
L 215.924293 482.411776 
L 216.178014 478.255106 
L 216.685456 478.255106 
L 216.939177 474.098437 
L 217.192898 474.098437 
L 217.446619 478.255106 
L 217.70034 474.098437 
L 217.95406 478.255106 
L 218.207781 474.098437 
L 218.715223 474.098437 
L 218.968944 478.255106 
L 219.730107 478.255106 
L 219.983828 482.411776 
L 220.237549 482.411776 
L 220.49127 478.255106 
L 220.744991 478.255106 
L 220.998712 474.098437 
L 221.252433 474.098437 
L 221.506154 478.255106 
L 221.759875 474.098437 
L 222.013595 482.411776 
L 222.267316 478.255106 
L 222.521037 478.255106 
L 223.028479 469.941767 
L 223.2822 474.098437 
L 223.535921 474.098437 
L 223.789642 482.411776 
L 224.043363 482.411776 
L 224.297084 478.255106 
L 225.311968 478.255106 
L 225.565689 474.098437 
L 225.81941 478.255106 
L 229.117782 478.255106 
L 229.371503 482.411776 
L 229.625224 478.255106 
L 229.878944 482.411776 
L 230.132665 494.881784 
L 230.386386 474.098437 
L 230.640107 494.881784 
L 230.893828 490.725115 
L 231.654991 490.725115 
L 231.908712 494.881784 
L 232.162433 490.725115 
L 239.774061 490.725115 
L 240.027782 494.881784 
L 240.281503 490.725115 
L 240.535224 494.881784 
L 240.788945 490.725115 
L 241.042666 490.725115 
L 241.296387 494.881784 
L 242.057549 494.881784 
L 242.31127 490.725115 
L 242.564991 494.881784 
L 247.893131 494.881784 
L 248.146852 499.038454 
L 248.400573 499.038454 
L 248.654294 503.195123 
L 248.908015 503.195123 
L 249.161736 499.038454 
L 251.952666 499.038454 
L 252.206387 494.881784 
L 252.713829 494.881784 
L 252.96755 499.038454 
L 253.221271 499.038454 
L 253.474992 494.881784 
L 257.280806 494.881784 
L 257.534527 490.725115 
L 268.444527 490.725115 
L 268.698248 494.881784 
L 269.20569 494.881784 
L 269.459411 490.725115 
L 270.728015 490.725115 
L 270.981736 486.568445 
L 282.652899 486.568445 
L 282.90662 490.725115 
L 283.160341 486.568445 
L 283.414062 490.725115 
L 283.667783 490.725115 
L 283.921504 486.568445 
L 287.981039 486.568445 
L 288.23476 490.725115 
L 288.488481 490.725115 
L 288.742202 482.411776 
L 289.249644 482.411776 
L 289.757086 490.725115 
L 290.010807 486.568445 
L 290.264528 486.568445 
L 290.518249 482.411776 
L 291.02569 482.411776 
L 291.279411 486.568445 
L 292.294295 486.568445 
L 292.548016 482.411776 
L 307.010109 482.411776 
L 307.26383 486.568445 
L 307.517551 486.568445 
L 307.771272 490.725115 
L 308.532435 490.725115 
L 308.786156 486.568445 
L 331.113598 486.568445 
L 331.367319 490.725115 
L 332.889645 490.725115 
L 333.143366 486.568445 
L 333.650808 486.568445 
L 333.904529 490.725115 
L 334.15825 490.725115 
L 334.411971 486.568445 
L 335.426854 486.568445 
L 335.680575 494.881784 
L 337.710343 494.881784 
L 337.964064 490.725115 
L 338.217785 490.725115 
L 338.471506 486.568445 
L 338.725227 490.725115 
L 342.531041 490.725115 
L 342.784762 494.881784 
L 343.038483 490.725115 
L 347.351738 490.725115 
L 347.605459 494.881784 
L 361.813832 494.881784 
L 362.067553 490.725115 
L 362.321274 494.881784 
L 367.141972 494.881784 
L 367.395693 490.725115 
L 367.649413 490.725115 
L 367.903134 494.881784 
L 368.156855 494.881784 
L 368.410576 490.725115 
L 368.664297 494.881784 
L 369.679181 494.881784 
L 369.932902 499.038454 
L 370.186623 494.881784 
L 379.828018 494.881784 
L 380.081739 499.038454 
L 381.350344 499.038454 
L 381.604065 494.881784 
L 382.618949 494.881784 
L 382.87267 499.038454 
L 383.126391 499.038454 
L 383.380112 494.881784 
L 383.633832 499.038454 
L 383.887553 494.881784 
L 384.141274 499.038454 
L 384.394995 494.881784 
L 386.678484 494.881784 
L 386.932205 499.038454 
L 388.200809 499.038454 
L 388.45453 503.195123 
L 388.961972 503.195123 
L 389.215693 499.038454 
L 389.469414 503.195123 
L 389.723135 499.038454 
L 390.484298 499.038454 
L 390.738019 503.195123 
L 391.245461 503.195123 
L 391.499182 499.038454 
L 391.752902 503.195123 
L 416.617554 503.195123 
L 417.124996 511.508462 
L 417.378717 511.508462 
L 417.632438 507.351793 
L 417.886159 499.038454 
L 418.901043 499.038454 
L 419.154764 503.195123 
L 419.408485 503.195123 
L 419.662206 511.508462 
L 419.915927 515.665132 
L 420.169647 511.508462 
L 420.423368 515.665132 
L 420.677089 511.508462 
L 420.93081 511.508462 
L 421.184531 515.665132 
L 421.438252 515.665132 
L 421.691973 511.508462 
L 422.199415 511.508462 
L 422.453136 507.351793 
L 422.706857 515.665132 
L 422.960578 515.665132 
L 423.46802 507.351793 
L 423.721741 507.351793 
L 423.975462 511.508462 
L 424.229182 511.508462 
L 424.482903 507.351793 
L 424.736624 511.508462 
L 424.990345 511.508462 
L 425.244066 515.665132 
L 425.497787 511.508462 
L 425.751508 511.508462 
L 426.005229 519.821801 
L 426.25895 515.665132 
L 427.527555 515.665132 
L 427.781276 511.508462 
L 429.303601 511.508462 
L 429.557322 515.665132 
L 432.855694 515.665132 
L 433.109415 511.508462 
L 433.363136 511.508462 
L 433.616857 507.351793 
L 433.870578 511.508462 
L 434.37802 511.508462 
L 434.631741 507.351793 
L 434.885462 511.508462 
L 437.16895 511.508462 
L 437.422671 507.351793 
L 437.676392 507.351793 
L 437.930113 511.508462 
L 438.183834 507.351793 
L 448.586392 507.351793 
L 448.840113 511.508462 
L 449.093834 507.351793 
L 451.884765 507.351793 
L 452.138486 511.508462 
L 455.183137 511.508462 
L 455.436858 507.351793 
L 455.690579 511.508462 
L 455.9443 511.508462 
L 456.198021 507.351793 
L 456.705462 507.351793 
L 456.959183 511.508462 
L 457.720346 511.508462 
L 457.974067 507.351793 
L 458.227788 507.351793 
L 458.481509 511.508462 
L 460.257556 511.508462 
L 460.511276 507.351793 
L 460.764997 511.508462 
L 466.346858 511.508462 
L 466.600579 507.351793 
L 470.913835 507.351793 
L 471.167556 511.508462 
L 471.421277 511.508462 
L 471.674998 507.351793 
L 473.704765 507.351793 
L 473.958486 511.508462 
L 474.212207 511.508462 
L 474.465928 507.351793 
L 474.719649 511.508462 
L 474.97337 507.351793 
L 475.227091 507.351793 
L 475.480812 511.508462 
L 475.734533 507.351793 
L 476.749416 507.351793 
L 477.003137 511.508462 
L 479.794068 511.508462 
L 480.047789 507.351793 
L 480.30151 511.508462 
L 480.555231 511.508462 
L 480.808951 507.351793 
L 481.062672 511.508462 
L 481.570114 511.508462 
L 481.823835 507.351793 
L 482.077556 511.508462 
L 482.331277 507.351793 
L 482.584998 511.508462 
L 483.09244 503.195123 
L 483.853603 503.195123 
L 484.107324 511.508462 
L 484.361045 503.195123 
L 484.614766 507.351793 
L 484.868486 507.351793 
L 485.122207 503.195123 
L 485.375928 507.351793 
L 485.88337 507.351793 
L 486.137091 503.195123 
L 486.644533 503.195123 
L 486.898254 507.351793 
L 487.405696 507.351793 
L 487.659417 503.195123 
L 497.554533 503.195123 
L 497.808254 507.351793 
L 498.061975 507.351793 
L 498.315696 503.195123 
L 498.569417 507.351793 
L 500.852906 507.351793 
L 501.106626 503.195123 
L 501.360347 507.351793 
L 502.12151 507.351793 
L 502.375231 511.508462 
L 502.628952 507.351793 
L 502.882673 507.351793 
L 503.390115 515.665132 
L 503.643836 515.665132 
L 503.897557 511.508462 
L 504.151278 511.508462 
L 504.404999 515.665132 
L 504.65872 507.351793 
L 505.166161 507.351793 
L 505.419882 511.508462 
L 505.673603 507.351793 
L 506.181045 507.351793 
L 506.434766 515.665132 
L 506.688487 511.508462 
L 506.942208 515.665132 
L 507.44965 515.665132 
L 507.703371 511.508462 
L 507.957092 515.665132 
L 509.733138 515.665132 
L 509.986859 507.351793 
L 510.24058 511.508462 
L 510.494301 507.351793 
L 510.748022 507.351793 
L 511.001743 511.508462 
L 511.255464 503.195123 
L 511.762906 511.508462 
L 512.270348 511.508462 
L 512.524069 515.665132 
L 516.076162 515.665132 
L 516.329883 511.508462 
L 517.091046 511.508462 
L 517.344766 515.665132 
L 517.598487 511.508462 
L 517.852208 515.665132 
L 518.105929 511.508462 
L 519.120813 511.508462 
L 519.374534 515.665132 
L 519.628255 515.665132 
L 519.881976 511.508462 
L 520.389418 511.508462 
L 520.643139 515.665132 
L 547.537558 515.665132 
L 547.791279 511.508462 
L 548.045 511.508462 
L 548.298721 507.351793 
L 548.552442 507.351793 
L 548.806163 511.508462 
L 549.059884 511.508462 
L 549.313605 507.351793 
L 550.074767 507.351793 
L 550.328488 511.508462 
L 550.582209 507.351793 
L 554.641744 507.351793 
L 554.895465 515.665132 
L 555.149186 511.508462 
L 561.999651 511.508462 
L 562.253372 515.665132 
L 562.507093 515.665132 
L 562.760814 511.508462 
L 564.029419 511.508462 
L 564.28314 507.351793 
L 576.208024 507.351793 
L 576.461745 511.508462 
L 588.894071 511.508462 
L 589.147792 515.665132 
L 589.401513 515.665132 
L 589.655234 511.508462 
L 589.908954 511.508462 
L 590.162675 515.665132 
L 595.237094 515.665132 
L 595.490815 519.821801 
L 595.744536 515.665132 
L 595.998257 519.821801 
L 596.75942 519.821801 
L 597.013141 515.665132 
L 597.774304 515.665132 
L 598.028024 519.821801 
L 598.281745 519.821801 
L 598.535466 515.665132 
L 598.789187 519.821801 
L 608.430583 519.821801 
L 608.684304 515.665132 
L 624.668723 515.665132 
L 624.922444 511.508462 
L 625.176165 515.665132 
L 625.429886 511.508462 
L 626.69849 511.508462 
L 626.952211 515.665132 
L 627.713374 515.665132 
L 627.967095 511.508462 
L 666.786398 511.508462 
L 667.040119 515.665132 
L 933.954545 515.665132 
L 933.954545 515.665132 
" style="fill:none;stroke:#000000;stroke-linecap:square;"/>
   </g>
   <g id="line2d_21">
    <path clip-path="url(#p53147cc044)" d="M 173.045455 112.46819 
L 173.552896 212.228258 
L 173.806617 228.854936 
L 174.060338 311.988326 
L 174.314059 320.301665 
L 174.56778 336.928343 
L 174.821501 341.085013 
L 175.075222 341.085013 
L 175.328943 353.555021 
L 175.582664 378.495038 
L 176.090106 395.121716 
L 176.343827 378.495038 
L 176.597548 378.495038 
L 176.851269 353.555021 
L 177.10499 382.651708 
L 177.35871 353.555021 
L 177.612431 361.86836 
L 177.866152 403.435055 
L 178.119873 395.121716 
L 178.373594 395.121716 
L 178.627315 420.061733 
L 178.881036 424.218403 
L 179.388478 395.121716 
L 179.642199 445.00175 
L 180.149641 407.591725 
L 180.403362 428.375072 
L 180.657083 432.531742 
L 180.910804 424.218403 
L 181.164525 432.531742 
L 181.418245 420.061733 
L 181.671966 449.15842 
L 181.925687 436.688411 
L 182.179408 449.15842 
L 182.433129 453.315089 
L 182.68685 461.628428 
L 182.940571 474.098437 
L 183.194292 469.941767 
L 183.448013 478.255106 
L 183.701734 469.941767 
L 183.955455 465.785098 
L 184.209176 474.098437 
L 184.462897 474.098437 
L 184.716618 478.255106 
L 184.970339 478.255106 
L 185.22406 445.00175 
L 185.47778 461.628428 
L 185.731501 461.628428 
L 185.985222 465.785098 
L 186.238943 457.471759 
L 186.492664 461.628428 
L 186.746385 461.628428 
L 187.000106 478.255106 
L 187.253827 469.941767 
L 187.507548 469.941767 
L 187.761269 465.785098 
L 188.01499 465.785098 
L 188.268711 457.471759 
L 188.522432 469.941767 
L 188.776153 461.628428 
L 189.029874 474.098437 
L 189.283595 465.785098 
L 189.537315 461.628428 
L 190.044757 469.941767 
L 190.298478 457.471759 
L 190.552199 469.941767 
L 190.80592 465.785098 
L 191.059641 453.315089 
L 191.313362 469.941767 
L 191.567083 457.471759 
L 191.820804 474.098437 
L 192.074525 474.098437 
L 192.328246 465.785098 
L 192.581967 461.628428 
L 192.835688 461.628428 
L 193.089409 445.00175 
L 193.34313 465.785098 
L 193.59685 445.00175 
L 193.850571 449.15842 
L 194.104292 465.785098 
L 194.358013 469.941767 
L 194.611734 469.941767 
L 194.865455 465.785098 
L 195.119176 457.471759 
L 195.372897 469.941767 
L 195.626618 469.941767 
L 195.880339 461.628428 
L 196.13406 465.785098 
L 196.641502 465.785098 
L 196.895223 469.941767 
L 197.148944 465.785098 
L 197.402665 465.785098 
L 197.656385 469.941767 
L 197.910106 465.785098 
L 198.163827 465.785098 
L 198.417548 469.941767 
L 198.671269 461.628428 
L 199.178711 461.628428 
L 199.432432 474.098437 
L 199.686153 469.941767 
L 201.208479 469.941767 
L 201.4622 461.628428 
L 201.71592 474.098437 
L 202.223362 474.098437 
L 202.477083 465.785098 
L 202.730804 478.255106 
L 203.238246 478.255106 
L 203.491967 486.568445 
L 203.745688 482.411776 
L 203.999409 482.411776 
L 204.25313 490.725115 
L 204.760572 482.411776 
L 205.014293 482.411776 
L 205.268014 486.568445 
L 205.775455 486.568445 
L 206.029176 482.411776 
L 206.282897 486.568445 
L 206.536618 486.568445 
L 206.790339 490.725115 
L 207.04406 486.568445 
L 211.103595 486.568445 
L 211.357316 490.725115 
L 211.864758 490.725115 
L 212.118479 486.568445 
L 212.3722 486.568445 
L 212.625921 490.725115 
L 214.401967 490.725115 
L 214.655688 486.568445 
L 215.670572 486.568445 
L 215.924293 490.725115 
L 216.178014 478.255106 
L 216.431735 478.255106 
L 216.685456 486.568445 
L 216.939177 490.725115 
L 217.192898 486.568445 
L 217.446619 494.881784 
L 217.70034 490.725115 
L 218.715223 490.725115 
L 218.968944 494.881784 
L 219.222665 503.195123 
L 219.476386 499.038454 
L 219.730107 490.725115 
L 220.237549 490.725115 
L 220.49127 494.881784 
L 220.744991 490.725115 
L 220.998712 499.038454 
L 221.252433 494.881784 
L 221.506154 494.881784 
L 221.759875 478.255106 
L 222.013595 486.568445 
L 222.267316 482.411776 
L 222.521037 490.725115 
L 223.2822 490.725115 
L 223.535921 486.568445 
L 223.789642 486.568445 
L 224.550805 499.038454 
L 224.804526 494.881784 
L 225.058247 499.038454 
L 225.311968 490.725115 
L 225.565689 490.725115 
L 225.81941 499.038454 
L 227.341735 499.038454 
L 227.849177 490.725115 
L 228.356619 490.725115 
L 228.61034 494.881784 
L 228.864061 490.725115 
L 233.684759 490.725115 
L 233.938479 494.881784 
L 234.953363 494.881784 
L 235.207084 499.038454 
L 237.998014 499.038454 
L 238.251735 494.881784 
L 238.505456 494.881784 
L 238.759177 490.725115 
L 239.012898 494.881784 
L 239.774061 494.881784 
L 240.027782 499.038454 
L 240.281503 499.038454 
L 240.535224 494.881784 
L 240.788945 499.038454 
L 241.296387 499.038454 
L 241.550108 494.881784 
L 243.326154 494.881784 
L 243.579875 499.038454 
L 243.833596 499.038454 
L 244.087317 494.881784 
L 244.341038 494.881784 
L 244.594759 499.038454 
L 244.84848 494.881784 
L 245.609643 494.881784 
L 245.863364 499.038454 
L 246.117084 494.881784 
L 246.370805 494.881784 
L 246.624526 499.038454 
L 262.355224 499.038454 
L 262.608945 494.881784 
L 262.862666 499.038454 
L 263.87755 499.038454 
L 264.131271 494.881784 
L 264.384992 499.038454 
L 264.638713 499.038454 
L 264.892434 494.881784 
L 266.414759 494.881784 
L 266.66848 499.038454 
L 267.429643 499.038454 
L 267.683364 494.881784 
L 267.937085 499.038454 
L 268.190806 494.881784 
L 275.294992 494.881784 
L 275.548713 490.725115 
L 275.802434 499.038454 
L 276.056155 494.881784 
L 279.861969 494.881784 
L 280.11569 490.725115 
L 280.369411 494.881784 
L 293.055458 494.881784 
L 293.309179 490.725115 
L 294.070342 490.725115 
L 294.324063 494.881784 
L 294.577784 490.725115 
L 295.085225 490.725115 
L 295.338946 494.881784 
L 296.100109 494.881784 
L 296.35383 490.725115 
L 296.607551 494.881784 
L 296.861272 490.725115 
L 297.114993 494.881784 
L 298.383598 494.881784 
L 298.637319 490.725115 
L 298.891039 494.881784 
L 299.14476 490.725115 
L 299.398481 494.881784 
L 301.935691 494.881784 
L 302.189412 490.725115 
L 302.696853 490.725115 
L 302.950574 494.881784 
L 303.204295 490.725115 
L 303.458016 490.725115 
L 303.711737 494.881784 
L 304.219179 494.881784 
L 304.4729 490.725115 
L 305.234063 490.725115 
L 305.487784 494.881784 
L 309.293598 494.881784 
L 309.547319 490.725115 
L 309.80104 494.881784 
L 310.054761 490.725115 
L 310.308482 494.881784 
L 311.323365 494.881784 
L 311.577086 490.725115 
L 311.830807 494.881784 
L 312.084528 494.881784 
L 312.338249 490.725115 
L 312.59197 494.881784 
L 315.636621 494.881784 
L 315.890342 490.725115 
L 316.144063 490.725115 
L 316.651505 499.038454 
L 316.905226 490.725115 
L 317.158947 494.881784 
L 317.412668 490.725115 
L 317.666389 490.725115 
L 317.92011 494.881784 
L 318.427552 494.881784 
L 318.681273 490.725115 
L 320.203598 490.725115 
L 320.457319 494.881784 
L 322.740808 494.881784 
L 322.994528 490.725115 
L 323.248249 490.725115 
L 323.50197 494.881784 
L 323.755691 490.725115 
L 324.263133 490.725115 
L 324.516854 494.881784 
L 324.770575 490.725115 
L 326.03918 490.725115 
L 326.292901 494.881784 
L 326.546622 494.881784 
L 326.800343 490.725115 
L 327.054063 490.725115 
L 327.561505 499.038454 
L 328.322668 499.038454 
L 328.576389 490.725115 
L 328.83011 494.881784 
L 329.083831 490.725115 
L 329.337552 499.038454 
L 329.591273 494.881784 
L 330.606157 494.881784 
L 330.859878 499.038454 
L 333.397087 499.038454 
L 333.650808 494.881784 
L 333.904529 499.038454 
L 334.411971 499.038454 
L 334.665692 490.725115 
L 334.919413 494.881784 
L 335.173133 494.881784 
L 335.426854 490.725115 
L 335.680575 494.881784 
L 335.934296 490.725115 
L 336.188017 490.725115 
L 336.441738 494.881784 
L 336.695459 490.725115 
L 338.471506 490.725115 
L 338.725227 494.881784 
L 338.978948 494.881784 
L 339.232668 490.725115 
L 339.486389 494.881784 
L 339.74011 494.881784 
L 339.993831 490.725115 
L 342.023599 490.725115 
L 342.27732 494.881784 
L 342.531041 490.725115 
L 342.784762 494.881784 
L 343.038483 490.725115 
L 343.292203 494.881784 
L 343.799645 494.881784 
L 344.053366 490.725115 
L 344.307087 494.881784 
L 345.829413 494.881784 
L 346.083134 490.725115 
L 346.590576 490.725115 
L 346.844297 494.881784 
L 378.305693 494.881784 
L 378.559414 490.725115 
L 378.813135 494.881784 
L 379.066856 490.725115 
L 379.320577 494.881784 
L 380.081739 494.881784 
L 380.33546 490.725115 
L 387.185926 490.725115 
L 387.439647 494.881784 
L 387.693367 490.725115 
L 388.200809 490.725115 
L 388.45453 494.881784 
L 389.215693 494.881784 
L 389.469414 490.725115 
L 429.303601 490.725115 
L 429.557322 486.568445 
L 433.616857 486.568445 
L 433.870578 490.725115 
L 434.124299 490.725115 
L 434.37802 486.568445 
L 435.139183 486.568445 
L 435.392904 490.725115 
L 442.750811 490.725115 
L 443.004532 486.568445 
L 460.257556 486.568445 
L 460.511276 490.725115 
L 461.779881 490.725115 
L 462.033602 486.568445 
L 465.331974 486.568445 
L 465.585695 490.725115 
L 481.062672 490.725115 
L 481.316393 486.568445 
L 482.838719 486.568445 
L 483.09244 490.725115 
L 483.346161 486.568445 
L 494.763603 486.568445 
L 495.017324 482.411776 
L 495.271045 486.568445 
L 496.793371 486.568445 
L 497.047091 490.725115 
L 497.554533 490.725115 
L 497.808254 486.568445 
L 653.846631 486.568445 
L 654.100352 482.411776 
L 716.769423 482.411776 
L 717.023144 478.255106 
L 717.276865 482.411776 
L 717.530586 478.255106 
L 796.437797 478.255106 
L 796.691518 474.098437 
L 803.541984 474.098437 
L 803.795705 478.255106 
L 804.049426 474.098437 
L 804.303147 478.255106 
L 804.556867 478.255106 
L 804.810588 474.098437 
L 806.079193 474.098437 
L 806.332914 478.255106 
L 806.586635 474.098437 
L 807.601519 474.098437 
L 807.85524 478.255106 
L 808.616402 478.255106 
L 808.870123 482.411776 
L 809.377565 474.098437 
L 810.392449 474.098437 
L 810.64617 478.255106 
L 813.4371 478.255106 
L 813.690821 474.098437 
L 817.242914 474.098437 
L 817.496635 478.255106 
L 818.004077 478.255106 
L 818.257798 482.411776 
L 818.76524 482.411776 
L 819.018961 478.255106 
L 819.272682 482.411776 
L 819.780124 482.411776 
L 820.033845 478.255106 
L 820.287566 478.255106 
L 820.541286 474.098437 
L 821.048728 474.098437 
L 821.302449 478.255106 
L 821.55617 474.098437 
L 821.809891 478.255106 
L 822.063612 474.098437 
L 823.839659 474.098437 
L 824.09338 478.255106 
L 824.347101 478.255106 
L 824.600821 474.098437 
L 825.361984 474.098437 
L 825.869426 482.411776 
L 826.123147 474.098437 
L 826.376868 478.255106 
L 837.79431 478.255106 
L 838.048031 474.098437 
L 841.346403 474.098437 
L 841.600124 478.255106 
L 846.167101 478.255106 
L 846.420822 474.098437 
L 846.674543 478.255106 
L 847.181985 478.255106 
L 847.435706 474.098437 
L 848.704311 474.098437 
L 848.958031 478.255106 
L 849.211752 474.098437 
L 852.256404 474.098437 
L 852.510125 478.255106 
L 852.763846 474.098437 
L 863.927567 474.098437 
L 864.181288 478.255106 
L 864.435009 474.098437 
L 865.703613 474.098437 
L 865.957334 469.941767 
L 866.211055 474.098437 
L 867.733381 474.098437 
L 867.987102 478.255106 
L 868.240823 478.255106 
L 868.494544 474.098437 
L 870.778032 474.098437 
L 871.031753 478.255106 
L 871.285474 474.098437 
L 872.8078 474.098437 
L 873.061521 469.941767 
L 873.315241 474.098437 
L 873.568962 469.941767 
L 873.822683 474.098437 
L 874.837567 474.098437 
L 875.091288 469.941767 
L 879.658265 469.941767 
L 879.911986 474.098437 
L 881.688032 474.098437 
L 881.941753 469.941767 
L 882.195474 474.098437 
L 882.449195 469.941767 
L 882.956637 469.941767 
L 883.210358 474.098437 
L 883.971521 474.098437 
L 884.225242 469.941767 
L 884.986405 469.941767 
L 885.240125 474.098437 
L 885.493846 474.098437 
L 885.747567 469.941767 
L 886.50873 469.941767 
L 886.762451 474.098437 
L 887.269893 474.098437 
L 887.523614 469.941767 
L 889.29966 469.941767 
L 889.553381 474.098437 
L 897.16501 474.098437 
L 897.41873 469.941767 
L 898.687335 469.941767 
L 898.941056 474.098437 
L 933.954545 474.098437 
L 933.954545 474.098437 
" style="fill:none;stroke:#ff00ff;stroke-linecap:square;"/>
   </g>
   <g id="patch_3">
    <path d="M 135 567 
L 135 77.76 
" style="fill:none;stroke:#000000;stroke-linecap:square;stroke-linejoin:miter;stroke-width:0.8;"/>
   </g>
   <g id="patch_4">
    <path d="M 972 567 
L 972 77.76 
" style="fill:none;stroke:#000000;stroke-linecap:square;stroke-linejoin:miter;stroke-width:0.8;"/>
   </g>
   <g id="patch_5">
    <path d="M 135 567 
L 972 567 
" style="fill:none;stroke:#000000;stroke-linecap:square;stroke-linejoin:miter;stroke-width:0.8;"/>
   </g>
   <g id="patch_6">
    <path d="M 135 77.76 
L 972 77.76 
" style="fill:none;stroke:#000000;stroke-linecap:square;stroke-linejoin:miter;stroke-width:0.8;"/>
   </g>
   <g id="text_19">
    <!-- PSO Optimised NN with Tanh Activation -->
    <g transform="translate(307.511719 71.76)scale(0.25 -0.25)">
     <defs>
      <path d="M 19.671875 64.796875 
L 19.671875 37.40625 
L 32.078125 37.40625 
Q 38.96875 37.40625 42.71875 40.96875 
Q 46.484375 44.53125 46.484375 51.125 
Q 46.484375 57.671875 42.71875 61.234375 
Q 38.96875 64.796875 32.078125 64.796875 
z
M 9.8125 72.90625 
L 32.078125 72.90625 
Q 44.34375 72.90625 50.609375 67.359375 
Q 56.890625 61.8125 56.890625 51.125 
Q 56.890625 40.328125 50.609375 34.8125 
Q 44.34375 29.296875 32.078125 29.296875 
L 19.671875 29.296875 
L 19.671875 0 
L 9.8125 0 
z
" id="DejaVuSans-80"/>
      <path d="M 39.40625 66.21875 
Q 28.65625 66.21875 22.328125 58.203125 
Q 16.015625 50.203125 16.015625 36.375 
Q 16.015625 22.609375 22.328125 14.59375 
Q 28.65625 6.59375 39.40625 6.59375 
Q 50.140625 6.59375 56.421875 14.59375 
Q 62.703125 22.609375 62.703125 36.375 
Q 62.703125 50.203125 56.421875 58.203125 
Q 50.140625 66.21875 39.40625 66.21875 
z
M 39.40625 74.21875 
Q 54.734375 74.21875 63.90625 63.9375 
Q 73.09375 53.65625 73.09375 36.375 
Q 73.09375 19.140625 63.90625 8.859375 
Q 54.734375 -1.421875 39.40625 -1.421875 
Q 24.03125 -1.421875 14.8125 8.828125 
Q 5.609375 19.09375 5.609375 36.375 
Q 5.609375 53.65625 14.8125 63.9375 
Q 24.03125 74.21875 39.40625 74.21875 
z
" id="DejaVuSans-79"/>
      <path d="M 18.109375 8.203125 
L 18.109375 -20.796875 
L 9.078125 -20.796875 
L 9.078125 54.6875 
L 18.109375 54.6875 
L 18.109375 46.390625 
Q 20.953125 51.265625 25.265625 53.625 
Q 29.59375 56 35.59375 56 
Q 45.5625 56 51.78125 48.09375 
Q 58.015625 40.1875 58.015625 27.296875 
Q 58.015625 14.40625 51.78125 6.484375 
Q 45.5625 -1.421875 35.59375 -1.421875 
Q 29.59375 -1.421875 25.265625 0.953125 
Q 20.953125 3.328125 18.109375 8.203125 
z
M 48.6875 27.296875 
Q 48.6875 37.203125 44.609375 42.84375 
Q 40.53125 48.484375 33.40625 48.484375 
Q 26.265625 48.484375 22.1875 42.84375 
Q 18.109375 37.203125 18.109375 27.296875 
Q 18.109375 17.390625 22.1875 11.75 
Q 26.265625 6.109375 33.40625 6.109375 
Q 40.53125 6.109375 44.609375 11.75 
Q 48.6875 17.390625 48.6875 27.296875 
z
" id="DejaVuSans-112"/>
      <path d="M 52 44.1875 
Q 55.375 50.25 60.0625 53.125 
Q 64.75 56 71.09375 56 
Q 79.640625 56 84.28125 50.015625 
Q 88.921875 44.046875 88.921875 33.015625 
L 88.921875 0 
L 79.890625 0 
L 79.890625 32.71875 
Q 79.890625 40.578125 77.09375 44.375 
Q 74.3125 48.1875 68.609375 48.1875 
Q 61.625 48.1875 57.5625 43.546875 
Q 53.515625 38.921875 53.515625 30.90625 
L 53.515625 0 
L 44.484375 0 
L 44.484375 32.71875 
Q 44.484375 40.625 41.703125 44.40625 
Q 38.921875 48.1875 33.109375 48.1875 
Q 26.21875 48.1875 22.15625 43.53125 
Q 18.109375 38.875 18.109375 30.90625 
L 18.109375 0 
L 9.078125 0 
L 9.078125 54.6875 
L 18.109375 54.6875 
L 18.109375 46.1875 
Q 21.1875 51.21875 25.484375 53.609375 
Q 29.78125 56 35.6875 56 
Q 41.65625 56 45.828125 52.96875 
Q 50 49.953125 52 44.1875 
z
" id="DejaVuSans-109"/>
      <path d="M 45.40625 46.390625 
L 45.40625 75.984375 
L 54.390625 75.984375 
L 54.390625 0 
L 45.40625 0 
L 45.40625 8.203125 
Q 42.578125 3.328125 38.25 0.953125 
Q 33.9375 -1.421875 27.875 -1.421875 
Q 17.96875 -1.421875 11.734375 6.484375 
Q 5.515625 14.40625 5.515625 27.296875 
Q 5.515625 40.1875 11.734375 48.09375 
Q 17.96875 56 27.875 56 
Q 33.9375 56 38.25 53.625 
Q 42.578125 51.265625 45.40625 46.390625 
z
M 14.796875 27.296875 
Q 14.796875 17.390625 18.875 11.75 
Q 22.953125 6.109375 30.078125 6.109375 
Q 37.203125 6.109375 41.296875 11.75 
Q 45.40625 17.390625 45.40625 27.296875 
Q 45.40625 37.203125 41.296875 42.84375 
Q 37.203125 48.484375 30.078125 48.484375 
Q 22.953125 48.484375 18.875 42.84375 
Q 14.796875 37.203125 14.796875 27.296875 
z
" id="DejaVuSans-100"/>
      <path d="M 9.8125 72.90625 
L 23.09375 72.90625 
L 55.421875 11.921875 
L 55.421875 72.90625 
L 64.984375 72.90625 
L 64.984375 0 
L 51.703125 0 
L 19.390625 60.984375 
L 19.390625 0 
L 9.8125 0 
z
" id="DejaVuSans-78"/>
      <path d="M 4.203125 54.6875 
L 13.1875 54.6875 
L 24.421875 12.015625 
L 35.59375 54.6875 
L 46.1875 54.6875 
L 57.421875 12.015625 
L 68.609375 54.6875 
L 77.59375 54.6875 
L 63.28125 0 
L 52.6875 0 
L 40.921875 44.828125 
L 29.109375 0 
L 18.5 0 
z
" id="DejaVuSans-119"/>
      <path d="M 54.890625 33.015625 
L 54.890625 0 
L 45.90625 0 
L 45.90625 32.71875 
Q 45.90625 40.484375 42.875 44.328125 
Q 39.84375 48.1875 33.796875 48.1875 
Q 26.515625 48.1875 22.3125 43.546875 
Q 18.109375 38.921875 18.109375 30.90625 
L 18.109375 0 
L 9.078125 0 
L 9.078125 75.984375 
L 18.109375 75.984375 
L 18.109375 46.1875 
Q 21.34375 51.125 25.703125 53.5625 
Q 30.078125 56 35.796875 56 
Q 45.21875 56 50.046875 50.171875 
Q 54.890625 44.34375 54.890625 33.015625 
z
" id="DejaVuSans-104"/>
      <path d="M 34.1875 63.1875 
L 20.796875 26.90625 
L 47.609375 26.90625 
z
M 28.609375 72.90625 
L 39.796875 72.90625 
L 67.578125 0 
L 57.328125 0 
L 50.6875 18.703125 
L 17.828125 18.703125 
L 11.1875 0 
L 0.78125 0 
z
" id="DejaVuSans-65"/>
      <path d="M 48.78125 52.59375 
L 48.78125 44.1875 
Q 44.96875 46.296875 41.140625 47.34375 
Q 37.3125 48.390625 33.40625 48.390625 
Q 24.65625 48.390625 19.8125 42.84375 
Q 14.984375 37.3125 14.984375 27.296875 
Q 14.984375 17.28125 19.8125 11.734375 
Q 24.65625 6.203125 33.40625 6.203125 
Q 37.3125 6.203125 41.140625 7.25 
Q 44.96875 8.296875 48.78125 10.40625 
L 48.78125 2.09375 
Q 45.015625 0.34375 40.984375 -0.53125 
Q 36.96875 -1.421875 32.421875 -1.421875 
Q 20.0625 -1.421875 12.78125 6.34375 
Q 5.515625 14.109375 5.515625 27.296875 
Q 5.515625 40.671875 12.859375 48.328125 
Q 20.21875 56 33.015625 56 
Q 37.15625 56 41.109375 55.140625 
Q 45.0625 54.296875 48.78125 52.59375 
z
" id="DejaVuSans-99"/>
      <path d="M 2.984375 54.6875 
L 12.5 54.6875 
L 29.59375 8.796875 
L 46.6875 54.6875 
L 56.203125 54.6875 
L 35.6875 0 
L 23.484375 0 
z
" id="DejaVuSans-118"/>
     </defs>
     <use xlink:href="#DejaVuSans-80"/>
     <use x="60.302734" xlink:href="#DejaVuSans-83"/>
     <use x="123.779297" xlink:href="#DejaVuSans-79"/>
     <use x="202.490234" xlink:href="#DejaVuSans-32"/>
     <use x="234.277344" xlink:href="#DejaVuSans-79"/>
     <use x="312.988281" xlink:href="#DejaVuSans-112"/>
     <use x="376.464844" xlink:href="#DejaVuSans-116"/>
     <use x="415.673828" xlink:href="#DejaVuSans-105"/>
     <use x="443.457031" xlink:href="#DejaVuSans-109"/>
     <use x="540.869141" xlink:href="#DejaVuSans-105"/>
     <use x="568.652344" xlink:href="#DejaVuSans-115"/>
     <use x="620.751953" xlink:href="#DejaVuSans-101"/>
     <use x="682.275391" xlink:href="#DejaVuSans-100"/>
     <use x="745.751953" xlink:href="#DejaVuSans-32"/>
     <use x="777.539062" xlink:href="#DejaVuSans-78"/>
     <use x="852.34375" xlink:href="#DejaVuSans-78"/>
     <use x="927.148438" xlink:href="#DejaVuSans-32"/>
     <use x="958.935547" xlink:href="#DejaVuSans-119"/>
     <use x="1040.722656" xlink:href="#DejaVuSans-105"/>
     <use x="1068.505859" xlink:href="#DejaVuSans-116"/>
     <use x="1107.714844" xlink:href="#DejaVuSans-104"/>
     <use x="1171.09375" xlink:href="#DejaVuSans-32"/>
     <use x="1202.880859" xlink:href="#DejaVuSans-84"/>
     <use x="1247.464844" xlink:href="#DejaVuSans-97"/>
     <use x="1308.744141" xlink:href="#DejaVuSans-110"/>
     <use x="1372.123047" xlink:href="#DejaVuSans-104"/>
     <use x="1435.501953" xlink:href="#DejaVuSans-32"/>
     <use x="1467.289062" xlink:href="#DejaVuSans-65"/>
     <use x="1533.947266" xlink:href="#DejaVuSans-99"/>
     <use x="1588.927734" xlink:href="#DejaVuSans-116"/>
     <use x="1628.136719" xlink:href="#DejaVuSans-105"/>
     <use x="1655.919922" xlink:href="#DejaVuSans-118"/>
     <use x="1715.099609" xlink:href="#DejaVuSans-97"/>
     <use x="1776.378906" xlink:href="#DejaVuSans-116"/>
     <use x="1815.587891" xlink:href="#DejaVuSans-105"/>
     <use x="1843.371094" xlink:href="#DejaVuSans-111"/>
     <use x="1904.552734" xlink:href="#DejaVuSans-110"/>
    </g>
   </g>
   <g id="legend_1">
    <g id="patch_7">
     <path d="M 791.871875 240.54125 
L 958 240.54125 
Q 962 240.54125 962 236.54125 
L 962 91.76 
Q 962 87.76 958 87.76 
L 791.871875 87.76 
Q 787.871875 87.76 787.871875 91.76 
L 787.871875 236.54125 
Q 787.871875 240.54125 791.871875 240.54125 
z
" style="fill:#ffffff;opacity:0.8;stroke:#cccccc;stroke-linejoin:miter;"/>
    </g>
    <g id="line2d_22">
     <path d="M 795.871875 103.956875 
L 835.871875 103.956875 
" style="fill:none;stroke:#ff0000;stroke-linecap:square;"/>
    </g>
    <g id="line2d_23"/>
    <g id="text_20">
     <!-- 4 Neurons -->
     <g transform="translate(851.871875 110.956875)scale(0.2 -0.2)">
      <defs>
       <path d="M 8.5 21.578125 
L 8.5 54.6875 
L 17.484375 54.6875 
L 17.484375 21.921875 
Q 17.484375 14.15625 20.5 10.265625 
Q 23.53125 6.390625 29.59375 6.390625 
Q 36.859375 6.390625 41.078125 11.03125 
Q 45.3125 15.671875 45.3125 23.6875 
L 45.3125 54.6875 
L 54.296875 54.6875 
L 54.296875 0 
L 45.3125 0 
L 45.3125 8.40625 
Q 42.046875 3.421875 37.71875 1 
Q 33.40625 -1.421875 27.6875 -1.421875 
Q 18.265625 -1.421875 13.375 4.4375 
Q 8.5 10.296875 8.5 21.578125 
z
M 31.109375 56 
z
" id="DejaVuSans-117"/>
      </defs>
      <use xlink:href="#DejaVuSans-52"/>
      <use x="63.623047" xlink:href="#DejaVuSans-32"/>
      <use x="95.410156" xlink:href="#DejaVuSans-78"/>
      <use x="170.214844" xlink:href="#DejaVuSans-101"/>
      <use x="231.738281" xlink:href="#DejaVuSans-117"/>
      <use x="295.117188" xlink:href="#DejaVuSans-114"/>
      <use x="333.980469" xlink:href="#DejaVuSans-111"/>
      <use x="395.162109" xlink:href="#DejaVuSans-110"/>
      <use x="458.541016" xlink:href="#DejaVuSans-115"/>
     </g>
    </g>
    <g id="line2d_24">
     <path d="M 795.871875 133.313125 
L 835.871875 133.313125 
" style="fill:none;stroke:#006400;stroke-linecap:square;"/>
    </g>
    <g id="line2d_25"/>
    <g id="text_21">
     <!-- 5 Neurons -->
     <g transform="translate(851.871875 140.313125)scale(0.2 -0.2)">
      <use xlink:href="#DejaVuSans-53"/>
      <use x="63.623047" xlink:href="#DejaVuSans-32"/>
      <use x="95.410156" xlink:href="#DejaVuSans-78"/>
      <use x="170.214844" xlink:href="#DejaVuSans-101"/>
      <use x="231.738281" xlink:href="#DejaVuSans-117"/>
      <use x="295.117188" xlink:href="#DejaVuSans-114"/>
      <use x="333.980469" xlink:href="#DejaVuSans-111"/>
      <use x="395.162109" xlink:href="#DejaVuSans-110"/>
      <use x="458.541016" xlink:href="#DejaVuSans-115"/>
     </g>
    </g>
    <g id="line2d_26">
     <path d="M 795.871875 162.669375 
L 835.871875 162.669375 
" style="fill:none;stroke:#0000ff;stroke-linecap:square;"/>
    </g>
    <g id="line2d_27"/>
    <g id="text_22">
     <!-- 6 Neurons -->
     <g transform="translate(851.871875 169.669375)scale(0.2 -0.2)">
      <use xlink:href="#DejaVuSans-54"/>
      <use x="63.623047" xlink:href="#DejaVuSans-32"/>
      <use x="95.410156" xlink:href="#DejaVuSans-78"/>
      <use x="170.214844" xlink:href="#DejaVuSans-101"/>
      <use x="231.738281" xlink:href="#DejaVuSans-117"/>
      <use x="295.117188" xlink:href="#DejaVuSans-114"/>
      <use x="333.980469" xlink:href="#DejaVuSans-111"/>
      <use x="395.162109" xlink:href="#DejaVuSans-110"/>
      <use x="458.541016" xlink:href="#DejaVuSans-115"/>
     </g>
    </g>
    <g id="line2d_28">
     <path d="M 795.871875 192.025625 
L 835.871875 192.025625 
" style="fill:none;stroke:#000000;stroke-linecap:square;"/>
    </g>
    <g id="line2d_29"/>
    <g id="text_23">
     <!-- 7 Neurons -->
     <g transform="translate(851.871875 199.025625)scale(0.2 -0.2)">
      <defs>
       <path d="M 8.203125 72.90625 
L 55.078125 72.90625 
L 55.078125 68.703125 
L 28.609375 0 
L 18.3125 0 
L 43.21875 64.59375 
L 8.203125 64.59375 
z
" id="DejaVuSans-55"/>
      </defs>
      <use xlink:href="#DejaVuSans-55"/>
      <use x="63.623047" xlink:href="#DejaVuSans-32"/>
      <use x="95.410156" xlink:href="#DejaVuSans-78"/>
      <use x="170.214844" xlink:href="#DejaVuSans-101"/>
      <use x="231.738281" xlink:href="#DejaVuSans-117"/>
      <use x="295.117188" xlink:href="#DejaVuSans-114"/>
      <use x="333.980469" xlink:href="#DejaVuSans-111"/>
      <use x="395.162109" xlink:href="#DejaVuSans-110"/>
      <use x="458.541016" xlink:href="#DejaVuSans-115"/>
     </g>
    </g>
    <g id="line2d_30">
     <path d="M 795.871875 221.381875 
L 835.871875 221.381875 
" style="fill:none;stroke:#ff00ff;stroke-linecap:square;"/>
    </g>
    <g id="line2d_31"/>
    <g id="text_24">
     <!-- 8 Neurons -->
     <g transform="translate(851.871875 228.381875)scale(0.2 -0.2)">
      <defs>
       <path d="M 31.78125 34.625 
Q 24.75 34.625 20.71875 30.859375 
Q 16.703125 27.09375 16.703125 20.515625 
Q 16.703125 13.921875 20.71875 10.15625 
Q 24.75 6.390625 31.78125 6.390625 
Q 38.8125 6.390625 42.859375 10.171875 
Q 46.921875 13.96875 46.921875 20.515625 
Q 46.921875 27.09375 42.890625 30.859375 
Q 38.875 34.625 31.78125 34.625 
z
M 21.921875 38.8125 
Q 15.578125 40.375 12.03125 44.71875 
Q 8.5 49.078125 8.5 55.328125 
Q 8.5 64.0625 14.71875 69.140625 
Q 20.953125 74.21875 31.78125 74.21875 
Q 42.671875 74.21875 48.875 69.140625 
Q 55.078125 64.0625 55.078125 55.328125 
Q 55.078125 49.078125 51.53125 44.71875 
Q 48 40.375 41.703125 38.8125 
Q 48.828125 37.15625 52.796875 32.3125 
Q 56.78125 27.484375 56.78125 20.515625 
Q 56.78125 9.90625 50.3125 4.234375 
Q 43.84375 -1.421875 31.78125 -1.421875 
Q 19.734375 -1.421875 13.25 4.234375 
Q 6.78125 9.90625 6.78125 20.515625 
Q 6.78125 27.484375 10.78125 32.3125 
Q 14.796875 37.15625 21.921875 38.8125 
z
M 18.3125 54.390625 
Q 18.3125 48.734375 21.84375 45.5625 
Q 25.390625 42.390625 31.78125 42.390625 
Q 38.140625 42.390625 41.71875 45.5625 
Q 45.3125 48.734375 45.3125 54.390625 
Q 45.3125 60.0625 41.71875 63.234375 
Q 38.140625 66.40625 31.78125 66.40625 
Q 25.390625 66.40625 21.84375 63.234375 
Q 18.3125 60.0625 18.3125 54.390625 
z
" id="DejaVuSans-56"/>
      </defs>
      <use xlink:href="#DejaVuSans-56"/>
      <use x="63.623047" xlink:href="#DejaVuSans-32"/>
      <use x="95.410156" xlink:href="#DejaVuSans-78"/>
      <use x="170.214844" xlink:href="#DejaVuSans-101"/>
      <use x="231.738281" xlink:href="#DejaVuSans-117"/>
      <use x="295.117188" xlink:href="#DejaVuSans-114"/>
      <use x="333.980469" xlink:href="#DejaVuSans-111"/>
      <use x="395.162109" xlink:href="#DejaVuSans-110"/>
      <use x="458.541016" xlink:href="#DejaVuSans-115"/>
     </g>
    </g>
   </g>
  </g>
 </g>
 <defs>
  <clipPath id="p53147cc044">
   <rect height="489.24" width="837" x="135" y="77.76"/>
  </clipPath>
 </defs>
</svg>
