<?xml version="1.0" encoding="utf-8" standalone="no"?>
<!DOCTYPE svg PUBLIC "-//W3C//DTD SVG 1.1//EN"
  "http://www.w3.org/Graphics/SVG/1.1/DTD/svg11.dtd">
<!-- Created with matplotlib (https://matplotlib.org/) -->
<svg height="648pt" version="1.1" viewBox="0 0 1080 648" width="1080pt" xmlns="http://www.w3.org/2000/svg" xmlns:xlink="http://www.w3.org/1999/xlink">
 <metadata>
  <rdf:RDF xmlns:cc="http://creativecommons.org/ns#" xmlns:dc="http://purl.org/dc/elements/1.1/" xmlns:rdf="http://www.w3.org/1999/02/22-rdf-syntax-ns#">
   <cc:Work>
    <dc:type rdf:resource="http://purl.org/dc/dcmitype/StillImage"/>
    <dc:date>2020-11-17T17:40:46.198210</dc:date>
    <dc:format>image/svg+xml</dc:format>
    <dc:creator>
     <cc:Agent>
      <dc:title>Matplotlib v3.3.2, https://matplotlib.org/</dc:title>
     </cc:Agent>
    </dc:creator>
   </cc:Work>
  </rdf:RDF>
 </metadata>
 <defs>
  <style type="text/css">*{stroke-linecap:butt;stroke-linejoin:round;}</style>
 </defs>
 <g id="figure_1">
  <g id="patch_1">
   <path d="M 0 648 
L 1080 648 
L 1080 0 
L 0 0 
z
" style="fill:none;"/>
  </g>
  <g id="axes_1">
   <g id="patch_2">
    <path d="M 135 567 
L 972 567 
L 972 77.76 
L 135 77.76 
z
" style="fill:#ffffff;"/>
   </g>
   <g id="PathCollection_1">
    <defs>
     <path d="M -3 3 
L 3 -3 
M -3 -3 
L 3 3 
" id="mebff33b203" style="stroke:#0000ff;stroke-width:1.5;"/>
    </defs>
    <g clip-path="url(#pb26e49217d)">
     <use style="fill:#0000ff;stroke:#0000ff;stroke-width:1.5;" x="175.171773" xlink:href="#mebff33b203" y="272.897822"/>
     <use style="fill:#0000ff;stroke:#0000ff;stroke-width:1.5;" x="173.045455" xlink:href="#mebff33b203" y="322.383892"/>
     <use style="fill:#0000ff;stroke:#0000ff;stroke-width:1.5;" x="185.539582" xlink:href="#mebff33b203" y="370.513433"/>
     <use style="fill:#0000ff;stroke:#0000ff;stroke-width:1.5;" x="211.7715" xlink:href="#mebff33b203" y="415.46347"/>
     <use style="fill:#0000ff;stroke:#0000ff;stroke-width:1.5;" x="250.3479" xlink:href="#mebff33b203" y="455.583929"/>
     <use style="fill:#0000ff;stroke:#0000ff;stroke-width:1.5;" x="299.428227" xlink:href="#mebff33b203" y="489.45824"/>
     <use style="fill:#0000ff;stroke:#0000ff;stroke-width:1.5;" x="356.8143" xlink:href="#mebff33b203" y="515.953366"/>
     <use style="fill:#0000ff;stroke:#0000ff;stroke-width:1.5;" x="486.499418" xlink:href="#mebff33b203" y="543.897309"/>
     <use style="fill:#0000ff;stroke:#0000ff;stroke-width:1.5;" x="553.505918" xlink:href="#mebff33b203" y="544.761818"/>
     <use style="fill:#0000ff;stroke:#0000ff;stroke-width:1.5;" x="618.4512" xlink:href="#mebff33b203" y="537.080194"/>
     <use style="fill:#0000ff;stroke:#0000ff;stroke-width:1.5;" x="678.878373" xlink:href="#mebff33b203" y="521.411727"/>
     <use style="fill:#0000ff;stroke:#0000ff;stroke-width:1.5;" x="732.581645" xlink:href="#mebff33b203" y="498.614255"/>
     <use style="fill:#0000ff;stroke:#0000ff;stroke-width:1.5;" x="777.689182" xlink:href="#mebff33b203" y="469.796907"/>
     <use style="fill:#0000ff;stroke:#0000ff;stroke-width:1.5;" x="812.723973" xlink:href="#mebff33b203" y="436.272848"/>
     <use style="fill:#0000ff;stroke:#0000ff;stroke-width:1.5;" x="836.650336" xlink:href="#mebff33b203" y="399.499791"/>
     <use style="fill:#0000ff;stroke:#0000ff;stroke-width:1.5;" x="848.906891" xlink:href="#mebff33b203" y="361.014949"/>
     <use style="fill:#0000ff;stroke:#0000ff;stroke-width:1.5;" x="849.409091" xlink:href="#mebff33b203" y="322.375552"/>
     <use style="fill:#0000ff;stroke:#0000ff;stroke-width:1.5;" x="838.539082" xlink:href="#mebff33b203" y="285.092129"/>
     <use style="fill:#0000ff;stroke:#0000ff;stroke-width:1.5;" x="817.1178" xlink:href="#mebff33b203" y="250.571243"/>
     <use style="fill:#0000ff;stroke:#0000ff;stroke-width:1.5;" x="786.355091" xlink:href="#mebff33b203" y="220.062681"/>
     <use style="fill:#0000ff;stroke:#0000ff;stroke-width:1.5;" x="359.211164" xlink:href="#mebff33b203" y="450.146694"/>
     <use style="fill:#0000ff;stroke:#0000ff;stroke-width:1.5;" x="747.788836" xlink:href="#mebff33b203" y="194.613306"/>
     <use style="fill:#0000ff;stroke:#0000ff;stroke-width:1.5;" x="403.785218" xlink:href="#mebff33b203" y="469.727413"/>
     <use style="fill:#0000ff;stroke:#0000ff;stroke-width:1.5;" x="703.214782" xlink:href="#mebff33b203" y="175.032587"/>
     <use style="fill:#0000ff;stroke:#0000ff;stroke-width:1.5;" x="654.6003" xlink:href="#mebff33b203" y="161.867583"/>
     <use style="fill:#0000ff;stroke:#0000ff;stroke-width:1.5;" x="604.006609" xlink:href="#mebff33b203" y="155.389601"/>
     <use style="fill:#0000ff;stroke:#0000ff;stroke-width:1.5;" x="553.493236" xlink:href="#mebff33b203" y="155.593636"/>
     <use style="fill:#0000ff;stroke:#0000ff;stroke-width:1.5;" x="505.042773" xlink:href="#mebff33b203" y="162.207272"/>
     <use style="fill:#0000ff;stroke:#0000ff;stroke-width:1.5;" x="460.475482" xlink:href="#mebff33b203" y="174.711801"/>
     <use style="fill:#0000ff;stroke:#0000ff;stroke-width:1.5;" x="421.389273" xlink:href="#mebff33b203" y="192.371697"/>
     <use style="fill:#0000ff;stroke:#0000ff;stroke-width:1.5;" x="389.092909" xlink:href="#mebff33b203" y="214.275195"/>
     <use style="fill:#0000ff;stroke:#0000ff;stroke-width:1.5;" x="364.573036" xlink:href="#mebff33b203" y="239.374318"/>
     <use style="fill:#0000ff;stroke:#0000ff;stroke-width:1.5;" x="348.459518" xlink:href="#mebff33b203" y="266.536034"/>
     <use style="fill:#0000ff;stroke:#0000ff;stroke-width:1.5;" x="341.0136" xlink:href="#mebff33b203" y="294.590612"/>
     <use style="fill:#0000ff;stroke:#0000ff;stroke-width:1.5;" x="342.136364" xlink:href="#mebff33b203" y="322.383892"/>
     <use style="fill:#0000ff;stroke:#0000ff;stroke-width:1.5;" x="755.618591" xlink:href="#mebff33b203" y="295.938802"/>
     <use style="fill:#0000ff;stroke:#0000ff;stroke-width:1.5;" x="351.381409" xlink:href="#mebff33b203" y="348.821198"/>
     <use style="fill:#0000ff;stroke:#0000ff;stroke-width:1.5;" x="367.991209" xlink:href="#mebff33b203" y="372.912932"/>
     <use style="fill:#0000ff;stroke:#0000ff;stroke-width:1.5;" x="390.941918" xlink:href="#mebff33b203" y="393.810152"/>
     <use style="fill:#0000ff;stroke:#0000ff;stroke-width:1.5;" x="418.993255" xlink:href="#mebff33b203" y="410.834592"/>
     <use style="fill:#0000ff;stroke:#0000ff;stroke-width:1.5;" x="450.756136" xlink:href="#mebff33b203" y="423.50146"/>
     <use style="fill:#0000ff;stroke:#0000ff;stroke-width:1.5;" x="484.752709" xlink:href="#mebff33b203" y="431.528888"/>
     <use style="fill:#0000ff;stroke:#0000ff;stroke-width:1.5;" x="519.486518" xlink:href="#mebff33b203" y="434.842933"/>
     <use style="fill:#0000ff;stroke:#0000ff;stroke-width:1.5;" x="585.462409" xlink:href="#mebff33b203" y="428.025818"/>
     <use style="fill:#0000ff;stroke:#0000ff;stroke-width:1.5;" x="614.168973" xlink:href="#mebff33b203" y="418.685226"/>
     <use style="fill:#0000ff;stroke:#0000ff;stroke-width:1.5;" x="638.638964" xlink:href="#mebff33b203" y="406.16235"/>
     <use style="fill:#0000ff;stroke:#0000ff;stroke-width:1.5;" x="658.123309" xlink:href="#mebff33b203" y="391.173259"/>
     <use style="fill:#0000ff;stroke:#0000ff;stroke-width:1.5;" x="672.129109" xlink:href="#mebff33b203" y="374.499627"/>
     <use style="fill:#0000ff;stroke:#0000ff;stroke-width:1.5;" x="680.430627" xlink:href="#mebff33b203" y="356.94981"/>
     <use style="fill:#0000ff;stroke:#0000ff;stroke-width:1.5;" x="683.065064" xlink:href="#mebff33b203" y="339.323827"/>
     <use style="fill:#0000ff;stroke:#0000ff;stroke-width:1.5;" x="680.318182" xlink:href="#mebff33b203" y="322.376664"/>
     <use style="fill:#0000ff;stroke:#0000ff;stroke-width:1.5;" x="672.6981" xlink:href="#mebff33b203" y="306.786031"/>
     <use style="fill:#0000ff;stroke:#0000ff;stroke-width:1.5;" x="660.898936" xlink:href="#mebff33b203" y="293.123448"/>
     <use style="fill:#0000ff;stroke:#0000ff;stroke-width:1.5;" x="645.762764" xlink:href="#mebff33b203" y="281.838127"/>
     <use style="fill:#0000ff;stroke:#0000ff;stroke-width:1.5;" x="628.2255" xlink:href="#mebff33b203" y="273.238066"/>
     <use style="fill:#0000ff;stroke:#0000ff;stroke-width:1.5;" x="609.274636" xlink:href="#mebff33b203" y="267.485048"/>
     <use style="fill:#0000ff;stroke:#0000ff;stroke-width:1.5;" x="589.895127" xlink:href="#mebff33b203" y="264.595196"/>
     <use style="fill:#0000ff;stroke:#0000ff;stroke-width:1.5;" x="571.0212" xlink:href="#mebff33b203" y="264.444533"/>
     <use style="fill:#0000ff;stroke:#0000ff;stroke-width:1.5;" x="553.496618" xlink:href="#mebff33b203" y="266.784545"/>
     <use style="fill:#0000ff;stroke:#0000ff;stroke-width:1.5;" x="538.0341" xlink:href="#mebff33b203" y="271.261091"/>
     <use style="fill:#0000ff;stroke:#0000ff;stroke-width:1.5;" x="525.187418" xlink:href="#mebff33b203" y="277.437746"/>
     <use style="fill:#0000ff;stroke:#0000ff;stroke-width:1.5;" x="515.333645" xlink:href="#mebff33b203" y="284.822491"/>
     <use style="fill:#0000ff;stroke:#0000ff;stroke-width:1.5;" x="508.661318" xlink:href="#mebff33b203" y="292.897175"/>
     <use style="fill:#0000ff;stroke:#0000ff;stroke-width:1.5;" x="505.169591" xlink:href="#mebff33b203" y="301.146428"/>
     <use style="fill:#0000ff;stroke:#0000ff;stroke-width:1.5;" x="504.680073" xlink:href="#mebff33b203" y="309.084347"/>
     <use style="fill:#0000ff;stroke:#0000ff;stroke-width:1.5;" x="506.856273" xlink:href="#mebff33b203" y="316.280623"/>
     <use style="fill:#0000ff;stroke:#0000ff;stroke-width:1.5;" x="595.772727" xlink:href="#mebff33b203" y="322.378888"/>
     <use style="fill:#0000ff;stroke:#0000ff;stroke-width:1.5;" x="511.227273" xlink:href="#mebff33b203" y="322.381112"/>
    </g>
   </g>
   <g id="PathCollection_2">
    <defs>
     <path d="M 0 3 
C 0.795609 3 1.55874 2.683901 2.12132 2.12132 
C 2.683901 1.55874 3 0.795609 3 0 
C 3 -0.795609 2.683901 -1.55874 2.12132 -2.12132 
C 1.55874 -2.683901 0.795609 -3 0 -3 
C -0.795609 -3 -1.55874 -2.683901 -2.12132 -2.12132 
C -2.683901 -1.55874 -3 -0.795609 -3 0 
C -3 0.795609 -2.683901 1.55874 -2.12132 2.12132 
C -1.55874 2.683901 -0.795609 3 0 3 
z
" id="m6f31e629b9" style="stroke:#ff0000;"/>
    </defs>
    <g clip-path="url(#pb26e49217d)">
     <use style="fill:#ff0000;stroke:#ff0000;" x="931.828227" xlink:href="#m6f31e629b9" y="371.862178"/>
     <use style="fill:#ff0000;stroke:#ff0000;" x="933.954545" xlink:href="#m6f31e629b9" y="322.376108"/>
     <use style="fill:#ff0000;stroke:#ff0000;" x="921.460418" xlink:href="#m6f31e629b9" y="274.246567"/>
     <use style="fill:#ff0000;stroke:#ff0000;" x="895.2285" xlink:href="#m6f31e629b9" y="229.29653"/>
     <use style="fill:#ff0000;stroke:#ff0000;" x="856.6521" xlink:href="#m6f31e629b9" y="189.176071"/>
     <use style="fill:#ff0000;stroke:#ff0000;" x="807.571773" xlink:href="#m6f31e629b9" y="155.30176"/>
     <use style="fill:#ff0000;stroke:#ff0000;" x="750.1857" xlink:href="#m6f31e629b9" y="128.806634"/>
     <use style="fill:#ff0000;stroke:#ff0000;" x="686.955" xlink:href="#m6f31e629b9" y="110.504055"/>
     <use style="fill:#ff0000;stroke:#ff0000;" x="420.045" xlink:href="#m6f31e629b9" y="534.255945"/>
     <use style="fill:#ff0000;stroke:#ff0000;" x="620.500582" xlink:href="#m6f31e629b9" y="100.862691"/>
     <use style="fill:#ff0000;stroke:#ff0000;" x="553.494082" xlink:href="#m6f31e629b9" y="99.998182"/>
     <use style="fill:#ff0000;stroke:#ff0000;" x="488.5488" xlink:href="#m6f31e629b9" y="107.679806"/>
     <use style="fill:#ff0000;stroke:#ff0000;" x="428.121627" xlink:href="#m6f31e629b9" y="123.348273"/>
     <use style="fill:#ff0000;stroke:#ff0000;" x="374.418355" xlink:href="#m6f31e629b9" y="146.145745"/>
     <use style="fill:#ff0000;stroke:#ff0000;" x="329.310818" xlink:href="#m6f31e629b9" y="174.963093"/>
     <use style="fill:#ff0000;stroke:#ff0000;" x="294.276027" xlink:href="#m6f31e629b9" y="208.487152"/>
     <use style="fill:#ff0000;stroke:#ff0000;" x="270.349664" xlink:href="#m6f31e629b9" y="245.260209"/>
     <use style="fill:#ff0000;stroke:#ff0000;" x="258.093109" xlink:href="#m6f31e629b9" y="283.745051"/>
     <use style="fill:#ff0000;stroke:#ff0000;" x="257.590909" xlink:href="#m6f31e629b9" y="322.384448"/>
     <use style="fill:#ff0000;stroke:#ff0000;" x="268.460918" xlink:href="#m6f31e629b9" y="359.667871"/>
     <use style="fill:#ff0000;stroke:#ff0000;" x="289.8822" xlink:href="#m6f31e629b9" y="394.188757"/>
     <use style="fill:#ff0000;stroke:#ff0000;" x="320.644909" xlink:href="#m6f31e629b9" y="424.697319"/>
     <use style="fill:#ff0000;stroke:#ff0000;" x="452.3997" xlink:href="#m6f31e629b9" y="482.892417"/>
     <use style="fill:#ff0000;stroke:#ff0000;" x="502.993391" xlink:href="#m6f31e629b9" y="489.370399"/>
     <use style="fill:#ff0000;stroke:#ff0000;" x="553.506764" xlink:href="#m6f31e629b9" y="489.166364"/>
     <use style="fill:#ff0000;stroke:#ff0000;" x="601.957227" xlink:href="#m6f31e629b9" y="482.552728"/>
     <use style="fill:#ff0000;stroke:#ff0000;" x="646.524518" xlink:href="#m6f31e629b9" y="470.048199"/>
     <use style="fill:#ff0000;stroke:#ff0000;" x="685.610727" xlink:href="#m6f31e629b9" y="452.388303"/>
     <use style="fill:#ff0000;stroke:#ff0000;" x="717.907091" xlink:href="#m6f31e629b9" y="430.484805"/>
     <use style="fill:#ff0000;stroke:#ff0000;" x="742.426964" xlink:href="#m6f31e629b9" y="405.385682"/>
     <use style="fill:#ff0000;stroke:#ff0000;" x="758.540482" xlink:href="#m6f31e629b9" y="378.223966"/>
     <use style="fill:#ff0000;stroke:#ff0000;" x="765.9864" xlink:href="#m6f31e629b9" y="350.169388"/>
     <use style="fill:#ff0000;stroke:#ff0000;" x="764.863636" xlink:href="#m6f31e629b9" y="322.376108"/>
     <use style="fill:#ff0000;stroke:#ff0000;" x="739.008791" xlink:href="#m6f31e629b9" y="271.847068"/>
     <use style="fill:#ff0000;stroke:#ff0000;" x="716.058082" xlink:href="#m6f31e629b9" y="250.949848"/>
     <use style="fill:#ff0000;stroke:#ff0000;" x="688.006745" xlink:href="#m6f31e629b9" y="233.925408"/>
     <use style="fill:#ff0000;stroke:#ff0000;" x="656.243864" xlink:href="#m6f31e629b9" y="221.25854"/>
     <use style="fill:#ff0000;stroke:#ff0000;" x="622.247291" xlink:href="#m6f31e629b9" y="213.231112"/>
     <use style="fill:#ff0000;stroke:#ff0000;" x="587.513482" xlink:href="#m6f31e629b9" y="209.917067"/>
     <use style="fill:#ff0000;stroke:#ff0000;" x="553.494082" xlink:href="#m6f31e629b9" y="211.189091"/>
     <use style="fill:#ff0000;stroke:#ff0000;" x="553.505918" xlink:href="#m6f31e629b9" y="433.570909"/>
     <use style="fill:#ff0000;stroke:#ff0000;" x="521.537591" xlink:href="#m6f31e629b9" y="216.734182"/>
     <use style="fill:#ff0000;stroke:#ff0000;" x="492.831027" xlink:href="#m6f31e629b9" y="226.074774"/>
     <use style="fill:#ff0000;stroke:#ff0000;" x="468.361036" xlink:href="#m6f31e629b9" y="238.59765"/>
     <use style="fill:#ff0000;stroke:#ff0000;" x="448.876691" xlink:href="#m6f31e629b9" y="253.586741"/>
     <use style="fill:#ff0000;stroke:#ff0000;" x="434.870891" xlink:href="#m6f31e629b9" y="270.260373"/>
     <use style="fill:#ff0000;stroke:#ff0000;" x="426.569373" xlink:href="#m6f31e629b9" y="287.81019"/>
     <use style="fill:#ff0000;stroke:#ff0000;" x="423.934936" xlink:href="#m6f31e629b9" y="305.436173"/>
     <use style="fill:#ff0000;stroke:#ff0000;" x="426.681818" xlink:href="#m6f31e629b9" y="322.383336"/>
     <use style="fill:#ff0000;stroke:#ff0000;" x="434.3019" xlink:href="#m6f31e629b9" y="337.973969"/>
     <use style="fill:#ff0000;stroke:#ff0000;" x="446.101064" xlink:href="#m6f31e629b9" y="351.636552"/>
     <use style="fill:#ff0000;stroke:#ff0000;" x="461.237236" xlink:href="#m6f31e629b9" y="362.921873"/>
     <use style="fill:#ff0000;stroke:#ff0000;" x="478.7745" xlink:href="#m6f31e629b9" y="371.521934"/>
     <use style="fill:#ff0000;stroke:#ff0000;" x="497.725364" xlink:href="#m6f31e629b9" y="377.274952"/>
     <use style="fill:#ff0000;stroke:#ff0000;" x="517.104873" xlink:href="#m6f31e629b9" y="380.164804"/>
     <use style="fill:#ff0000;stroke:#ff0000;" x="535.9788" xlink:href="#m6f31e629b9" y="380.315467"/>
     <use style="fill:#ff0000;stroke:#ff0000;" x="553.503382" xlink:href="#m6f31e629b9" y="377.975455"/>
     <use style="fill:#ff0000;stroke:#ff0000;" x="568.9659" xlink:href="#m6f31e629b9" y="373.498909"/>
     <use style="fill:#ff0000;stroke:#ff0000;" x="581.812582" xlink:href="#m6f31e629b9" y="367.322254"/>
     <use style="fill:#ff0000;stroke:#ff0000;" x="591.666355" xlink:href="#m6f31e629b9" y="359.937509"/>
     <use style="fill:#ff0000;stroke:#ff0000;" x="598.338682" xlink:href="#m6f31e629b9" y="351.862825"/>
     <use style="fill:#ff0000;stroke:#ff0000;" x="601.830409" xlink:href="#m6f31e629b9" y="343.613572"/>
     <use style="fill:#ff0000;stroke:#ff0000;" x="602.319927" xlink:href="#m6f31e629b9" y="335.675653"/>
     <use style="fill:#ff0000;stroke:#ff0000;" x="600.143727" xlink:href="#m6f31e629b9" y="328.479377"/>
    </g>
   </g>
   <g id="matplotlib.axis_1">
    <g id="xtick_1">
     <g id="line2d_1">
      <defs>
       <path d="M 0 0 
L 0 3.5 
" id="m27e7124ea4" style="stroke:#000000;stroke-width:0.8;"/>
      </defs>
      <g>
       <use style="stroke:#000000;stroke-width:0.8;" x="215.318182" xlink:href="#m27e7124ea4" y="567"/>
      </g>
     </g>
     <g id="text_1">
      <!-- −4 -->
      <g transform="translate(207.947088 581.598438)scale(0.1 -0.1)">
       <defs>
        <path d="M 10.59375 35.5 
L 73.1875 35.5 
L 73.1875 27.203125 
L 10.59375 27.203125 
z
" id="DejaVuSans-8722"/>
        <path d="M 37.796875 64.3125 
L 12.890625 25.390625 
L 37.796875 25.390625 
z
M 35.203125 72.90625 
L 47.609375 72.90625 
L 47.609375 25.390625 
L 58.015625 25.390625 
L 58.015625 17.1875 
L 47.609375 17.1875 
L 47.609375 0 
L 37.796875 0 
L 37.796875 17.1875 
L 4.890625 17.1875 
L 4.890625 26.703125 
z
" id="DejaVuSans-52"/>
       </defs>
       <use xlink:href="#DejaVuSans-8722"/>
       <use x="83.789062" xlink:href="#DejaVuSans-52"/>
      </g>
     </g>
    </g>
    <g id="xtick_2">
     <g id="line2d_2">
      <g>
       <use style="stroke:#000000;stroke-width:0.8;" x="384.409091" xlink:href="#m27e7124ea4" y="567"/>
      </g>
     </g>
     <g id="text_2">
      <!-- −2 -->
      <g transform="translate(377.037997 581.598438)scale(0.1 -0.1)">
       <defs>
        <path d="M 19.1875 8.296875 
L 53.609375 8.296875 
L 53.609375 0 
L 7.328125 0 
L 7.328125 8.296875 
Q 12.9375 14.109375 22.625 23.890625 
Q 32.328125 33.6875 34.8125 36.53125 
Q 39.546875 41.84375 41.421875 45.53125 
Q 43.3125 49.21875 43.3125 52.78125 
Q 43.3125 58.59375 39.234375 62.25 
Q 35.15625 65.921875 28.609375 65.921875 
Q 23.96875 65.921875 18.8125 64.3125 
Q 13.671875 62.703125 7.8125 59.421875 
L 7.8125 69.390625 
Q 13.765625 71.78125 18.9375 73 
Q 24.125 74.21875 28.421875 74.21875 
Q 39.75 74.21875 46.484375 68.546875 
Q 53.21875 62.890625 53.21875 53.421875 
Q 53.21875 48.921875 51.53125 44.890625 
Q 49.859375 40.875 45.40625 35.40625 
Q 44.1875 33.984375 37.640625 27.21875 
Q 31.109375 20.453125 19.1875 8.296875 
z
" id="DejaVuSans-50"/>
       </defs>
       <use xlink:href="#DejaVuSans-8722"/>
       <use x="83.789062" xlink:href="#DejaVuSans-50"/>
      </g>
     </g>
    </g>
    <g id="xtick_3">
     <g id="line2d_3">
      <g>
       <use style="stroke:#000000;stroke-width:0.8;" x="553.5" xlink:href="#m27e7124ea4" y="567"/>
      </g>
     </g>
     <g id="text_3">
      <!-- 0 -->
      <g transform="translate(550.31875 581.598438)scale(0.1 -0.1)">
       <defs>
        <path d="M 31.78125 66.40625 
Q 24.171875 66.40625 20.328125 58.90625 
Q 16.5 51.421875 16.5 36.375 
Q 16.5 21.390625 20.328125 13.890625 
Q 24.171875 6.390625 31.78125 6.390625 
Q 39.453125 6.390625 43.28125 13.890625 
Q 47.125 21.390625 47.125 36.375 
Q 47.125 51.421875 43.28125 58.90625 
Q 39.453125 66.40625 31.78125 66.40625 
z
M 31.78125 74.21875 
Q 44.046875 74.21875 50.515625 64.515625 
Q 56.984375 54.828125 56.984375 36.375 
Q 56.984375 17.96875 50.515625 8.265625 
Q 44.046875 -1.421875 31.78125 -1.421875 
Q 19.53125 -1.421875 13.0625 8.265625 
Q 6.59375 17.96875 6.59375 36.375 
Q 6.59375 54.828125 13.0625 64.515625 
Q 19.53125 74.21875 31.78125 74.21875 
z
" id="DejaVuSans-48"/>
       </defs>
       <use xlink:href="#DejaVuSans-48"/>
      </g>
     </g>
    </g>
    <g id="xtick_4">
     <g id="line2d_4">
      <g>
       <use style="stroke:#000000;stroke-width:0.8;" x="722.590909" xlink:href="#m27e7124ea4" y="567"/>
      </g>
     </g>
     <g id="text_4">
      <!-- 2 -->
      <g transform="translate(719.409659 581.598438)scale(0.1 -0.1)">
       <use xlink:href="#DejaVuSans-50"/>
      </g>
     </g>
    </g>
    <g id="xtick_5">
     <g id="line2d_5">
      <g>
       <use style="stroke:#000000;stroke-width:0.8;" x="891.681818" xlink:href="#m27e7124ea4" y="567"/>
      </g>
     </g>
     <g id="text_5">
      <!-- 4 -->
      <g transform="translate(888.500568 581.598438)scale(0.1 -0.1)">
       <use xlink:href="#DejaVuSans-52"/>
      </g>
     </g>
    </g>
    <g id="text_6">
     <!-- X-coords -->
     <g transform="translate(499.515625 606.674219)scale(0.25 -0.25)">
      <defs>
       <path d="M 6.296875 72.90625 
L 16.890625 72.90625 
L 35.015625 45.796875 
L 53.21875 72.90625 
L 63.8125 72.90625 
L 40.375 37.890625 
L 65.375 0 
L 54.78125 0 
L 34.28125 31 
L 13.625 0 
L 2.984375 0 
L 29 38.921875 
z
" id="DejaVuSans-88"/>
       <path d="M 4.890625 31.390625 
L 31.203125 31.390625 
L 31.203125 23.390625 
L 4.890625 23.390625 
z
" id="DejaVuSans-45"/>
       <path d="M 48.78125 52.59375 
L 48.78125 44.1875 
Q 44.96875 46.296875 41.140625 47.34375 
Q 37.3125 48.390625 33.40625 48.390625 
Q 24.65625 48.390625 19.8125 42.84375 
Q 14.984375 37.3125 14.984375 27.296875 
Q 14.984375 17.28125 19.8125 11.734375 
Q 24.65625 6.203125 33.40625 6.203125 
Q 37.3125 6.203125 41.140625 7.25 
Q 44.96875 8.296875 48.78125 10.40625 
L 48.78125 2.09375 
Q 45.015625 0.34375 40.984375 -0.53125 
Q 36.96875 -1.421875 32.421875 -1.421875 
Q 20.0625 -1.421875 12.78125 6.34375 
Q 5.515625 14.109375 5.515625 27.296875 
Q 5.515625 40.671875 12.859375 48.328125 
Q 20.21875 56 33.015625 56 
Q 37.15625 56 41.109375 55.140625 
Q 45.0625 54.296875 48.78125 52.59375 
z
" id="DejaVuSans-99"/>
       <path d="M 30.609375 48.390625 
Q 23.390625 48.390625 19.1875 42.75 
Q 14.984375 37.109375 14.984375 27.296875 
Q 14.984375 17.484375 19.15625 11.84375 
Q 23.34375 6.203125 30.609375 6.203125 
Q 37.796875 6.203125 41.984375 11.859375 
Q 46.1875 17.53125 46.1875 27.296875 
Q 46.1875 37.015625 41.984375 42.703125 
Q 37.796875 48.390625 30.609375 48.390625 
z
M 30.609375 56 
Q 42.328125 56 49.015625 48.375 
Q 55.71875 40.765625 55.71875 27.296875 
Q 55.71875 13.875 49.015625 6.21875 
Q 42.328125 -1.421875 30.609375 -1.421875 
Q 18.84375 -1.421875 12.171875 6.21875 
Q 5.515625 13.875 5.515625 27.296875 
Q 5.515625 40.765625 12.171875 48.375 
Q 18.84375 56 30.609375 56 
z
" id="DejaVuSans-111"/>
       <path d="M 41.109375 46.296875 
Q 39.59375 47.171875 37.8125 47.578125 
Q 36.03125 48 33.890625 48 
Q 26.265625 48 22.1875 43.046875 
Q 18.109375 38.09375 18.109375 28.8125 
L 18.109375 0 
L 9.078125 0 
L 9.078125 54.6875 
L 18.109375 54.6875 
L 18.109375 46.1875 
Q 20.953125 51.171875 25.484375 53.578125 
Q 30.03125 56 36.53125 56 
Q 37.453125 56 38.578125 55.875 
Q 39.703125 55.765625 41.0625 55.515625 
z
" id="DejaVuSans-114"/>
       <path d="M 45.40625 46.390625 
L 45.40625 75.984375 
L 54.390625 75.984375 
L 54.390625 0 
L 45.40625 0 
L 45.40625 8.203125 
Q 42.578125 3.328125 38.25 0.953125 
Q 33.9375 -1.421875 27.875 -1.421875 
Q 17.96875 -1.421875 11.734375 6.484375 
Q 5.515625 14.40625 5.515625 27.296875 
Q 5.515625 40.1875 11.734375 48.09375 
Q 17.96875 56 27.875 56 
Q 33.9375 56 38.25 53.625 
Q 42.578125 51.265625 45.40625 46.390625 
z
M 14.796875 27.296875 
Q 14.796875 17.390625 18.875 11.75 
Q 22.953125 6.109375 30.078125 6.109375 
Q 37.203125 6.109375 41.296875 11.75 
Q 45.40625 17.390625 45.40625 27.296875 
Q 45.40625 37.203125 41.296875 42.84375 
Q 37.203125 48.484375 30.078125 48.484375 
Q 22.953125 48.484375 18.875 42.84375 
Q 14.796875 37.203125 14.796875 27.296875 
z
" id="DejaVuSans-100"/>
       <path d="M 44.28125 53.078125 
L 44.28125 44.578125 
Q 40.484375 46.53125 36.375 47.5 
Q 32.28125 48.484375 27.875 48.484375 
Q 21.1875 48.484375 17.84375 46.4375 
Q 14.5 44.390625 14.5 40.28125 
Q 14.5 37.15625 16.890625 35.375 
Q 19.28125 33.59375 26.515625 31.984375 
L 29.59375 31.296875 
Q 39.15625 29.25 43.1875 25.515625 
Q 47.21875 21.78125 47.21875 15.09375 
Q 47.21875 7.46875 41.1875 3.015625 
Q 35.15625 -1.421875 24.609375 -1.421875 
Q 20.21875 -1.421875 15.453125 -0.5625 
Q 10.6875 0.296875 5.421875 2 
L 5.421875 11.28125 
Q 10.40625 8.6875 15.234375 7.390625 
Q 20.0625 6.109375 24.8125 6.109375 
Q 31.15625 6.109375 34.5625 8.28125 
Q 37.984375 10.453125 37.984375 14.40625 
Q 37.984375 18.0625 35.515625 20.015625 
Q 33.0625 21.96875 24.703125 23.78125 
L 21.578125 24.515625 
Q 13.234375 26.265625 9.515625 29.90625 
Q 5.8125 33.546875 5.8125 39.890625 
Q 5.8125 47.609375 11.28125 51.796875 
Q 16.75 56 26.8125 56 
Q 31.78125 56 36.171875 55.265625 
Q 40.578125 54.546875 44.28125 53.078125 
z
" id="DejaVuSans-115"/>
      </defs>
      <use xlink:href="#DejaVuSans-88"/>
      <use x="63.505859" xlink:href="#DejaVuSans-45"/>
      <use x="99.589844" xlink:href="#DejaVuSans-99"/>
      <use x="154.570312" xlink:href="#DejaVuSans-111"/>
      <use x="215.751953" xlink:href="#DejaVuSans-111"/>
      <use x="276.933594" xlink:href="#DejaVuSans-114"/>
      <use x="316.296875" xlink:href="#DejaVuSans-100"/>
      <use x="379.773438" xlink:href="#DejaVuSans-115"/>
     </g>
    </g>
   </g>
   <g id="matplotlib.axis_2">
    <g id="ytick_1">
     <g id="line2d_6">
      <defs>
       <path d="M 0 0 
L -3.5 0 
" id="mb5c1c13577" style="stroke:#000000;stroke-width:0.8;"/>
      </defs>
      <g>
       <use style="stroke:#000000;stroke-width:0.8;" x="135" xlink:href="#mb5c1c13577" y="544.761818"/>
      </g>
     </g>
     <g id="text_7">
      <!-- −4 -->
      <g transform="translate(113.257812 548.561037)scale(0.1 -0.1)">
       <use xlink:href="#DejaVuSans-8722"/>
       <use x="83.789062" xlink:href="#DejaVuSans-52"/>
      </g>
     </g>
    </g>
    <g id="ytick_2">
     <g id="line2d_7">
      <g>
       <use style="stroke:#000000;stroke-width:0.8;" x="135" xlink:href="#mb5c1c13577" y="489.166364"/>
      </g>
     </g>
     <g id="text_8">
      <!-- −3 -->
      <g transform="translate(113.257812 492.965582)scale(0.1 -0.1)">
       <defs>
        <path d="M 40.578125 39.3125 
Q 47.65625 37.796875 51.625 33 
Q 55.609375 28.21875 55.609375 21.1875 
Q 55.609375 10.40625 48.1875 4.484375 
Q 40.765625 -1.421875 27.09375 -1.421875 
Q 22.515625 -1.421875 17.65625 -0.515625 
Q 12.796875 0.390625 7.625 2.203125 
L 7.625 11.71875 
Q 11.71875 9.328125 16.59375 8.109375 
Q 21.484375 6.890625 26.8125 6.890625 
Q 36.078125 6.890625 40.9375 10.546875 
Q 45.796875 14.203125 45.796875 21.1875 
Q 45.796875 27.640625 41.28125 31.265625 
Q 36.765625 34.90625 28.71875 34.90625 
L 20.21875 34.90625 
L 20.21875 43.015625 
L 29.109375 43.015625 
Q 36.375 43.015625 40.234375 45.921875 
Q 44.09375 48.828125 44.09375 54.296875 
Q 44.09375 59.90625 40.109375 62.90625 
Q 36.140625 65.921875 28.71875 65.921875 
Q 24.65625 65.921875 20.015625 65.03125 
Q 15.375 64.15625 9.8125 62.3125 
L 9.8125 71.09375 
Q 15.4375 72.65625 20.34375 73.4375 
Q 25.25 74.21875 29.59375 74.21875 
Q 40.828125 74.21875 47.359375 69.109375 
Q 53.90625 64.015625 53.90625 55.328125 
Q 53.90625 49.265625 50.4375 45.09375 
Q 46.96875 40.921875 40.578125 39.3125 
z
" id="DejaVuSans-51"/>
       </defs>
       <use xlink:href="#DejaVuSans-8722"/>
       <use x="83.789062" xlink:href="#DejaVuSans-51"/>
      </g>
     </g>
    </g>
    <g id="ytick_3">
     <g id="line2d_8">
      <g>
       <use style="stroke:#000000;stroke-width:0.8;" x="135" xlink:href="#mb5c1c13577" y="433.570909"/>
      </g>
     </g>
     <g id="text_9">
      <!-- −2 -->
      <g transform="translate(113.257812 437.370128)scale(0.1 -0.1)">
       <use xlink:href="#DejaVuSans-8722"/>
       <use x="83.789062" xlink:href="#DejaVuSans-50"/>
      </g>
     </g>
    </g>
    <g id="ytick_4">
     <g id="line2d_9">
      <g>
       <use style="stroke:#000000;stroke-width:0.8;" x="135" xlink:href="#mb5c1c13577" y="377.975455"/>
      </g>
     </g>
     <g id="text_10">
      <!-- −1 -->
      <g transform="translate(113.257812 381.774673)scale(0.1 -0.1)">
       <defs>
        <path d="M 12.40625 8.296875 
L 28.515625 8.296875 
L 28.515625 63.921875 
L 10.984375 60.40625 
L 10.984375 69.390625 
L 28.421875 72.90625 
L 38.28125 72.90625 
L 38.28125 8.296875 
L 54.390625 8.296875 
L 54.390625 0 
L 12.40625 0 
z
" id="DejaVuSans-49"/>
       </defs>
       <use xlink:href="#DejaVuSans-8722"/>
       <use x="83.789062" xlink:href="#DejaVuSans-49"/>
      </g>
     </g>
    </g>
    <g id="ytick_5">
     <g id="line2d_10">
      <g>
       <use style="stroke:#000000;stroke-width:0.8;" x="135" xlink:href="#mb5c1c13577" y="322.38"/>
      </g>
     </g>
     <g id="text_11">
      <!-- 0 -->
      <g transform="translate(121.6375 326.179219)scale(0.1 -0.1)">
       <use xlink:href="#DejaVuSans-48"/>
      </g>
     </g>
    </g>
    <g id="ytick_6">
     <g id="line2d_11">
      <g>
       <use style="stroke:#000000;stroke-width:0.8;" x="135" xlink:href="#mb5c1c13577" y="266.784545"/>
      </g>
     </g>
     <g id="text_12">
      <!-- 1 -->
      <g transform="translate(121.6375 270.583764)scale(0.1 -0.1)">
       <use xlink:href="#DejaVuSans-49"/>
      </g>
     </g>
    </g>
    <g id="ytick_7">
     <g id="line2d_12">
      <g>
       <use style="stroke:#000000;stroke-width:0.8;" x="135" xlink:href="#mb5c1c13577" y="211.189091"/>
      </g>
     </g>
     <g id="text_13">
      <!-- 2 -->
      <g transform="translate(121.6375 214.98831)scale(0.1 -0.1)">
       <use xlink:href="#DejaVuSans-50"/>
      </g>
     </g>
    </g>
    <g id="ytick_8">
     <g id="line2d_13">
      <g>
       <use style="stroke:#000000;stroke-width:0.8;" x="135" xlink:href="#mb5c1c13577" y="155.593636"/>
      </g>
     </g>
     <g id="text_14">
      <!-- 3 -->
      <g transform="translate(121.6375 159.392855)scale(0.1 -0.1)">
       <use xlink:href="#DejaVuSans-51"/>
      </g>
     </g>
    </g>
    <g id="ytick_9">
     <g id="line2d_14">
      <g>
       <use style="stroke:#000000;stroke-width:0.8;" x="135" xlink:href="#mb5c1c13577" y="99.998182"/>
      </g>
     </g>
     <g id="text_15">
      <!-- 4 -->
      <g transform="translate(121.6375 103.797401)scale(0.1 -0.1)">
       <use xlink:href="#DejaVuSans-52"/>
      </g>
     </g>
    </g>
    <g id="text_16">
     <!-- Y-coords -->
     <g transform="translate(104.058594 374.577266)rotate(-90)scale(0.25 -0.25)">
      <defs>
       <path d="M -0.203125 72.90625 
L 10.40625 72.90625 
L 30.609375 42.921875 
L 50.6875 72.90625 
L 61.28125 72.90625 
L 35.5 34.71875 
L 35.5 0 
L 25.59375 0 
L 25.59375 34.71875 
z
" id="DejaVuSans-89"/>
      </defs>
      <use xlink:href="#DejaVuSans-89"/>
      <use x="49.208984" xlink:href="#DejaVuSans-45"/>
      <use x="85.292969" xlink:href="#DejaVuSans-99"/>
      <use x="140.273438" xlink:href="#DejaVuSans-111"/>
      <use x="201.455078" xlink:href="#DejaVuSans-111"/>
      <use x="262.636719" xlink:href="#DejaVuSans-114"/>
      <use x="302" xlink:href="#DejaVuSans-100"/>
      <use x="365.476562" xlink:href="#DejaVuSans-115"/>
     </g>
    </g>
   </g>
   <g id="patch_3">
    <path d="M 135 567 
L 135 77.76 
" style="fill:none;stroke:#000000;stroke-linecap:square;stroke-linejoin:miter;stroke-width:0.8;"/>
   </g>
   <g id="patch_4">
    <path d="M 972 567 
L 972 77.76 
" style="fill:none;stroke:#000000;stroke-linecap:square;stroke-linejoin:miter;stroke-width:0.8;"/>
   </g>
   <g id="patch_5">
    <path d="M 135 567 
L 972 567 
" style="fill:none;stroke:#000000;stroke-linecap:square;stroke-linejoin:miter;stroke-width:0.8;"/>
   </g>
   <g id="patch_6">
    <path d="M 135 77.76 
L 972 77.76 
" style="fill:none;stroke:#000000;stroke-linecap:square;stroke-linejoin:miter;stroke-width:0.8;"/>
   </g>
   <g id="text_17">
    <!-- Plotting the predictions from the best NN structure -->
    <g transform="translate(236.113281 71.76)scale(0.25 -0.25)">
     <defs>
      <path d="M 19.671875 64.796875 
L 19.671875 37.40625 
L 32.078125 37.40625 
Q 38.96875 37.40625 42.71875 40.96875 
Q 46.484375 44.53125 46.484375 51.125 
Q 46.484375 57.671875 42.71875 61.234375 
Q 38.96875 64.796875 32.078125 64.796875 
z
M 9.8125 72.90625 
L 32.078125 72.90625 
Q 44.34375 72.90625 50.609375 67.359375 
Q 56.890625 61.8125 56.890625 51.125 
Q 56.890625 40.328125 50.609375 34.8125 
Q 44.34375 29.296875 32.078125 29.296875 
L 19.671875 29.296875 
L 19.671875 0 
L 9.8125 0 
z
" id="DejaVuSans-80"/>
      <path d="M 9.421875 75.984375 
L 18.40625 75.984375 
L 18.40625 0 
L 9.421875 0 
z
" id="DejaVuSans-108"/>
      <path d="M 18.3125 70.21875 
L 18.3125 54.6875 
L 36.8125 54.6875 
L 36.8125 47.703125 
L 18.3125 47.703125 
L 18.3125 18.015625 
Q 18.3125 11.328125 20.140625 9.421875 
Q 21.96875 7.515625 27.59375 7.515625 
L 36.8125 7.515625 
L 36.8125 0 
L 27.59375 0 
Q 17.1875 0 13.234375 3.875 
Q 9.28125 7.765625 9.28125 18.015625 
L 9.28125 47.703125 
L 2.6875 47.703125 
L 2.6875 54.6875 
L 9.28125 54.6875 
L 9.28125 70.21875 
z
" id="DejaVuSans-116"/>
      <path d="M 9.421875 54.6875 
L 18.40625 54.6875 
L 18.40625 0 
L 9.421875 0 
z
M 9.421875 75.984375 
L 18.40625 75.984375 
L 18.40625 64.59375 
L 9.421875 64.59375 
z
" id="DejaVuSans-105"/>
      <path d="M 54.890625 33.015625 
L 54.890625 0 
L 45.90625 0 
L 45.90625 32.71875 
Q 45.90625 40.484375 42.875 44.328125 
Q 39.84375 48.1875 33.796875 48.1875 
Q 26.515625 48.1875 22.3125 43.546875 
Q 18.109375 38.921875 18.109375 30.90625 
L 18.109375 0 
L 9.078125 0 
L 9.078125 54.6875 
L 18.109375 54.6875 
L 18.109375 46.1875 
Q 21.34375 51.125 25.703125 53.5625 
Q 30.078125 56 35.796875 56 
Q 45.21875 56 50.046875 50.171875 
Q 54.890625 44.34375 54.890625 33.015625 
z
" id="DejaVuSans-110"/>
      <path d="M 45.40625 27.984375 
Q 45.40625 37.75 41.375 43.109375 
Q 37.359375 48.484375 30.078125 48.484375 
Q 22.859375 48.484375 18.828125 43.109375 
Q 14.796875 37.75 14.796875 27.984375 
Q 14.796875 18.265625 18.828125 12.890625 
Q 22.859375 7.515625 30.078125 7.515625 
Q 37.359375 7.515625 41.375 12.890625 
Q 45.40625 18.265625 45.40625 27.984375 
z
M 54.390625 6.78125 
Q 54.390625 -7.171875 48.1875 -13.984375 
Q 42 -20.796875 29.203125 -20.796875 
Q 24.46875 -20.796875 20.265625 -20.09375 
Q 16.0625 -19.390625 12.109375 -17.921875 
L 12.109375 -9.1875 
Q 16.0625 -11.328125 19.921875 -12.34375 
Q 23.78125 -13.375 27.78125 -13.375 
Q 36.625 -13.375 41.015625 -8.765625 
Q 45.40625 -4.15625 45.40625 5.171875 
L 45.40625 9.625 
Q 42.625 4.78125 38.28125 2.390625 
Q 33.9375 0 27.875 0 
Q 17.828125 0 11.671875 7.65625 
Q 5.515625 15.328125 5.515625 27.984375 
Q 5.515625 40.671875 11.671875 48.328125 
Q 17.828125 56 27.875 56 
Q 33.9375 56 38.28125 53.609375 
Q 42.625 51.21875 45.40625 46.390625 
L 45.40625 54.6875 
L 54.390625 54.6875 
z
" id="DejaVuSans-103"/>
      <path id="DejaVuSans-32"/>
      <path d="M 54.890625 33.015625 
L 54.890625 0 
L 45.90625 0 
L 45.90625 32.71875 
Q 45.90625 40.484375 42.875 44.328125 
Q 39.84375 48.1875 33.796875 48.1875 
Q 26.515625 48.1875 22.3125 43.546875 
Q 18.109375 38.921875 18.109375 30.90625 
L 18.109375 0 
L 9.078125 0 
L 9.078125 75.984375 
L 18.109375 75.984375 
L 18.109375 46.1875 
Q 21.34375 51.125 25.703125 53.5625 
Q 30.078125 56 35.796875 56 
Q 45.21875 56 50.046875 50.171875 
Q 54.890625 44.34375 54.890625 33.015625 
z
" id="DejaVuSans-104"/>
      <path d="M 56.203125 29.59375 
L 56.203125 25.203125 
L 14.890625 25.203125 
Q 15.484375 15.921875 20.484375 11.0625 
Q 25.484375 6.203125 34.421875 6.203125 
Q 39.59375 6.203125 44.453125 7.46875 
Q 49.3125 8.734375 54.109375 11.28125 
L 54.109375 2.78125 
Q 49.265625 0.734375 44.1875 -0.34375 
Q 39.109375 -1.421875 33.890625 -1.421875 
Q 20.796875 -1.421875 13.15625 6.1875 
Q 5.515625 13.8125 5.515625 26.8125 
Q 5.515625 40.234375 12.765625 48.109375 
Q 20.015625 56 32.328125 56 
Q 43.359375 56 49.78125 48.890625 
Q 56.203125 41.796875 56.203125 29.59375 
z
M 47.21875 32.234375 
Q 47.125 39.59375 43.09375 43.984375 
Q 39.0625 48.390625 32.421875 48.390625 
Q 24.90625 48.390625 20.390625 44.140625 
Q 15.875 39.890625 15.1875 32.171875 
z
" id="DejaVuSans-101"/>
      <path d="M 18.109375 8.203125 
L 18.109375 -20.796875 
L 9.078125 -20.796875 
L 9.078125 54.6875 
L 18.109375 54.6875 
L 18.109375 46.390625 
Q 20.953125 51.265625 25.265625 53.625 
Q 29.59375 56 35.59375 56 
Q 45.5625 56 51.78125 48.09375 
Q 58.015625 40.1875 58.015625 27.296875 
Q 58.015625 14.40625 51.78125 6.484375 
Q 45.5625 -1.421875 35.59375 -1.421875 
Q 29.59375 -1.421875 25.265625 0.953125 
Q 20.953125 3.328125 18.109375 8.203125 
z
M 48.6875 27.296875 
Q 48.6875 37.203125 44.609375 42.84375 
Q 40.53125 48.484375 33.40625 48.484375 
Q 26.265625 48.484375 22.1875 42.84375 
Q 18.109375 37.203125 18.109375 27.296875 
Q 18.109375 17.390625 22.1875 11.75 
Q 26.265625 6.109375 33.40625 6.109375 
Q 40.53125 6.109375 44.609375 11.75 
Q 48.6875 17.390625 48.6875 27.296875 
z
" id="DejaVuSans-112"/>
      <path d="M 37.109375 75.984375 
L 37.109375 68.5 
L 28.515625 68.5 
Q 23.6875 68.5 21.796875 66.546875 
Q 19.921875 64.59375 19.921875 59.515625 
L 19.921875 54.6875 
L 34.71875 54.6875 
L 34.71875 47.703125 
L 19.921875 47.703125 
L 19.921875 0 
L 10.890625 0 
L 10.890625 47.703125 
L 2.296875 47.703125 
L 2.296875 54.6875 
L 10.890625 54.6875 
L 10.890625 58.5 
Q 10.890625 67.625 15.140625 71.796875 
Q 19.390625 75.984375 28.609375 75.984375 
z
" id="DejaVuSans-102"/>
      <path d="M 52 44.1875 
Q 55.375 50.25 60.0625 53.125 
Q 64.75 56 71.09375 56 
Q 79.640625 56 84.28125 50.015625 
Q 88.921875 44.046875 88.921875 33.015625 
L 88.921875 0 
L 79.890625 0 
L 79.890625 32.71875 
Q 79.890625 40.578125 77.09375 44.375 
Q 74.3125 48.1875 68.609375 48.1875 
Q 61.625 48.1875 57.5625 43.546875 
Q 53.515625 38.921875 53.515625 30.90625 
L 53.515625 0 
L 44.484375 0 
L 44.484375 32.71875 
Q 44.484375 40.625 41.703125 44.40625 
Q 38.921875 48.1875 33.109375 48.1875 
Q 26.21875 48.1875 22.15625 43.53125 
Q 18.109375 38.875 18.109375 30.90625 
L 18.109375 0 
L 9.078125 0 
L 9.078125 54.6875 
L 18.109375 54.6875 
L 18.109375 46.1875 
Q 21.1875 51.21875 25.484375 53.609375 
Q 29.78125 56 35.6875 56 
Q 41.65625 56 45.828125 52.96875 
Q 50 49.953125 52 44.1875 
z
" id="DejaVuSans-109"/>
      <path d="M 48.6875 27.296875 
Q 48.6875 37.203125 44.609375 42.84375 
Q 40.53125 48.484375 33.40625 48.484375 
Q 26.265625 48.484375 22.1875 42.84375 
Q 18.109375 37.203125 18.109375 27.296875 
Q 18.109375 17.390625 22.1875 11.75 
Q 26.265625 6.109375 33.40625 6.109375 
Q 40.53125 6.109375 44.609375 11.75 
Q 48.6875 17.390625 48.6875 27.296875 
z
M 18.109375 46.390625 
Q 20.953125 51.265625 25.265625 53.625 
Q 29.59375 56 35.59375 56 
Q 45.5625 56 51.78125 48.09375 
Q 58.015625 40.1875 58.015625 27.296875 
Q 58.015625 14.40625 51.78125 6.484375 
Q 45.5625 -1.421875 35.59375 -1.421875 
Q 29.59375 -1.421875 25.265625 0.953125 
Q 20.953125 3.328125 18.109375 8.203125 
L 18.109375 0 
L 9.078125 0 
L 9.078125 75.984375 
L 18.109375 75.984375 
z
" id="DejaVuSans-98"/>
      <path d="M 9.8125 72.90625 
L 23.09375 72.90625 
L 55.421875 11.921875 
L 55.421875 72.90625 
L 64.984375 72.90625 
L 64.984375 0 
L 51.703125 0 
L 19.390625 60.984375 
L 19.390625 0 
L 9.8125 0 
z
" id="DejaVuSans-78"/>
      <path d="M 8.5 21.578125 
L 8.5 54.6875 
L 17.484375 54.6875 
L 17.484375 21.921875 
Q 17.484375 14.15625 20.5 10.265625 
Q 23.53125 6.390625 29.59375 6.390625 
Q 36.859375 6.390625 41.078125 11.03125 
Q 45.3125 15.671875 45.3125 23.6875 
L 45.3125 54.6875 
L 54.296875 54.6875 
L 54.296875 0 
L 45.3125 0 
L 45.3125 8.40625 
Q 42.046875 3.421875 37.71875 1 
Q 33.40625 -1.421875 27.6875 -1.421875 
Q 18.265625 -1.421875 13.375 4.4375 
Q 8.5 10.296875 8.5 21.578125 
z
M 31.109375 56 
z
" id="DejaVuSans-117"/>
     </defs>
     <use xlink:href="#DejaVuSans-80"/>
     <use x="60.302734" xlink:href="#DejaVuSans-108"/>
     <use x="88.085938" xlink:href="#DejaVuSans-111"/>
     <use x="149.267578" xlink:href="#DejaVuSans-116"/>
     <use x="188.476562" xlink:href="#DejaVuSans-116"/>
     <use x="227.685547" xlink:href="#DejaVuSans-105"/>
     <use x="255.46875" xlink:href="#DejaVuSans-110"/>
     <use x="318.847656" xlink:href="#DejaVuSans-103"/>
     <use x="382.324219" xlink:href="#DejaVuSans-32"/>
     <use x="414.111328" xlink:href="#DejaVuSans-116"/>
     <use x="453.320312" xlink:href="#DejaVuSans-104"/>
     <use x="516.699219" xlink:href="#DejaVuSans-101"/>
     <use x="578.222656" xlink:href="#DejaVuSans-32"/>
     <use x="610.009766" xlink:href="#DejaVuSans-112"/>
     <use x="673.486328" xlink:href="#DejaVuSans-114"/>
     <use x="712.349609" xlink:href="#DejaVuSans-101"/>
     <use x="773.873047" xlink:href="#DejaVuSans-100"/>
     <use x="837.349609" xlink:href="#DejaVuSans-105"/>
     <use x="865.132812" xlink:href="#DejaVuSans-99"/>
     <use x="920.113281" xlink:href="#DejaVuSans-116"/>
     <use x="959.322266" xlink:href="#DejaVuSans-105"/>
     <use x="987.105469" xlink:href="#DejaVuSans-111"/>
     <use x="1048.287109" xlink:href="#DejaVuSans-110"/>
     <use x="1111.666016" xlink:href="#DejaVuSans-115"/>
     <use x="1163.765625" xlink:href="#DejaVuSans-32"/>
     <use x="1195.552734" xlink:href="#DejaVuSans-102"/>
     <use x="1230.757812" xlink:href="#DejaVuSans-114"/>
     <use x="1269.621094" xlink:href="#DejaVuSans-111"/>
     <use x="1330.802734" xlink:href="#DejaVuSans-109"/>
     <use x="1428.214844" xlink:href="#DejaVuSans-32"/>
     <use x="1460.001953" xlink:href="#DejaVuSans-116"/>
     <use x="1499.210938" xlink:href="#DejaVuSans-104"/>
     <use x="1562.589844" xlink:href="#DejaVuSans-101"/>
     <use x="1624.113281" xlink:href="#DejaVuSans-32"/>
     <use x="1655.900391" xlink:href="#DejaVuSans-98"/>
     <use x="1719.376953" xlink:href="#DejaVuSans-101"/>
     <use x="1780.900391" xlink:href="#DejaVuSans-115"/>
     <use x="1833" xlink:href="#DejaVuSans-116"/>
     <use x="1872.208984" xlink:href="#DejaVuSans-32"/>
     <use x="1903.996094" xlink:href="#DejaVuSans-78"/>
     <use x="1978.800781" xlink:href="#DejaVuSans-78"/>
     <use x="2053.605469" xlink:href="#DejaVuSans-32"/>
     <use x="2085.392578" xlink:href="#DejaVuSans-115"/>
     <use x="2137.492188" xlink:href="#DejaVuSans-116"/>
     <use x="2176.701172" xlink:href="#DejaVuSans-114"/>
     <use x="2217.814453" xlink:href="#DejaVuSans-117"/>
     <use x="2281.193359" xlink:href="#DejaVuSans-99"/>
     <use x="2336.173828" xlink:href="#DejaVuSans-116"/>
     <use x="2375.382812" xlink:href="#DejaVuSans-117"/>
     <use x="2438.761719" xlink:href="#DejaVuSans-114"/>
     <use x="2477.625" xlink:href="#DejaVuSans-101"/>
    </g>
   </g>
   <g id="legend_1">
    <g id="patch_7">
     <path d="M 854.820312 171.150625 
L 954.5 171.150625 
Q 959.5 171.150625 959.5 166.150625 
L 959.5 95.26 
Q 959.5 90.26 954.5 90.26 
L 854.820312 90.26 
Q 849.820312 90.26 849.820312 95.26 
L 849.820312 166.150625 
Q 849.820312 171.150625 854.820312 171.150625 
z
" style="fill:#ffffff;opacity:0.8;stroke:#cccccc;stroke-linejoin:miter;"/>
    </g>
    <g id="PathCollection_3">
     <g>
      <use style="fill:#0000ff;stroke:#0000ff;stroke-width:1.5;" x="884.820312" xlink:href="#mebff33b203" y="112.693594"/>
     </g>
    </g>
    <g id="text_18">
     <!-- X -->
     <g transform="translate(929.820312 119.256094)scale(0.25 -0.25)">
      <use xlink:href="#DejaVuSans-88"/>
     </g>
    </g>
    <g id="PathCollection_4">
     <g>
      <use style="fill:#ff0000;stroke:#ff0000;" x="884.820312" xlink:href="#m6f31e629b9" y="149.388906"/>
     </g>
    </g>
    <g id="text_19">
     <!-- O -->
     <g transform="translate(929.820312 155.951406)scale(0.25 -0.25)">
      <defs>
       <path d="M 39.40625 66.21875 
Q 28.65625 66.21875 22.328125 58.203125 
Q 16.015625 50.203125 16.015625 36.375 
Q 16.015625 22.609375 22.328125 14.59375 
Q 28.65625 6.59375 39.40625 6.59375 
Q 50.140625 6.59375 56.421875 14.59375 
Q 62.703125 22.609375 62.703125 36.375 
Q 62.703125 50.203125 56.421875 58.203125 
Q 50.140625 66.21875 39.40625 66.21875 
z
M 39.40625 74.21875 
Q 54.734375 74.21875 63.90625 63.9375 
Q 73.09375 53.65625 73.09375 36.375 
Q 73.09375 19.140625 63.90625 8.859375 
Q 54.734375 -1.421875 39.40625 -1.421875 
Q 24.03125 -1.421875 14.8125 8.828125 
Q 5.609375 19.09375 5.609375 36.375 
Q 5.609375 53.65625 14.8125 63.9375 
Q 24.03125 74.21875 39.40625 74.21875 
z
" id="DejaVuSans-79"/>
      </defs>
      <use xlink:href="#DejaVuSans-79"/>
     </g>
    </g>
   </g>
  </g>
 </g>
 <defs>
  <clipPath id="pb26e49217d">
   <rect height="489.24" width="837" x="135" y="77.76"/>
  </clipPath>
 </defs>
</svg>
